<?xml version="1.0" encoding="UTF-8"?>
<svg id="Capa_1" xmlns="http://www.w3.org/2000/svg" version="1.1" viewBox="0 0 296 258">
  <!-- Generator: Adobe Illustrator 29.5.1, SVG Export Plug-In . SVG Version: 2.1.0 Build 141)  -->
  <g>
    <path d="M10.4,32c-2,0-3.7-.6-5.2-1.8-1.5-1.3-2.3-3-2.3-4.9s1-4.7,3-6.4c1.9-1.7,4.2-2.5,6.7-2.5s2.5.3,3.4,1c1,.8,1.5,1.8,1.5,3.1s-.7,2.8-2,3.8c-1.2.9-2.6,1.4-4.2,1.4s-1.4-.2-2-.7c-.5-.5-.8-1.1-.8-1.9s.1-1,.4-1.6h0c0,.2,0,.1,0,0,0-.2.1-.3.2-.3,0,0,.1,0,.1.1,0,.1,0,.4-.2.8-.1.4-.2.7-.2,1,0,.7.3,1.3.8,1.7.5.4,1.1.6,1.8.6,1.4,0,2.7-.5,3.7-1.4,1-1,1.6-2.1,1.6-3.6s-.3-2-1-2.6c-.7-.6-1.6-1-2.7-1-2.6,0-4.7.9-6.4,2.8-1.7,1.8-2.5,3.9-2.5,6.6s.6,3.1,1.8,4c1.1.9,2.5,1.3,4.3,1.3s.6,0,.9,0c.3,0,.5,0,.7-.1,3-.8,5.5-2.3,7.4-4.5,1.6-1.8,3-4.4,4.2-7.7-.2,0-.3,0-.5,0h-.4c-1.8,0-3.2-.5-4.3-1.4-1.3-1-1.9-2.4-1.9-4.1,0-3.1,1.9-5.3,5.8-6.8,2.8-1.1,6-1.6,9.8-1.6s1.8,0,2.5,0c.7,0,1.3.2,1.8.3h0c0,0-.2,0-.2,0-.4,0-.8,0-1.2.2,0,0-.2,0-.3.2-.1,0-.3.2-.5.3-.9.6-1.7,1.3-2.5,2s-1.5,1.6-2.1,2.5c.7.6,1.1,1.3,1.1,2.3s-.5,2.3-1.4,3.3c-.9,1-1.9,1.6-3.1,2-2.1,7.6-6.9,12-14.3,13.3-.5,0-.9.1-1.4.1ZM23.4,18.7h.3c.5-1.5,1.2-3,1.9-4.3.8-1.3,1.6-2.6,2.5-3.7-.3,0-.7-.1-1-.1-.7,0-1.5.2-2.2.6-.8.5-1.2,1.1-1.2,1.8s0,.5.2.6c.1.1.2.3.2.4s0,0-.1,0c-.4-.2-.6-.5-.6-1,0-.9.4-1.6,1.2-2.2.7-.5,1.5-.8,2.4-.8s1,0,1.4.2c2.1-2.5,4.2-4,6.3-4.7h-.7c-.2,0-.5,0-.8,0-.3,0-.6,0-.8,0h-.6c-1.4,0-2.7,0-3.9.3-1.3.2-2.5.5-3.6,1-2.9,1.1-4.8,2.7-5.7,4.8-.4.9-.6,1.8-.6,2.7,0,1.4.6,2.5,1.7,3.4.5.4,1.1.6,1.7.8.6.2,1.3.3,2,.3ZM26.2,18.1c1.1-.5,2-1.1,2.7-1.9.9-.9,1.3-1.9,1.3-3s-.3-1.4-.9-1.9c-1.3,1.9-2.3,4.2-3.1,6.8Z"/>
    <path d="M30.3,30.2c-1.9,0-2.8-.9-2.8-2.8s.5-3.3,1.6-5.6c0-.1.3-.6.8-1.4.5-.8,1.1-2,2-3.6h-2.2c0,0,0-.3,0-.3h0s2.3,0,2.3,0l2.9-5c.2.1.5.2.8.2s.8-.1,1.2-.4c.5-.2.8-.5.9-.8h.1s-3.6,6.1-3.6,6.1h2.8v.3h0c0,0-2.9,0-2.9,0l-2.7,4.8c-1.6,2.9-2.4,5-2.4,6.6s.4,1.6,1.3,1.6c1.3,0,2.7-.7,4-2.2.4-.4.8-1,1.3-1.8.5-.8.9-1.6,1.3-2.3,0-.1.1-.2.2-.1s.1.1,0,.3c-.4.8-.8,1.6-1.3,2.3-.4.7-.9,1.4-1.5,2-1.4,1.5-2.8,2.3-4.2,2.3Z"/>
    <path d="M38.6,30.5c-1.8,0-2.6-1-2.6-2.9s.4-2.9,1.2-4.5l3-5.9h.1c0,.1.2.2.5.2.5,0,1.2-.3,2-.9h0c0,0-3.4,6.7-3.4,6.7-1.4,2.7-2.1,4.6-2.1,5.7s.1.8.4,1c.3.2.6.3.9.3s.7,0,1.1-.2.7-.3.9-.5c.7-.6,1.3-1.2,1.8-1.9.5-.7.9-1.5,1.3-2.2.4-.7.7-1.4,1-1.9,0-.1.2-.2.2-.1,0,0,0,.1,0,.3-.5,1.1-1.1,2.3-1.8,3.4s-1.5,2.1-2.4,2.8c-.3.2-.7.4-1.1.6-.4.2-.8.2-1.2.2ZM43.3,14.9c-.9,0-1.3-.4-1.3-1.2s.4-1.4,1.2-1.4,1.3.4,1.3,1.2-.4,1.4-1.2,1.4Z"/>
    <path d="M41.4,31.5h0c1-2.2,2.2-5,3.7-8.7.2-.6.5-1.4.9-2.3.3-.9.7-2,1.1-3.2h0c.3.2.5.3.7.3.7,0,1.3-.6,1.9-1.7h0c0,0-.6,1.5-1.8,4.3-.6,1.5-1.1,2.7-1.4,3.5-.3.8-.5,1.3-.6,1.4,3-5.5,5.5-8.2,7.3-8.2s.8.1,1.1.4c.3.3.5.6.5,1,0,1.1-.8,3-2.3,5.5-1.5,2.6-2.3,4.3-2.3,5.2s.1.6.4.8c.3.2.6.3,1,.3s.8,0,1.2-.2.7-.3,1-.5c.7-.6,1.3-1.2,1.8-2s.9-1.5,1.3-2.2c.4-.7.7-1.4,1-1.9,0-.1.2-.2.2-.1,0,0,0,.1,0,.3-.5,1.1-1.1,2.3-1.8,3.4s-1.5,2.1-2.4,2.8c-.3.2-.7.4-1.1.6s-.8.2-1.3.2c-.7,0-1.4-.2-1.8-.6-.5-.4-.7-1-.7-1.8,0-1.4.7-3.2,2-5.4,1.4-2.2,2-3.6,2-4.2s-.3-.7-.8-.7h-.2c-.6,0-1.4.7-2.4,2-1,1.3-2.2,3.3-3.7,5.9-.3.6-.7,1.3-1.1,2s-.7,1.6-1.1,2.5h0c-.3-.1-.6-.2-.8-.2-.3,0-.6.2-.9.6-.2.5-.4.7-.6.8Z"/>
    <path d="M60.5,30.5c-1.3,0-2.2-.4-2.7-1.1s-.8-1.8-.8-3.1c0-1.9.8-3.9,2.4-6,1.7-2.2,3.5-3.3,5.3-3.3s2,.5,2,1.4-.6,2.3-1.9,3.6c-1.8,1.8-3.7,2.7-5.6,2.7-.3.8-.5,1.7-.5,2.5s.2,1.6.5,2.1c.3.5.9.8,1.5.8s1.4-.2,2.2-.6c.7-.4,1.4-.8,1.9-1.4s1-1.1,1.5-1.9c.6-.8,1.2-1.8,1.7-2.9,0-.1.2-.2.2-.2.2,0,.2.1,0,.4-.5.9-.9,1.8-1.5,2.6-.5.8-1.2,1.6-2.1,2.4-.5.5-1.1,1-1.9,1.3-.8.4-1.6.6-2.5.6ZM59.3,24.5c1.5,0,3.1-.8,4.9-2.4h0c.5-.5,1-1.1,1.4-1.8.5-.8.8-1.5.8-2.1s-.3-.6-1-.6c-1,0-2.2.9-3.7,2.7-.7.8-1.2,1.5-1.6,2.2-.4.7-.7,1.3-.9,2Z"/>
    <path d="M72,30.3c-1.6,0-2.4-.7-2.4-2.1s.4-2.4,1.3-3.8c.3-.5,1.1-1.6,2.4-3.4.9-1.2,1.3-2,1.3-2.5s-.4-.7-1.1-.7-1.1,0-1.7,0-1.1,0-1.5,0c0,.4-.2.9-.4,1.5-.2.6-.3,1.1-.6,1.8-.1.4-.3.9-.6,1.5-.3.6-.6,1.3-1.1,2,0,.1-.1.2-.2.2s0,0,0,0c0-.1,0-.3.2-.5.2-.4.5-.8.7-1.4.3-.5.5-1.2.8-1.8.2-.6.4-1.2.6-1.9.2-.7.3-1.1.3-1.3-.6-.4-1-1-1-1.8s.3-1.4,1-1.4.7.4.7,1.2,0,.4,0,.7c0,.3-.1.6-.2,1,.4,0,1,0,1.8,0s1.6,0,2.3,0c1.4,0,2,.4,2,1.2s-1.1,2.7-3.2,5.4c-.5.7-1,1.4-1.5,2.3-.5.8-.8,1.7-.8,2.6s0,.5.2.7c.1.2.3.3.7.3,1.1,0,2.4-.7,3.8-2.1s1.3-1.4,1.9-2.2c.6-.8,1.1-1.7,1.6-2.7.1-.2.2-.3.3-.3s0,0,0,.1c0,.1,0,.3-.1.4-.5.9-1,1.8-1.6,2.7-.6.9-1.3,1.7-2.1,2.5-1.3,1.3-2.6,2-3.8,2Z"/>
    <path d="M88.2,30.2c-1.4,0-2.1-1-2.1-2.9s.1-1.6.4-2.6c-1.9,3.6-3.7,5.4-5.6,5.4s-1.5-.4-2-1.3c-.4-.7-.6-1.5-.6-2.5s.1-1.7.4-2.6c.5-1.6,1.4-3.1,2.9-4.4,1.6-1.5,3.2-2.2,4.6-2.2s2,.8,2,2.4-.1,1.5-.4,2.4l2.4-4.8h.1c0,.1.3.2.5.2.5,0,1.2-.3,2-1h0c0,0-3.4,6.7-3.4,6.7-1.4,2.6-2,4.6-2,6s.2.8.7.8.7-.1,1.2-.4.9-.6,1.4-1.2c.6-.7,1.2-1.5,1.7-2.1.5-.7,1-1.6,1.6-2.8,0-.1.2-.2.2-.2.2,0,.2.1,0,.4-.5.9-1,1.8-1.5,2.7-.5.9-1.2,1.7-2,2.5s-1.9,1.4-2.7,1.4ZM81.1,29.9c1.5,0,3.4-2.1,5.8-6.3.7-1.3,1.1-2.7,1.1-4s-.5-2.2-1.4-2.2-2.2.8-3.4,2.5c-.5.7-.9,1.4-1.3,2-.4.7-.6,1.3-.9,1.9-.6,1.6-.8,3-.8,4.3s.3,1.7,1,1.7Z"/>
    <path d="M98,30.3c-1.6,0-2.4-.7-2.4-2.1s.4-2.4,1.3-3.8c.3-.5,1.1-1.6,2.4-3.4.9-1.2,1.3-2,1.3-2.5s-.4-.7-1.1-.7-1.1,0-1.7,0-1.1,0-1.5,0c0,.4-.2.9-.4,1.5-.2.6-.3,1.1-.6,1.8-.1.4-.3.9-.6,1.5-.3.6-.6,1.3-1.1,2,0,.1-.1.2-.2.2s0,0,0,0c0-.1,0-.3.2-.5.2-.4.5-.8.7-1.4.3-.5.5-1.2.8-1.8.2-.6.4-1.2.6-1.9.2-.7.3-1.1.3-1.3-.6-.4-1-1-1-1.8s.3-1.4,1-1.4.7.4.7,1.2,0,.4,0,.7c0,.3-.1.6-.2,1,.4,0,1,0,1.8,0s1.6,0,2.3,0c1.4,0,2,.4,2,1.2s-1.1,2.7-3.2,5.4c-.5.7-1,1.4-1.5,2.3-.5.8-.8,1.7-.8,2.6s0,.5.2.7c.1.2.3.3.7.3,1.1,0,2.4-.7,3.8-2.1s1.3-1.4,1.9-2.2c.6-.8,1.1-1.7,1.6-2.7.1-.2.2-.3.3-.3s0,0,0,.1c0,.1,0,.3-.1.4-.5.9-1,1.8-1.6,2.7-.6.9-1.3,1.7-2.1,2.5-1.3,1.3-2.6,2-3.8,2Z"/>
    <path d="M106.5,30.5c-1.8,0-2.6-1-2.6-2.9s.4-2.9,1.2-4.5l3-5.9h.1c0,.1.2.2.5.2.5,0,1.2-.3,2-.9h0c0,0-3.4,6.7-3.4,6.7-1.4,2.7-2.1,4.6-2.1,5.7s.1.8.4,1c.3.2.6.3.9.3s.7,0,1.1-.2.7-.3.9-.5c.7-.6,1.3-1.2,1.8-1.9.5-.7.9-1.5,1.3-2.2.4-.7.7-1.4,1-1.9,0-.1.2-.2.2-.1,0,0,0,.1,0,.3-.5,1.1-1.1,2.3-1.8,3.4s-1.5,2.1-2.4,2.8c-.3.2-.7.4-1.1.6-.4.2-.8.2-1.2.2ZM111.3,14.9c-.9,0-1.3-.4-1.3-1.2s.4-1.4,1.2-1.4,1.3.4,1.3,1.2-.4,1.4-1.2,1.4Z"/>
    <path d="M115.9,30.5c-1.2,0-2.1-.5-2.7-1.5-.6-.9-.8-1.9-.8-3.1,0-2.1.7-4.1,2-5.9,1.5-2,3.2-3,5.3-3s1.8.4,2.4,1.1c.5.7.8,1.6.8,2.6s0,1-.1,1.5c0,.5-.2,1-.4,1.6-.4,1.2-.9,2.1-1.5,2.8h0c.3.3.6.4,1,.4.8,0,1.4-.3,2-.8.5-.5,1.1-1.4,1.8-2.7,0-.1,0-.2.2-.2s0,0,.1,0c0,0,0,.2,0,.3-.6,1.2-1.2,2.1-1.8,2.7-.6.6-1.4.9-2.2.9s-.9-.1-1.2-.4c-.3.5-.6.9-.9,1.3-.3.4-.7.8-1.1,1.1-.9.8-1.8,1.2-2.8,1.2ZM116.2,30.1c1.4,0,2.8-1.1,4.2-3.2,0,0,0-.2.1-.2-.5-.8-.7-1.6-.7-2.3v-.2c0,0,0-.2,0-.4,0-.3,0-.6.2-.9s.2-.6.4-.9c.4-.6.9-1,1.4-1h.4c.1,0,.2,0,.2,0h.1c0-2.4-.8-3.6-2.3-3.6s-2.5.8-3.6,2.3c-.9,1.2-1.6,2.6-2,4.1-.2.8-.4,1.7-.4,2.6,0,2.4.7,3.6,2,3.6Z"/>
    <path d="M133.7,30.3c-1,0-1.6-.4-2-1.2s-.6-1.7-.6-2.6.1-1.8.4-2.6c.4-1,.9-2,1.6-3,.7-1,1.6-1.9,2.6-2.6,1-.7,2.1-1.1,3.3-1.1s2,.8,2,2.3-.2,1.6-.5,2.5l6.5-12.8h0c.1.1.3.2.6.2.6,0,1.2-.3,2-.9h0c0,0-6,11.5-6,11.5-2.3,4.4-3.5,7.4-3.5,8.8s.3,1.1.9,1.1.7-.1,1.2-.4c.5-.2.9-.6,1.4-1.2.6-.7,1.2-1.5,1.7-2.1.5-.7,1-1.6,1.6-2.8,0-.1.2-.2.2-.2.2,0,.2.1,0,.4-.5.9-1,1.8-1.5,2.7-.5.9-1.2,1.7-2,2.5-1,1-1.9,1.4-2.7,1.4s-1.2-.2-1.7-.6c-.4-.4-.7-1-.7-1.9s.1-1.8.4-2.8c-1.9,3.6-3.7,5.4-5.6,5.4ZM134,29.9c.7,0,1.6-.5,2.6-1.6,1-1.1,2-2.6,3.1-4.6.1-.2.2-.6.4-1,.2-.5.3-1,.5-1.6s.2-1.1.2-1.6-.1-1-.3-1.3-.6-.5-1.1-.5-1,.2-1.6.5c-.6.4-1.2,1-1.8,1.8-1,1.4-1.7,2.7-2.2,4,0,.2-.1.5-.3.9-.1.5-.3,1-.4,1.6-.1.6-.2,1.1-.2,1.7s0,.9.2,1.3.4.5.8.5Z"/>
    <path d="M149.8,30.5c-1.3,0-2.2-.4-2.7-1.1s-.8-1.8-.8-3.1c0-1.9.8-3.9,2.4-6,1.7-2.2,3.5-3.3,5.3-3.3s2,.5,2,1.4-.6,2.3-1.9,3.6c-1.8,1.8-3.7,2.7-5.6,2.7-.3.8-.5,1.7-.5,2.5s.2,1.6.5,2.1c.3.5.9.8,1.5.8s1.4-.2,2.2-.6c.7-.4,1.4-.8,1.9-1.4s1-1.1,1.5-1.9c.6-.8,1.2-1.8,1.7-2.9,0-.1.2-.2.2-.2.2,0,.2.1,0,.4-.5.9-.9,1.8-1.5,2.6-.5.8-1.2,1.6-2.1,2.4-.5.5-1.1,1-1.9,1.3-.8.4-1.6.6-2.5.6ZM148.6,24.5c1.5,0,3.1-.8,4.9-2.4h0c.5-.5,1-1.1,1.4-1.8.5-.8.8-1.5.8-2.1s-.3-.6-1-.6c-1,0-2.2.9-3.7,2.7-.7.8-1.2,1.5-1.6,2.2-.4.7-.7,1.3-.9,2Z"/>
    <path d="M172.9,30.2c-1.4,0-2.1-1-2.1-2.9s.1-1.6.4-2.6c-1.9,3.6-3.7,5.4-5.6,5.4s-1.5-.4-2-1.3c-.4-.7-.6-1.5-.6-2.5s.1-1.7.4-2.6c.5-1.6,1.4-3.1,2.9-4.4,1.6-1.5,3.2-2.2,4.6-2.2s2,.8,2,2.4-.1,1.5-.4,2.4l2.4-4.8h.1c0,.1.3.2.5.2.5,0,1.2-.3,2-1h0c0,0-3.4,6.7-3.4,6.7-1.4,2.6-2,4.6-2,6s.2.8.7.8.7-.1,1.2-.4.9-.6,1.4-1.2c.6-.7,1.2-1.5,1.7-2.1.5-.7,1-1.6,1.6-2.8,0-.1.2-.2.2-.2.2,0,.2.1,0,.4-.5.9-1,1.8-1.5,2.7-.5.9-1.2,1.7-2,2.5s-1.9,1.4-2.7,1.4ZM165.8,29.9c1.5,0,3.4-2.1,5.8-6.3.7-1.3,1.1-2.7,1.1-4s-.5-2.2-1.4-2.2-2.2.8-3.4,2.5c-.5.7-.9,1.4-1.3,2-.4.7-.6,1.3-.9,1.9-.6,1.6-.8,3-.8,4.3s.3,1.7,1,1.7Z"/>
    <path d="M181.5,30.5c-1,0-1.9-.3-2.6-.9-.7-.6-1-1.5-1-2.8s.2-2.1.6-3.2,1-2.2,1.8-3.3c1.7-2.3,3.5-3.4,5.4-3.4s2.6.8,2.6,2.4-.2,1.2-.6,1.9c-.5.8-.9,1.2-1.5,1.2s-.6-.2-.6-.5.4-.8,1.1-1.3c.7-.5,1.1-1.1,1.1-1.8s-.5-1.4-1.4-1.4-2.1.7-3.3,2.2c-.9,1.1-1.6,2.2-2.2,3.4-.3.5-.5,1.2-.8,2.1-.3.9-.4,1.7-.4,2.5s.1,1.2.4,1.7c.3.5.8.7,1.6.7s1.4-.2,2.2-.6c.7-.4,1.4-.8,1.9-1.4s1-1.1,1.5-1.9c.6-.8,1.2-1.8,1.7-2.9,0-.1.2-.2.2-.2.2,0,.2.1,0,.4-.5.9-.9,1.8-1.5,2.6-.5.8-1.2,1.6-2.1,2.4-.5.5-1.1,1-1.9,1.3-.8.4-1.6.6-2.5.6Z"/>
    <path d="M190.8,30.2c-1.9,0-2.8-.9-2.8-2.8s.5-3.3,1.6-5.6c0-.1.3-.6.8-1.4.5-.8,1.1-2,2-3.6h-2.2c0,0,0-.3,0-.3h0s2.3,0,2.3,0l2.9-5c.2.1.5.2.8.2s.8-.1,1.2-.4c.5-.2.8-.5.9-.8h.1s-3.6,6.1-3.6,6.1h2.8v.3h0c0,0-2.9,0-2.9,0l-2.7,4.8c-1.6,2.9-2.4,5-2.4,6.6s.4,1.6,1.3,1.6c1.3,0,2.7-.7,4-2.2.4-.4.8-1,1.3-1.8.5-.8.9-1.6,1.3-2.3,0-.1.1-.2.2-.1s.1.1,0,.3c-.4.8-.8,1.6-1.3,2.3-.4.7-.9,1.4-1.5,2-1.4,1.5-2.8,2.3-4.2,2.3Z"/>
    <path d="M199.1,30.5c-1.8,0-2.6-1-2.6-2.9s.4-2.9,1.2-4.5l3-5.9h.1c0,.1.2.2.5.2.5,0,1.2-.3,2-.9h0c0,0-3.4,6.7-3.4,6.7-1.4,2.7-2.1,4.6-2.1,5.7s.1.8.4,1c.3.2.6.3.9.3s.7,0,1.1-.2.7-.3.9-.5c.7-.6,1.3-1.2,1.8-1.9.5-.7.9-1.5,1.3-2.2.4-.7.7-1.4,1-1.9,0-.1.2-.2.2-.1,0,0,0,.1,0,.3-.5,1.1-1.1,2.3-1.8,3.4s-1.5,2.1-2.4,2.8c-.3.2-.7.4-1.1.6-.4.2-.8.2-1.2.2ZM203.8,14.9c-.9,0-1.3-.4-1.3-1.2s.4-1.4,1.2-1.4,1.3.4,1.3,1.2-.4,1.4-1.2,1.4Z"/>
    <path d="M206.9,30.3c-1.7,0-2.5-1-2.5-3.1s.2-1.8.6-3c.2-.6.6-1.4,1.2-2.6s1.3-2.6,2.3-4.4h0c.2.1.4.2.7.2.6,0,1.3-.3,2-.8h0c-.7.8-2,2.9-3.8,6.3-1.1,2.1-1.6,3.9-1.6,5.6s.3,1.5,1,1.5c1.6,0,3.5-1.7,5.6-5.2-.3-.5-.4-1.3-.4-2.4s0-.6,0-1c0-.3,0-.7.1-1,0-.6.3-1.3.6-2,.4-.9.8-1.4,1.2-1.4s.8.4.8,1.3c0,1.5-.7,3.6-2.1,6.3,0,.3.2.7.5,1.1s.7.6,1.1.6c1.1,0,2.2-.9,3.1-2.8,0-.2.2-.2.3-.2s0,.1,0,.3c-.5,1-1,1.7-1.5,2.2s-1.1.8-1.8.8-.7-.1-1.1-.4c-.3-.3-.6-.6-.8-1.1-.6,1.3-1.4,2.4-2.2,3.3-1.2,1.3-2.3,1.9-3.4,1.9Z"/>
    <path d="M219,30.5c-1.8,0-2.6-1-2.6-2.9s.4-2.9,1.2-4.5l3-5.9h.1c0,.1.2.2.5.2.5,0,1.2-.3,2-.9h0c0,0-3.4,6.7-3.4,6.7-1.4,2.7-2.1,4.6-2.1,5.7s.1.8.4,1c.3.2.6.3.9.3s.7,0,1.1-.2.7-.3.9-.5c.7-.6,1.3-1.2,1.8-1.9.5-.7.9-1.5,1.3-2.2.4-.7.7-1.4,1-1.9,0-.1.2-.2.2-.1,0,0,0,.1,0,.3-.5,1.1-1.1,2.3-1.8,3.4s-1.5,2.1-2.4,2.8c-.3.2-.7.4-1.1.6-.4.2-.8.2-1.2.2ZM223.7,14.9c-.9,0-1.3-.4-1.3-1.2s.4-1.4,1.2-1.4,1.3.4,1.3,1.2-.4,1.4-1.2,1.4Z"/>
    <path d="M227,30.3c-1,0-1.6-.4-2-1.2s-.6-1.7-.6-2.6.1-1.8.4-2.6c.4-1,.9-2,1.6-3,.7-1,1.6-1.9,2.6-2.6,1-.7,2.1-1.1,3.3-1.1s2,.8,2,2.3-.2,1.6-.5,2.5l6.5-12.8h0c.1.1.3.2.6.2.6,0,1.2-.3,2-.9h0c0,0-6,11.5-6,11.5-2.3,4.4-3.5,7.4-3.5,8.8s.3,1.1.9,1.1.7-.1,1.2-.4c.5-.2.9-.6,1.4-1.2.6-.7,1.2-1.5,1.7-2.1.5-.7,1-1.6,1.6-2.8,0-.1.2-.2.2-.2.2,0,.2.1,0,.4-.5.9-1,1.8-1.5,2.7-.5.9-1.2,1.7-2,2.5-1,1-1.9,1.4-2.7,1.4s-1.2-.2-1.7-.6c-.4-.4-.7-1-.7-1.9s.1-1.8.4-2.8c-1.9,3.6-3.7,5.4-5.6,5.4ZM227.3,29.9c.7,0,1.6-.5,2.6-1.6,1-1.1,2-2.6,3.1-4.6.1-.2.2-.6.4-1,.2-.5.3-1,.5-1.6s.2-1.1.2-1.6-.1-1-.3-1.3-.6-.5-1.1-.5-1,.2-1.6.5c-.6.4-1.2,1-1.8,1.8-1,1.4-1.7,2.7-2.2,4,0,.2-.1.5-.3.9-.1.5-.3,1-.4,1.6-.1.6-.2,1.1-.2,1.7s0,.9.2,1.3.4.5.8.5Z"/>
    <path d="M249.6,30.2c-1.4,0-2.1-1-2.1-2.9s.1-1.6.4-2.6c-1.9,3.6-3.7,5.4-5.6,5.4s-1.5-.4-2-1.3c-.4-.7-.6-1.5-.6-2.5s.1-1.7.4-2.6c.5-1.6,1.4-3.1,2.9-4.4,1.6-1.5,3.2-2.2,4.6-2.2s2,.8,2,2.4-.1,1.5-.4,2.4l2.4-4.8h.1c0,.1.3.2.5.2.5,0,1.2-.3,2-1h0c0,0-3.4,6.7-3.4,6.7-1.4,2.6-2,4.6-2,6s.2.8.7.8.7-.1,1.2-.4.9-.6,1.4-1.2c.6-.7,1.2-1.5,1.7-2.1.5-.7,1-1.6,1.6-2.8,0-.1.2-.2.2-.2.2,0,.2.1,0,.4-.5.9-1,1.8-1.5,2.7-.5.9-1.2,1.7-2,2.5s-1.9,1.4-2.7,1.4ZM242.4,29.9c1.5,0,3.4-2.1,5.8-6.3.7-1.3,1.1-2.7,1.1-4s-.5-2.2-1.4-2.2-2.2.8-3.4,2.5c-.5.7-.9,1.4-1.3,2-.4.7-.6,1.3-.9,1.9-.6,1.6-.8,3-.8,4.3s.3,1.7,1,1.7Z"/>
    <path d="M257.3,30.3c-1,0-1.6-.4-2-1.2s-.6-1.7-.6-2.6.1-1.8.4-2.6c.4-1,.9-2,1.6-3,.7-1,1.6-1.9,2.6-2.6,1-.7,2.1-1.1,3.3-1.1s2,.8,2,2.3-.2,1.6-.5,2.5l6.5-12.8h0c.1.1.3.2.6.2.6,0,1.2-.3,2-.9h0c0,0-6,11.5-6,11.5-2.3,4.4-3.5,7.4-3.5,8.8s.3,1.1.9,1.1.7-.1,1.2-.4c.5-.2.9-.6,1.4-1.2.6-.7,1.2-1.5,1.7-2.1.5-.7,1-1.6,1.6-2.8,0-.1.2-.2.2-.2.2,0,.2.1,0,.4-.5.9-1,1.8-1.5,2.7-.5.9-1.2,1.7-2,2.5-1,1-1.9,1.4-2.7,1.4s-1.2-.2-1.7-.6c-.4-.4-.7-1-.7-1.9s.1-1.8.4-2.8c-1.9,3.6-3.7,5.4-5.6,5.4ZM257.6,29.9c.7,0,1.6-.5,2.6-1.6,1-1.1,2-2.6,3.1-4.6.1-.2.2-.6.4-1,.2-.5.3-1,.5-1.6s.2-1.1.2-1.6-.1-1-.3-1.3-.6-.5-1.1-.5-1,.2-1.6.5c-.6.4-1.2,1-1.8,1.8-1,1.4-1.7,2.7-2.2,4,0,.2-.1.5-.3.9-.1.5-.3,1-.4,1.6-.1.6-.2,1.1-.2,1.7s0,.9.2,1.3.4.5.8.5Z"/>
    <path d="M273.4,30.5c-1.3,0-2.2-.4-2.7-1.1s-.8-1.8-.8-3.1c0-1.9.8-3.9,2.4-6,1.7-2.2,3.5-3.3,5.3-3.3s2,.5,2,1.4-.6,2.3-1.9,3.6c-1.8,1.8-3.7,2.7-5.6,2.7-.3.8-.5,1.7-.5,2.5s.2,1.6.5,2.1c.3.5.9.8,1.5.8s1.4-.2,2.2-.6c.7-.4,1.4-.8,1.9-1.4s1-1.1,1.5-1.9c.6-.8,1.2-1.8,1.7-2.9,0-.1.2-.2.2-.2.2,0,.2.1,0,.4-.5.9-.9,1.8-1.5,2.6-.5.8-1.2,1.6-2.1,2.4-.5.5-1.1,1-1.9,1.3-.8.4-1.6.6-2.5.6ZM272.2,24.5c1.5,0,3.1-.8,4.9-2.4h0c.5-.5,1-1.1,1.4-1.8.5-.8.8-1.5.8-2.1s-.3-.6-1-.6c-1,0-2.2.9-3.7,2.7-.7.8-1.2,1.5-1.6,2.2-.4.7-.7,1.3-.9,2Z"/>
    <path d="M283.4,30.6c-2.7,0-4-1.3-4-3.8s.1-1.5.4-2.3h0c.1-.4.4-.9.8-1.4.5-.6.9-.8,1.2-.8s.3,0,.5,0l.4-.7c.4-.6.7-1.1,1-1.7.3-.6.6-1.1,1-1.7,1-1.7,1.7-2.6,2.2-2.8.2,0,.3,0,.4,0,.4,0,.6.1.6.4s-.3.6-.9.6c-.5,0-.9.1-1,.2-.2.2-.3.5-.3,1s.4,1.5,1.1,2.8c.7,1.3,1.1,2.5,1.1,3.5s0,.5,0,.8c0,.2,0,.5-.1.8-.7,3-2.6,4.5-5.7,4.5.6.1,1.2.2,1.7.2.9,0,1.8-.2,2.7-.5.9-.3,1.7-.8,2.4-1.4.8-.6,1.5-1.4,2.1-2.2.7-.9,1.2-1.8,1.7-2.8,0-.2.2-.2.2-.2.2,0,.2.1,0,.4-.4.8-.9,1.6-1.3,2.3-.5.7-1,1.3-1.5,1.9-.6.6-1.5,1.3-2.6,1.9-1.1.6-2.4,1-4,1ZM281.7,29.7c1.4,0,2.5-1,3.4-3.1.7-1.6,1.1-3.2,1.1-4.8s0-.5,0-.9c0-.4-.2-.8-.3-1.3-.1-.5-.2-.9-.2-1.3s0-.7,0-.9c-.5,1-1,1.9-1.5,2.8-.5.8-1,1.6-1.4,2.2.1.2.2.4.2.6,0,.4-.1.8-.4,1.2-.2.3-.5.5-1,.8-.5.2-.8.5-1,.7-.3.4-.4,1-.4,1.7,0,1.5.6,2.3,1.8,2.3Z"/>
  </g>
  <g>
    <g>
      <g>
        <path d="M94.1,89.9c-.6,0-1.4,0-1.5-.9l1.3-13-.5-.7v-8.4c-.6,0-1.3,0-1.5-.5s0-2.6,0-3.1,0-.3,0-.4c.1-.3,2-1.4,2.4-1.6,6-3.8,12.2-7.8,18.3-11.3s1.1-.8,1.7-.6l21.8,13.6c0,.1,0,.3,0,.4,0,.5,0,2.7,0,3.1-.2.6-.9.5-1.4.5v8.4c0,0-.5.7-.5.7l1.3,13c0,.8-.8.8-1.5.9v2.1h3.2c.2,0,.4.4.5.6,0,.5,0,2.6,0,3.1s-.3.6-.6.7h-45.9c-.2,0-.6-.2-.7-.4s-.1-3,0-3.4.3-.6.5-.6h3.2v-2.1ZM95.3,62.5h8.2c0,0,.3-.8.8-.8h1.7c-.2-.8-.4-2.3-.2-3.1s.4-.5.6-.6c.7-.1,2.7,0,3.4.1s1.5.7,2.3,1.3c1.2-1,2.5-.8,3.8,0,.8-.9,1.9-1.4,3.2-1.5s2.8-.2,3,.6,0,1.8,0,2.3-.4.9.1.9,1.4-.3,1.9.2.2.5.3.5h8.2l-18.7-11.7-18.6,11.7ZM120.6,59.4h-1.5c-.2,0-.9.2-1.1.3s-.6.3-.8.6c1.3.2,2,1.1,2.4,2.2.9-.8,1.2-1.9,1.1-3.1ZM109.5,59.5c-.6-.1-1.5,0-2.2,0-.1,1.2.2,2.2,1.1,3,.4-1.2,1.1-2,2.4-2.2.1-.2-1.1-.8-1.3-.8ZM115.4,67.4c.4-.4.7,0,1.1,0,1.2.2,1.9-.9,1.2-1.9s-.6-.4-.6-1,.5-.6.7-1c.4-.9-.3-1.8-1.3-1.7s-.5.3-1,.1-.3-1.5-1.2-1.7c-2-.4-1.1,1.8-2.3,1.8s-.4-.2-.6-.2c-1-.2-1.8.9-1.2,1.8s.7.4.6,1.1-1.1.8-.8,1.8.8.9,1.5.8.5-.4,1,0,0,1,.8,1.4,1.1.3,1.6-.2.2-1,.5-1.2ZM107,63.2c-.4-.1-1.3,0-1.8,0-.3,2.2,1.2,3.8,3.4,3.7,0-.8,0-1.6.5-2.3,0-.2-1-.6-1.2-.7s-.7-.6-.8-.7ZM122.8,63.2h-1.8c0,0-.6.6-.8.7-.2.1-1.2.5-1.2.7.5.7.6,1.4.5,2.3,2.2.1,3.7-1.5,3.4-3.7ZM103.7,63.9h-10.4v1.5h10.6c-.1-.5-.3-1-.2-1.5ZM134.7,63.9h-10.4c0,.5,0,1-.2,1.5h10.6v-1.5ZM104.1,66.9h-9.3v6.5c.2,0,.2,0,.3-.2.8-.6,1.8-2,2.2-2.9s.3-2.2,1.4-1.9.2,2.1,0,2.7-.8,1.5-1.2,1.9-.6.6-.8.8c0,0,0,0,.2,0,1.4-.3,3.3-1.4,4.4-2.4s2.4-2.9,3-4.7ZM133.2,66.9h-9.3c1,3,3.1,5.3,6,6.5s1,.5,1.5.5c-.7-.7-1.4-1.5-1.9-2.4s-1.4-2.8-.3-3.1.9.7,1.1,1.3c.6,1.5,1.5,2.7,2.8,3.8v-6.6ZM98.5,88.5c-.2.7.2,2.4,0,3.3l.2.2h30.7l.2-.2v-3.3c0,0-.6-.5-.7-.7-.1-.2,0-.5,0-.7-1.1.2-2.1.1-2.9-.6s-.7-1.9-.5-3.1c.5-3.3,1.2-6.5,1.7-9.8-2-1.6-3.8-3.6-4.5-6.2-.7.4-1.5.8-2.3.8s-1.2,0-1.7,0-.6.4-1,.5-.9,0-1.1.1c-.2.1-.3.5-.5.7-1.1,1.3-3,1.3-4.1,0s-.3-.6-.5-.7-.7,0-1,0c-.4,0-.8-.4-1.1-.5-.5,0-1.1,0-1.7,0-.9,0-1.6-.5-2.4-.8-.6,2.5-2.5,4.6-4.5,6.2l2,11.8c-.6,1.5-2.2,2-3.7,1.7.3.7-.7,1.1-.7,1.4ZM99.5,74.4c-.3.2-1,.3-1,.7.2,3.5.4,6.9.5,10.4.8.3,1.7.5,2.3-.3l-1.8-10.8ZM128.9,85.5c.1-3.5.3-6.9.5-10.4,0-.5-.6-.4-1-.7l-1.9,10.6c.4.9,1.5.7,2.3.5ZM97.1,75.4l-1.6.2-.2.2-1.2,12.6c1.2,0,2.7-.3,3.5-1.2l-.6-11.8ZM133.8,88.4l-1.2-12.6-.2-.2-1.6-.2-.6,11.8c.9,1,2.3,1.3,3.5,1.2ZM97,89.4c-.5.2-1,.2-1.5.5v2h1.5v-2.5ZM132.5,92v-2c-.4-.3-1-.3-1.5-.5v2.5h1.5ZM136.1,93.4h-44.3v1.5h44.3v-1.5Z"/>
        <path d="M110.5,75.7c.6,0,1.1,0,1.7.1s1.6.7,1.8.7,1.2-.5,1.7-.7c5.7-1.4,7.5,5.6,3.3,9.3s-3.7,2.4-4.9,2.4-1.8-.5-2.3-.7c-3-1.3-5.5-3.8-5.1-7.4.2-1.9,2-3.5,3.8-3.7ZM110.7,77.2c-2.9.4-3.1,3.6-1.7,5.7s3.5,3,4.9,3.1,3.9-1.6,4.7-2.5c2.8-3,1-7.6-3.1-6s-1,.7-1.5.7-1.3-.7-1.9-.9-.9-.2-1.4-.2Z"/>
        <path d="M113.5,62.5c3.4-.6,3.7,4.2.7,4.4s-3.2-3.9-.7-4.4ZM113.8,64c-.8.2-.5,1.5.3,1.4s.8-1.7-.3-1.4Z"/>
      </g>
      <circle cx="159.7" cy="68.8" r="4.5"/>
    </g>
    <g>
      <rect x="158.5" y="49.6" width="1.3" height="203.2"/>
      <g>
        <path d="M212.2,132.9s-.1,0-.2.1c-.2.2-.3.5-.3.8.7-.1.4.6.5.9s.6.7.7,1c1.1,2.4,0,6.8,0,9.5.9,2.1,1.4,4.3,1.7,6.6l-2,.5c.1,1.3,0,2.5,0,3.8s-.5,2.9-.2,4.2c.6,2.3.4,5,.3,7.4s0,3.3-.3,3.7-.3,0-.4.2c.2,1.3.3,2.9-1.3,3.1s-4.9.2-6.9,0-2.1-.6-3.1-.7c-3.2-.5-6.5,1.3-9.8,0s-2.2-1.4-3.6-1.5c-4.2-.2-8.6,1.8-12.8,1.5s-.8-.1-.7-.2c4.6-.3,7.8-4.1,10.1-7.7s4.2-7.4,6.7-10.8,4.8-5.9,7.3-8.7c.5-1.8-.5-3.5-.8-5.3s-.3-3.3.7-4.8.9-1,.8-1.1c-.5,0-.9.4-1.4.2s-.6-.4-.8-.6-.7-.1-.7-.6c.2-.5.1-1.3.6-1.7s.7-.3.8-.4.2-1,.4-1.3c.6-1.2,1.7-1.4,2.9-1.1s1.4.6,1.8,1.6,0,1.5.7,2c-.4.3-.2.3-.2.5s0,.4,0,.5c0,.1-.2.7-.2.8-.3.4-1.3,0-1.4,0,0,.3-.3.8-.3,1.1,0,.6.6,2.1,1,2.7.6.9,1.6,1.4,1.1,2.6s-.4.6-.5.9c-.3.6-.4,1.3-.5,1.9.2.2,2.8-1.3,3.2-1.5s1.6-1.4,1.7-1.8c.2-.7.3-2,.5-2.9.3-1.4.7-2.6,1.6-3.7s.5-.4.4-.6c-.3.2-1,.2-1.2,0s0-.4,0-.6-.1-.4-.2-.6c0-.4,0-.6-.4-.9,0,0,.6-.6.6-.9s-.2-.4-.1-.7.3-.8.5-1.2c-.6-.5-.3-.6.2-.9,3.7-1.7,6.3,1.2,3.8,4.6ZM206.2,145.2c-1.3.6-2.7,1.3-4.2,1.3,0,.7.4,1.4.5,2.1,1.6,7.3-.4,14.9,1.1,22.2s.3,1.6.5,2.2,0,.2.1.2c1-.3,2-.2,2.9-.8s1.2-1.1,1.2-1.5-.2-.4-.2-.5c-.2-1.5.7-1.9.7-3.1s-.4-2.4-.5-3.4c-.4-3-.6-6-.9-9s-.3-3-.3-4.6c0-.1-.6-.2-.7-.3s-.4-.2-.4-.2v-4.7Z"/>
        <circle cx="159.7" cy="151.2" r="4.5"/>
      </g>
    </g>
    <g>
      <g>
        <path d="M118.6,220.8c9.3,1.4,16.8,9.9,17.2,19.3,5.4,0,6,7.4.7,8.2h-43.1c-5.3-.8-4.7-8.2.7-8.2.5-9.5,7.8-17.8,17.2-19.4l-.5-2c-.1-4.1,5.1-6,7.6-2.7s.9,3.2.3,4.7ZM113.6,219.8c1.8,1.8,4.5-1,2.7-2.7s-4.4,1-2.7,2.7ZM133.5,240.1c-.4-7.2-5.4-13.7-12.2-16.2-11.7-4.2-24,3.9-24.9,16.2h37.1ZM93.5,242.4c-2,.5-2,3.2,0,3.6h42.8c2.2-.4,2.1-3.4-.1-3.7h-42.8Z"/>
        <path d="M82.9,229.2h1.4v-7c0-.2.5-.5.8-.4s.7.4.7.6v6.8h1.3v-6.8c0-.3.5-.6.8-.6s.7.3.7.5v6.9h1.3c.1,0,.1-.2.1-.3.2-2-.2-4.5,0-6.6.2-.9,1.4-.6,1.5.2-.4,3,1.3,8.7-1.8,10.6s-1,.4-1.1.4,0,1.1,0,1.3c.1,4.5.3,9,.3,13.5s.1.8,0,1.3c-.3,3-4.5,3-4.7,0,0-.4,0-.7,0-1.1,0-4.6.2-9.2.3-13.8s0-1,0-1.1-.8-.3-1-.4c-1.1-.6-1.8-1.8-1.9-3.1-.2-2.4.1-5.1,0-7.6,0-.5.6-.9,1.1-.6s.4.4.4.4v6.9ZM89.7,230.6h-6.6c.2.6.8,1.2,1.5,1.4s1.2,0,1.4.7c.2,1.4-.3,3.4,0,4.8-.2,3.5-.2,6.9-.2,10.4s-.4,2.3.8,2.3.9-1.3.8-2c0-1.2,0-2.4,0-3.6l-.2-7c.2-1.5-.3-3.5,0-5s.9-.5,1.4-.7,1.3-.7,1.5-1.4Z"/>
        <path d="M143,240.4h-1.3c-.3,0-1-.7-.9-1.1.4-5-1.5-13,2.8-16.7s2.6-1.8,3-.6v27.6c-.3,3-4.4,2.7-4.6.2s.2-5.4,0-8c0-.2.1-.5.3-.6.3-.3.8-.1.7-.8ZM145.2,223.5c-.8.3-1.5,1.3-1.9,2-.6,1.1-.9,2.4-1,3.7v9.8c.8,0,1.8,0,2.1.9s.2,1.7,0,2.1-.5.5-.9.4v7.3c.2,1,1.7.6,1.7,0v-26.2Z"/>
      </g>
      <circle cx="159.7" cy="233.1" r="4.5"/>
    </g>
  </g>
  <g>
    <g>
      <path d="M174.9,60.6c.3-.1.6-.2.9-.2,1.4,0,2.4,1.1,2.4,2.5s-1.2,3-2.8,3-2.8-1.3-2.8-3.4,2.1-4.5,3.7-5c.3-.1,1-.3,1.6-.4v.5c-.3,0-1,.3-1.4.5-.8.4-2,1.2-2.4,3l.9-.4ZM175.2,61.2c-.5,0-.9.2-1.2.3,0,.2,0,.6,0,.9,0,1.7.6,2.9,1.7,2.9s1.3-1.1,1.3-2-.6-2.2-1.7-2.2Z"/>
      <path d="M180.6,61.8c-.5,0-.8-.3-.8-.9s.4-.9.8-.9.9.4.9.9-.4.9-.9.9ZM180.6,65.8c-.5,0-.8-.3-.8-.9s.4-.9.8-.9.9.4.9.9-.4.9-.9.9Z"/>
      <path d="M185.8,57.2c2.1,0,2.8,2.3,2.8,4.3s-.7,4.3-2.8,4.3-2.8-2.2-2.8-4.3.8-4.3,2.8-4.3ZM185.8,57.7c-1.2,0-1.5,2-1.5,3.8s.4,3.9,1.5,3.9,1.4-2,1.4-3.8-.3-3.8-1.5-3.8Z"/>
      <path d="M192.4,57.2c2.1,0,2.8,2.3,2.8,4.3s-.7,4.3-2.8,4.3-2.8-2.2-2.8-4.3.8-4.3,2.8-4.3ZM192.4,57.7c-1.2,0-1.5,2-1.5,3.8s.4,3.9,1.5,3.9,1.4-2,1.4-3.8-.3-3.8-1.5-3.8Z"/>
      <path d="M199,60.1c.6,0,1.4-.3,2-.6v1s1.1-.6,1.1-.6c.3-.2.6-.3.8-.3,1.5,0,2.4,1.2,2.4,2.6,0,2-1.6,3.3-3.3,3.6-.4,0-.7-.1-.9-.2v1.8c0,.9,0,1,1.1,1.1v.4h-3.2v-.4c.9,0,1-.2,1-1v-6.1c0-.8,0-.8-.9-1v-.4ZM201,64.7c.3.3.8.5,1.2.5,1.1,0,1.8-1,1.8-2.4s-.8-2.3-1.7-2.3-1,.3-1.3.5v3.7Z"/>
      <path d="M207.2,65.8c-.5,0-.9-.4-.9-.9s.4-.9.9-.9.9.4.9.9-.4.9-.9.9Z"/>
      <path d="M216.4,65.7v-.4c.7,0,.8-.1.8-1v-2.2c0-1-.4-1.5-1.1-1.5s-.9.2-1.4.6c0,.2,0,.3,0,.6v2.6c0,.8.1.9.8,1v.4h-2.9v-.4c.8,0,.9-.1.9-1v-2.3c0-1-.3-1.5-1.1-1.5s-1,.3-1.4.6v3.2c0,.9,0,.9.8,1v.4h-2.9v-.4c.9,0,.9-.1.9-1v-2.8c0-.8,0-.9-.8-1v-.4c.6,0,1.3-.3,1.9-.5v1.1c.3-.2.6-.4,1-.7.3-.2.6-.4,1.1-.4.7,0,1.2.4,1.5,1.1.4-.3.7-.5,1-.7.3-.2.7-.3,1.1-.3,1.1,0,1.7.8,1.7,2.1v2.6c0,.9,0,.9.8,1v.4h-2.8Z"/>
      <path d="M221.2,65.8c-.5,0-.9-.4-.9-.9s.4-.9.9-.9.9.4.9.9-.4.9-.9.9Z"/>
    </g>
    <g>
      <path d="M178.2,79.1c0,0-.3,0-.4,0-.8,0-1-.1-1.4-.7-.3-.4-.8-1.2-1.1-1.8-.2-.4-.3-.5-.8-.5h-.4v1.8c0,.7,0,.8.8.9h0c0,.1-2.3.1-2.3.1h0c.7-.2.8-.3.8-1v-4.1c0-.7,0-.8-.8-.9h0c0-.1,2.3-.1,2.3-.1.6,0,1.2.1,1.5.3.3.2.6.7.6,1.2,0,.8-.5,1.3-1.2,1.6.2.3.6,1,.9,1.5.3.5.6.8.8,1.1.2.3.4.3.8.4h0ZM174.7,76c.5,0,.7,0,1-.2.4-.3.5-.7.5-1.2,0-1-.6-1.5-1.4-1.5s-.5,0-.6,0c0,0-.1.1-.1.4v2.4h.6Z"/>
      <path d="M182.7,77.7c0,.3-.2,1.1-.3,1.3h-4.3c.8-.2.9-.3.9-1.1v-3.9c0-.8,0-.9-.8-1h0c0-.1,2.7-.1,2.7-.1.8,0,1.1,0,1.3,0,0,.3,0,1,0,1.3h-.1c0-.2-.2-.6-.3-.7-.2-.3-.3-.3-.8-.3h-1c-.3,0-.3,0-.3.3v2.2h1.2c.6,0,.7-.1.8-.8h.1v1.8h-.1c-.2-.7-.2-.8-.8-.8h-1.2v2.2c0,.6.3.7.8.7h.9c.5,0,.6,0,.8-.4.1-.2.3-.4.4-.7h.1Z"/>
      <path d="M188.8,77.6c0,.3-.4,1.1-.5,1.3-.2,0-.9.2-1.6.2-2.3,0-3.4-1.6-3.4-3.2s1.4-3.2,3.6-3.2,1.3.2,1.6.2c0,.4,0,1,.1,1.3h-.2c-.2-.5-.3-1-.8-1.2-.3-.1-.7-.2-1.1-.2-1.7,0-2.5,1.3-2.5,2.8s.9,3.1,2.6,3.1,1.5-.6,1.9-1.4h.2Z"/>
      <path d="M194.1,77.7c0,.3-.2,1.1-.3,1.3h-4.3c.8-.2.9-.3.9-1.1v-3.9c0-.8,0-.9-.8-1h0c0-.1,2.7-.1,2.7-.1.8,0,1.1,0,1.3,0,0,.3,0,1,0,1.3h-.1c0-.2-.2-.6-.3-.7-.2-.3-.3-.3-.8-.3h-1c-.3,0-.3,0-.3.3v2.2h1.2c.6,0,.7-.1.8-.8h.1v1.8h-.1c-.2-.7-.2-.8-.8-.8h-1.2v2.2c0,.6.3.7.8.7h.9c.5,0,.6,0,.8-.4.1-.2.3-.4.4-.7h.1Z"/>
      <path d="M196.8,72.9c.6,0,1.1.1,1.5.4.4.3.6.7.6,1.3,0,1.3-1.1,1.9-2,1.9s-.2,0-.3,0l-.6-.2v1.7c0,.7,0,.8.8.9h0c0,.1-2.3.1-2.3.1h0c.8-.2.8-.3.8-1v-4c0-.8,0-.8-.8-.9h0c0-.1,2.2-.1,2.2-.1ZM196,76.1c.1,0,.4,0,.7,0,.6,0,1.4-.3,1.4-1.6s-.6-1.5-1.5-1.5-.5,0-.5.1c0,0-.1.2-.1.6v2.3Z"/>
      <path d="M205.2,77.6c0,.3-.4,1.1-.5,1.3-.2,0-.9.2-1.6.2-2.3,0-3.4-1.6-3.4-3.2s1.4-3.2,3.6-3.2,1.3.2,1.6.2c0,.4,0,1,.1,1.3h-.2c-.2-.5-.3-1-.8-1.2-.3-.1-.7-.2-1.1-.2-1.7,0-2.5,1.3-2.5,2.8s.9,3.1,2.6,3.1,1.5-.6,1.9-1.4h.2Z"/>
      <path d="M205.9,79.1h0c.7-.2.8-.3.8-1.1v-4c0-.8,0-.8-.8-1h0c0-.1,2.3-.1,2.3-.1h0c-.8.2-.8.3-.8,1.1v4c0,.7,0,.8.8.9h0c0,.1-2.3.1-2.3.1Z"/>
      <path d="M212,72.8c1.6,0,3,1.3,3,3.1s-1.4,3.3-3.1,3.3-3-1.4-3-3.1,1.2-3.3,3.1-3.3ZM211.8,73c-1.1,0-2.1,1-2.1,2.8s1,3.2,2.4,3.2,2-1,2-2.8-1-3.2-2.3-3.2Z"/>
      <path d="M222,73.1c-.7.2-.7.3-.7.9,0,.2,0,.4,0,1.2v4h-.2l-4.2-5.2v2.7c0,.9,0,1.2,0,1.5,0,.5.2.7.9.8h0c0,.1-2.1.1-2.1.1h0c.7-.3.8-.4.9-.9,0-.2,0-.6,0-1.5v-2.8c0-.2,0-.3-.1-.4-.2-.3-.5-.4-.9-.4h0c0-.1,1.3-.1,1.3-.1l4.1,4.9v-2.7c0-.8,0-1,0-1.3,0-.6-.2-.8-.9-.9h0c0-.1,2-.1,2-.1h0Z"/>
    </g>
  </g>
  <g>
    <g>
      <path d="M98,140.6c.3-.1.6-.2.9-.2,1.4,0,2.4,1.1,2.4,2.5s-1.2,3-2.8,3-2.8-1.3-2.8-3.4,2.1-4.5,3.7-5c.3-.1,1-.3,1.6-.4v.5c-.3,0-1,.3-1.4.5-.8.4-2,1.2-2.4,3l.9-.4ZM98.3,141.2c-.5,0-.9.2-1.2.3,0,.2,0,.6,0,.9,0,1.7.6,2.9,1.7,2.9s1.3-1.1,1.3-2-.6-2.2-1.7-2.2Z"/>
      <path d="M103.7,141.8c-.5,0-.8-.3-.8-.9s.4-.9.8-.9.9.4.9.9-.4.9-.9.9ZM103.7,145.8c-.5,0-.8-.3-.8-.9s.4-.9.8-.9.9.4.9.9-.4.9-.9.9Z"/>
      <path d="M106.4,138.8l.6-.8c.4-.4,1-.8,1.8-.8,1.2,0,2,.8,2,1.8s-.2.7-.4,1c-.2.2-.6.5-1,.7,1.3.3,2,1.1,2,2.1,0,2.2-2.6,3.1-3.6,3.1s-1.2-.3-1.4-.5c-.2-.2-.2-.3-.2-.5,0-.2.2-.4.3-.5.1,0,.3,0,.4,0,.3.3.9.7,1.7.7s1.6-.7,1.6-2c0-1.2-.9-1.7-1.7-1.7s-.7,0-.9.1v-.4c1.1-.4,2-.9,2-1.9s-.5-1.2-1.3-1.2-1.3.5-1.7,1l-.3-.3Z"/>
      <path d="M115.5,137.2c2.1,0,2.8,2.3,2.8,4.3s-.7,4.3-2.8,4.3-2.8-2.2-2.8-4.3.8-4.3,2.8-4.3ZM115.5,137.7c-1.2,0-1.5,2-1.5,3.8s.4,3.9,1.5,3.9,1.4-2,1.4-3.8-.3-3.8-1.5-3.8Z"/>
      <path d="M122.1,140.1c.6,0,1.4-.3,2-.6v1s1.1-.6,1.1-.6c.3-.2.6-.3.8-.3,1.5,0,2.4,1.2,2.4,2.6,0,2-1.6,3.3-3.3,3.6-.4,0-.7-.1-.9-.2v1.8c0,.9,0,1,1.1,1.1v.4h-3.2v-.4c.9,0,1-.2,1-1v-6.1c0-.8,0-.8-.9-1v-.4ZM124.2,144.7c.3.3.8.5,1.2.5,1.1,0,1.8-1,1.8-2.4s-.8-2.3-1.7-2.3-1,.3-1.3.5v3.7Z"/>
      <path d="M130.3,145.8c-.5,0-.9-.4-.9-.9s.4-.9.9-.9.9.4.9.9-.4.9-.9.9Z"/>
      <path d="M139.6,145.7v-.4c.7,0,.8-.1.8-1v-2.2c0-1-.4-1.5-1.1-1.5s-.9.2-1.4.6c0,.2,0,.3,0,.6v2.6c0,.8.1.9.8,1v.4h-2.9v-.4c.8,0,.9-.1.9-1v-2.3c0-1-.3-1.5-1.1-1.5s-1,.3-1.4.6v3.2c0,.9,0,.9.8,1v.4h-2.9v-.4c.9,0,.9-.1.9-1v-2.8c0-.8,0-.9-.8-1v-.4c.6,0,1.3-.3,1.9-.5v1.1c.3-.2.6-.4,1-.7.3-.2.6-.4,1.1-.4.7,0,1.2.4,1.5,1.1.4-.3.7-.5,1-.7.3-.2.7-.3,1.1-.3,1.1,0,1.7.8,1.7,2.1v2.6c0,.9,0,.9.8,1v.4h-2.8Z"/>
      <path d="M144.4,145.8c-.5,0-.9-.4-.9-.9s.4-.9.9-.9.9.4.9.9-.4.9-.9.9Z"/>
    </g>
    <g>
      <path d="M99.8,159.6c0,.3-.4,1.1-.5,1.3-.2,0-.9.2-1.6.2-2.3,0-3.4-1.6-3.4-3.2s1.4-3.2,3.6-3.2,1.3.2,1.6.2c0,.4,0,1,.1,1.3h-.2c-.2-.5-.3-1-.8-1.2-.3-.1-.7-.2-1.1-.2-1.7,0-2.5,1.3-2.5,2.8s.9,3.1,2.6,3.1,1.5-.6,1.9-1.4h.2Z"/>
      <path d="M105,159.7c0,.3-.2,1.1-.3,1.3h-4.3c.8-.2.9-.3.9-1.1v-3.9c0-.8,0-.9-.8-1h0c0-.1,2.7-.1,2.7-.1.8,0,1.1,0,1.3,0,0,.3,0,1,0,1.3h-.1c0-.2-.2-.6-.3-.7-.2-.3-.3-.3-.8-.3h-1c-.3,0-.3,0-.3.3v2.2h1.2c.6,0,.7-.1.8-.8h.1v1.8h-.1c-.2-.7-.2-.8-.8-.8h-1.2v2.2c0,.6.3.7.8.7h.9c.5,0,.6,0,.8-.4.1-.2.3-.4.4-.7h.1Z"/>
      <path d="M111,161.1c0,0-.3,0-.4,0-.8,0-1-.1-1.4-.7-.3-.4-.8-1.2-1.1-1.8-.2-.4-.3-.5-.8-.5h-.4v1.8c0,.7,0,.8.8.9h0c0,.1-2.3.1-2.3.1h0c.7-.2.8-.3.8-1v-4.1c0-.7,0-.8-.8-.9h0c0-.1,2.3-.1,2.3-.1.6,0,1.2.1,1.5.3.3.2.6.7.6,1.2,0,.8-.5,1.3-1.2,1.6.2.3.6,1,.9,1.5.3.5.6.8.8,1.1.2.3.4.3.8.4h0ZM107.5,158c.5,0,.7,0,1-.2.4-.3.5-.7.5-1.2,0-1-.6-1.5-1.4-1.5s-.5,0-.6,0c0,0-.1.1-.1.4v2.4h.6Z"/>
      <path d="M115.5,159.7c0,.3-.2,1.1-.3,1.3h-4.3c.8-.2.9-.3.9-1.1v-3.9c0-.8,0-.9-.8-1h0c0-.1,2.7-.1,2.7-.1.8,0,1.1,0,1.3,0,0,.3,0,1,0,1.3h-.1c0-.2-.2-.6-.3-.7-.2-.3-.3-.3-.8-.3h-1c-.3,0-.3,0-.3.3v2.2h1.2c.6,0,.7-.1.8-.8h.1v1.8h-.1c-.2-.7-.2-.8-.8-.8h-1.2v2.2c0,.6.3.7.8.7h.9c.5,0,.6,0,.8-.4.1-.2.3-.4.4-.7h.1Z"/>
      <path d="M121.4,161.1h0c.7-.2.8-.3.8-1.3v-4.2c-.8,1.7-2.3,5-2.5,5.5h0c-.1-.3-1.1-2.8-2.2-5.3-.1,3.6-.1,4.1-.1,4.5s.1.7.8.8h0c0,.1-2,.1-2,.1h0c.7-.2.8-.4.8-.9,0-.4,0-.9.2-4.4,0-.4,0-.6-.9-.7h0c0-.1,1.5-.1,1.5-.1l2.2,4.9,2.4-4.9h1.4c-.8.2-.9.3-.9,1.2v3.7c0,1,.1,1,.9,1.1h0c0,.1-2.3.1-2.3.1Z"/>
      <path d="M127.5,154.8c1.6,0,3,1.3,3,3.1s-1.4,3.3-3.1,3.3-3-1.4-3-3.1,1.2-3.3,3.1-3.3ZM127.3,155c-1.1,0-2.1,1-2.1,2.8s1,3.2,2.4,3.2,2-1,2-2.8-1-3.2-2.3-3.2Z"/>
      <path d="M137.5,155.1c-.7.2-.7.3-.7.9,0,.2,0,.4,0,1.2v4h-.2l-4.2-5.2v2.7c0,.9,0,1.2,0,1.5,0,.5.2.7.9.8h0c0,.1-2.1.1-2.1.1h0c.7-.3.8-.4.9-.9,0-.2,0-.6,0-1.5v-2.8c0-.2,0-.3-.1-.4-.2-.3-.5-.4-.9-.4h0c0-.1,1.3-.1,1.3-.1l4.1,4.9v-2.7c0-.8,0-1,0-1.3,0-.6-.2-.8-.9-.9h0c0-.1,2-.1,2-.1h0Z"/>
      <path d="M138.1,161.1h0c.7-.2.8-.3.8-1.1v-4c0-.8,0-.8-.8-1h0c0-.1,2.3-.1,2.3-.1h0c-.8.2-.8.3-.8,1.1v4c0,.7,0,.8.8.9h0c0,.1-2.3.1-2.3.1Z"/>
      <path d="M144.5,161.1h0c.5-.2.7-.3.5-.6-.1-.4-.4-1.1-.6-1.9h-1.9c-.2.6-.4,1.1-.5,1.5-.2.6,0,.7.7.8h0c0,.1-2,.1-2,.1h0c.5-.2.7-.3,1-1.2l2-5.1h.1c.6,1.7,1.2,3.4,1.8,5.2.3.8.4.8,1,1h0c0,.1-2.1.1-2.1.1ZM143.5,155.9c-.3.8-.6,1.6-.9,2.4h1.7l-.8-2.4Z"/>
    </g>
  </g>
  <g>
    <g>
      <path d="M178.6,221.5c-1.3,2.7-2.5,5.4-3.8,8.2h-1c0,.1,0,0,0,0,1.4-2.3,2.8-5,3.9-7.2h-2.8c-.9,0-.9.1-1.3,1h-.4c.1-.8.2-1.5.3-2.1h5.2v.2Z"/>
      <path d="M180.9,225.8c-.5,0-.8-.3-.8-.9s.4-.9.8-.9.9.4.9.9-.4.9-.9.9ZM180.9,229.8c-.5,0-.8-.3-.8-.9s.4-.9.8-.9.9.4.9.9-.4.9-.9.9Z"/>
      <path d="M183.6,222.8l.6-.8c.4-.4,1-.8,1.8-.8,1.2,0,2,.8,2,1.8s-.2.7-.4,1c-.2.2-.6.5-1,.7,1.3.3,2,1.1,2,2.1,0,2.2-2.6,3.1-3.6,3.1s-1.2-.3-1.4-.5c-.2-.2-.2-.3-.2-.5,0-.2.2-.4.3-.5.1,0,.3,0,.4,0,.3.3.9.7,1.7.7s1.6-.7,1.6-2c0-1.2-.9-1.7-1.7-1.7s-.7,0-.9.1v-.4c1.1-.4,2-.9,2-1.9s-.5-1.2-1.3-1.2-1.3.5-1.7,1l-.3-.3Z"/>
      <path d="M192.7,221.2c2.1,0,2.8,2.3,2.8,4.3s-.7,4.3-2.8,4.3-2.8-2.2-2.8-4.3.8-4.3,2.8-4.3ZM192.7,221.7c-1.2,0-1.5,2-1.5,3.8s.4,3.9,1.5,3.9,1.4-2,1.4-3.8-.3-3.8-1.5-3.8Z"/>
      <path d="M199.3,224.1c.6,0,1.4-.3,2-.6v1s1.1-.6,1.1-.6c.3-.2.6-.3.8-.3,1.5,0,2.4,1.2,2.4,2.6,0,2-1.6,3.3-3.3,3.6-.4,0-.7-.1-.9-.2v1.8c0,.9,0,1,1.1,1.1v.4h-3.2v-.4c.9,0,1-.2,1-1v-6.1c0-.8,0-.8-.9-1v-.4ZM201.4,228.7c.3.3.8.5,1.2.5,1.1,0,1.8-1,1.8-2.4s-.8-2.3-1.7-2.3-1,.3-1.3.5v3.7Z"/>
      <path d="M207.5,229.8c-.5,0-.9-.4-.9-.9s.4-.9.9-.9.9.4.9.9-.4.9-.9.9Z"/>
      <path d="M216.7,229.7v-.4c.7,0,.8-.1.8-1v-2.2c0-1-.4-1.5-1.1-1.5s-.9.2-1.4.6c0,.2,0,.3,0,.6v2.6c0,.8.1.9.8,1v.4h-2.9v-.4c.8,0,.9-.1.9-1v-2.3c0-1-.3-1.5-1.1-1.5s-1,.3-1.4.6v3.2c0,.9,0,.9.8,1v.4h-2.9v-.4c.9,0,.9-.1.9-1v-2.8c0-.8,0-.9-.8-1v-.4c.6,0,1.3-.3,1.9-.5v1.1c.3-.2.6-.4,1-.7.3-.2.6-.4,1.1-.4.7,0,1.2.4,1.5,1.1.4-.3.7-.5,1-.7.3-.2.7-.3,1.1-.3,1.1,0,1.7.8,1.7,2.1v2.6c0,.9,0,.9.8,1v.4h-2.8Z"/>
      <path d="M221.5,229.8c-.5,0-.9-.4-.9-.9s.4-.9.9-.9.9.4.9.9-.4.9-.9.9Z"/>
    </g>
    <g>
      <path d="M180.5,244c-.1.4-.5,1.4-.6,1.7-.3,0-1.2.3-2,.3-3,0-4.4-2-4.4-4.1s1.8-4.1,4.6-4.1,1.7.2,2.1.3c0,.6.1,1.2.2,1.7h-.2c-.2-.7-.4-1.2-1.1-1.5-.4-.1-.9-.2-1.4-.2-2.2,0-3.2,1.7-3.2,3.6s1.2,4,3.4,4,1.9-.8,2.4-1.8h.2Z"/>
      <path d="M193.3,244.2c0,.4-.3,1.4-.4,1.7h-5.5c1.1-.3,1.1-.4,1.1-1.4v-5.1c0-1,0-1.1-1-1.3h0c0-.1,3.4-.1,3.4-.1,1,0,1.4,0,1.6,0,0,.4,0,1.3,0,1.7h-.2c0-.3-.3-.7-.4-.9-.2-.3-.4-.4-1.1-.4h-1.3c-.3,0-.4,0-.4.4v2.8h1.5c.8,0,.9-.2,1.1-1h.2v2.3h-.2c-.2-.9-.3-1-1.1-1h-1.5v2.9c0,.8.3.8,1,.8h1.2c.6,0,.8-.1,1.1-.6.2-.3.3-.6.5-.9h.2Z"/>
      <path d="M208.1,238.1c-.9.2-.9.3-1,1.2,0,.3,0,.5,0,1.6v5.1h-.2l-5.5-6.7v3.5c0,1.2,0,1.5,0,1.9,0,.7.2.9,1.2,1h0c0,.1-2.7.1-2.7.1h0c.9-.4,1.1-.5,1.1-1.2,0-.3,0-.8,0-1.9v-3.6c0-.2,0-.4-.2-.5-.3-.4-.7-.5-1.1-.5h0c0-.1,1.7-.1,1.7-.1l5.2,6.4v-3.5c0-1.1,0-1.2,0-1.6,0-.8-.2-1-1.2-1.1h0c0-.1,2.6-.1,2.6-.1h0Z"/>
      <path d="M219.2,245.9h0c.7-.3.9-.4.7-.8-.2-.5-.5-1.4-.8-2.4h-2.4c-.3.8-.5,1.4-.7,2-.3.8,0,.9.8,1.1h0c0,.1-2.5.1-2.5.1h0c.7-.3.9-.4,1.3-1.5l2.5-6.5h.2c.8,2.2,1.5,4.4,2.4,6.7.4,1.1.5,1.1,1.3,1.2h0c0,.1-2.7.1-2.7.1ZM217.8,239.2c-.4,1-.8,2.1-1.1,3.1h2.2l-1.1-3.1Z"/>
    </g>
  </g>
</svg>