<?xml version="1.0" encoding="UTF-8"?>
<svg id="Capa_1" xmlns="http://www.w3.org/2000/svg" version="1.1" viewBox="0 0 382 287">
  <!-- Generator: Adobe Illustrator 29.5.1, SVG Export Plug-In . SVG Version: 2.1.0 Build 141)  -->
  <defs>
    <style>
      .st0 {
        fill: #b3907a;
      }
    </style>
  </defs>
  <g>
    <path class="st0" d="M74.4,188.8c-4.5,0-8.1-1.3-10.8-4-2.6-2.7-3.9-6.4-3.9-10.9,0-7.2,3-13.7,9-19.5-2.3-2-3.4-4.1-3.4-6.4,0-4.2,2.5-6.3,7.5-6.3s2.6.2,3.8.6c1.2.4,2.4.9,3.6,1.7h0c0,.1.1.2,0,.2,0,0,0,.1,0,.2,0,.1,0,.2-.1.2s-.2,0-.4-.2c-2-1.2-4-1.8-6.1-1.8s-3.6.5-4.9,1.4c-1.5,1-2.2,2.5-2.2,4.4s.9,3.7,2.8,5.4c5.8-5.4,13.1-8.1,21.9-8.1s5.5.4,7.6,1.3c3.1,1.1,4.6,2.9,4.6,5.4s-1.2,3.5-3.7,4.9c-.8.5-1.8,1-2.8,1.4-1,.4-2.1.7-3.3.9-2,.4-4.2.6-6.5.6-6.1,0-11.3-1.3-15.7-3.8-5,5.7-7.6,11.8-7.6,18.4s.8,6.6,2.5,9.1c1.9,2.9,4.5,4.3,8,4.3,6.6,0,12.1-3.2,16.3-9.6,1.4-2.2,2.1-4.2,2.1-6s-.5-2.8-1.6-3.8c-1-1-2.3-1.5-3.9-1.5s-2.9.4-4.2,1.3c-1.3.8-2.3,2-2.9,3.5-.1.4-.3.5-.5.5s-.3-.1-.3-.3,0-.1,0-.2c0,0,0-.1,0-.2.6-1.6,1.6-2.9,3.2-3.9,1.5-.9,3.1-1.4,4.9-1.4s3.5.6,4.8,1.7c1.2,1.2,1.8,2.7,1.8,4.6s-.6,4.2-1.9,6.2c-1.8,2.9-4.4,5.2-7.8,7-3.3,1.8-6.7,2.7-10.2,2.7ZM85.6,159.2c1.6,0,3.3-.1,4.9-.4,1.6-.3,3.2-.6,4.8-1.1,4.5-1.4,6.7-3.4,6.7-5.9,0-3.6-3.4-5.4-10.2-5.4s-13.8,3.1-19.7,9.2c4,2.3,8.5,3.5,13.6,3.5Z"/>
    <path class="st0" d="M105,186.2c-2,0-3.5-.8-4.5-2.5-.9-1.4-1.4-3.2-1.4-5.2,0-3.5,1.1-6.8,3.3-9.8,2.5-3.3,5.4-4.9,8.8-4.9s3.1.6,4,1.8c.9,1.2,1.3,2.6,1.3,4.4s0,1.6-.2,2.5c-.2.8-.4,1.7-.7,2.7-.7,2-1.5,3.5-2.5,4.6v.2c.6.3,1.1.5,1.7.5,1.3,0,2.4-.4,3.3-1.3.9-.8,1.9-2.4,3-4.5,0-.2.1-.3.3-.3s.2,0,.2.2c0,.1,0,.3,0,.4-.9,2-1.9,3.5-3,4.5-1,1-2.3,1.5-3.6,1.5s-1.6-.2-2.1-.7c-.4.8-.9,1.5-1.5,2.2-.5.7-1.1,1.3-1.8,1.8-1.5,1.3-3.1,2-4.7,2ZM105.5,185.6c2.4,0,4.7-1.8,7-5.4,0-.1,0-.3.2-.4-.8-1.3-1.2-2.6-1.2-3.8v-.3c0-.2,0-.4,0-.6,0-.5.1-1,.3-1.5.1-.5.4-1,.7-1.4.7-1.1,1.5-1.6,2.4-1.6h.6c.2,0,.3,0,.4,0h.2c0-4-1.3-6-3.8-6s-4.2,1.3-6.1,3.9c-1.6,2.1-2.7,4.3-3.3,6.9-.4,1.4-.6,2.8-.6,4.3,0,4,1.1,6,3.3,6Z"/>
    <path class="st0" d="M115.6,187.9h0c1.6-3.6,3.7-8.4,6.2-14.6.4-1,.9-2.3,1.4-3.8.6-1.5,1.2-3.3,1.9-5.3h.1c.4.4.8.5,1.1.5,1.1,0,2.2-1,3.1-2.9h0c0,.2-1,2.5-2.9,7.2-1.1,2.5-1.9,4.5-2.4,5.8-.5,1.3-.8,2.1-.9,2.3,5.1-9.1,9.1-13.7,12.2-13.7s1.3.2,1.8.7c.5.4.8,1,.8,1.7,0,1.9-1.3,4.9-3.8,9.2-2.5,4.3-3.8,7.2-3.8,8.8s.2,1,.7,1.3c.4.3,1,.5,1.6.5s1.3-.1,1.9-.4,1.2-.6,1.7-.9c1.2-.9,2.2-2,3.1-3.3.8-1.2,1.6-2.5,2.2-3.7.6-1.2,1.2-2.3,1.7-3.1.1-.2.3-.3.4-.2s.2.2,0,.4c-.9,1.9-1.9,3.8-2.9,5.8-1.1,2-2.4,3.5-4.1,4.7-.6.4-1.2.7-1.9,1s-1.4.4-2.2.4c-1.2,0-2.3-.3-3-1-.8-.7-1.2-1.7-1.2-3.1,0-2.4,1.1-5.4,3.3-9.1,2.3-3.7,3.4-6.1,3.4-7.1s-.4-1.1-1.3-1.1h-.4c-1,0-2.3,1.1-4,3.4-1.7,2.3-3.7,5.6-6.2,9.9-.6,1-1.2,2.1-1.8,3.4-.6,1.3-1.2,2.7-1.9,4.2h-.1c-.5-.2-1-.3-1.4-.3-.6,0-1.1.4-1.5,1.1-.4.8-.7,1.2-1,1.3Z"/>
    <path class="st0" d="M142.5,206c-.2,0-.4,0-.5,0-3-.6-4.5-3.4-4.5-8.6s2-14.6,6-24.8c5.4-13.5,10.9-22.3,16.7-26.5,1.9-1.4,3.7-2.1,5.3-2.1s3.1,1,3.1,2.9c0,5.4-7.4,15-22.1,28.6h0c-4.4,11.1-6.6,19.5-6.6,25.1s.8,4.7,2.5,4.7,3.4-1.4,4.8-4.1c.5-.9.9-1.9,1.3-3,.4-1,.7-2.2,1-3.3.1-.7.2-1.4.3-2,0-.6.1-1.3.1-1.9,0-2.6-.7-4.8-2-6.6-2.2,0-3.3-.6-3.3-1.7s.3-.8.9-.8c1,0,1.9.7,2.7,2.1h.5c2.5,0,4.9-.9,7.2-2.9,1.3-1.1,2.4-2.5,3.3-4,.3-1,.8-2.1,1.3-3.2l5.1-9.8h.2c.1.2.4.3.8.3.8,0,1.9-.5,3.3-1.5h.1c0,.1-5.7,11.2-5.7,11.2-2.4,4.5-3.5,7.7-3.5,9.5s.8,2.3,2.5,2.3c3.5,0,6.8-3.7,9.9-11.2h.3c0,.1,0,.3,0,.3-3.2,7.6-6.7,11.4-10.5,11.4s-4.7-1.6-4.7-4.7.1-1.9.3-2.9c-2.9,4.2-6.4,6.2-10.4,6,1.2,1.9,1.8,4.2,1.8,7.1s0,1.1,0,1.7c0,.6-.1,1.1-.3,1.6-.8,4.9-2.6,8.3-5.4,10.2-.9.6-1.7.9-2.5.9ZM147,174.4c14-13.1,20.9-22.3,20.9-27.6s-.7-2.2-2-2.2c-3.1,0-6.9,4.2-11.3,12.6-2.9,5.5-5.5,11.2-7.6,17.3ZM171.4,157.6c-1.5,0-2.2-.7-2.2-2.1s.7-2.2,2.1-2.2,2.2.7,2.2,2-.7,2.3-2.1,2.3ZM174,174.7h0c0,0,0,0,0,0Z"/>
    <path class="st0" d="M180,185.8c-2.7,0-4-1.2-4-3.5s.7-4,2.2-6.4c.5-.8,1.8-2.7,4.1-5.7,1.5-2,2.2-3.3,2.2-4.1s-.6-1.1-1.9-1.1-1.8,0-2.8,0c-1,0-1.8,0-2.4.1-.1.7-.3,1.5-.6,2.5-.3.9-.6,1.9-.9,2.9-.2.6-.6,1.5-1,2.5-.5,1.1-1.1,2.2-1.8,3.4-.1.2-.2.3-.3.3s0,0,0-.1c0-.2,0-.5.3-.9.4-.6.8-1.4,1.2-2.3.4-.9.9-1.9,1.3-3,.4-1,.7-2,1-3.1.3-1.1.5-1.8.5-2.2-1.1-.7-1.6-1.7-1.6-3s.5-2.3,1.6-2.3,1.1.7,1.1,2.1,0,.7-.1,1.1c0,.4-.2,1-.3,1.6.6,0,1.6,0,3-.2,1.4,0,2.7,0,3.9,0,2.3,0,3.4.7,3.4,2.1s-1.8,4.5-5.3,9.1c-.8,1.1-1.6,2.4-2.5,3.8-.9,1.4-1.4,2.8-1.4,4.3s0,.8.3,1.1c.2.4.6.5,1.1.5,1.9,0,4-1.2,6.4-3.5,1.2-1.2,2.2-2.4,3.2-3.7,1-1.3,1.9-2.8,2.7-4.5.2-.4.3-.5.5-.5s.1,0,.1.2c0,.2,0,.5-.2.7-.8,1.6-1.7,3.1-2.7,4.5-1.1,1.4-2.3,2.8-3.5,4.1-2.2,2.2-4.3,3.3-6.4,3.3Z"/>
    <path class="st0" d="M185.3,187.2h-.1c1.3-2.4,2.5-4.7,3.7-7,1.2-2.4,2.4-4.8,3.7-7.3.5-1,1.1-2.2,1.8-3.7.7-1.5,1.5-3.2,2.4-5.1h.1c.3.2.7.3,1.1.3.9,0,2-.4,3.1-1.3h.1c0-.1,0,0,0,0h0c-.3.6-.9,1.7-1.7,3.2-.8,1.5-1.9,3.6-3.2,6.1,3.7-5.8,6.7-8.7,9.2-8.7s2.5.8,2.5,2.3-.6,3.2-1.7,5.7c.9-1.3,1.7-2.4,2.3-3.2.6-.8,1.1-1.4,1.4-1.7,1.9-2,3.5-3,5-3s2.9.9,2.9,2.8-.3,2.8-1,4.2c-.7,1.4-1.5,2.8-2.4,4.2-.9,1.4-1.8,2.8-2.5,4.2-.4.7-.7,1.5-1,2.2-.3.8-.4,1.5-.4,2.1s.2,1.1.5,1.4c.4.4,1,.6,1.8.6s1.2-.1,1.8-.4,1.1-.5,1.5-.8c1.2-.9,2.2-2,3.1-3.3.8-1.2,1.6-2.5,2.2-3.7.6-1.2,1.2-2.3,1.7-3.1.1-.2.3-.3.4-.2.1,0,.2.2,0,.4-.9,1.9-1.9,3.8-2.9,5.8-1.1,2-2.4,3.5-4.1,4.7-.6.4-1.2.7-1.9,1-.7.3-1.4.4-2.2.4-1.6,0-2.7-.3-3.4-1-.7-.7-1-1.6-1-2.7s.2-1.8.5-2.9c.3-.8.6-1.7,1-2.6.4-.9,1-1.9,1.6-3,2.4-3.9,3.5-6.5,3.5-7.6s-.3-1.1-1-1.1c-1.9,0-4.6,2.9-8.2,8.8-1.1,1.8-2.2,3.6-3.2,5.6-1,1.9-2.1,4-3.1,6.1h-.1c-.3,0-.6-.2-.9-.2-.3,0-.5,0-.7,0-1.3,0-2.1.5-2.4,1.4h-.2c1.7-3.1,3-5.4,4-7.2,1-1.7,1.6-2.9,1.9-3.4,2.9-5.4,4.3-8.9,4.3-10.4s-.2-1-.7-1c-1.8,0-4.6,3-8.2,9-2.4,3.9-4.6,7.9-6.5,12h-.1c-.6-.2-1.1-.3-1.5-.3-.8,0-1.4.3-1.9.9-.4.6-.7.9-.8.9Z"/>
    <path class="st0" d="M238.2,185.8c-2.3,0-3.5-1.6-3.5-4.8s.2-2.7.6-4.3c-3.1,6-6.2,9-9.3,9s-2.6-.7-3.3-2.2c-.6-1.1-.9-2.5-.9-4.2s.2-2.8.6-4.3c.8-2.6,2.4-5.1,4.8-7.4,2.7-2.5,5.3-3.7,7.8-3.7s3.3,1.3,3.3,4-.2,2.5-.7,4.1l4.1-8h.2c.1.2.4.3.9.3.9,0,2-.5,3.4-1.6h.1c0,.1-5.7,11.2-5.7,11.2-2.3,4.4-3.4,7.8-3.4,10s.4,1.3,1.2,1.3,1.2-.2,1.9-.6c.8-.4,1.6-1.1,2.4-2,1.1-1.2,2-2.4,2.8-3.6.8-1.1,1.7-2.7,2.7-4.6.1-.2.3-.3.4-.3.3,0,.3.2,0,.7-.8,1.5-1.7,3-2.6,4.5-.9,1.5-2,2.9-3.3,4.2-1.6,1.6-3.1,2.4-4.5,2.4ZM226.3,185.2c2.5,0,5.7-3.5,9.6-10.6,1.2-2.2,1.9-4.5,1.9-6.8s-.8-3.6-2.3-3.6-3.6,1.4-5.8,4.2c-.8,1.2-1.6,2.3-2.2,3.4-.6,1.1-1.1,2.2-1.4,3.2-.9,2.7-1.4,5.1-1.4,7.2s.5,2.9,1.6,2.9Z"/>
    <path class="st0" d="M252.5,186.2c-1.7,0-3.2-.5-4.3-1.5-1.1-1-1.7-2.5-1.7-4.6s.3-3.5,1-5.4c.7-1.9,1.7-3.7,3-5.5,2.9-3.8,5.9-5.8,9-5.8s4.3,1.3,4.3,3.9-.3,2.1-.9,3.2c-.8,1.3-1.6,1.9-2.5,1.9s-1-.3-1-.8.6-1.3,1.8-2.1c1.2-.9,1.8-1.9,1.8-3s-.8-2.3-2.3-2.3-3.5,1.2-5.5,3.6c-1.4,1.8-2.6,3.7-3.6,5.8-.4.9-.9,2.1-1.3,3.5-.4,1.4-.7,2.8-.7,4.2s.2,2.1.7,2.9c.5.8,1.4,1.2,2.6,1.2s2.4-.3,3.6-1c1.2-.6,2.3-1.4,3.2-2.3s1.6-1.8,2.6-3.1c1-1.3,1.9-2.9,2.9-4.8.1-.2.3-.3.4-.3.3,0,.3.2,0,.7-.8,1.5-1.6,3-2.4,4.3-.9,1.4-2,2.7-3.4,4-.8.8-1.9,1.6-3.2,2.2s-2.7,1-4.1,1Z"/>
    <path class="st0" d="M267.9,186.2c-2.9,0-4.4-1.6-4.4-4.9s.7-4.9,2.1-7.5l5-9.8h.2c.1.2.4.3.8.3.8,0,2-.5,3.3-1.5h.1c0,.1-5.7,11.2-5.7,11.2-2.4,4.5-3.5,7.7-3.5,9.5s.2,1.4.7,1.7c.4.3,1,.5,1.5.5s1.2-.1,1.8-.4,1.1-.6,1.6-.9c1.2-.9,2.2-2,3-3.2.8-1.2,1.5-2.5,2.2-3.7.6-1.2,1.2-2.3,1.7-3.1.1-.2.3-.3.4-.2.1,0,.2.2,0,.4-.9,1.9-1.9,3.8-2.9,5.8-1.1,2-2.4,3.5-4.1,4.7-.6.4-1.2.7-1.8,1-.6.3-1.3.4-2,.4ZM275.7,160.2c-1.4,0-2.1-.7-2.1-2.1s.7-2.3,2.1-2.3,2.1.7,2.1,2.1-.7,2.3-2.1,2.3Z"/>
    <path class="st0" d="M283.5,186.2c-2,0-3.5-.8-4.5-2.5-.9-1.4-1.4-3.2-1.4-5.2,0-3.5,1.1-6.8,3.3-9.8,2.5-3.3,5.4-4.9,8.8-4.9s3.1.6,4,1.8c.9,1.2,1.3,2.6,1.3,4.4s0,1.6-.2,2.5c-.2.8-.4,1.7-.7,2.7-.7,2-1.5,3.5-2.5,4.6v.2c.6.3,1.1.5,1.7.5,1.3,0,2.4-.4,3.3-1.3.9-.8,1.9-2.4,3-4.5,0-.2.1-.3.3-.3s.2,0,.2.2c0,.1,0,.3,0,.4-.9,2-1.9,3.5-3,4.5-1,1-2.3,1.5-3.6,1.5s-1.6-.2-2.1-.7c-.4.8-.9,1.5-1.5,2.2-.5.7-1.1,1.3-1.8,1.8-1.5,1.3-3.1,2-4.7,2ZM284,185.6c2.4,0,4.7-1.8,7-5.4,0-.1,0-.3.2-.4-.8-1.3-1.2-2.6-1.2-3.8v-.3c0-.2,0-.4,0-.6,0-.5.1-1,.3-1.5.1-.5.4-1,.7-1.4.7-1.1,1.5-1.6,2.4-1.6h.6c.2,0,.3,0,.4,0h.2c0-4-1.3-6-3.8-6s-4.2,1.3-6.1,3.9c-1.6,2.1-2.7,4.3-3.3,6.9-.4,1.4-.6,2.8-.6,4.3,0,4,1.1,6,3.3,6ZM284.8,159.6c0,0,.3-.3.8-.7.5-.4,1.1-.8,1.7-1.2.6-.4,1.1-.8,1.4-1,.9-.6,1.8-1.3,2.8-2,1-.7,1.6-1,1.9-1s.5.2.8.6c.3.4.3.6,0,.8-.3.2-.9.5-1.9,1.1-1,.5-2.1,1.1-3.4,1.7-1.2.6-2.4,1.2-3.5,1.7-.4.2-.7.3-.7.1Z"/>
    <path class="st0" d="M294.1,187.9h0c1.6-3.6,3.7-8.4,6.2-14.6.4-1,.9-2.3,1.4-3.8.6-1.5,1.2-3.3,1.9-5.3h.1c.4.4.8.5,1.1.5,1.1,0,2.2-1,3.1-2.9h0c0,.2-1,2.5-2.9,7.2-1.1,2.5-1.9,4.5-2.4,5.8-.5,1.3-.8,2.1-.9,2.3,5.1-9.1,9.1-13.7,12.2-13.7s1.3.2,1.8.7c.5.4.8,1,.8,1.7,0,1.9-1.3,4.9-3.8,9.2-2.5,4.3-3.8,7.2-3.8,8.8s.2,1,.7,1.3c.4.3,1,.5,1.6.5s1.3-.1,1.9-.4,1.2-.6,1.7-.9c1.2-.9,2.2-2,3.1-3.3.8-1.2,1.6-2.5,2.2-3.7.6-1.2,1.2-2.3,1.7-3.1.1-.2.3-.3.4-.2s.2.2,0,.4c-.9,1.9-1.9,3.8-2.9,5.8-1.1,2-2.4,3.5-4.1,4.7-.6.4-1.2.7-1.9,1s-1.4.4-2.2.4c-1.2,0-2.3-.3-3-1-.8-.7-1.2-1.7-1.2-3.1,0-2.4,1.1-5.4,3.3-9.1,2.3-3.7,3.4-6.1,3.4-7.1s-.4-1.1-1.3-1.1h-.4c-1,0-2.3,1.1-4,3.4-1.7,2.3-3.7,5.6-6.2,9.9-.6,1-1.2,2.1-1.8,3.4-.6,1.3-1.2,2.7-1.9,4.2h-.1c-.5-.2-1-.3-1.4-.3-.6,0-1.1.4-1.5,1.1-.4.8-.7,1.2-1,1.3Z"/>
  </g>
  <g>
    <path class="st0" d="M66.1,239.7v-.6c1.4-.2,1.5-.4,1.2-1.2-.3-.8-.7-1.8-1.1-3.1h-4.5c-.3.9-.6,1.7-.9,2.5-.5,1.4-.1,1.5,1.6,1.7v.6h-4.9v-.6c1.3-.2,1.7-.3,2.4-2.2l4.4-11h.7c1.3,3.5,2.8,7.4,4.1,11.1.7,1.9.9,2,2.4,2.2v.6h-5.4ZM64.1,228.6c-.7,1.8-1.4,3.6-2,5.2h3.8l-1.9-5.2Z"/>
    <path class="st0" d="M75.4,236.6c-.5.4-.6.7-.6,1,0,.4.4.8,1.3.8s1.7,0,2.4,0c1.3,0,3.1.5,3.1,2.5s-2.7,4.3-5.5,4.3-3.7-1.4-3.8-2.6c0-.5.2-.9.5-1.2.4-.4,1.2-1.1,1.7-1.4-.8-.2-1.3-.7-1.6-1.1-.2-.3-.3-.7-.3-1,.8-.3,1.6-.9,2-1.5l.7.2ZM76.4,236.8c-2,0-3.7-1.2-3.7-3.2s2.2-3.5,3.9-3.5,1.4.2,2.1.5c1,0,2.3-.2,2.8-.3v.2c0,.3-.3,1-.7,1.2-.3,0-1,0-1.3-.1.4.5.6,1.1.6,1.9,0,2.3-1.9,3.3-3.8,3.3ZM76.8,240c-1,0-1.5.1-1.9.4-.5.5-.9,1-.9,1.6,0,1.2,1.2,2,2.8,2s3.1-1,3.1-2.3-.4-1.3-1-1.5c-.5-.2-1.2-.3-2.1-.3ZM76.4,230.8c-.9,0-1.7.9-1.7,2.5s.8,2.8,1.9,2.8c.9,0,1.7-.8,1.7-2.5s-.7-2.8-1.9-2.8Z"/>
    <path class="st0" d="M87.3,239.7h-5v-.6c1.3-.1,1.4-.2,1.4-1.6v-4.4c0-1.3,0-1.4-1.3-1.6v-.5c1.1-.2,2.1-.4,3.1-.9v2.3c.8-1.2,1.6-2.3,2.7-2.3s1.3.5,1.3,1.1-.4,1.1-.8,1.3c-.2.1-.4,0-.6,0-.3-.3-.6-.5-1-.5s-1.2.6-1.6,1.6v4c0,1.4.1,1.5,1.7,1.6v.6Z"/>
    <path class="st0" d="M97.1,239.9c-.4,0-.8-.2-1-.4-.3-.3-.4-.6-.5-.9-.8.6-1.9,1.3-2.5,1.3-1.6,0-2.6-1.3-2.6-2.6s.6-1.7,1.7-2.1c1.3-.4,2.9-1,3.3-1.4v-.5c0-1.4-.7-2.2-1.8-2.2s-.8.2-1,.5c-.2.3-.4.8-.6,1.4-.1.4-.3.5-.7.5s-1-.4-1-1,.3-.6.7-.9c.7-.5,1.9-1.2,3.1-1.5.7,0,1.3.2,1.8.6.8.6,1.1,1.4,1.1,2.5v4c0,1,.4,1.3.7,1.3s.5,0,.7-.2l.2.6-1.9,1.1ZM95.5,234.6c-.4.2-1.3.6-1.8.8-.8.4-1.2.8-1.2,1.5,0,1.1.8,1.6,1.5,1.6s1.2-.3,1.6-.7v-3.3Z"/>
    <path class="st0" d="M110.2,239.1c-.5,0-2.1.3-3.4.8v-1.3c-.4.2-.9.5-1.3.8-.8.5-1.3.6-1.6.6-1.7,0-4-1.7-4-4.6s2.6-5.1,5.5-5.1.9,0,1.3.2v-3c0-1.3-.1-1.4-1.6-1.5v-.6c1.1-.1,2.6-.4,3.5-.7v12.6c0,1.1.1,1.2.9,1.3h.6v.7ZM106.7,232.1c-.4-.7-1.3-1.1-2.1-1.1s-2.7.6-2.7,3.7,1.6,3.9,2.9,3.9c.7,0,1.4-.3,1.9-.7v-5.8Z"/>
    <path class="st0" d="M119,237.8c-1.3,1.7-2.9,2.1-3.6,2.1-2.6,0-4.2-2.1-4.2-4.5s.5-2.8,1.4-3.7c.9-1,2.1-1.5,3.2-1.5,1.9,0,3.3,1.6,3.3,3.3,0,.4,0,.6-.4.7-.4,0-3.2.3-5.6.4,0,2.7,1.6,3.9,3.1,3.9s1.7-.3,2.4-1.1l.3.5ZM115.3,230.9c-.9,0-1.9.9-2.1,2.6,1.1,0,2.2,0,3.4,0,.4,0,.5,0,.5-.4,0-1.1-.7-2.1-1.8-2.1Z"/>
    <path class="st0" d="M128.5,237.7c-.9,1.3-2.4,2.2-3.6,2.2-2.7,0-4.3-2.2-4.3-4.5s.7-3.1,2.1-4.1c1.2-.9,2.4-1.2,3.3-1.2s1.6.3,1.9.6c.3.2.3.4.3.6,0,.5-.5,1-.8,1s-.2,0-.4-.2c-.7-.6-1.4-.9-2.1-.9-1.3,0-2.5,1.1-2.5,3.3,0,2.9,2,3.9,3.2,3.9s1.6-.2,2.5-1.1l.4.5Z"/>
    <path class="st0" d="M137.4,237.8c-1.3,1.7-2.9,2.1-3.6,2.1-2.6,0-4.2-2.1-4.2-4.5s.5-2.8,1.4-3.7c.9-1,2.1-1.5,3.2-1.5,1.9,0,3.3,1.6,3.3,3.3,0,.4,0,.6-.4.7-.4,0-3.2.3-5.6.4,0,2.7,1.6,3.9,3.1,3.9s1.7-.3,2.4-1.1l.3.5ZM133.8,230.9c-.9,0-1.9.9-2.1,2.6,1.1,0,2.2,0,3.4,0,.4,0,.5,0,.5-.4,0-1.1-.7-2.1-1.8-2.1Z"/>
    <path class="st0" d="M150.4,239.7v-.6c1.2-.1,1.3-.2,1.3-1.7v-3.5c0-1.5-.6-2.4-1.8-2.4s-1.4.4-2.2,1c0,.3,0,.5,0,.9v4.1c0,1.3.2,1.4,1.3,1.5v.6h-4.6v-.6c1.2-.1,1.4-.2,1.4-1.6v-3.7c0-1.6-.5-2.3-1.7-2.3s-1.6.5-2.2,1v5c0,1.4.1,1.4,1.3,1.6v.6h-4.6v-.6c1.4-.1,1.5-.2,1.5-1.6v-4.4c0-1.3,0-1.4-1.2-1.6v-.6c1-.1,2.1-.4,3.1-.8v1.7c.4-.3.9-.7,1.5-1.1.5-.3,1-.6,1.7-.6,1,0,1.9.6,2.3,1.7.6-.4,1.1-.8,1.6-1.2.5-.3,1.1-.6,1.7-.6,1.7,0,2.7,1.2,2.7,3.3v4.1c0,1.4.1,1.4,1.3,1.6v.6h-4.5Z"/>
    <path class="st0" d="M160.9,230.1c2.7,0,4.6,2,4.6,4.7s-2.5,5.1-4.7,5.1-4.7-2.4-4.7-4.7c0-3.4,2.7-5.1,4.8-5.1ZM160.6,230.9c-1.2,0-2.3,1.2-2.3,3.7s1.1,4.6,2.8,4.6,2.3-.9,2.3-3.8-1-4.5-2.7-4.5Z"/>
    <path class="st0" d="M172.6,232.9c-.4-1.3-1-2.1-2.2-2.1s-1.3.5-1.3,1.3.6,1.3,1.8,1.8c1.8.8,2.7,1.5,2.7,2.9s-1.8,3-3.5,3-2.1-.4-2.5-.6c-.1-.6-.3-1.8-.4-2.5h.6c.4,1.2,1.2,2.4,2.6,2.4s1.4-.5,1.4-1.4-.5-1.4-1.7-1.9c-1.5-.7-2.7-1.4-2.7-3s1.3-2.8,3.3-2.8,1.6.2,2.1.3c0,.5.2,1.9.3,2.4l-.6.2Z"/>
    <path class="st0" d="M185,244.8v-.6c1.6-.2,1.7-.2,1.7-1.7v-3.4l-2.2.9c-3.2,0-4.6-2.5-4.6-4.5,0-3.1,2.8-5.3,5.7-5.3.7,0,1.3.2,1.5.3.3,0,.4.1.6.1.1,0,.4,0,.8-.2h0c0,.5,0,.9,0,2.3v9.9c0,1.4.1,1.5,1.6,1.7v.6h-5.2ZM186.7,231.9c-.5-.6-1.3-.9-2-.9-1.4,0-2.8,1.2-2.8,3.7s1.7,4,3.3,4,1.1-.1,1.4-.3v-6.5Z"/>
    <path class="st0" d="M201.2,239.2c-1.1.2-2.2.4-3.4.7v-1.6c-1.1.9-2,1.6-3.2,1.6s-2.7-.9-2.7-3.1v-4.1c0-1.1-.2-1.2-.7-1.3h-.6v-.7c.9,0,2.4-.2,3.2-.4,0,.7,0,1.7,0,3.1v2.9c0,1.8.9,2.3,1.8,2.3s1.5-.3,2.1-.9v-4.9c0-1.1-.2-1.3-.9-1.4h-.7v-.7c1.3,0,2.9-.3,3.4-.4v7c0,1.1.2,1.2.9,1.3h.6v.6Z"/>
    <path class="st0" d="M210,237.8c-1.3,1.7-2.9,2.1-3.6,2.1-2.6,0-4.2-2.1-4.2-4.5s.5-2.8,1.4-3.7c.9-1,2.1-1.5,3.2-1.5,1.9,0,3.3,1.6,3.3,3.3,0,.4,0,.6-.4.7-.4,0-3.2.3-5.6.4,0,2.7,1.6,3.9,3.1,3.9s1.7-.3,2.4-1.1l.3.5ZM206.3,230.9c-.9,0-1.9.9-2.1,2.6,1.1,0,2.2,0,3.4,0,.4,0,.5,0,.5-.4,0-1.1-.7-2.1-1.8-2.1Z"/>
    <path class="st0" d="M224.2,237.7c-.9,1.3-2.4,2.2-3.6,2.2-2.7,0-4.3-2.2-4.3-4.5s.7-3.1,2.1-4.1c1.2-.9,2.4-1.2,3.3-1.2s1.6.3,1.9.6c.3.2.3.4.3.6,0,.5-.5,1-.8,1s-.2,0-.4-.2c-.7-.6-1.4-.9-2.1-.9-1.3,0-2.5,1.1-2.5,3.3,0,2.9,2,3.9,3.2,3.9s1.6-.2,2.5-1.1l.4.5Z"/>
    <path class="st0" d="M230.1,230.1c2.7,0,4.6,2,4.6,4.7s-2.5,5.1-4.7,5.1-4.7-2.4-4.7-4.7c0-3.4,2.7-5.1,4.8-5.1ZM229.9,230.9c-1.2,0-2.3,1.2-2.3,3.7s1.1,4.6,2.8,4.6,2.3-.9,2.3-3.8-1-4.5-2.7-4.5Z"/>
    <path class="st0" d="M242.2,239.7v-.6c1.2-.1,1.3-.3,1.3-1.7v-3.5c0-1.5-.6-2.4-1.8-2.4s-1.6.5-2.2,1v5c0,1.4.1,1.5,1.3,1.6v.6h-4.6v-.6c1.3-.2,1.5-.2,1.5-1.6v-4.4c0-1.4-.2-1.4-1.3-1.6v-.6c1.1-.2,2.2-.4,3.1-.8,0,.5,0,1.1,0,1.6.4-.3.9-.6,1.4-1,.6-.4,1.1-.6,1.7-.6,1.7,0,2.8,1.2,2.8,3.3v4c0,1.4.1,1.5,1.3,1.6v.6h-4.4Z"/>
    <path class="st0" d="M253.6,239.7v-.6c1.2-.1,1.3-.2,1.3-1.5v-5.1c0-1,0-1.2-1.1-1.2h-2.8v6.3c0,1.3.2,1.4,1.4,1.5v.6h-4.8v-.6c1.3-.1,1.5-.2,1.5-1.5v-6.3h-1.5v-.3c0,0,.4-.6.4-.6h1.1c0-2.1.7-3.6,2-4.7.9-.7,1.9-1.1,2.8-1.2,1.4,0,2.2.6,2.5,1,.1.2.2.4.2.6,0,.3-.4.8-.7.9-.3.2-.6.2-.8-.1-.4-.5-1.2-1.3-2.2-1.3s-1,.3-1.2.7c-.4.5-.6,1.8-.6,3.4v.6h1.8c1.6,0,3,0,4-.3v7.4c0,1.3.1,1.4,1.5,1.5v.6h-4.7Z"/>
    <path class="st0" d="M264.4,239.7h-5v-.6c1.3-.1,1.4-.2,1.4-1.6v-4.4c0-1.3,0-1.4-1.3-1.6v-.5c1.1-.2,2.1-.4,3.1-.9v2.3c.8-1.2,1.6-2.3,2.7-2.3s1.3.5,1.3,1.1-.4,1.1-.8,1.3c-.2.1-.4,0-.6,0-.3-.3-.6-.5-1-.5s-1.2.6-1.6,1.6v4c0,1.4.1,1.5,1.7,1.6v.6Z"/>
    <path class="st0" d="M279,239.7v-.6c1.2-.1,1.3-.2,1.3-1.7v-3.5c0-1.5-.6-2.4-1.8-2.4s-1.4.4-2.2,1c0,.3,0,.5,0,.9v4.1c0,1.3.2,1.4,1.3,1.5v.6h-4.6v-.6c1.2-.1,1.4-.2,1.4-1.6v-3.7c0-1.6-.5-2.3-1.7-2.3s-1.6.5-2.2,1v5c0,1.4.1,1.4,1.3,1.6v.6h-4.6v-.6c1.4-.1,1.5-.2,1.5-1.6v-4.4c0-1.3,0-1.4-1.2-1.6v-.6c1-.1,2.1-.4,3.1-.8v1.7c.4-.3.9-.7,1.5-1.1.5-.3,1-.6,1.7-.6,1,0,1.9.6,2.3,1.7.6-.4,1.1-.8,1.6-1.2.5-.3,1.1-.6,1.7-.6,1.7,0,2.7,1.2,2.7,3.3v4.1c0,1.4.1,1.4,1.3,1.6v.6h-4.5Z"/>
    <path class="st0" d="M292.5,237.8c-1.3,1.7-2.9,2.1-3.6,2.1-2.6,0-4.2-2.1-4.2-4.5s.5-2.8,1.4-3.7c.9-1,2.1-1.5,3.2-1.5,1.9,0,3.3,1.6,3.3,3.3,0,.4,0,.6-.4.7-.4,0-3.2.3-5.6.4,0,2.7,1.6,3.9,3.1,3.9s1.7-.3,2.4-1.1l.3.5ZM288.8,230.9c-.9,0-1.9.9-2.1,2.6,1.1,0,2.2,0,3.4,0,.4,0,.5,0,.5-.4,0-1.1-.7-2.1-1.8-2.1Z"/>
    <path class="st0" d="M299.4,232.9c-.4-1.3-1-2.1-2.2-2.1s-1.3.5-1.3,1.3.6,1.3,1.8,1.8c1.8.8,2.7,1.5,2.7,2.9s-1.8,3-3.5,3-2.1-.4-2.5-.6c-.1-.6-.3-1.8-.4-2.5h.6c.4,1.2,1.2,2.4,2.6,2.4s1.4-.5,1.4-1.4-.5-1.4-1.7-1.9c-1.5-.7-2.7-1.4-2.7-3s1.3-2.8,3.3-2.8,1.6.2,2.1.3c0,.5.2,1.9.3,2.4l-.6.2Z"/>
    <path class="st0" d="M310.9,239.7c-.4.2-.7.3-.9.3-1.4,0-2.2-.8-2.2-2.5v-6.1h-1.4v-.3c0,0,.5-.6.5-.6h1v-1.8c.5-.4,1.1-1,1.6-1.4h.3c0,.9,0,2.1,0,3.2h2.4c.2.2.1.7-.1.9h-2.2v5.4c0,1.7.7,2,1.2,2s.9-.2,1.2-.3l.2.6-1.4.7Z"/>
    <path class="st0" d="M323.2,239.2c-1.1.2-2.2.4-3.4.7v-1.6c-1.1.9-2,1.6-3.2,1.6s-2.7-.9-2.7-3.1v-4.1c0-1.1-.2-1.2-.7-1.3h-.6v-.7c.9,0,2.4-.2,3.2-.4,0,.7,0,1.7,0,3.1v2.9c0,1.8.9,2.3,1.8,2.3s1.5-.3,2.1-.9v-4.9c0-1.1-.2-1.3-.9-1.4h-.7v-.7c1.3,0,2.9-.3,3.4-.4v7c0,1.1.2,1.2.9,1.3h.6v.6Z"/>
    <path class="st0" d="M61.7,265.2c-.4,0-.8-.2-1-.4-.3-.3-.4-.6-.5-.9-.8.6-1.9,1.3-2.5,1.3-1.6,0-2.6-1.3-2.6-2.6s.6-1.7,1.7-2.1c1.3-.4,2.9-1,3.3-1.4v-.5c0-1.4-.7-2.2-1.8-2.2s-.8.2-1,.5c-.2.3-.4.8-.6,1.4-.1.4-.3.5-.7.5s-1-.4-1-1,.3-.6.7-.9c.7-.5,1.9-1.2,3.1-1.5.7,0,1.3.2,1.8.6.8.6,1.1,1.4,1.1,2.5v4c0,1,.4,1.3.7,1.3s.5,0,.7-.2l.2.6-1.9,1.1ZM60.1,259.9c-.4.2-1.3.6-1.8.8-.8.4-1.2.8-1.2,1.5,0,1.1.8,1.6,1.5,1.6s1.2-.3,1.6-.7v-3.3Z"/>
    <path class="st0" d="M69.8,258.3c-.4-1.3-1-2.1-2.2-2.1s-1.3.5-1.3,1.3.6,1.3,1.8,1.8c1.8.8,2.7,1.5,2.7,2.9s-1.8,3-3.5,3-2.1-.4-2.5-.6c-.1-.6-.3-1.8-.4-2.5h.6c.4,1.2,1.2,2.4,2.6,2.4s1.4-.5,1.4-1.4-.5-1.4-1.7-1.9c-1.5-.7-2.7-1.4-2.7-3s1.3-2.8,3.3-2.8,1.6.2,2.1.3c0,.5.2,1.9.3,2.4l-.6.2Z"/>
    <path class="st0" d="M72.2,265v-.6c1.3-.1,1.4-.2,1.4-1.7v-4.3c0-1.3,0-1.4-1.3-1.6v-.5c1.1-.2,2.2-.5,3.1-.8v7.3c0,1.4.1,1.5,1.5,1.7v.6h-4.8ZM74.4,253.5c-.6,0-1.2-.6-1.2-1.2s.6-1.2,1.2-1.2,1.2.5,1.2,1.2-.5,1.2-1.2,1.2Z"/>
    <path class="st0" d="M83.5,258.3c-.4-1.3-1-2.1-2.2-2.1s-1.3.5-1.3,1.3.6,1.3,1.8,1.8c1.8.8,2.7,1.5,2.7,2.9s-1.8,3-3.5,3-2.1-.4-2.5-.6c-.1-.6-.3-1.8-.4-2.5h.6c.4,1.2,1.2,2.4,2.6,2.4s1.4-.5,1.4-1.4-.5-1.4-1.7-1.9c-1.5-.7-2.7-1.4-2.7-3s1.3-2.8,3.3-2.8,1.6.2,2.1.3c0,.5.2,1.9.3,2.4l-.6.2Z"/>
    <path class="st0" d="M89.9,265c-.4.2-.7.3-.9.3-1.4,0-2.2-.8-2.2-2.5v-6.1h-1.4v-.3c0,0,.5-.6.5-.6h1v-1.8c.5-.4,1.1-1,1.6-1.4h.3c0,.9,0,2.1,0,3.2h2.4c.2.2.1.7-.1.9h-2.2v5.4c0,1.7.7,2,1.2,2s.9-.2,1.2-.3l.2.6-1.4.7Z"/>
    <path class="st0" d="M99.7,263.1c-1.3,1.7-2.9,2.1-3.6,2.1-2.6,0-4.2-2.1-4.2-4.5s.5-2.8,1.4-3.7c.9-1,2.1-1.5,3.2-1.5,1.9,0,3.3,1.6,3.3,3.3,0,.4,0,.6-.4.7-.4,0-3.2.3-5.6.4,0,2.7,1.6,3.9,3.1,3.9s1.7-.3,2.4-1.1l.3.5ZM96,256.3c-.9,0-1.9.9-2.1,2.6,1.1,0,2.2,0,3.4,0,.4,0,.5,0,.5-.4,0-1.1-.7-2.1-1.8-2.1Z"/>
    <path class="st0" d="M107.1,265v-.6c1.2-.1,1.3-.3,1.3-1.7v-3.5c0-1.5-.6-2.4-1.8-2.4s-1.6.5-2.2,1v5c0,1.4.1,1.5,1.3,1.6v.6h-4.6v-.6c1.3-.2,1.5-.2,1.5-1.6v-4.4c0-1.4-.2-1.4-1.3-1.6v-.6c1.1-.2,2.2-.4,3.1-.8,0,.5,0,1.1,0,1.6.4-.3.9-.6,1.4-1,.6-.4,1.1-.6,1.7-.6,1.7,0,2.8,1.2,2.8,3.3v4c0,1.4.1,1.5,1.3,1.6v.6h-4.4Z"/>
    <path class="st0" d="M120.8,263.1c-.9,1.3-2.4,2.2-3.6,2.2-2.7,0-4.3-2.2-4.3-4.5s.7-3.1,2.1-4.1c1.2-.9,2.4-1.2,3.3-1.2s1.6.3,1.9.6c.3.2.3.4.3.6,0,.5-.5,1-.8,1s-.2,0-.4-.2c-.7-.6-1.4-.9-2.1-.9-1.3,0-2.5,1.1-2.5,3.3,0,2.9,2,3.9,3.2,3.9s1.6-.2,2.5-1.1l.4.5Z"/>
    <path class="st0" d="M121.8,265v-.6c1.3-.1,1.4-.2,1.4-1.7v-4.3c0-1.3,0-1.4-1.3-1.6v-.5c1.1-.2,2.2-.5,3.1-.8v7.3c0,1.4.1,1.5,1.5,1.7v.6h-4.8ZM124.1,253.5c-.6,0-1.2-.6-1.2-1.2s.6-1.2,1.2-1.2,1.2.5,1.2,1.2-.5,1.2-1.2,1.2Z"/>
    <path class="st0" d="M134.4,265.2c-.4,0-.8-.2-1-.4-.3-.3-.4-.6-.5-.9-.8.6-1.9,1.3-2.5,1.3-1.6,0-2.6-1.3-2.6-2.6s.6-1.7,1.7-2.1c1.3-.4,2.9-1,3.3-1.4v-.5c0-1.4-.7-2.2-1.8-2.2s-.8.2-1,.5c-.2.3-.4.8-.6,1.4-.1.4-.3.5-.7.5s-1-.4-1-1,.3-.6.7-.9c.7-.5,1.9-1.2,3.1-1.5.7,0,1.3.2,1.8.6.8.6,1.1,1.4,1.1,2.5v4c0,1,.4,1.3.7,1.3s.5,0,.7-.2l.2.6-1.9,1.1ZM132.8,259.9c-.4.2-1.3.6-1.8.8-.8.4-1.2.8-1.2,1.5,0,1.1.8,1.6,1.5,1.6s1.2-.3,1.6-.7v-3.3Z"/>
    <path class="st0" d="M141.7,265v-.6c1.3-.1,1.5-.2,1.5-1.6v-10c0-1.3-.1-1.4-1.4-1.6v-.6c1.2-.1,2.5-.5,3.3-.7v12.9c0,1.4.1,1.5,1.5,1.6v.6h-4.8Z"/>
    <path class="st0" d="M152.4,255.5c2.7,0,4.6,2,4.6,4.7s-2.5,5.1-4.7,5.1-4.7-2.4-4.7-4.7c0-3.4,2.7-5.1,4.8-5.1ZM152.2,256.2c-1.2,0-2.3,1.2-2.3,3.7s1.1,4.6,2.8,4.6,2.3-.9,2.3-3.8-1-4.5-2.7-4.5Z"/>
    <path class="st0" d="M175,265v-.6c1.2-.1,1.3-.2,1.3-1.7v-3.5c0-1.5-.6-2.4-1.8-2.4s-1.4.4-2.2,1c0,.3,0,.5,0,.9v4.1c0,1.3.2,1.4,1.3,1.5v.6h-4.6v-.6c1.2-.1,1.4-.2,1.4-1.6v-3.7c0-1.6-.5-2.3-1.7-2.3s-1.6.5-2.2,1v5c0,1.4.1,1.4,1.3,1.6v.6h-4.6v-.6c1.4-.1,1.5-.2,1.5-1.6v-4.4c0-1.3,0-1.4-1.2-1.6v-.6c1-.1,2.1-.4,3.1-.8v1.7c.4-.3.9-.7,1.5-1.1.5-.3,1-.6,1.7-.6,1,0,1.9.6,2.3,1.7.6-.4,1.1-.8,1.6-1.2.5-.3,1.1-.6,1.7-.6,1.7,0,2.7,1.2,2.7,3.3v4.1c0,1.4.1,1.4,1.3,1.6v.6h-4.5Z"/>
    <path class="st0" d="M187.5,265.2c-.4,0-.8-.2-1-.4-.3-.3-.4-.6-.5-.9-.8.6-1.9,1.3-2.5,1.3-1.6,0-2.6-1.3-2.6-2.6s.6-1.7,1.7-2.1c1.3-.4,2.9-1,3.3-1.4v-.5c0-1.4-.7-2.2-1.8-2.2s-.8.2-1,.5c-.2.3-.4.8-.6,1.4-.1.4-.3.5-.7.5s-1-.4-1-1,.3-.6.7-.9c.7-.5,1.9-1.2,3.1-1.5.7,0,1.3.2,1.8.6.8.6,1.1,1.4,1.1,2.5v4c0,1,.4,1.3.7,1.3s.5,0,.7-.2l.2.6-1.9,1.1ZM185.9,259.9c-.4.2-1.3.6-1.8.8-.8.4-1.2.8-1.2,1.5,0,1.1.8,1.6,1.5,1.6s1.2-.3,1.6-.7v-3.3Z"/>
    <path class="st0" d="M195.7,258.3c-.4-1.3-1-2.1-2.2-2.1s-1.3.5-1.3,1.3.6,1.3,1.8,1.8c1.8.8,2.7,1.5,2.7,2.9s-1.8,3-3.5,3-2.1-.4-2.5-.6c-.1-.6-.3-1.8-.4-2.5h.6c.4,1.2,1.2,2.4,2.6,2.4s1.4-.5,1.4-1.4-.5-1.4-1.7-1.9c-1.5-.7-2.7-1.4-2.7-3s1.3-2.8,3.3-2.8,1.6.2,2.1.3c0,.5.2,1.9.3,2.4l-.6.2Z"/>
    <path class="st0" d="M202.7,256.2c1-.2,2.2-.5,3.2-.9v1.7c0,0,1.7-1,1.8-1,.5-.3,1-.4,1.3-.4,2.3,0,3.7,2,3.7,4.1,0,3.2-2.5,5.2-5.3,5.7-.6,0-1.2-.2-1.5-.3v2.8c0,1.5.2,1.6,1.8,1.8v.6h-5.1v-.6c1.4-.1,1.5-.3,1.5-1.6v-9.6c0-1.2,0-1.3-1.4-1.5v-.6ZM205.9,263.4c.5.5,1.3.8,2,.8,1.7,0,2.8-1.5,2.8-3.9s-1.3-3.6-2.7-3.6-1.5.4-2,.8v5.8Z"/>
    <path class="st0" d="M219.1,265h-5v-.6c1.3-.1,1.4-.2,1.4-1.6v-4.4c0-1.3,0-1.4-1.3-1.6v-.5c1.1-.2,2.1-.4,3.1-.9v2.3c.8-1.2,1.6-2.3,2.7-2.3s1.3.5,1.3,1.1-.4,1.1-.8,1.3c-.2.1-.4,0-.6,0-.3-.3-.6-.5-1-.5s-1.2.6-1.6,1.6v4c0,1.4.1,1.5,1.7,1.6v.6Z"/>
    <path class="st0" d="M226.8,255.5c2.7,0,4.6,2,4.6,4.7s-2.5,5.1-4.7,5.1-4.7-2.4-4.7-4.7c0-3.4,2.7-5.1,4.8-5.1ZM226.5,256.2c-1.2,0-2.3,1.2-2.3,3.7s1.1,4.6,2.8,4.6,2.3-.9,2.3-3.8-1-4.5-2.7-4.5Z"/>
    <path class="st0" d="M238.8,265v-.6c1.2-.1,1.3-.3,1.3-1.7v-3.5c0-1.5-.6-2.4-1.8-2.4s-1.6.5-2.2,1v5c0,1.4.1,1.5,1.3,1.6v.6h-4.6v-.6c1.3-.2,1.5-.2,1.5-1.6v-4.4c0-1.4-.2-1.4-1.3-1.6v-.6c1.1-.2,2.2-.4,3.1-.8,0,.5,0,1.1,0,1.6.4-.3.9-.6,1.4-1,.6-.4,1.1-.6,1.7-.6,1.7,0,2.8,1.2,2.8,3.3v4c0,1.4.1,1.5,1.3,1.6v.6h-4.4Z"/>
    <path class="st0" d="M248.5,265c-.4.2-.7.3-.9.3-1.4,0-2.2-.8-2.2-2.5v-6.1h-1.4v-.3c0,0,.5-.6.5-.6h1v-1.8c.5-.4,1.1-1,1.6-1.4h.3c0,.9,0,2.1,0,3.2h2.4c.2.2.1.7-.1.9h-2.2v5.4c0,1.7.7,2,1.2,2s.9-.2,1.2-.3l.2.6-1.4.7Z"/>
    <path class="st0" d="M255.3,255.5c2.7,0,4.6,2,4.6,4.7s-2.5,5.1-4.7,5.1-4.7-2.4-4.7-4.7c0-3.4,2.7-5.1,4.8-5.1ZM255.1,256.2c-1.2,0-2.3,1.2-2.3,3.7s1.1,4.6,2.8,4.6,2.3-.9,2.3-3.8-1-4.5-2.7-4.5Z"/>
    <path class="st0" d="M266.1,256.2c1-.2,2.2-.5,3.2-.9v1.7c0,0,1.7-1,1.8-1,.5-.3,1-.4,1.3-.4,2.3,0,3.7,2,3.7,4.1,0,3.2-2.5,5.2-5.3,5.7-.6,0-1.2-.2-1.5-.3v2.8c0,1.5.2,1.6,1.8,1.8v.6h-5.1v-.6c1.4-.1,1.5-.3,1.5-1.6v-9.6c0-1.2,0-1.3-1.4-1.5v-.6ZM269.3,263.4c.5.5,1.3.8,2,.8,1.7,0,2.8-1.5,2.8-3.9s-1.3-3.6-2.7-3.6-1.5.4-2,.8v5.8Z"/>
    <path class="st0" d="M282.6,255.5c2.7,0,4.6,2,4.6,4.7s-2.5,5.1-4.7,5.1-4.7-2.4-4.7-4.7c0-3.4,2.7-5.1,4.8-5.1ZM282.3,256.2c-1.2,0-2.3,1.2-2.3,3.7s1.1,4.6,2.8,4.6,2.3-.9,2.3-3.8-1-4.5-2.7-4.5Z"/>
    <path class="st0" d="M294.3,258.3c-.4-1.3-1-2.1-2.2-2.1s-1.3.5-1.3,1.3.6,1.3,1.8,1.8c1.8.8,2.7,1.5,2.7,2.9s-1.8,3-3.5,3-2.1-.4-2.5-.6c-.1-.6-.3-1.8-.4-2.5h.6c.4,1.2,1.2,2.4,2.6,2.4s1.4-.5,1.4-1.4-.5-1.4-1.7-1.9c-1.5-.7-2.7-1.4-2.7-3s1.3-2.8,3.3-2.8,1.6.2,2.1.3c0,.5.2,1.9.3,2.4l-.6.2Z"/>
    <path class="st0" d="M296.6,265v-.6c1.3-.1,1.4-.2,1.4-1.7v-4.3c0-1.3,0-1.4-1.3-1.6v-.5c1.1-.2,2.2-.5,3.1-.8v7.3c0,1.4.1,1.5,1.5,1.7v.6h-4.8ZM298.8,253.5c-.6,0-1.2-.6-1.2-1.2s.6-1.2,1.2-1.2,1.2.5,1.2,1.2-.5,1.2-1.2,1.2Z"/>
    <path class="st0" d="M306.8,255.7c.4-.2.7-.2,1-.2,2.3,0,4.2,2,4.2,4.5s-2.5,5.3-5.3,5.3c-1,0-2.1-.2-3.3-.8,0-.5,0-1.1,0-1.7v-10.1c0-1.3,0-1.4-1.4-1.5v-.6c1-.1,2.4-.4,3.3-.7v6.5l1.5-.7ZM305.3,262.6c0,.3,0,.5.1.7.2.5,1,1.1,2,1.1,1.7,0,2.6-1.5,2.6-3.9s-1.4-3.8-3.1-3.8-1.2.2-1.6.4v5.5Z"/>
    <path class="st0" d="M313.2,265v-.6c1.3-.1,1.5-.2,1.5-1.6v-10c0-1.3-.1-1.4-1.4-1.6v-.6c1.2-.1,2.5-.5,3.3-.7v12.9c0,1.4.1,1.5,1.5,1.6v.6h-4.8Z"/>
    <path class="st0" d="M326.9,263.1c-1.3,1.7-2.9,2.1-3.6,2.1-2.6,0-4.2-2.1-4.2-4.5s.5-2.8,1.4-3.7c.9-1,2.1-1.5,3.2-1.5,1.9,0,3.3,1.6,3.3,3.3,0,.4,0,.6-.4.7-.4,0-3.2.3-5.6.4,0,2.7,1.6,3.9,3.1,3.9s1.7-.3,2.4-1.1l.3.5ZM323.2,256.3c-.9,0-1.9.9-2.1,2.6,1.1,0,2.2,0,3.4,0,.4,0,.5,0,.5-.4,0-1.1-.7-2.1-1.8-2.1Z"/>
  </g>
  <g>
    <path class="st0" d="M161.6,26.2h22.7v-2.2c0-.6.5-1.9.8-2.5,2.5-4.5,9.1-4.5,11.6,0s.8,1.9.8,2.5v2.2h22.7v-2.2c0-.6.5-2,.8-2.5,2.5-4.5,9.1-4.5,11.6,0s.8,1.8.8,2.5v2.2c1.6,0,3.2,0,4.6.7,2.7,1.2,4.5,3.9,4.8,6.8v70.8c-.4,4.5-3.7,7.4-8.2,7.6s-5.8,0-8.7,0h-20.8c-.1,0-.3,0-.4,0-19.6,0-39.3.1-58.9,0-3.6-.4-6.5-3.2-7-6.8-.2-23.9,0-47.8,0-71.6.3-3.2,2.5-6.1,5.6-7.1s2.5-.4,3.8-.4v-2.2c0-.6.5-1.9.8-2.4,2.5-4.5,9.1-4.6,11.7,0,.3.5.8,1.9.8,2.5v2.2ZM155,22.7c-1.3,0-2,1.1-2,2.3s0,3.2,0,4.8-.5,4.1,1.7,4.4,2-.5,2.3-1.6c-.1-2.6.2-5.5,0-8.1s-1-1.9-2-1.8ZM191,22.7c-1,0-1.8.7-1.9,1.7.1,2.6-.3,5.6,0,8.1s3.4,2.4,3.9.3c-.1-2.6.2-5.6,0-8.2s-.9-1.9-2-1.9ZM225.6,23.3c-.3.3-.5.8-.6,1.2-.3,2.6.2,5.5,0,8.1.4,1.8,2.7,2.3,3.7.7s.2-2,.3-2.9,0-1.4,0-2.1c0-1.1,0-2.9,0-4-.2-1.6-2.3-2.1-3.4-1.1ZM148.3,30.8h-1.7c-1.3,0-3.1,1.7-3.1,3v10.2h94.8v-10.2c0-1.3-1.8-3-3.1-3h-1.7v2.3c0,.6-.5,1.8-.7,2.3-2.4,4.6-9.1,4.7-11.7.2s-.9-2-.9-2.6v-2.2h-22.7v2.3c0,.5-.5,1.8-.7,2.3-2.5,4.7-9.4,4.7-11.8,0s-.7-1.8-.7-2.3v-2.3h-22.7v2.3c0,.2-.2.8-.3,1.1-1.6,5.4-8.7,6.5-11.9,1.9s-1.1-2.2-1.1-3v-2.2ZM238.4,48.8h-94.8v55.7c0,1.2,1.6,2.8,2.8,2.9,29.7.2,59.5.1,89.2,0,1.2,0,2.8-1.7,2.8-2.9v-55.7Z"/>
    <path class="st0" d="M191.1,61.9c.3-.4.7-.9,1.1-1.2,7-6.3,18.4-3.1,21,6,3.5,12-9.3,23.7-18,29.8-.8.6-1.7,1.2-2.5,1.7-2.1,1.2-2.7.4-4.4-.8-7.4-5.2-17.8-14.5-19.7-23.7s-.2-7.6,1.9-10.7c3.9-5.7,11.7-7.4,17.6-3.7s2.1,1.6,3,2.6ZM180.6,62.1c-5.5.4-8.6,5.4-7.5,10.6s9.9,14.9,15.6,19.2,1.6,1.4,2.2,1.7.2.1.3,0c4.5-3.1,8.9-6.7,12.5-10.9s6.9-9.9,4.9-15.4c-2.3-6.2-10.8-7.2-14.5-1.7s-1,3-3,3.1-2-1.4-2.7-2.6c-1.6-2.7-4.6-4.3-7.7-4.1Z"/>
  </g>
</svg>