<?xml version="1.0" encoding="UTF-8"?>
<svg id="Capa_1" xmlns="http://www.w3.org/2000/svg" version="1.1" viewBox="0 0 382 340">
  <!-- Generator: Adobe Illustrator 29.5.1, SVG Export Plug-In . SVG Version: 2.1.0 Build 141)  -->
  <defs>
    <style>
      .st0 {
        fill: #b3907a;
      }
    </style>
  </defs>
  <g>
    <path class="st0" d="M74.4,188.8c-4.5,0-8.1-1.3-10.8-4-2.6-2.7-3.9-6.4-3.9-10.9,0-7.2,3-13.7,9-19.5-2.3-2-3.4-4.1-3.4-6.4,0-4.2,2.5-6.3,7.5-6.3s2.6.2,3.8.6c1.2.4,2.4.9,3.6,1.7h0c0,.1,0,.2,0,.2v.2c0,.1,0,.2,0,.2s-.2,0-.4-.2c-2-1.2-4-1.8-6.1-1.8s-3.6.5-4.9,1.4c-1.5,1-2.2,2.5-2.2,4.4s.9,3.7,2.8,5.4c5.8-5.4,13.1-8.1,21.9-8.1s5.5.4,7.6,1.3c3.1,1.1,4.6,2.9,4.6,5.4s-1.2,3.5-3.7,4.9c-.8.5-1.8,1-2.8,1.4s-2.1.7-3.3.9c-2,.4-4.2.6-6.5.6-6.1,0-11.3-1.3-15.7-3.8-5,5.7-7.6,11.8-7.6,18.4s.8,6.6,2.5,9.1c1.9,2.9,4.5,4.3,8,4.3,6.6,0,12.1-3.2,16.3-9.6,1.4-2.2,2.1-4.2,2.1-6s-.5-2.8-1.6-3.8c-1-1-2.3-1.5-3.9-1.5s-2.9.4-4.2,1.3c-1.3.8-2.3,2-2.9,3.5,0,.4-.3.5-.5.5s-.3-.1-.3-.3v-.4c.6-1.6,1.6-2.9,3.2-3.9,1.5-.9,3.1-1.4,4.9-1.4s3.5.6,4.8,1.7c1.2,1.2,1.8,2.7,1.8,4.6s-.6,4.2-1.9,6.2c-1.8,2.9-4.4,5.2-7.8,7-3.3,1.8-6.7,2.7-10.2,2.7h.3ZM85.6,159.2c1.6,0,3.3-.1,4.9-.4,1.6-.3,3.2-.6,4.8-1.1,4.5-1.4,6.7-3.4,6.7-5.9,0-3.6-3.4-5.4-10.2-5.4s-13.8,3.1-19.7,9.2c4,2.3,8.5,3.5,13.6,3.5h-.1Z"/>
    <path class="st0" d="M105,186.2c-2,0-3.5-.8-4.5-2.5-.9-1.4-1.4-3.2-1.4-5.2,0-3.5,1.1-6.8,3.3-9.8,2.5-3.3,5.4-4.9,8.8-4.9s3.1.6,4,1.8,1.3,2.6,1.3,4.4,0,1.6-.2,2.5c-.2.8-.4,1.7-.7,2.7-.7,2-1.5,3.5-2.5,4.6v.2c.6.3,1.1.5,1.7.5,1.3,0,2.4-.4,3.3-1.3.9-.8,1.9-2.4,3-4.5,0-.2,0-.3.3-.3s.2,0,.2.2v.4c-.9,2-1.9,3.5-3,4.5-1,1-2.3,1.5-3.6,1.5s-1.6-.2-2.1-.7c-.4.8-.9,1.5-1.5,2.2-.5.7-1.1,1.3-1.8,1.8-1.5,1.3-3.1,2-4.7,2h0ZM105.5,185.6c2.4,0,4.7-1.8,7-5.4,0-.1,0-.3.2-.4-.8-1.3-1.2-2.6-1.2-3.8v-.9c0-.5,0-1,.3-1.5,0-.5.4-1,.7-1.4.7-1.1,1.5-1.6,2.4-1.6h1.2c0-4-1.3-6-3.8-6s-4.2,1.3-6.1,3.9c-1.6,2.1-2.7,4.3-3.3,6.9-.4,1.4-.6,2.8-.6,4.3,0,4,1.1,6,3.3,6h0Z"/>
    <path class="st0" d="M115.6,187.9h0c1.6-3.6,3.7-8.4,6.2-14.6.4-1,.9-2.3,1.4-3.8.6-1.5,1.2-3.3,1.9-5.3h0c.4.4.8.5,1.1.5,1.1,0,2.2-1,3.1-2.9h0c0,.2-1,2.5-2.9,7.2-1.1,2.5-1.9,4.5-2.4,5.8s-.8,2.1-.9,2.3c5.1-9.1,9.1-13.7,12.2-13.7s1.3.2,1.8.7c.5.4.8,1,.8,1.7,0,1.9-1.3,4.9-3.8,9.2s-3.8,7.2-3.8,8.8.2,1,.7,1.3c.4.3,1,.5,1.6.5s1.3-.1,1.9-.4,1.2-.6,1.7-.9c1.2-.9,2.2-2,3.1-3.3.8-1.2,1.6-2.5,2.2-3.7.6-1.2,1.2-2.3,1.7-3.1.1-.2.3-.3.4-.2s.2.2,0,.4c-.9,1.9-1.9,3.8-2.9,5.8-1.1,2-2.4,3.5-4.1,4.7-.6.4-1.2.7-1.9,1s-1.4.4-2.2.4c-1.2,0-2.3-.3-3-1-.8-.7-1.2-1.7-1.2-3.1,0-2.4,1.1-5.4,3.3-9.1,2.3-3.7,3.4-6.1,3.4-7.1s-.4-1.1-1.3-1.1h-.4c-1,0-2.3,1.1-4,3.4-1.7,2.3-3.7,5.6-6.2,9.9-.6,1-1.2,2.1-1.8,3.4-.6,1.3-1.2,2.7-1.9,4.2h0c-.5-.2-1-.3-1.4-.3-.6,0-1.1.4-1.5,1.1-.4.8-.7,1.2-1,1.3h.1Z"/>
    <path class="st0" d="M142.5,206h-.5c-3-.6-4.5-3.4-4.5-8.6s2-14.6,6-24.8c5.4-13.5,10.9-22.3,16.7-26.5,1.9-1.4,3.7-2.1,5.3-2.1s3.1,1,3.1,2.9c0,5.4-7.4,15-22.1,28.6h0c-4.4,11.1-6.6,19.5-6.6,25.1s.8,4.7,2.5,4.7,3.4-1.4,4.8-4.1c.5-.9.9-1.9,1.3-3,.4-1,.7-2.2,1-3.3.1-.7.2-1.4.3-2,0-.6.1-1.3.1-1.9,0-2.6-.7-4.8-2-6.6-2.2,0-3.3-.6-3.3-1.7s.3-.8.9-.8c1,0,1.9.7,2.7,2.1h.5c2.5,0,4.9-.9,7.2-2.9,1.3-1.1,2.4-2.5,3.3-4,.3-1,.8-2.1,1.3-3.2l5.1-9.8h.2c.1.2.4.3.8.3.8,0,1.9-.5,3.3-1.5h.1c0,.1-5.7,11.2-5.7,11.2-2.4,4.5-3.5,7.7-3.5,9.5s.8,2.3,2.5,2.3c3.5,0,6.8-3.7,9.9-11.2h.3v.3c-3.2,7.6-6.7,11.4-10.5,11.4s-4.7-1.6-4.7-4.7.1-1.9.3-2.9c-2.9,4.2-6.4,6.2-10.4,6,1.2,1.9,1.8,4.2,1.8,7.1s0,1.1,0,1.7-.1,1.1-.3,1.6c-.8,4.9-2.6,8.3-5.4,10.2-.9.6-1.7.9-2.5.9l.7-.3ZM147,174.4c14-13.1,20.9-22.3,20.9-27.6s-.7-2.2-2-2.2c-3.1,0-6.9,4.2-11.3,12.6-2.9,5.5-5.5,11.2-7.6,17.3h0ZM171.4,157.6c-1.5,0-2.2-.7-2.2-2.1s.7-2.2,2.1-2.2,2.2.7,2.2,2-.7,2.3-2.1,2.3ZM174,174.7h0Z"/>
    <path class="st0" d="M180,185.8c-2.7,0-4-1.2-4-3.5s.7-4,2.2-6.4c.5-.8,1.8-2.7,4.1-5.7,1.5-2,2.2-3.3,2.2-4.1s-.6-1.1-1.9-1.1h-2.8c-1,0-1.8,0-2.4.1-.1.7-.3,1.5-.6,2.5-.3.9-.6,1.9-.9,2.9-.2.6-.6,1.5-1,2.5-.5,1.1-1.1,2.2-1.8,3.4-.1.2-.2.3-.3.3s0,0,0-.1c0-.2,0-.5.3-.9.4-.6.8-1.4,1.2-2.3.4-.9.9-1.9,1.3-3,.4-1,.7-2,1-3.1s.5-1.8.5-2.2c-1.1-.7-1.6-1.7-1.6-3s.5-2.3,1.6-2.3,1.1.7,1.1,2.1,0,.7-.1,1.1c0,.4-.2,1-.3,1.6.6,0,1.6,0,3-.2h3.9c2.3,0,3.4.7,3.4,2.1s-1.8,4.5-5.3,9.1c-.8,1.1-1.6,2.4-2.5,3.8-.9,1.4-1.4,2.8-1.4,4.3s0,.8.3,1.1c.2.4.6.5,1.1.5,1.9,0,4-1.2,6.4-3.5,1.2-1.2,2.2-2.4,3.2-3.7s1.9-2.8,2.7-4.5c.2-.4.3-.5.5-.5s.1,0,.1.2,0,.5-.2.7c-.8,1.6-1.7,3.1-2.7,4.5-1.1,1.4-2.3,2.8-3.5,4.1-2.2,2.2-4.3,3.3-6.4,3.3h-.4Z"/>
    <path class="st0" d="M185.3,187.2h-.1c1.3-2.4,2.5-4.7,3.7-7,1.2-2.4,2.4-4.8,3.7-7.3.5-1,1.1-2.2,1.8-3.7s1.5-3.2,2.4-5.1h.1c.3.2.7.3,1.1.3.9,0,2-.4,3.1-1.3h.1c0-.1,0,0,0,0h0c-.3.6-.9,1.7-1.7,3.2s-1.9,3.6-3.2,6.1c3.7-5.8,6.7-8.7,9.2-8.7s2.5.8,2.5,2.3-.6,3.2-1.7,5.7c.9-1.3,1.7-2.4,2.3-3.2s1.1-1.4,1.4-1.7c1.9-2,3.5-3,5-3s2.9.9,2.9,2.8-.3,2.8-1,4.2-1.5,2.8-2.4,4.2-1.8,2.8-2.5,4.2c-.4.7-.7,1.5-1,2.2-.3.8-.4,1.5-.4,2.1s.2,1.1.5,1.4c.4.4,1,.6,1.8.6s1.2-.1,1.8-.4,1.1-.5,1.5-.8c1.2-.9,2.2-2,3.1-3.3.8-1.2,1.6-2.5,2.2-3.7.6-1.2,1.2-2.3,1.7-3.1.1-.2.3-.3.4-.2.1,0,.2.2,0,.4-.9,1.9-1.9,3.8-2.9,5.8-1.1,2-2.4,3.5-4.1,4.7-.6.4-1.2.7-1.9,1s-1.4.4-2.2.4c-1.6,0-2.7-.3-3.4-1s-1-1.6-1-2.7.2-1.8.5-2.9c.3-.8.6-1.7,1-2.6.4-.9,1-1.9,1.6-3,2.4-3.9,3.5-6.5,3.5-7.6s-.3-1.1-1-1.1c-1.9,0-4.6,2.9-8.2,8.8-1.1,1.8-2.2,3.6-3.2,5.6-1,1.9-2.1,4-3.1,6.1h-.1c-.3,0-.6-.2-.9-.2h-.7c-1.3,0-2.1.5-2.4,1.4h-.2c1.7-3.1,3-5.4,4-7.2,1-1.7,1.6-2.9,1.9-3.4,2.9-5.4,4.3-8.9,4.3-10.4s-.2-1-.7-1c-1.8,0-4.6,3-8.2,9-2.4,3.9-4.6,7.9-6.5,12h-.1c-.6-.2-1.1-.3-1.5-.3-.8,0-1.4.3-1.9.9-.4.6-.7.9-.8.9v-.4Z"/>
    <path class="st0" d="M238.2,185.8c-2.3,0-3.5-1.6-3.5-4.8s.2-2.7.6-4.3c-3.1,6-6.2,9-9.3,9s-2.6-.7-3.3-2.2c-.6-1.1-.9-2.5-.9-4.2s.2-2.8.6-4.3c.8-2.6,2.4-5.1,4.8-7.4,2.7-2.5,5.3-3.7,7.8-3.7s3.3,1.3,3.3,4-.2,2.5-.7,4.1l4.1-8h.2c.1.2.4.3.9.3.9,0,2-.5,3.4-1.6h.1c0,.1-5.7,11.2-5.7,11.2-2.3,4.4-3.4,7.8-3.4,10s.4,1.3,1.2,1.3,1.2-.2,1.9-.6c.8-.4,1.6-1.1,2.4-2,1.1-1.2,2-2.4,2.8-3.6.8-1.1,1.7-2.7,2.7-4.6.1-.2.3-.3.4-.3.3,0,.3.2,0,.7-.8,1.5-1.7,3-2.6,4.5-.9,1.5-2,2.9-3.3,4.2s-3.1,2.4-4.5,2.4h0ZM226.3,185.2c2.5,0,5.7-3.5,9.6-10.6,1.2-2.2,1.9-4.5,1.9-6.8s-.8-3.6-2.3-3.6-3.6,1.4-5.8,4.2c-.8,1.2-1.6,2.3-2.2,3.4-.6,1.1-1.1,2.2-1.4,3.2-.9,2.7-1.4,5.1-1.4,7.2s.5,2.9,1.6,2.9h0Z"/>
    <path class="st0" d="M252.5,186.2c-1.7,0-3.2-.5-4.3-1.5s-1.7-2.5-1.7-4.6.3-3.5,1-5.4,1.7-3.7,3-5.5c2.9-3.8,5.9-5.8,9-5.8s4.3,1.3,4.3,3.9-.3,2.1-.9,3.2c-.8,1.3-1.6,1.9-2.5,1.9s-1-.3-1-.8.6-1.3,1.8-2.1c1.2-.9,1.8-1.9,1.8-3s-.8-2.3-2.3-2.3-3.5,1.2-5.5,3.6c-1.4,1.8-2.6,3.7-3.6,5.8-.4.9-.9,2.1-1.3,3.5-.4,1.4-.7,2.8-.7,4.2s.2,2.1.7,2.9c.5.8,1.4,1.2,2.6,1.2s2.4-.3,3.6-1c1.2-.6,2.3-1.4,3.2-2.3s1.6-1.8,2.6-3.1,1.9-2.9,2.9-4.8c.1-.2.3-.3.4-.3.3,0,.3.2,0,.7-.8,1.5-1.6,3-2.4,4.3-.9,1.4-2,2.7-3.4,4-.8.8-1.9,1.6-3.2,2.2s-2.7,1-4.1,1h0Z"/>
    <path class="st0" d="M267.9,186.2c-2.9,0-4.4-1.6-4.4-4.9s.7-4.9,2.1-7.5l5-9.8h.2c.1.2.4.3.8.3.8,0,2-.5,3.3-1.5h.1c0,.1-5.7,11.2-5.7,11.2-2.4,4.5-3.5,7.7-3.5,9.5s.2,1.4.7,1.7c.4.3,1,.5,1.5.5s1.2-.1,1.8-.4,1.1-.6,1.6-.9c1.2-.9,2.2-2,3-3.2s1.5-2.5,2.2-3.7c.6-1.2,1.2-2.3,1.7-3.1.1-.2.3-.3.4-.2.1,0,.2.2,0,.4-.9,1.9-1.9,3.8-2.9,5.8-1.1,2-2.4,3.5-4.1,4.7-.6.4-1.2.7-1.8,1-.6.3-1.3.4-2,.4v-.3ZM275.7,160.2c-1.4,0-2.1-.7-2.1-2.1s.7-2.3,2.1-2.3,2.1.7,2.1,2.1-.7,2.3-2.1,2.3Z"/>
    <path class="st0" d="M283.5,186.2c-2,0-3.5-.8-4.5-2.5-.9-1.4-1.4-3.2-1.4-5.2,0-3.5,1.1-6.8,3.3-9.8,2.5-3.3,5.4-4.9,8.8-4.9s3.1.6,4,1.8,1.3,2.6,1.3,4.4,0,1.6-.2,2.5c-.2.8-.4,1.7-.7,2.7-.7,2-1.5,3.5-2.5,4.6v.2c.6.3,1.1.5,1.7.5,1.3,0,2.4-.4,3.3-1.3.9-.8,1.9-2.4,3-4.5,0-.2.1-.3.3-.3s.2,0,.2.2v.4c-.9,2-1.9,3.5-3,4.5-1,1-2.3,1.5-3.6,1.5s-1.6-.2-2.1-.7c-.4.8-.9,1.5-1.5,2.2-.5.7-1.1,1.3-1.8,1.8-1.5,1.3-3.1,2-4.7,2h.1ZM284,185.6c2.4,0,4.7-1.8,7-5.4,0-.1,0-.3.2-.4-.8-1.3-1.2-2.6-1.2-3.8v-.9c0-.5.1-1,.3-1.5.1-.5.4-1,.7-1.4.7-1.1,1.5-1.6,2.4-1.6h1.2c0-4-1.3-6-3.8-6s-4.2,1.3-6.1,3.9c-1.6,2.1-2.7,4.3-3.3,6.9-.4,1.4-.6,2.8-.6,4.3,0,4,1.1,6,3.3,6h-.1ZM284.8,159.6s.3-.3.8-.7,1.1-.8,1.7-1.2,1.1-.8,1.4-1c.9-.6,1.8-1.3,2.8-2s1.6-1,1.9-1,.5.2.8.6c.3.4.3.6,0,.8s-.9.5-1.9,1.1c-1,.5-2.1,1.1-3.4,1.7-1.2.6-2.4,1.2-3.5,1.7-.4.2-.7.3-.7.1h.1Z"/>
    <path class="st0" d="M294.1,187.9h0c1.6-3.6,3.7-8.4,6.2-14.6.4-1,.9-2.3,1.4-3.8.6-1.5,1.2-3.3,1.9-5.3h.1c.4.4.8.5,1.1.5,1.1,0,2.2-1,3.1-2.9h0c0,.2-1,2.5-2.9,7.2-1.1,2.5-1.9,4.5-2.4,5.8s-.8,2.1-.9,2.3c5.1-9.1,9.1-13.7,12.2-13.7s1.3.2,1.8.7c.5.4.8,1,.8,1.7,0,1.9-1.3,4.9-3.8,9.2s-3.8,7.2-3.8,8.8.2,1,.7,1.3c.4.3,1,.5,1.6.5s1.3-.1,1.9-.4,1.2-.6,1.7-.9c1.2-.9,2.2-2,3.1-3.3.8-1.2,1.6-2.5,2.2-3.7s1.2-2.3,1.7-3.1c.1-.2.3-.3.4-.2s.2.2,0,.4c-.9,1.9-1.9,3.8-2.9,5.8-1.1,2-2.4,3.5-4.1,4.7-.6.4-1.2.7-1.9,1s-1.4.4-2.2.4c-1.2,0-2.3-.3-3-1-.8-.7-1.2-1.7-1.2-3.1,0-2.4,1.1-5.4,3.3-9.1,2.3-3.7,3.4-6.1,3.4-7.1s-.4-1.1-1.3-1.1h-.4c-1,0-2.3,1.1-4,3.4-1.7,2.3-3.7,5.6-6.2,9.9-.6,1-1.2,2.1-1.8,3.4-.6,1.3-1.2,2.7-1.9,4.2h-.1c-.5-.2-1-.3-1.4-.3-.6,0-1.1.4-1.5,1.1-.4.8-.7,1.2-1,1.3h0Z"/>
  </g>
  <g>
    <path class="st0" d="M161.6,26.2h22.7v-2.2c0-.6.5-1.9.8-2.5,2.5-4.5,9.1-4.5,11.6,0s.8,1.9.8,2.5v2.2h22.7v-2.2c0-.6.5-2,.8-2.5,2.5-4.5,9.1-4.5,11.6,0s.8,1.8.8,2.5v2.2c1.6,0,3.2,0,4.6.7,2.7,1.2,4.5,3.9,4.8,6.8v70.8c-.4,4.5-3.7,7.4-8.2,7.6s-5.8,0-8.7,0h-21.2c-19.6,0-39.3,0-58.9,0-3.6-.4-6.5-3.2-7-6.8-.2-23.9,0-47.8,0-71.6.3-3.2,2.5-6.1,5.6-7.1s2.5-.4,3.8-.4v-2.2c0-.6.5-1.9.8-2.4,2.5-4.5,9.1-4.6,11.7,0,.3.5.8,1.9.8,2.5v2.2h0ZM155,22.7c-1.3,0-2,1.1-2,2.3v4.8c0,1.6-.5,4.1,1.7,4.4s2-.5,2.3-1.6c-.1-2.6.2-5.5,0-8.1s-1-1.9-2-1.8ZM191,22.7c-1,0-1.8.7-1.9,1.7.1,2.6-.3,5.6,0,8.1.3,2.5,3.4,2.4,3.9.3-.1-2.6.2-5.6,0-8.2s-.9-1.9-2-1.9ZM225.6,23.3c-.3.3-.5.8-.6,1.2-.3,2.6.2,5.5,0,8.1.4,1.8,2.7,2.3,3.7.7s.2-2,.3-2.9,0-1.4,0-2.1v-4c-.2-1.6-2.3-2.1-3.4-1.1h0ZM148.3,30.8h-1.7c-1.3,0-3.1,1.7-3.1,3v10.2h94.8v-10.2c0-1.3-1.8-3-3.1-3h-1.7v2.3c0,.6-.5,1.8-.7,2.3-2.4,4.6-9.1,4.7-11.7.2s-.9-2-.9-2.6v-2.2h-22.7v2.3c0,.5-.5,1.8-.7,2.3-2.5,4.7-9.4,4.7-11.8,0s-.7-1.8-.7-2.3v-2.3h-22.7v2.3c0,.2-.2.8-.3,1.1-1.6,5.4-8.7,6.5-11.9,1.9s-1.1-2.2-1.1-3v-2.2h0ZM238.4,48.8h-94.8v55.7c0,1.2,1.6,2.8,2.8,2.9,29.7.2,59.5,0,89.2,0,1.2,0,2.8-1.7,2.8-2.9v-55.7Z"/>
    <path class="st0" d="M191.1,61.9c.3-.4.7-.9,1.1-1.2,7-6.3,18.4-3.1,21,6,3.5,12-9.3,23.7-18,29.8-.8.6-1.7,1.2-2.5,1.7-2.1,1.2-2.7.4-4.4-.8-7.4-5.2-17.8-14.5-19.7-23.7s-.2-7.6,1.9-10.7c3.9-5.7,11.7-7.4,17.6-3.7s2.1,1.6,3,2.6h0ZM180.6,62.1c-5.5.4-8.6,5.4-7.5,10.6s9.9,14.9,15.6,19.2,1.6,1.4,2.2,1.7.2,0,.3,0c4.5-3.1,8.9-6.7,12.5-10.9s6.9-9.9,4.9-15.4c-2.3-6.2-10.8-7.2-14.5-1.7-3.7,5.5-1,3-3,3.1s-2-1.4-2.7-2.6c-1.6-2.7-4.6-4.3-7.7-4.1h-.1Z"/>
  </g>
  <g>
    <path class="st0" d="M67.9,225.7c-.1-.8-.3-1.5-.5-2-.3-.6-.4-.8-1.3-.8h-1.6v11.6c0,1.9.1,2.1,1.7,2.3v.7h-4.7v-.7c1.5-.1,1.6-.4,1.6-2.3v-11.6h-1.5c-.9,0-1.1.1-1.4.9-.2.5-.3,1-.5,1.9h-.5c0-1.5.2-3,.2-4.3h.4c.2.6.4.5.9.5h6.3c.4,0,.6,0,.8-.5h.4c0,1.1,0,2.8.1,4.2h-.5Z"/>
    <path class="st0" d="M76.6,236.9c-.8.2-1.6.5-2.5.8v-1.8c-.9,1.1-1.6,1.8-2.5,1.8s-2-1-2-3.6v-4.6c0-1.3-.1-1.4-.5-1.5h-.4v-.7c.7,0,1.7-.3,2.3-.4,0,.8,0,1.9,0,3.5v3.2c0,2.1.7,2.7,1.5,2.7s1.2-.4,1.7-1.1v-5.5c0-1.3-.2-1.5-.7-1.6h-.5v-.7c1,0,2.1-.3,2.5-.4v8c0,1.2.1,1.4.7,1.4h.4v.7Z"/>
    <path class="st0" d="M81,227.5c.8-.2,1.6-.6,2.3-1v1.9s1.3-1.1,1.4-1.2c.4-.3.7-.5.9-.5,1.8,0,2.8,2.2,2.8,4.5,0,3.6-1.9,5.9-4,6.5-.5,0-.9-.2-1.1-.4v3.2c0,1.8.1,1.9,1.4,2.1v.7h-3.8v-.7c1-.2,1.2-.3,1.2-1.9v-10.8c0-1.4,0-1.5-1.1-1.7v-.6ZM83.4,235.6c.4.5,1,.9,1.5.9,1.4,0,2.3-1.7,2.3-4.4s-1-4-2.1-4-1.2.5-1.7,1v6.5Z"/>
    <path class="st0" d="M93.3,237.4h-3.7v-.7c1-.1,1.1-.3,1.1-1.8v-5c0-1.6,0-1.6-1-1.8v-.6c.8-.2,1.5-.5,2.3-1v2.6c.6-1.2,1.2-2.5,2-2.5s.9.5.9,1.1-.3,1.1-.5,1.3c-.2.1-.3.1-.4,0-.2-.4-.4-.6-.7-.6s-.9.7-1.3,2v4.5c0,1.6,0,1.7,1.3,1.8v.7Z"/>
    <path class="st0" d="M101.3,235.4c-1,1.9-2.1,2.3-2.7,2.3-2,0-3.1-2.4-3.1-5.1s.4-3.1,1-4.2c.7-1.1,1.6-1.7,2.4-1.7,1.4,0,2.5,1.8,2.5,3.7,0,.5,0,.7-.3.8-.3,0-2.4.3-4.3.4,0,3.2,1.3,4.5,2.4,4.5s1.3-.4,1.9-1.2l.3.5ZM98.5,227.6c-.7,0-1.5,1-1.7,3,.9,0,1.8,0,2.7,0,.3,0,.4-.1.4-.5,0-1.3-.5-2.4-1.4-2.4Z"/>
    <path class="st0" d="M106.5,229.8c-.3-1.4-.7-2.3-1.7-2.3s-1,.6-1,1.5.5,1.5,1.4,2.1c1.4,1,2.1,1.7,2.1,3.3s-1.3,3.3-2.6,3.3-1.6-.4-1.9-.7c0-.7-.2-2-.3-2.8h.5c.3,1.4.8,2.6,2,2.6s1.1-.6,1.1-1.6-.4-1.6-1.3-2.2c-1.1-.8-2-1.6-2-3.3s1-3.1,2.5-3.1,1.2.2,1.5.3c0,.6.2,2.1.2,2.6l-.5.2Z"/>
    <path class="st0" d="M114.3,235.4c-1,1.9-2.1,2.3-2.7,2.3-2,0-3.1-2.4-3.1-5.1s.4-3.1,1-4.2c.7-1.1,1.6-1.7,2.4-1.7,1.4,0,2.5,1.8,2.5,3.7,0,.5,0,.7-.3.8-.3,0-2.4.3-4.3.4,0,3.2,1.3,4.5,2.4,4.5s1.3-.4,1.9-1.2l.3.5ZM111.5,227.6c-.7,0-1.5,1-1.7,3,.9,0,1.8,0,2.7,0,.3,0,.4-.1.4-.5,0-1.3-.5-2.4-1.4-2.4Z"/>
    <path class="st0" d="M119.9,237.4v-.7c.9-.1,1-.3,1-1.9v-3.9c0-1.7-.4-2.8-1.5-2.8s-1.3.6-1.8,1.2v5.6c0,1.6,0,1.7,1,1.8v.7h-3.5v-.7c1.1-.2,1.2-.3,1.2-1.8v-4.9c0-1.5-.1-1.6-1-1.8v-.6c.8-.2,1.6-.5,2.2-1v1.9c.3-.3.7-.7,1.1-1.1.4-.4.9-.7,1.3-.7,1.3,0,2.1,1.4,2.1,3.7v4.5c0,1.6,0,1.7,1,1.8v.7h-3.3Z"/>
    <path class="st0" d="M130.2,235.3c-.7,1.4-1.8,2.4-2.7,2.4-2,0-3.2-2.5-3.2-5s.5-3.4,1.6-4.7c.8-1,1.8-1.4,2.4-1.4s1.3.3,1.5.6c.2.3.3.4.3.7,0,.6-.4,1.1-.6,1.1s-.1,0-.3-.2c-.5-.7-1-1-1.6-1-1.1,0-2,1.3-2,3.8,0,3.3,1.5,4.4,2.4,4.4s1.2-.3,2-1.3l.3.5Z"/>
    <path class="st0" d="M131.1,237.4v-.7c1-.1,1.1-.3,1.1-1.9v-4.9c0-1.5,0-1.6-1-1.8v-.6c.8-.2,1.6-.5,2.3-1v8.2c0,1.6.1,1.7,1.2,1.9v.7h-3.5ZM132.7,224.3c-.4,0-.8-.6-.8-1.3s.4-1.3.9-1.3.8.5.8,1.3-.4,1.3-.8,1.3Z"/>
    <path class="st0" d="M140.5,237.7c-.2,0-.6-.2-.8-.5-.2-.3-.3-.6-.4-1.1-.6.6-1.4,1.5-1.9,1.5-1.1,0-2-1.4-2-2.9s.4-1.9,1.3-2.4c1-.5,2.2-1.1,2.5-1.5v-.5c0-1.7-.6-2.7-1.4-2.7s-.6.3-.8.5c-.2.3-.3.9-.4,1.5,0,.4-.2.5-.5.5s-.7-.5-.7-1,.2-.6.5-1c.5-.5,1.4-1.4,2.3-1.7.5,0,1,.2,1.3.6.6.7.8,1.5.8,2.8v4.6c0,1.1.3,1.4.6,1.4s.4-.1.6-.3l.2.7-1.4,1.2ZM139.3,231.7c-.4.3-1.1.8-1.5,1-.6.4-1,.9-1,1.7,0,1.3.6,1.8,1.2,1.8s1-.4,1.3-.9v-3.7Z"/>
    <path class="st0" d="M150.7,237.4v-.7c.9-.1,1.1-.3,1.1-1.8v-3.9c0-2-.5-3-1.6-3-.6,0-1.3.5-1.7,1.2v5.6c0,1.5.1,1.7,1.1,1.8v.7h-3.5v-.7c.9-.1,1.1-.2,1.1-1.8v-11.5c0-1.3,0-1.6-1.1-1.7v-.6c.8-.1,1.8-.5,2.4-.8v8.1c.6-.9,1.5-1.7,2.3-1.7,1.3,0,2.2,1.2,2.2,4.1v4.2c0,1.6.1,1.7,1.1,1.8v.7h-3.4Z"/>
    <path class="st0" d="M160.1,237.7c-.2,0-.6-.2-.8-.5-.2-.3-.3-.6-.4-1.1-.6.6-1.4,1.5-1.9,1.5-1.1,0-2-1.4-2-2.9s.4-1.9,1.3-2.4c1-.5,2.2-1.1,2.5-1.5v-.5c0-1.7-.6-2.7-1.4-2.7s-.6.3-.8.5c-.2.3-.3.9-.4,1.5,0,.4-.2.5-.5.5s-.7-.5-.7-1,.2-.6.5-1c.5-.5,1.4-1.4,2.3-1.7.5,0,1,.2,1.3.6.6.7.8,1.5.8,2.8v4.6c0,1.1.3,1.4.6,1.4s.4-.1.6-.3l.2.7-1.4,1.2ZM158.9,231.7c-.4.3-1.1.8-1.5,1-.6.4-1,.9-1,1.7,0,1.3.6,1.8,1.2,1.8s1-.4,1.3-.9v-3.7Z"/>
    <path class="st0" d="M165.8,237.4h-3.7v-.7c1-.1,1.1-.3,1.1-1.8v-5c0-1.6,0-1.6-1-1.8v-.6c.8-.2,1.5-.5,2.3-1v2.6c.6-1.2,1.2-2.5,2-2.5s.9.5.9,1.1-.3,1.1-.5,1.3c-.2.1-.3.1-.4,0-.2-.4-.4-.6-.7-.6s-.9.7-1.3,2v4.5c0,1.6,0,1.7,1.3,1.8v.7Z"/>
    <path class="st0" d="M173.2,237.7c-.2,0-.6-.2-.8-.5-.2-.3-.3-.6-.4-1.1-.6.6-1.4,1.5-1.9,1.5-1.1,0-2-1.4-2-2.9s.4-1.9,1.3-2.4c1-.5,2.2-1.1,2.5-1.5v-.5c0-1.7-.6-2.7-1.4-2.7s-.6.3-.8.5c-.2.3-.3.9-.4,1.5,0,.4-.2.5-.5.5s-.7-.5-.7-1,.2-.6.5-1c.5-.5,1.4-1.4,2.3-1.7.5,0,1,.2,1.3.6.6.7.8,1.5.8,2.8v4.6c0,1.1.3,1.4.6,1.4s.4-.1.6-.3l.2.7-1.4,1.2ZM172.1,231.7c-.4.3-1.1.8-1.5,1-.6.4-1,.9-1,1.7,0,1.3.6,1.8,1.2,1.8s1-.4,1.3-.9v-3.7ZM170.3,224.7l1.8-3.9c.4-.2,1.4-.2,1.6-.1v.3s-3,4.1-3,4.1l-.4-.4Z"/>
    <path class="st0" d="M184.9,235.4c-1,1.9-2.1,2.3-2.7,2.3-2,0-3.1-2.4-3.1-5.1s.4-3.1,1-4.2c.7-1.1,1.6-1.7,2.4-1.7,1.4,0,2.5,1.8,2.5,3.7,0,.5,0,.7-.3.8-.3,0-2.4.3-4.3.4,0,3.2,1.3,4.5,2.4,4.5s1.3-.4,1.9-1.2l.3.5ZM182.1,227.6c-.7,0-1.5,1-1.7,3,.9,0,1.8,0,2.7,0,.3,0,.4-.1.4-.5,0-1.3-.5-2.4-1.4-2.4Z"/>
    <path class="st0" d="M190.1,229.8c-.3-1.4-.7-2.3-1.7-2.3s-1,.6-1,1.5.5,1.5,1.4,2.1c1.4,1,2.1,1.7,2.1,3.3s-1.3,3.3-2.6,3.3-1.6-.4-1.9-.7c0-.7-.2-2-.3-2.8h.5c.3,1.4.8,2.6,2,2.6s1.1-.6,1.1-1.6-.4-1.6-1.3-2.2c-1.1-.8-2-1.6-2-3.3s1-3.1,2.5-3.1,1.2.2,1.5.3c0,.6.2,2.1.2,2.6l-.5.2Z"/>
    <path class="st0" d="M194.9,237.4c-.3.2-.5.3-.7.3-1,0-1.6-.9-1.6-2.8v-6.9h-1.1v-.3c0,0,.4-.7.4-.7h.7v-2c.3-.5.8-1.1,1.1-1.6h.2c0,1,0,2.4,0,3.6h1.8c.1.2,0,.8,0,1h-1.7v6.1c0,1.9.5,2.3.9,2.3s.8-.2,1-.4v.6c.1,0-.9.8-.9.8Z"/>
    <path class="st0" d="M202.3,235.4c-1,1.9-2.1,2.3-2.7,2.3-2,0-3.1-2.4-3.1-5.1s.4-3.1,1-4.2c.7-1.1,1.6-1.7,2.4-1.7,1.4,0,2.5,1.8,2.5,3.7,0,.5,0,.7-.3.8-.3,0-2.4.3-4.3.4,0,3.2,1.3,4.5,2.4,4.5s1.3-.4,1.9-1.2l.3.5ZM199.5,227.6c-.7,0-1.5,1-1.7,3,.9,0,1.8,0,2.7,0,.3,0,.4-.1.4-.5,0-1.3-.5-2.4-1.4-2.4Z"/>
    <path class="st0" d="M214.9,236.8c-.3,0-1.5.4-2.5.9v-1.5c-.3.3-.7.6-1,.9-.6.5-1.1.7-1.3.7-1.3,0-3-1.9-3-5.2s2-5.8,4.2-5.8.8,0,1.1.3v-3.5c0-1.5-.1-1.6-1.3-1.7v-.6c.8-.2,1.9-.5,2.5-.8v14.3c0,1.2.1,1.4.7,1.5h.5v.7ZM212.4,228.8c-.4-.8-1.1-1.2-1.7-1.2s-2.1.8-2.1,4.2,1.2,4.4,2.2,4.4c.6,0,1.2-.4,1.6-.9v-6.5Z"/>
    <path class="st0" d="M215.6,237.4v-.7c1-.1,1.1-.3,1.1-1.9v-4.9c0-1.5,0-1.6-1-1.8v-.6c.8-.2,1.6-.5,2.3-1v8.2c0,1.6.1,1.7,1.2,1.9v.7h-3.6ZM216.6,224.7l1.8-3.9c.4-.2,1.4-.2,1.6-.1v.3s-3,4.1-3,4.1l-.4-.4Z"/>
    <path class="st0" d="M225,237.7c-.2,0-.6-.2-.8-.5-.2-.3-.3-.6-.4-1.1-.6.6-1.4,1.5-1.9,1.5-1.1,0-2-1.4-2-2.9s.4-1.9,1.3-2.4c1-.5,2.2-1.1,2.5-1.5v-.5c0-1.7-.6-2.7-1.4-2.7s-.6.3-.8.5c-.2.3-.3.9-.4,1.5,0,.4-.2.5-.5.5s-.7-.5-.7-1,.2-.6.5-1c.5-.5,1.4-1.4,2.3-1.7.5,0,1,.2,1.3.6.6.7.8,1.5.8,2.8v4.6c0,1.1.3,1.4.6,1.4s.4-.1.6-.3l.2.7-1.4,1.2ZM223.9,231.7c-.4.3-1.1.8-1.5,1-.6.4-1,.9-1,1.7,0,1.3.6,1.8,1.2,1.8s1-.4,1.3-.9v-3.7Z"/>
    <path class="st0" d="M239.6,237.4v-.7c.9-.1,1.1-.2,1.1-1.9v-4c0-1.7-.4-2.8-1.4-2.8s-1.2.5-1.8,1.2c0,.3,0,.6,0,1v4.6c0,1.5.1,1.6,1,1.8v.7h-3.4v-.7c1-.1,1.1-.2,1.1-1.8v-4.1c0-1.8-.4-2.7-1.3-2.7s-1.3.6-1.8,1.2v5.6c0,1.6.1,1.7,1,1.8v.7h-3.4v-.7c1.1-.1,1.2-.2,1.2-1.8v-4.9c0-1.5,0-1.6-1-1.9v-.6c.8-.2,1.5-.5,2.2-1v1.9c.3-.4.7-.8,1.2-1.2.4-.4.8-.6,1.3-.6.8,0,1.4.7,1.7,2,.4-.5.9-.9,1.3-1.3.4-.3.8-.6,1.3-.6,1.3,0,2,1.3,2,3.7v4.6c0,1.6,0,1.7,1,1.8v.7h-3.3Z"/>
    <path class="st0" d="M249.1,237.7c-.2,0-.6-.2-.8-.5-.2-.3-.3-.6-.4-1.1-.6.6-1.4,1.5-1.9,1.5-1.1,0-2-1.4-2-2.9s.4-1.9,1.3-2.4c1-.5,2.2-1.1,2.5-1.5v-.5c0-1.7-.6-2.7-1.4-2.7s-.6.3-.8.5c-.2.3-.3.9-.4,1.5,0,.4-.2.5-.5.5s-.7-.5-.7-1,.2-.6.5-1c.5-.5,1.4-1.4,2.3-1.7.5,0,1,.2,1.3.6.6.7.8,1.5.8,2.8v4.6c0,1.1.3,1.4.6,1.4s.4-.1.6-.3l.2.7-1.4,1.2ZM247.9,231.7c-.4.3-1.1.8-1.5,1-.6.4-1,.9-1,1.7,0,1.3.6,1.8,1.2,1.8s1-.4,1.3-.9v-3.7ZM246.1,224.7l1.8-3.9c.4-.2,1.4-.2,1.6-.1v.3s-3,4.1-3,4.1l-.4-.4Z"/>
    <path class="st0" d="M255.2,229.8c-.3-1.4-.7-2.3-1.7-2.3s-1,.6-1,1.5.5,1.5,1.4,2.1c1.4,1,2.1,1.7,2.1,3.3s-1.3,3.3-2.6,3.3-1.6-.4-1.9-.7c0-.7-.2-2-.3-2.8h.5c.3,1.4.8,2.6,2,2.6s1.1-.6,1.1-1.6-.4-1.6-1.3-2.2c-1.1-.8-2-1.6-2-3.3s1-3.1,2.5-3.1,1.2.2,1.5.3c0,.6.2,2.1.2,2.6l-.5.2Z"/>
    <path class="st0" d="M266.6,235.4c-1,1.9-2.1,2.3-2.7,2.3-2,0-3.1-2.4-3.1-5.1s.4-3.1,1-4.2c.7-1.1,1.6-1.7,2.4-1.7,1.4,0,2.5,1.8,2.5,3.7,0,.5,0,.7-.3.8-.3,0-2.4.3-4.3.4,0,3.2,1.3,4.5,2.4,4.5s1.3-.4,1.9-1.2l.3.5ZM263.8,227.6c-.7,0-1.5,1-1.7,3,.9,0,1.8,0,2.7,0,.3,0,.4-.1.4-.5,0-1.3-.5-2.4-1.4-2.4Z"/>
    <path class="st0" d="M271.8,229.8c-.3-1.4-.7-2.3-1.7-2.3s-1,.6-1,1.5.5,1.5,1.4,2.1c1.4,1,2.1,1.7,2.1,3.3s-1.3,3.3-2.6,3.3-1.6-.4-1.9-.7c0-.7-.2-2-.3-2.8h.5c.3,1.4.8,2.6,2,2.6s1.1-.6,1.1-1.6-.4-1.6-1.3-2.2c-1.1-.8-2-1.6-2-3.3s1-3.1,2.5-3.1,1.2.2,1.5.3c0,.6.2,2.1.2,2.6l-.5.2Z"/>
    <path class="st0" d="M273.4,227.5c.8-.2,1.6-.6,2.3-1v1.9s1.3-1.1,1.4-1.2c.4-.3.7-.5.9-.5,1.8,0,2.8,2.2,2.8,4.5,0,3.6-1.9,5.9-4,6.5-.5,0-.9-.2-1.1-.4v3.2c0,1.8.1,1.9,1.4,2.1v.7h-3.8v-.7c1-.2,1.2-.3,1.2-1.9v-10.8c0-1.4,0-1.5-1.1-1.7v-.6ZM275.7,235.6c.4.5,1,.9,1.5.9,1.4,0,2.3-1.7,2.3-4.4s-1-4-2.1-4-1.2.5-1.7,1v6.5Z"/>
    <path class="st0" d="M288,235.4c-1,1.9-2.1,2.3-2.7,2.3-2,0-3.1-2.4-3.1-5.1s.4-3.1,1-4.2c.7-1.1,1.6-1.7,2.4-1.7,1.4,0,2.5,1.8,2.5,3.7,0,.5,0,.7-.3.8-.3,0-2.4.3-4.3.4,0,3.2,1.3,4.5,2.4,4.5s1.3-.4,1.9-1.2l.3.5ZM285.2,227.6c-.7,0-1.5,1-1.7,3,.9,0,1.8,0,2.7,0,.3,0,.4-.1.4-.5,0-1.3-.5-2.4-1.4-2.4Z"/>
    <path class="st0" d="M295.2,235.3c-.7,1.4-1.8,2.4-2.7,2.4-2,0-3.2-2.5-3.2-5s.5-3.4,1.6-4.7c.8-1,1.8-1.4,2.4-1.4s1.3.3,1.5.6c.2.3.3.4.3.7,0,.6-.4,1.1-.6,1.1s-.1,0-.3-.2c-.5-.7-1-1-1.6-1-1.1,0-2,1.3-2,3.8,0,3.3,1.5,4.4,2.4,4.4s1.2-.3,2-1.3l.3.5Z"/>
    <path class="st0" d="M296.1,237.4v-.7c1-.1,1.1-.3,1.1-1.9v-4.9c0-1.5,0-1.6-1-1.8v-.6c.8-.2,1.6-.5,2.3-1v8.2c0,1.6.1,1.7,1.2,1.9v.7h-3.5ZM297.8,224.3c-.4,0-.8-.6-.8-1.3s.4-1.3.9-1.3.8.5.8,1.3-.4,1.3-.8,1.3Z"/>
    <path class="st0" d="M305.5,237.7c-.2,0-.6-.2-.8-.5-.2-.3-.3-.6-.4-1.1-.6.6-1.4,1.5-1.9,1.5-1.1,0-2-1.4-2-2.9s.4-1.9,1.3-2.4c1-.5,2.2-1.1,2.5-1.5v-.5c0-1.7-.6-2.7-1.4-2.7s-.6.3-.8.5c-.2.3-.3.9-.4,1.5,0,.4-.2.5-.5.5s-.7-.5-.7-1,.2-.6.5-1c.5-.5,1.4-1.4,2.3-1.7.5,0,1,.2,1.3.6.6.7.8,1.5.8,2.8v4.6c0,1.1.3,1.4.6,1.4s.4-.1.6-.3l.2.7-1.4,1.2ZM304.4,231.7c-.4.3-1.1.8-1.5,1-.6.4-1,.9-1,1.7,0,1.3.6,1.8,1.2,1.8s1-.4,1.3-.9v-3.7Z"/>
    <path class="st0" d="M307.3,237.4v-.7c1-.1,1.2-.3,1.2-1.8v-11.4c0-1.5,0-1.6-1.1-1.8v-.6c.9-.1,1.9-.5,2.4-.8v14.6c0,1.6,0,1.7,1.1,1.8v.7h-3.6Z"/>
    <path class="st0" d="M313.3,237.7c-.6,0-1-.6-1-1.5s.4-1.5,1-1.5,1,.7,1,1.5-.4,1.5-1,1.5Z"/>
    <path class="st0" d="M53.1,250.5c1.1,0,2.1.3,2.7,1,.6.7,1.1,1.8,1.1,3.4,0,3.5-2,4.9-3.5,4.9s-.3,0-.4,0l-1.1-.4v3.7c0,2,.1,2,1.6,2.3v.7h-4.4v-.7c1.4-.2,1.4-.4,1.4-2.3v-9.4c0-2.1-.2-2.2-1.4-2.4v-.7h4.1ZM51.8,258.5c.2.1.6.3,1.2.3,1.1,0,2.4-.8,2.4-3.8s-1.2-3.7-2.5-3.7-.8.1-.9.3c-.1.2-.2.5-.2,1.1v5.8Z"/>
    <path class="st0" d="M61.1,255.2c2,0,3.5,2.3,3.5,5.3s-1.9,5.7-3.5,5.7-3.6-2.6-3.6-5.3c0-3.9,2-5.7,3.6-5.7ZM60.9,256.1c-1,0-1.9,1.4-1.9,4.2s.9,5.2,2.2,5.2,1.8-1.1,1.8-4.3-.8-5-2.2-5Z"/>
    <path class="st0" d="M69.3,266h-3.7v-.7c1-.1,1.1-.3,1.1-1.8v-5c0-1.6,0-1.6-1-1.8v-.6c.8-.2,1.5-.5,2.3-1v2.6c.6-1.2,1.2-2.5,2-2.5s.9.5.9,1.1-.3,1.1-.5,1.3c-.2.1-.3.1-.4,0-.2-.4-.4-.6-.7-.6s-.9.7-1.3,2v4.5c0,1.6,0,1.7,1.3,1.8v.7Z"/>
    <path class="st0" d="M76.4,255.5v-.6c0-1.7.4-3.5,1.4-4.8.6-.7,1.2-1.1,1.8-1.3.5,0,1,.3,1.3.8.1.3.2.5,0,.8,0,.2-.2.6-.4.8-.2.2-.3.1-.5,0-.3-.4-.8-1-1.3-1-1.2,0-1.2,2.4-1.2,4.2v1.1h1.7c0,.2,0,.8-.2,1h-1.5v6.9c0,1.7.2,1.7,1.4,1.9v.7h-3.8v-.7c1-.1,1.1-.2,1.1-1.8v-7h-1.1v-.3c0,0,.3-.7.3-.7h.8Z"/>
    <path class="st0" d="M85.1,266.3c-.2,0-.6-.2-.8-.5-.2-.3-.3-.6-.4-1.1-.6.6-1.4,1.5-1.9,1.5-1.1,0-2-1.4-2-2.9s.4-1.9,1.3-2.4c1-.5,2.2-1.1,2.5-1.5v-.5c0-1.7-.6-2.7-1.4-2.7s-.6.3-.8.5c-.2.3-.3.9-.4,1.5,0,.4-.2.5-.5.5s-.7-.5-.7-1,.2-.6.5-1c.5-.5,1.4-1.4,2.3-1.7.5,0,1,.2,1.3.6.6.7.8,1.5.8,2.8v4.6c0,1.1.3,1.4.6,1.4s.4-.1.6-.3l.2.7-1.4,1.2ZM83.9,260.2c-.4.3-1.1.8-1.5,1-.6.4-1,.9-1,1.7,0,1.3.6,1.8,1.2,1.8s1-.4,1.3-.9v-3.7Z"/>
    <path class="st0" d="M93.8,256.2c-.9.2-1,.4-1.4,1.8-.5,1.9-1.4,5.1-2.3,8.3h-.5c-.7-2.7-1.5-5.6-2.2-8.4-.4-1.4-.5-1.5-1.3-1.7v-.6h3.3v.6c-.9.2-.9.3-.7,1.4.4,1.6,1.1,4.2,1.5,5.8.6-2.1,1.1-4.1,1.5-5.6.3-1.2.2-1.4-.8-1.6v-.6h2.9v.6Z"/>
    <path class="st0" d="M97.7,255.2c2,0,3.5,2.3,3.5,5.3s-1.9,5.7-3.5,5.7-3.6-2.6-3.6-5.3c0-3.9,2-5.7,3.6-5.7ZM97.5,256.1c-1,0-1.9,1.4-1.9,4.2s.9,5.2,2.2,5.2,1.8-1.1,1.8-4.3-.8-5-2.2-5Z"/>
    <path class="st0" d="M105.9,266h-3.7v-.7c1-.1,1.1-.3,1.1-1.8v-5c0-1.6,0-1.6-1-1.8v-.6c.8-.2,1.5-.5,2.3-1v2.6c.6-1.2,1.2-2.5,2-2.5s.9.5.9,1.1-.3,1.1-.5,1.3c-.2.1-.3.1-.4,0-.2-.4-.4-.6-.7-.6s-.9.7-1.3,2v4.5c0,1.6,0,1.7,1.3,1.8v.7Z"/>
    <path class="st0" d="M107.5,268.1c.7-.5,1.3-1.1,1.3-2s-.5-1.1-1-1.3c0,0-.3-.3-.3-.7s.3-1.2.9-1.2,1.4.8,1.4,2.5-1.1,3-2.1,3.4l-.2-.7Z"/>
    <path class="st0" d="M121.2,263.8c-.7,1.4-1.8,2.4-2.7,2.4-2,0-3.2-2.5-3.2-5s.5-3.4,1.6-4.7c.8-1,1.8-1.4,2.4-1.4s1.3.3,1.5.6c.2.3.3.4.3.7,0,.6-.4,1.1-.6,1.1s-.1,0-.3-.2c-.5-.7-1-1-1.6-1-1.1,0-2,1.3-2,3.8,0,3.3,1.5,4.4,2.4,4.4s1.2-.3,2-1.3l.3.5Z"/>
    <path class="st0" d="M125.6,255.2c2,0,3.5,2.3,3.5,5.3s-1.9,5.7-3.5,5.7-3.6-2.6-3.6-5.3c0-3.9,2-5.7,3.6-5.7ZM125.4,256.1c-1,0-1.9,1.4-1.9,4.2s.9,5.2,2.2,5.2,1.8-1.1,1.8-4.3-.8-5-2.2-5Z"/>
    <path class="st0" d="M134.8,266v-.7c.9-.1,1-.3,1-1.9v-3.9c0-1.7-.4-2.8-1.5-2.8s-1.3.6-1.8,1.2v5.6c0,1.6,0,1.7,1,1.8v.7h-3.5v-.7c1.1-.2,1.2-.3,1.2-1.8v-4.9c0-1.5-.1-1.6-1-1.8v-.6c.8-.2,1.6-.5,2.2-1v1.9c.3-.3.7-.7,1.1-1.1.4-.4.9-.7,1.3-.7,1.3,0,2.1,1.4,2.1,3.7v4.5c0,1.6,0,1.7,1,1.8v.7h-3.3Z"/>
    <path class="st0" d="M143.4,266v-.7c.9-.1,1.1-.2,1.1-1.7v-5.9c0-1.1,0-1.2-.8-1.2h-2.2v7.1c0,1.4.1,1.6,1.1,1.7v.7h-3.5v-.7c1-.1,1.1-.3,1.1-1.7v-7.1h-1.1v-.3c0,0,.3-.7.3-.7h.8c0-2.5.5-4.1,1.5-5.4.7-.8,1.4-1.2,2-1.3,1.1,0,1.6.7,1.8,1.1,0,.2.1.4.1.6,0,.3-.3.8-.5,1-.2.2-.4.2-.6-.1-.3-.5-.9-1.4-1.7-1.4s-.8.3-1,.8c-.3.6-.6,2-.6,4v.7h1.3c1.3,0,2.3,0,3-.3v8.4c0,1.5.1,1.6,1.2,1.7v.7h-3.5Z"/>
    <path class="st0" d="M151.4,266h-3.7v-.7c1-.1,1.1-.3,1.1-1.8v-5c0-1.6,0-1.6-1-1.8v-.6c.8-.2,1.5-.5,2.3-1v2.6c.6-1.2,1.2-2.5,2-2.5s.9.5.9,1.1-.3,1.1-.5,1.3c-.2.1-.3.1-.4,0-.2-.4-.4-.6-.7-.6s-.9.7-1.3,2v4.5c0,1.6,0,1.7,1.3,1.8v.7Z"/>
    <path class="st0" d="M162.5,266v-.7c.9-.1,1.1-.2,1.1-1.9v-4c0-1.7-.4-2.8-1.4-2.8s-1.2.5-1.8,1.2c0,.3,0,.6,0,1v4.6c0,1.5.1,1.6,1,1.8v.7h-3.4v-.7c1-.1,1.1-.2,1.1-1.8v-4.1c0-1.8-.4-2.7-1.3-2.7s-1.3.6-1.8,1.2v5.6c0,1.6.1,1.7,1,1.8v.7h-3.4v-.7c1.1-.1,1.2-.2,1.2-1.8v-4.9c0-1.5,0-1.6-1-1.9v-.6c.8-.2,1.5-.5,2.2-1v1.9c.3-.4.7-.8,1.2-1.2.4-.4.8-.6,1.3-.6.8,0,1.4.7,1.7,2,.4-.5.9-.9,1.3-1.3.4-.3.8-.6,1.3-.6,1.3,0,2,1.3,2,3.7v4.6c0,1.6,0,1.7,1,1.8v.7h-3.3Z"/>
    <path class="st0" d="M171.9,266.3c-.2,0-.6-.2-.8-.5-.2-.3-.3-.6-.4-1.1-.6.6-1.4,1.5-1.9,1.5-1.1,0-2-1.4-2-2.9s.4-1.9,1.3-2.4c1-.5,2.2-1.1,2.5-1.5v-.5c0-1.7-.6-2.7-1.4-2.7s-.6.3-.8.5c-.2.3-.3.9-.4,1.5,0,.4-.2.5-.5.5s-.7-.5-.7-1,.2-.6.5-1c.5-.5,1.4-1.4,2.3-1.7.5,0,1,.2,1.3.6.6.7.8,1.5.8,2.8v4.6c0,1.1.3,1.4.6,1.4s.4-.1.6-.3l.2.7-1.4,1.2ZM170.7,260.2c-.4.3-1.1.8-1.5,1-.6.4-1,.9-1,1.7,0,1.3.6,1.8,1.2,1.8s1-.4,1.3-.9v-3.7Z"/>
    <path class="st0" d="M180.8,266c-.3.2-.5.3-.7.3-1,0-1.6-.9-1.6-2.8v-6.9h-1.1v-.3c0,0,.4-.7.4-.7h.7v-2c.3-.5.8-1.1,1.1-1.6h.2c0,1,0,2.4,0,3.6h1.8c.1.2,0,.8,0,1h-1.7v6.1c0,1.9.5,2.3.9,2.3s.8-.2,1-.4v.6c.1,0-.9.8-.9.8Z"/>
    <path class="st0" d="M190.1,265.4c-.8.2-1.6.5-2.5.8v-1.8c-.9,1.1-1.6,1.8-2.5,1.8s-2-1-2-3.6v-4.6c0-1.3-.1-1.4-.5-1.5h-.4v-.7c.7,0,1.7-.3,2.3-.4,0,.8,0,1.9,0,3.5v3.2c0,2.1.7,2.7,1.5,2.7s1.2-.4,1.7-1.1v-5.5c0-1.3-.2-1.5-.7-1.6h-.5v-.7c1,0,2.1-.3,2.5-.4v8c0,1.2.1,1.4.7,1.4h.4v.7Z"/>
    <path class="st0" d="M199.8,266.3c-.2,0-.6-.2-.8-.5-.2-.3-.3-.6-.4-1.1-.6.6-1.4,1.5-1.9,1.5-1.1,0-2-1.4-2-2.9s.4-1.9,1.3-2.4c1-.5,2.2-1.1,2.5-1.5v-.5c0-1.7-.6-2.7-1.4-2.7s-.6.3-.8.5c-.2.3-.3.9-.4,1.5,0,.4-.2.5-.5.5s-.7-.5-.7-1,.2-.6.5-1c.5-.5,1.4-1.4,2.3-1.7.5,0,1,.2,1.3.6.6.7.8,1.5.8,2.8v4.6c0,1.1.3,1.4.6,1.4s.4-.1.6-.3l.2.7-1.4,1.2ZM198.6,260.2c-.4.3-1.1.8-1.5,1-.6.4-1,.9-1,1.7,0,1.3.6,1.8,1.2,1.8s1-.4,1.3-.9v-3.7Z"/>
    <path class="st0" d="M205.9,258.4c-.3-1.4-.7-2.3-1.7-2.3s-1,.6-1,1.5.5,1.5,1.4,2.1c1.4,1,2.1,1.7,2.1,3.3s-1.3,3.3-2.6,3.3-1.6-.4-1.9-.7c0-.7-.2-2-.3-2.8h.5c.3,1.4.8,2.6,2,2.6s1.1-.6,1.1-1.6-.4-1.6-1.3-2.2c-1.1-.8-2-1.6-2-3.3s1-3.1,2.5-3.1,1.2.2,1.5.3c0,.6.2,2.1.2,2.6l-.5.2Z"/>
    <path class="st0" d="M207.7,266v-.7c1-.1,1.1-.3,1.1-1.9v-4.9c0-1.5,0-1.6-1-1.8v-.6c.8-.2,1.6-.5,2.3-1v8.2c0,1.6.1,1.7,1.2,1.9v.7h-3.5ZM209.3,252.9c-.4,0-.8-.6-.8-1.3s.4-1.3.9-1.3.8.5.8,1.3-.4,1.3-.8,1.3Z"/>
    <path class="st0" d="M216.1,258.4c-.3-1.4-.7-2.3-1.7-2.3s-1,.6-1,1.5.5,1.5,1.4,2.1c1.4,1,2.1,1.7,2.1,3.3s-1.3,3.3-2.6,3.3-1.6-.4-1.9-.7c0-.7-.2-2-.3-2.8h.5c.3,1.4.8,2.6,2,2.6s1.1-.6,1.1-1.6-.4-1.6-1.3-2.2c-1.1-.8-2-1.6-2-3.3s1-3.1,2.5-3.1,1.2.2,1.5.3c0,.6.2,2.1.2,2.6l-.5.2Z"/>
    <path class="st0" d="M220.9,266c-.3.2-.5.3-.7.3-1,0-1.6-.9-1.6-2.8v-6.9h-1.1v-.3c0,0,.4-.7.4-.7h.7v-2c.3-.5.8-1.1,1.1-1.6h.2c0,1,0,2.4,0,3.6h1.8c.1.2,0,.8,0,1h-1.7v6.1c0,1.9.5,2.3.9,2.3s.8-.2,1-.4v.6c.1,0-.9.8-.9.8Z"/>
    <path class="st0" d="M228.2,264c-1,1.9-2.1,2.3-2.7,2.3-2,0-3.1-2.4-3.1-5.1s.4-3.1,1-4.2c.7-1.1,1.6-1.7,2.4-1.7,1.4,0,2.5,1.8,2.5,3.7,0,.5,0,.7-.3.8-.3,0-2.4.3-4.3.4,0,3.2,1.3,4.5,2.4,4.5s1.3-.4,1.9-1.2l.3.5ZM225.5,256.2c-.7,0-1.5,1-1.7,3,.9,0,1.8,0,2.7,0,.3,0,.4-.1.4-.5,0-1.3-.5-2.4-1.4-2.4Z"/>
    <path class="st0" d="M233.9,266v-.7c.9-.1,1-.3,1-1.9v-3.9c0-1.7-.4-2.8-1.5-2.8s-1.3.6-1.8,1.2v5.6c0,1.6,0,1.7,1,1.8v.7h-3.5v-.7c1.1-.2,1.2-.3,1.2-1.8v-4.9c0-1.5-.1-1.6-1-1.8v-.6c.8-.2,1.6-.5,2.2-1v1.9c.3-.3.7-.7,1.1-1.1.4-.4.9-.7,1.3-.7,1.3,0,2.1,1.4,2.1,3.7v4.5c0,1.6,0,1.7,1,1.8v.7h-3.3Z"/>
    <path class="st0" d="M244.1,263.8c-.7,1.4-1.8,2.4-2.7,2.4-2,0-3.2-2.5-3.2-5s.5-3.4,1.6-4.7c.8-1,1.8-1.4,2.4-1.4s1.3.3,1.5.6c.2.3.3.4.3.7,0,.6-.4,1.1-.6,1.1s-.1,0-.3-.2c-.5-.7-1-1-1.6-1-1.1,0-2,1.3-2,3.8,0,3.3,1.5,4.4,2.4,4.4s1.2-.3,2-1.3l.3.5Z"/>
    <path class="st0" d="M245,266v-.7c1-.1,1.1-.3,1.1-1.9v-4.9c0-1.5,0-1.6-1-1.8v-.6c.8-.2,1.6-.5,2.3-1v8.2c0,1.6.1,1.7,1.2,1.9v.7h-3.5ZM246.7,252.9c-.4,0-.8-.6-.8-1.3s.4-1.3.9-1.3.8.5.8,1.3-.4,1.3-.8,1.3Z"/>
    <path class="st0" d="M254.4,266.3c-.2,0-.6-.2-.8-.5-.2-.3-.3-.6-.4-1.1-.6.6-1.4,1.5-1.9,1.5-1.1,0-2-1.4-2-2.9s.4-1.9,1.3-2.4c1-.5,2.2-1.1,2.5-1.5v-.5c0-1.7-.6-2.7-1.4-2.7s-.6.3-.8.5c-.2.3-.3.9-.4,1.5,0,.4-.2.5-.5.5s-.7-.5-.7-1,.2-.6.5-1c.5-.5,1.4-1.4,2.3-1.7.5,0,1,.2,1.3.6.6.7.8,1.5.8,2.8v4.6c0,1.1.3,1.4.6,1.4s.4-.1.6-.3l.2.7-1.4,1.2ZM253.3,260.2c-.4.3-1.1.8-1.5,1-.6.4-1,.9-1,1.7,0,1.3.6,1.8,1.2,1.8s1-.4,1.3-.9v-3.7Z"/>
    <path class="st0" d="M268,265.4c-.8.2-1.6.5-2.5.8v-1.8c-.9,1.1-1.6,1.8-2.5,1.8s-2-1-2-3.6v-4.6c0-1.3-.1-1.4-.5-1.5h-.4v-.7c.7,0,1.7-.3,2.3-.4,0,.8,0,1.9,0,3.5v3.2c0,2.1.7,2.7,1.5,2.7s1.2-.4,1.7-1.1v-5.5c0-1.3-.2-1.5-.7-1.6h-.5v-.7c1,0,2.1-.3,2.5-.4v8c0,1.2.1,1.4.7,1.4h.4v.7Z"/>
    <path class="st0" d="M273.4,266v-.7c.9-.1,1-.3,1-1.9v-3.9c0-1.7-.4-2.8-1.5-2.8s-1.3.6-1.8,1.2v5.6c0,1.6,0,1.7,1,1.8v.7h-3.5v-.7c1.1-.2,1.2-.3,1.2-1.8v-4.9c0-1.5-.1-1.6-1-1.8v-.6c.8-.2,1.6-.5,2.2-1v1.9c.3-.3.7-.7,1.1-1.1.4-.4.9-.7,1.3-.7,1.3,0,2.1,1.4,2.1,3.7v4.5c0,1.6,0,1.7,1,1.8v.7h-3.3Z"/>
    <path class="st0" d="M277.6,266v-.7c1-.1,1.1-.3,1.1-1.9v-4.9c0-1.5,0-1.6-1-1.8v-.6c.8-.2,1.6-.5,2.3-1v8.2c0,1.6.1,1.7,1.2,1.9v.7h-3.5ZM279.3,252.9c-.4,0-.8-.6-.8-1.3s.4-1.3.9-1.3.8.5.8,1.3-.4,1.3-.8,1.3Z"/>
    <path class="st0" d="M287.8,264c-1,1.9-2.1,2.3-2.7,2.3-2,0-3.1-2.4-3.1-5.1s.4-3.1,1-4.2c.7-1.1,1.6-1.7,2.4-1.7,1.4,0,2.5,1.8,2.5,3.7,0,.5,0,.7-.3.8-.3,0-2.4.3-4.3.4,0,3.2,1.3,4.5,2.4,4.5s1.3-.4,1.9-1.2l.3.5ZM285,256.2c-.7,0-1.5,1-1.7,3,.9,0,1.8,0,2.7,0,.3,0,.4-.1.4-.5,0-1.3-.5-2.4-1.4-2.4ZM284.4,253.3l1.8-3.9c.4-.2,1.4-.2,1.6-.1v.3s-3,4.1-3,4.1l-.4-.4Z"/>
    <path class="st0" d="M293.4,266v-.7c.9-.1,1-.3,1-1.9v-3.9c0-1.7-.4-2.8-1.5-2.8s-1.3.6-1.8,1.2v5.6c0,1.6,0,1.7,1,1.8v.7h-3.5v-.7c1.1-.2,1.2-.3,1.2-1.8v-4.9c0-1.5-.1-1.6-1-1.8v-.6c.8-.2,1.6-.5,2.2-1v1.9c.3-.3.7-.7,1.1-1.1.4-.4.9-.7,1.3-.7,1.3,0,2.1,1.4,2.1,3.7v4.5c0,1.6,0,1.7,1,1.8v.7h-3.3Z"/>
    <path class="st0" d="M305.5,265.4c-.3,0-1.5.4-2.5.9v-1.5c-.3.3-.7.6-1,.9-.6.5-1.1.7-1.3.7-1.3,0-3-1.9-3-5.2s2-5.8,4.2-5.8.8,0,1.1.3v-3.5c0-1.5-.1-1.6-1.3-1.7v-.6c.8-.2,1.9-.5,2.5-.8v14.3c0,1.2.1,1.4.7,1.5h.5v.7ZM303,257.4c-.4-.8-1.1-1.2-1.7-1.2s-2.1.8-2.1,4.2,1.2,4.4,2.2,4.4c.6,0,1.2-.4,1.6-.9v-6.5Z"/>
    <path class="st0" d="M309.8,255.2c2,0,3.5,2.3,3.5,5.3s-1.9,5.7-3.5,5.7-3.6-2.6-3.6-5.3c0-3.9,2-5.7,3.6-5.7ZM309.6,256.1c-1,0-1.9,1.4-1.9,4.2s.9,5.2,2.2,5.2,1.8-1.1,1.8-4.3-.8-5-2.2-5Z"/>
    <path class="st0" d="M317.6,266c-.3.2-.5.3-.7.3-1,0-1.6-.9-1.6-2.8v-6.9h-1.1v-.3c0,0,.4-.7.4-.7h.7v-2c.3-.5.8-1.1,1.1-1.6h.2c0,1,0,2.4,0,3.6h1.8c.1.2,0,.8,0,1h-1.7v6.1c0,1.9.5,2.3.9,2.3s.8-.2,1-.4v.6c.1,0-.9.8-.9.8Z"/>
    <path class="st0" d="M324.9,264c-1,1.9-2.1,2.3-2.7,2.3-2,0-3.1-2.4-3.1-5.1s.4-3.1,1-4.2c.7-1.1,1.6-1.7,2.4-1.7,1.4,0,2.5,1.8,2.5,3.7,0,.5,0,.7-.3.8-.3,0-2.4.3-4.3.4,0,3.2,1.3,4.5,2.4,4.5s1.3-.4,1.9-1.2l.3.5ZM322.2,256.2c-.7,0-1.5,1-1.7,3,.9,0,1.8,0,2.7,0,.3,0,.4-.1.4-.5,0-1.3-.5-2.4-1.4-2.4Z"/>
    <path class="st0" d="M59.6,294.8c-.2,0-.6-.2-.8-.5-.2-.3-.3-.6-.4-1.1-.6.6-1.4,1.5-1.9,1.5-1.1,0-2-1.4-2-2.9s.4-1.9,1.3-2.4c1-.5,2.2-1.1,2.5-1.5v-.5c0-1.7-.6-2.7-1.4-2.7s-.6.3-.8.5c-.2.3-.3.9-.4,1.5,0,.4-.2.5-.5.5s-.7-.5-.7-1,.2-.6.5-1c.5-.5,1.4-1.4,2.3-1.7.5,0,1,.2,1.3.6.6.7.8,1.5.8,2.8v4.6c0,1.1.3,1.4.6,1.4s.4-.1.6-.3l.2.7-1.4,1.2ZM58.4,288.8c-.4.3-1.1.8-1.5,1-.6.4-1,.9-1,1.7,0,1.3.6,1.8,1.2,1.8s1-.4,1.3-.9v-3.7Z"/>
    <path class="st0" d="M70,294.6v-.7c.9-.1,1-.3,1-1.9v-3.9c0-1.7-.4-2.8-1.5-2.8s-1.3.6-1.8,1.2v5.6c0,1.6,0,1.7,1,1.8v.7h-3.5v-.7c1.1-.2,1.2-.3,1.2-1.8v-4.9c0-1.5-.1-1.6-1-1.8v-.6c.8-.2,1.6-.5,2.2-1v1.9c.3-.3.7-.7,1.1-1.1.4-.4.9-.7,1.3-.7,1.3,0,2.1,1.4,2.1,3.7v4.5c0,1.6,0,1.7,1,1.8v.7h-3.3Z"/>
    <path class="st0" d="M81.9,294c-.8.2-1.6.5-2.5.8v-1.8c-.9,1.1-1.6,1.8-2.5,1.8s-2-1-2-3.6v-4.6c0-1.3-.1-1.4-.5-1.5h-.4v-.7c.7,0,1.7-.3,2.3-.4,0,.8,0,1.9,0,3.5v3.2c0,2.1.7,2.7,1.5,2.7s1.2-.4,1.7-1.1v-5.5c0-1.3-.2-1.5-.7-1.6h-.5v-.7c1,0,2.1-.3,2.5-.4v8c0,1.2.1,1.4.7,1.4h.4v.7Z"/>
    <path class="st0" d="M88.5,292.5c-1,1.9-2.1,2.3-2.7,2.3-2,0-3.1-2.4-3.1-5.1s.4-3.1,1-4.2c.7-1.1,1.6-1.7,2.4-1.7,1.4,0,2.5,1.8,2.5,3.7,0,.5,0,.7-.3.8-.3,0-2.4.3-4.3.4,0,3.2,1.3,4.5,2.4,4.5s1.3-.4,1.9-1.2l.3.5ZM85.8,284.7c-.7,0-1.5,1-1.7,3,.9,0,1.8,0,2.7,0,.3,0,.4-.1.4-.5,0-1.3-.5-2.4-1.4-2.4Z"/>
    <path class="st0" d="M93.7,286.9c-.3-1.4-.7-2.3-1.7-2.3s-1,.6-1,1.5.5,1.5,1.4,2.1c1.4,1,2.1,1.7,2.1,3.3s-1.3,3.3-2.6,3.3-1.6-.4-1.9-.7c0-.7-.2-2-.3-2.8h.5c.3,1.4.8,2.6,2,2.6s1.1-.6,1.1-1.6-.4-1.6-1.3-2.2c-1.1-.8-2-1.6-2-3.3s1-3.1,2.5-3.1,1.2.2,1.5.3c0,.6.2,2.1.2,2.6l-.5.2Z"/>
    <path class="st0" d="M98.5,294.5c-.3.2-.5.3-.7.3-1,0-1.6-.9-1.6-2.8v-6.9h-1.1v-.3c0,0,.4-.7.4-.7h.7v-2c.3-.5.8-1.1,1.1-1.6h.2c0,1,0,2.4,0,3.6h1.8c.1.2,0,.8,0,1h-1.7v6.1c0,1.9.5,2.3.9,2.3s.8-.2,1-.4v.6c.1,0-.9.8-.9.8Z"/>
    <path class="st0" d="M103.9,294.6h-3.7v-.7c1-.1,1.1-.3,1.1-1.8v-5c0-1.6,0-1.6-1-1.8v-.6c.8-.2,1.5-.5,2.3-1v2.6c.6-1.2,1.2-2.5,2-2.5s.9.5.9,1.1-.3,1.1-.5,1.3c-.2.1-.3.1-.4,0-.2-.4-.4-.6-.7-.6s-.9.7-1.3,2v4.5c0,1.6,0,1.7,1.3,1.8v.7Z"/>
    <path class="st0" d="M109.6,283.8c2,0,3.5,2.3,3.5,5.3s-1.9,5.7-3.5,5.7-3.6-2.6-3.6-5.3c0-3.9,2-5.7,3.6-5.7ZM109.4,284.6c-1,0-1.9,1.4-1.9,4.2s.9,5.2,2.2,5.2,1.8-1.1,1.8-4.3-.8-5-2.2-5Z"/>
    <path class="st0" d="M120.3,291.1c-.4.5-.5.9-.5,1.2,0,.4.3.9,1,.9s1.3,0,1.8,0c1,0,2.3.5,2.3,2.9s-2,4.8-4.1,4.8-2.8-1.6-2.8-3c0-.5.1-1,.4-1.4.3-.5.9-1.3,1.3-1.7-.6-.2-1-.8-1.2-1.3-.1-.4-.2-.8-.2-1,.6-.3,1.2-1,1.5-1.6l.5.3ZM121,291.3c-1.5,0-2.7-1.4-2.7-3.6s1.6-4,2.9-4,1.1.2,1.5.6c.7,0,1.7-.2,2.1-.4v.2c0,.4-.3,1-.5,1.3-.2,0-.8,0-1-.1.3.5.5,1.3.5,2.2,0,2.6-1.4,3.8-2.8,3.8ZM121.4,294.8c-.8,0-1.1.1-1.4.5-.4.5-.8,1.3-.8,2,0,1.3.9,2.3,2.1,2.3s2.4-1.2,2.4-2.7-.3-1.5-.7-1.7c-.4-.3-1-.3-1.6-.3ZM121,284.5c-.7,0-1.4,1-1.4,2.9s.6,3.2,1.5,3.2c.7,0,1.3-.9,1.3-2.9s-.6-3.2-1.5-3.2Z"/>
    <path class="st0" d="M129.2,294.6h-3.7v-.7c1-.1,1.1-.3,1.1-1.8v-5c0-1.6,0-1.6-1-1.8v-.6c.8-.2,1.5-.5,2.3-1v2.6c.6-1.2,1.2-2.5,2-2.5s.9.5.9,1.1-.3,1.1-.5,1.3c-.2.1-.3.1-.4,0-.2-.4-.4-.6-.7-.6s-.9.7-1.3,2v4.5c0,1.6,0,1.7,1.3,1.8v.7Z"/>
    <path class="st0" d="M139.4,294c-.8.2-1.6.5-2.5.8v-1.8c-.9,1.1-1.6,1.8-2.5,1.8s-2-1-2-3.6v-4.6c0-1.3-.1-1.4-.5-1.5h-.4v-.7c.7,0,1.7-.3,2.3-.4,0,.8,0,1.9,0,3.5v3.2c0,2.1.7,2.7,1.5,2.7s1.2-.4,1.7-1.1v-5.5c0-1.3-.2-1.5-.7-1.6h-.5v-.7c1,0,2.1-.3,2.5-.4v8c0,1.2.1,1.4.7,1.4h.4v.7Z"/>
    <path class="st0" d="M140.1,284.6c.8-.2,1.6-.6,2.3-1v1.9s1.3-1.1,1.4-1.2c.4-.3.7-.5.9-.5,1.8,0,2.8,2.2,2.8,4.5,0,3.6-1.9,5.9-4,6.5-.5,0-.9-.2-1.1-.4v3.2c0,1.8.1,1.9,1.4,2.1v.7h-3.8v-.7c1-.2,1.2-.3,1.2-1.9v-10.8c0-1.4,0-1.5-1.1-1.7v-.6ZM142.4,292.7c.4.5,1,.9,1.5.9,1.4,0,2.3-1.7,2.3-4.4s-1-4-2.1-4-1.2.5-1.7,1v6.5Z"/>
    <path class="st0" d="M152.5,283.8c2,0,3.5,2.3,3.5,5.3s-1.9,5.7-3.5,5.7-3.6-2.6-3.6-5.3c0-3.9,2-5.7,3.6-5.7ZM152.3,284.6c-1,0-1.9,1.4-1.9,4.2s.9,5.2,2.2,5.2,1.8-1.1,1.8-4.3-.8-5-2.2-5Z"/>
    <path class="st0" d="M160.7,284.6c.8-.2,1.6-.6,2.3-1v1.9s1.3-1.1,1.4-1.2c.4-.3.7-.5.9-.5,1.8,0,2.8,2.2,2.8,4.5,0,3.6-1.9,5.9-4,6.5-.5,0-.9-.2-1.1-.4v3.2c0,1.8.1,1.9,1.4,2.1v.7h-3.8v-.7c1-.2,1.2-.3,1.2-1.9v-10.8c0-1.4,0-1.5-1.1-1.7v-.6ZM163,292.7c.4.5,1,.9,1.5.9,1.4,0,2.3-1.7,2.3-4.4s-1-4-2.1-4-1.2.5-1.7,1v6.5Z"/>
    <path class="st0" d="M173,294.6h-3.7v-.7c1-.1,1.1-.3,1.1-1.8v-5c0-1.6,0-1.6-1-1.8v-.6c.8-.2,1.5-.5,2.3-1v2.6c.6-1.2,1.2-2.5,2-2.5s.9.5.9,1.1-.3,1.1-.5,1.3c-.2.1-.3.1-.4,0-.2-.4-.4-.6-.7-.6s-.9.7-1.3,2v4.5c0,1.6,0,1.7,1.3,1.8v.7Z"/>
    <path class="st0" d="M175.4,294.6v-.7c1-.1,1.1-.3,1.1-1.9v-4.9c0-1.5,0-1.6-1-1.8v-.6c.8-.2,1.6-.5,2.3-1v8.2c0,1.6.1,1.7,1.2,1.9v.7h-3.5ZM177,281.4c-.4,0-.8-.6-.8-1.3s.4-1.3.9-1.3.8.5.8,1.3-.4,1.3-.8,1.3Z"/>
    <path class="st0" d="M186.7,284.7c-.9.2-1,.4-1.4,1.8-.5,1.9-1.4,5.1-2.3,8.3h-.5c-.7-2.7-1.5-5.6-2.2-8.4-.4-1.4-.5-1.5-1.3-1.7v-.6h3.3v.6c-.9.2-.9.3-.7,1.4.4,1.6,1.1,4.2,1.5,5.8.6-2.1,1.1-4.1,1.5-5.6.3-1.2.2-1.4-.8-1.6v-.6h2.9v.6Z"/>
    <path class="st0" d="M192.3,294.8c-.2,0-.6-.2-.8-.5-.2-.3-.3-.6-.4-1.1-.6.6-1.4,1.5-1.9,1.5-1.1,0-2-1.4-2-2.9s.4-1.9,1.3-2.4c1-.5,2.2-1.1,2.5-1.5v-.5c0-1.7-.6-2.7-1.4-2.7s-.6.3-.8.5c-.2.3-.3.9-.4,1.5,0,.4-.2.5-.5.5s-.7-.5-.7-1,.2-.6.5-1c.5-.5,1.4-1.4,2.3-1.7.5,0,1,.2,1.3.6.6.7.8,1.5.8,2.8v4.6c0,1.1.3,1.4.6,1.4s.4-.1.6-.3l.2.7-1.4,1.2ZM191.1,288.8c-.4.3-1.1.8-1.5,1-.6.4-1,.9-1,1.7,0,1.3.6,1.8,1.2,1.8s1-.4,1.3-.9v-3.7Z"/>
    <path class="st0" d="M202,294c-.3,0-1.5.4-2.5.9v-1.5c-.3.3-.7.6-1,.9-.6.5-1.1.7-1.3.7-1.3,0-3-1.9-3-5.2s2-5.8,4.2-5.8.8,0,1.1.3v-3.5c0-1.5-.1-1.6-1.3-1.7v-.6c.8-.2,1.9-.5,2.5-.8v14.3c0,1.2.1,1.4.7,1.5h.5v.7ZM199.6,286c-.4-.8-1.1-1.2-1.7-1.2s-2.1.8-2.1,4.2,1.2,4.4,2.2,4.4c.6,0,1.2-.4,1.6-.9v-6.5Z"/>
    <path class="st0" d="M206.4,283.8c2,0,3.5,2.3,3.5,5.3s-1.9,5.7-3.5,5.7-3.6-2.6-3.6-5.3c0-3.9,2-5.7,3.6-5.7ZM206.2,284.6c-1,0-1.9,1.4-1.9,4.2s.9,5.2,2.2,5.2,1.8-1.1,1.8-4.3-.8-5-2.2-5Z"/>
    <path class="st0" d="M222.6,294c-.3,0-1.5.4-2.5.9v-1.5c-.3.3-.7.6-1,.9-.6.5-1.1.7-1.3.7-1.3,0-3-1.9-3-5.2s2-5.8,4.2-5.8.8,0,1.1.3v-3.5c0-1.5-.1-1.6-1.3-1.7v-.6c.8-.2,1.9-.5,2.5-.8v14.3c0,1.2.1,1.4.7,1.5h.5v.7ZM220.1,286c-.4-.8-1.1-1.2-1.7-1.2s-2.1.8-2.1,4.2,1.2,4.4,2.2,4.4c.6,0,1.2-.4,1.6-.9v-6.5Z"/>
    <path class="st0" d="M229.2,292.5c-1,1.9-2.1,2.3-2.7,2.3-2,0-3.1-2.4-3.1-5.1s.4-3.1,1-4.2c.7-1.1,1.6-1.7,2.4-1.7,1.4,0,2.5,1.8,2.5,3.7,0,.5,0,.7-.3.8-.3,0-2.4.3-4.3.4,0,3.2,1.3,4.5,2.4,4.5s1.3-.4,1.9-1.2l.3.5ZM226.4,284.7c-.7,0-1.5,1-1.7,3,.9,0,1.8,0,2.7,0,.3,0,.4-.1.4-.5,0-1.3-.5-2.4-1.4-2.4Z"/>
    <path class="st0" d="M240,292.4c-.7,1.4-1.8,2.4-2.7,2.4-2,0-3.2-2.5-3.2-5s.5-3.4,1.6-4.7c.8-1,1.8-1.4,2.4-1.4s1.3.3,1.5.6c.2.3.3.4.3.7,0,.6-.4,1.1-.6,1.1s-.1,0-.3-.2c-.5-.7-1-1-1.6-1-1.1,0-2,1.3-2,3.8,0,3.3,1.5,4.4,2.4,4.4s1.2-.3,2-1.3l.3.5Z"/>
    <path class="st0" d="M244.4,283.8c2,0,3.5,2.3,3.5,5.3s-1.9,5.7-3.5,5.7-3.6-2.6-3.6-5.3c0-3.9,2-5.7,3.6-5.7ZM244.2,284.6c-1,0-1.9,1.4-1.9,4.2s.9,5.2,2.2,5.2,1.8-1.1,1.8-4.3-.8-5-2.2-5Z"/>
    <path class="st0" d="M252.8,283.8c2,0,3.5,2.3,3.5,5.3s-1.9,5.7-3.5,5.7-3.6-2.6-3.6-5.3c0-3.9,2-5.7,3.6-5.7ZM252.6,284.6c-1,0-1.9,1.4-1.9,4.2s.9,5.2,2.2,5.2,1.8-1.1,1.8-4.3-.8-5-2.2-5Z"/>
    <path class="st0" d="M261,294.6h-3.7v-.7c1-.1,1.1-.3,1.1-1.8v-5c0-1.6,0-1.6-1-1.8v-.6c.8-.2,1.5-.5,2.3-1v2.6c.6-1.2,1.2-2.5,2-2.5s.9.5.9,1.1-.3,1.1-.5,1.3c-.2.1-.3.1-.4,0-.2-.4-.4-.6-.7-.6s-.9.7-1.3,2v4.5c0,1.6,0,1.7,1.3,1.8v.7Z"/>
    <path class="st0" d="M270.9,294c-.3,0-1.5.4-2.5.9v-1.5c-.3.3-.7.6-1,.9-.6.5-1.1.7-1.3.7-1.3,0-3-1.9-3-5.2s2-5.8,4.2-5.8.8,0,1.1.3v-3.5c0-1.5-.1-1.6-1.3-1.7v-.6c.8-.2,1.9-.5,2.5-.8v14.3c0,1.2.1,1.4.7,1.5h.5v.7ZM268.5,286c-.4-.8-1.1-1.2-1.7-1.2s-2.1.8-2.1,4.2,1.2,4.4,2.2,4.4c.6,0,1.2-.4,1.6-.9v-6.5Z"/>
    <path class="st0" d="M271.7,294.6v-.7c1-.1,1.1-.3,1.1-1.9v-4.9c0-1.5,0-1.6-1-1.8v-.6c.8-.2,1.6-.5,2.3-1v8.2c0,1.6.1,1.7,1.2,1.9v.7h-3.5ZM273.4,281.4c-.4,0-.8-.6-.8-1.3s.4-1.3.9-1.3.8.5.8,1.3-.4,1.3-.8,1.3Z"/>
    <path class="st0" d="M280.7,294.6v-.7c.9-.1,1-.3,1-1.9v-3.9c0-1.7-.4-2.8-1.5-2.8s-1.3.6-1.8,1.2v5.6c0,1.6,0,1.7,1,1.8v.7h-3.5v-.7c1.1-.2,1.2-.3,1.2-1.8v-4.9c0-1.5-.1-1.6-1-1.8v-.6c.8-.2,1.6-.5,2.2-1v1.9c.3-.3.7-.7,1.1-1.1.4-.4.9-.7,1.3-.7,1.3,0,2.1,1.4,2.1,3.7v4.5c0,1.6,0,1.7,1,1.8v.7h-3.3Z"/>
    <path class="st0" d="M290.1,294.8c-.2,0-.6-.2-.8-.5-.2-.3-.3-.6-.4-1.1-.6.6-1.4,1.5-1.9,1.5-1.1,0-2-1.4-2-2.9s.4-1.9,1.3-2.4c1-.5,2.2-1.1,2.5-1.5v-.5c0-1.7-.6-2.7-1.4-2.7s-.6.3-.8.5c-.2.3-.3.9-.4,1.5,0,.4-.2.5-.5.5s-.7-.5-.7-1,.2-.6.5-1c.5-.5,1.4-1.4,2.3-1.7.5,0,1,.2,1.3.6.6.7.8,1.5.8,2.8v4.6c0,1.1.3,1.4.6,1.4s.4-.1.6-.3l.2.7-1.4,1.2ZM288.9,288.8c-.4.3-1.1.8-1.5,1-.6.4-1,.9-1,1.7,0,1.3.6,1.8,1.2,1.8s1-.4,1.3-.9v-3.7Z"/>
    <path class="st0" d="M298.1,292.4c-.7,1.4-1.8,2.4-2.7,2.4-2,0-3.2-2.5-3.2-5s.5-3.4,1.6-4.7c.8-1,1.8-1.4,2.4-1.4s1.3.3,1.5.6c.2.3.3.4.3.7,0,.6-.4,1.1-.6,1.1s-.1,0-.3-.2c-.5-.7-1-1-1.6-1-1.1,0-2,1.3-2,3.8,0,3.3,1.5,4.4,2.4,4.4s1.2-.3,2-1.3l.3.5Z"/>
    <path class="st0" d="M299,294.6v-.7c1-.1,1.1-.3,1.1-1.9v-4.9c0-1.5,0-1.6-1-1.8v-.6c.8-.2,1.6-.5,2.3-1v8.2c0,1.6.1,1.7,1.2,1.9v.7h-3.5ZM300.6,281.4c-.4,0-.8-.6-.8-1.3s.4-1.3.9-1.3.8.5.8,1.3-.4,1.3-.8,1.3Z"/>
    <path class="st0" d="M306.9,283.8c2,0,3.5,2.3,3.5,5.3s-1.9,5.7-3.5,5.7-3.6-2.6-3.6-5.3c0-3.9,2-5.7,3.6-5.7ZM306.7,284.6c-1,0-1.9,1.4-1.9,4.2s.9,5.2,2.2,5.2,1.8-1.1,1.8-4.3-.8-5-2.2-5ZM306.1,281.9l1.8-3.9c.4-.2,1.4-.2,1.6-.1v.3s-3,4.1-3,4.1l-.4-.4Z"/>
    <path class="st0" d="M316,294.6v-.7c.9-.1,1-.3,1-1.9v-3.9c0-1.7-.4-2.8-1.5-2.8s-1.3.6-1.8,1.2v5.6c0,1.6,0,1.7,1,1.8v.7h-3.5v-.7c1.1-.2,1.2-.3,1.2-1.8v-4.9c0-1.5-.1-1.6-1-1.8v-.6c.8-.2,1.6-.5,2.2-1v1.9c.3-.3.7-.7,1.1-1.1.4-.4.9-.7,1.3-.7,1.3,0,2.1,1.4,2.1,3.7v4.5c0,1.6,0,1.7,1,1.8v.7h-3.3Z"/>
    <path class="st0" d="M132.5,323.1v-.7c.9-.1,1.1-.3,1.1-1.8v-3.9c0-2-.5-3-1.6-3-.6,0-1.3.5-1.7,1.2v5.6c0,1.5.1,1.7,1.1,1.8v.7h-3.5v-.7c.9-.1,1.1-.2,1.1-1.8v-11.5c0-1.3,0-1.6-1.1-1.7v-.6c.8-.1,1.8-.5,2.4-.8v8.1c.6-.9,1.5-1.7,2.3-1.7,1.3,0,2.2,1.2,2.2,4.1v4.2c0,1.6.1,1.7,1.1,1.8v.7h-3.4Z"/>
    <path class="st0" d="M142,323.4c-.2,0-.6-.2-.8-.5-.2-.3-.3-.6-.4-1.1-.6.6-1.4,1.5-1.9,1.5-1.1,0-2-1.4-2-2.9s.4-1.9,1.3-2.4c1-.5,2.2-1.1,2.5-1.5v-.5c0-1.7-.6-2.7-1.4-2.7s-.6.3-.8.5c-.2.3-.3.9-.4,1.5,0,.4-.2.5-.5.5s-.7-.5-.7-1,.2-.6.5-1c.5-.5,1.4-1.4,2.3-1.7.5,0,1,.2,1.3.6.6.7.8,1.5.8,2.8v4.6c0,1.1.3,1.4.6,1.4s.4-.1.6-.3l.2.7-1.4,1.2ZM140.8,317.4c-.4.3-1.1.8-1.5,1-.6.4-1,.9-1,1.7,0,1.3.6,1.8,1.2,1.8s1-.4,1.3-.9v-3.7Z"/>
    <path class="st0" d="M150,321c-.7,1.4-1.8,2.4-2.7,2.4-2,0-3.2-2.5-3.2-5s.5-3.4,1.6-4.7c.8-1,1.8-1.4,2.4-1.4s1.3.3,1.5.6c.2.3.3.4.3.7,0,.6-.4,1.1-.6,1.1s-.1,0-.3-.2c-.5-.7-1-1-1.6-1-1.1,0-2,1.3-2,3.8,0,3.3,1.5,4.4,2.4,4.4s1.2-.3,2-1.3l.3.5Z"/>
    <path class="st0" d="M150.9,323.1v-.7c1-.1,1.1-.3,1.1-1.9v-4.9c0-1.5,0-1.6-1-1.8v-.6c.8-.2,1.6-.5,2.3-1v8.2c0,1.6.1,1.7,1.2,1.9v.7h-3.5ZM152.5,310c-.4,0-.8-.6-.8-1.3s.4-1.3.9-1.3.8.5.8,1.3-.4,1.3-.8,1.3Z"/>
    <path class="st0" d="M161,321.1c-1,1.9-2.1,2.3-2.7,2.3-2,0-3.1-2.4-3.1-5.1s.4-3.1,1-4.2c.7-1.1,1.6-1.7,2.4-1.7,1.4,0,2.5,1.8,2.5,3.7,0,.5,0,.7-.3.8-.3,0-2.4.3-4.3.4,0,3.2,1.3,4.5,2.4,4.5s1.3-.4,1.9-1.2l.3.5ZM158.3,313.3c-.7,0-1.5,1-1.7,3,.9,0,1.8,0,2.7,0,.3,0,.4-.1.4-.5,0-1.3-.5-2.4-1.4-2.4Z"/>
    <path class="st0" d="M166.7,323.1v-.7c.9-.1,1-.3,1-1.9v-3.9c0-1.7-.4-2.8-1.5-2.8s-1.3.6-1.8,1.2v5.6c0,1.6,0,1.7,1,1.8v.7h-3.5v-.7c1.1-.2,1.2-.3,1.2-1.8v-4.9c0-1.5-.1-1.6-1-1.8v-.6c.8-.2,1.6-.5,2.2-1v1.9c.3-.3.7-.7,1.1-1.1.4-.4.9-.7,1.3-.7,1.3,0,2.1,1.4,2.1,3.7v4.5c0,1.6,0,1.7,1,1.8v.7h-3.3Z"/>
    <path class="st0" d="M178.7,322.5c-.3,0-1.5.4-2.5.9v-1.5c-.3.3-.7.6-1,.9-.6.5-1.1.7-1.3.7-1.3,0-3-1.9-3-5.2s2-5.8,4.2-5.8.8,0,1.1.3v-3.5c0-1.5-.1-1.6-1.3-1.7v-.6c.8-.2,1.9-.5,2.5-.8v14.3c0,1.2.1,1.4.7,1.5h.5v.7ZM176.2,314.5c-.4-.8-1.1-1.2-1.7-1.2s-2.1.8-2.1,4.2,1.2,4.4,2.2,4.4c.6,0,1.2-.4,1.6-.9v-6.5Z"/>
    <path class="st0" d="M183,312.4c2,0,3.5,2.3,3.5,5.3s-1.9,5.7-3.5,5.7-3.6-2.6-3.6-5.3c0-3.9,2-5.7,3.6-5.7ZM182.9,313.2c-1,0-1.9,1.4-1.9,4.2s.9,5.2,2.2,5.2,1.8-1.1,1.8-4.3-.8-5-2.2-5Z"/>
    <path class="st0" d="M197.5,321c-.7,1.4-1.8,2.4-2.7,2.4-2,0-3.2-2.5-3.2-5s.5-3.4,1.6-4.7c.8-1,1.8-1.4,2.4-1.4s1.3.3,1.5.6c.2.3.3.4.3.7,0,.6-.4,1.1-.6,1.1s-.1,0-.3-.2c-.5-.7-1-1-1.6-1-1.1,0-2,1.3-2,3.8,0,3.3,1.5,4.4,2.4,4.4s1.2-.3,2-1.3l.3.5Z"/>
    <path class="st0" d="M198,323.1v-.7c1-.1,1.2-.3,1.2-1.8v-11.4c0-1.5,0-1.6-1.1-1.8v-.6c.9-.1,1.9-.5,2.4-.8v14.6c0,1.6,0,1.7,1.1,1.8v.7h-3.6Z"/>
    <path class="st0" d="M202.4,323.1v-.7c1-.1,1.1-.3,1.1-1.9v-4.9c0-1.5,0-1.6-1-1.8v-.6c.8-.2,1.6-.5,2.3-1v8.2c0,1.6.1,1.7,1.2,1.9v.7h-3.5ZM204.1,310c-.4,0-.8-.6-.8-1.3s.4-1.3.9-1.3.8.5.8,1.3-.4,1.3-.8,1.3Z"/>
    <path class="st0" d="M212.8,321c-.7,1.4-1.8,2.4-2.7,2.4-2,0-3.2-2.5-3.2-5s.5-3.4,1.6-4.7c.8-1,1.8-1.4,2.4-1.4s1.3.3,1.5.6c.2.3.3.4.3.7,0,.6-.4,1.1-.6,1.1s-.1,0-.3-.2c-.5-.7-1-1-1.6-1-1.1,0-2,1.3-2,3.8,0,3.3,1.5,4.4,2.4,4.4s1.2-.3,2-1.3l.3.5Z"/>
    <path class="st0" d="M222.5,323.4c-.2,0-.6-.2-.8-.5-.2-.3-.3-.6-.4-1.1-.6.6-1.4,1.5-1.9,1.5-1.1,0-2-1.4-2-2.9s.4-1.9,1.3-2.4c1-.5,2.2-1.1,2.5-1.5v-.5c0-1.7-.6-2.7-1.4-2.7s-.6.3-.8.5c-.2.3-.3.9-.4,1.5,0,.4-.2.5-.5.5s-.7-.5-.7-1,.2-.6.5-1c.5-.5,1.4-1.4,2.3-1.7.5,0,1,.2,1.3.6.6.7.8,1.5.8,2.8v4.6c0,1.1.3,1.4.6,1.4s.4-.1.6-.3l.2.7-1.4,1.2ZM221.3,317.4c-.4.3-1.1.8-1.5,1-.6.4-1,.9-1,1.7,0,1.3.6,1.8,1.2,1.8s1-.4,1.3-.9v-3.7Z"/>
    <path class="st0" d="M228.4,328.9v-.7c1.3-.2,1.3-.3,1.3-2v-3.9l-1.7,1c-2.4,0-3.5-2.8-3.5-5.1,0-3.5,2.1-5.9,4.3-5.9.5,0,.9.2,1.2.3.2,0,.3.1.4.1,0,0,.3,0,.5-.3h0c0,.6,0,1,0,2.6v11.2c0,1.6.1,1.7,1.2,1.9v.7h-3.8ZM229.7,314.4c-.4-.6-1.1-1-1.6-1-1.1,0-2.2,1.4-2.2,4.2s1.3,4.5,2.6,4.5.9-.2,1.2-.4v-7.3Z"/>
    <path class="st0" d="M240.5,322.6c-.8.2-1.6.5-2.5.8v-1.8c-.9,1.1-1.6,1.8-2.5,1.8s-2-1-2-3.6v-4.6c0-1.3-.1-1.4-.5-1.5h-.4v-.7c.7,0,1.7-.3,2.3-.4,0,.8,0,1.9,0,3.5v3.2c0,2.1.7,2.7,1.5,2.7s1.2-.4,1.7-1.1v-5.5c0-1.3-.2-1.5-.7-1.6h-.5v-.7c1,0,2.1-.3,2.5-.4v8c0,1.2.1,1.4.7,1.4h.4v.7Z"/>
    <path class="st0" d="M241.3,323.1v-.7c1-.1,1.1-.3,1.1-1.9v-4.9c0-1.5,0-1.6-1-1.8v-.6c.8-.2,1.6-.5,2.3-1v8.2c0,1.6.1,1.7,1.2,1.9v.7h-3.6ZM242.3,310.5l1.8-3.9c.4-.2,1.4-.2,1.6-.1v.3s-3,4.1-3,4.1l-.4-.4Z"/>
    <path class="st0" d="M247.5,316.2c-.5,0-1-.6-1-1.5s.4-1.5,1-1.5,1,.6,1,1.5-.4,1.5-1,1.5ZM247.5,323.4c-.5,0-1-.6-1-1.5s.4-1.5,1-1.5,1,.6,1,1.5-.4,1.5-1,1.5Z"/>
  </g>
</svg>