<?xml version="1.0" encoding="UTF-8"?>
<svg id="Capa_1" xmlns="http://www.w3.org/2000/svg" version="1.1" viewBox="0 0 314 216">
  <!-- Generator: Adobe Illustrator 29.5.1, SVG Export Plug-In . SVG Version: 2.1.0 Build 141)  -->
  <defs>
    <style>
      .st0 {
        fill: #fff;
      }
    </style>
  </defs>
  <g>
    <path class="st0" d="M7.5,9.7c0,.3-.3,1.2-.4,1.4H3v-.2c.8,0,.9-.1.9-.9v-3.4c0-.7,0-.8-.8-.8v-.2h2.3v.2c-.7,0-.8.1-.8.8v3.5c0,.5,0,.6.6.7,0,0,.6,0,.7,0,.4,0,.6,0,.8-.3.2-.2.4-.6.5-.9h.3Z"/>
    <path class="st0" d="M13.6,5.8c-.5,0-.7.2-.8.6,0,.2,0,.6,0,1.4v.9c0,.9-.1,1.6-.6,2.1-.4.4-1,.6-1.6.6s-1-.1-1.4-.4c-.5-.4-.8-1-.8-2v-2.2c0-.8,0-.8-.8-.9v-.2h2.3v.2c-.7,0-.8.1-.8.9v2.2c0,1.3.6,2,1.6,2s1.6-.8,1.6-2.2v-.9c0-.8,0-1.1,0-1.4,0-.4-.2-.5-.9-.6v-.2h2.1v.2Z"/>
    <path class="st0" d="M20.1,5.8c-.6,0-.7.1-.8.5,0,.3,0,.6,0,1.4v3.5h-.3l-3.7-4.5v2.2c0,.8,0,1.2,0,1.4,0,.4.2.6.9.6v.2h-2.1v-.2c.5,0,.7-.2.8-.6,0-.3,0-.7,0-1.5v-2.2c0-.2,0-.4-.2-.6-.2-.2-.3-.3-.8-.3v-.2h1.3l3.7,4.4v-2.1c0-.8,0-1.2,0-1.4,0-.4-.2-.5-.9-.6v-.2h2.1v.2Z"/>
  </g>
  <g>
    <path class="st0" d="M50.8,11.3v-.2c.7,0,.7-.1.7-1v-3.5c-.7,1.6-1.8,4.1-2.1,4.8h-.2c-.3-.8-1.3-3.2-1.9-4.7-.1,3-.2,3.7-.2,3.9,0,.5.2.6.8.6v.2h-2.1v-.2c.5,0,.7-.2.8-.6,0-.4,0-.7.3-3.9,0-.5,0-.6-.8-.7v-.2h1.5l1.9,4.4,2.1-4.4h1.5v.2c-.7,0-.8.2-.8.8v3.3c0,.9,0,1,.9,1v.2h-2.3Z"/>
    <path class="st0" d="M57,11.3v-.2c.6,0,.6-.2.5-.5-.1-.3-.3-.8-.5-1.3h-1.9c-.1.4-.3.7-.4,1.1-.2.6,0,.6.6.7v.2h-2v-.2c.5,0,.7-.1,1-.9l1.8-4.6h.3c.5,1.4,1.1,3.1,1.7,4.6.3.8.4.8,1,.9v.2h-2.1ZM56.1,6.7c-.3.7-.6,1.5-.8,2.2h1.6l-.8-2.2Z"/>
    <path class="st0" d="M64.6,11.3c-.1,0-.2,0-.3,0-.6,0-1-.2-1.4-.7-.3-.4-.6-1-.9-1.4-.2-.3-.3-.3-.7-.3h-.3v1.4c0,.7,0,.8.8.8v.2h-2.3v-.2c.7,0,.8-.1.8-.8v-3.5c0-.7,0-.8-.8-.8v-.2h2.2c.6,0,1.1,0,1.4.3.4.2.6.6.6,1.1s-.5,1.2-1.1,1.5c.2.3.5.8.8,1.2.3.5.5.7.7.9.2.3.4.3.6.4v.2ZM61.4,8.5c.5,0,.7,0,1-.3.3-.3.5-.6.5-1.1,0-.9-.6-1.3-1.3-1.3s-.4,0-.5,0c0,0-.1.1-.1.4v2.1h.4Z"/>
  </g>
  <g>
    <path class="st0" d="M97,11.2v-.2c.7,0,.7-.1.7-1v-3.5c-.7,1.6-1.8,4.1-2.1,4.8h-.2c-.3-.8-1.3-3.2-1.9-4.7-.1,3-.2,3.7-.2,3.9,0,.5.2.6.8.6v.2h-2.1v-.2c.5,0,.7-.2.8-.6,0-.4,0-.7.3-3.9,0-.5,0-.6-.8-.7v-.2h1.5l1.9,4.4,2.1-4.4h1.5v.2c-.7,0-.8.2-.8.8v3.3c0,.9,0,1,.9,1v.2h-2.3Z"/>
    <path class="st0" d="M100.1,11.2v-.2c.7,0,.8-.1.8-.8v-3.4c0-.7,0-.8-.8-.9v-.2h2.3v.2c-.7,0-.8.1-.8.9v3.4c0,.7,0,.8.8.8v.2h-2.3Z"/>
    <path class="st0" d="M107.8,9.8c0,.2-.3,1.1-.4,1.4h-4.2v-.2c.8,0,.9-.1.9-.8v-3.4c0-.8,0-.8-.7-.9v-.2h2.7c.8,0,1.2,0,1.3,0,0,.2,0,.9,0,1.3h-.3c0-.3-.2-.4-.3-.6-.1-.3-.3-.3-.9-.3h-.8c-.3,0-.3,0-.3.3v1.9h1c.7,0,.7-.1.8-.7h.3v1.8h-.3c-.1-.6-.2-.7-.8-.7h-1v1.7c0,.6.2.7.6.7h.8c.5,0,.6,0,.8-.3.2-.2.3-.5.5-.8h.3Z"/>
  </g>
  <g>
    <path class="st0" d="M142.4,5.8c-.7,0-.7.1-.7.9v3.2c0,1.1-.2,1.7-.8,2.3-.3.3-.6.4-.8.5v-.3c.4-.2.6-.6.7-1.1,0-.4,0-.9,0-1.6v-2.9c0-.7,0-.8-.8-.9v-.2h2.3v.2Z"/>
    <path class="st0" d="M149,5.8c-.5,0-.7.2-.8.6,0,.2,0,.6,0,1.4v.9c0,.9-.1,1.6-.6,2.1-.4.4-1,.6-1.6.6s-1-.1-1.4-.4c-.5-.4-.8-1-.8-2v-2.2c0-.8,0-.8-.8-.9v-.2h2.3v.2c-.7,0-.8.1-.8.9v2.2c0,1.3.6,2,1.6,2s1.6-.8,1.6-2.2v-.9c0-.8,0-1.1,0-1.4,0-.4-.2-.5-.9-.6v-.2h2.1v.2Z"/>
    <path class="st0" d="M153.9,9.8c0,.2-.3,1.1-.4,1.4h-4.2v-.2c.8,0,.9-.1.9-.8v-3.4c0-.8,0-.8-.7-.9v-.2h2.7c.8,0,1.2,0,1.3,0,0,.2,0,.9,0,1.3h-.3c0-.3-.2-.4-.3-.6-.1-.3-.3-.3-.9-.3h-.8c-.3,0-.3,0-.3.3v1.9h1c.7,0,.7-.1.8-.7h.3v1.8h-.3c-.1-.6-.2-.7-.8-.7h-1v1.7c0,.6.2.7.6.7h.8c.5,0,.6,0,.8-.3.2-.2.3-.5.5-.8h.3Z"/>
  </g>
  <path class="st0" d="M144.1,46.3v-.5c2-.1,2.1-.2,2.1-1.6v-6.9c0-.9-.1-1-.9-1h-.9v-.5c1.2-.2,2.4-.5,3.3-.9v9.4c0,1.4.1,1.4,2.1,1.6v.5h-5.7Z"/>
  <path class="st0" d="M202,43.9c-.2.8-.5,1.7-.7,2.4h-6.8v-.4c1-1,2.1-2,3-3.1,1.1-1.3,2.2-2.8,2.2-4.3s-.8-2.4-2.1-2.4-2,1-2.5,1.7l-.4-.4,1-1.5c.6-.6,1.4-1.1,2.5-1.1,1.7,0,3.1,1.2,3.1,3.1s-.6,2.6-2.3,4.4c-.8.8-1.9,1.9-2.7,2.6h3.4c1,0,1.2,0,1.9-1.2h.5Z"/>
  <path class="st0" d="M244.1,37l.8-1.1c.5-.6,1.3-1,2.3-1,1.6,0,2.7,1,2.7,2.4s-.2,1-.6,1.3c-.3.3-.8.6-1.3,1,1.7.4,2.7,1.5,2.7,2.8,0,2.9-3.5,4.2-4.7,4.2s-1.6-.4-1.9-.6c-.2-.2-.3-.4-.3-.6,0-.3.3-.6.4-.7.1-.1.3-.1.5,0,.5.4,1.2,1,2.2,1s2.2-1,2.2-2.7c0-1.7-1.2-2.3-2.4-2.3s-.9.1-1.2.2v-.5c1.5-.5,2.8-1.2,2.8-2.6s-.7-1.7-1.7-1.7-1.8.7-2.3,1.4l-.4-.4Z"/>
  <path class="st0" d="M303,42.9v1.4c0,1.2,0,1.3,1.4,1.4v.5h-4.2v-.5c1.3-.1,1.4-.2,1.4-1.4v-1.4h-4.8v-.5c1.7-2.4,3.6-5.1,5.4-7.6h.8v7.2h1.8v.9h-1.8ZM301.6,36.7c-1.1,1.7-2.4,3.5-3.6,5.3h3.6v-5.3Z"/>
  <path class="st0" d="M147.1,74.7c1.7,0,2.9,1.2,2.9,2.7s-.2,1.1-.5,1.5c-.2.2-.7.6-1.5,1.2,1.2.7,2.5,1.5,2.5,3.1s-1.9,3.3-3.6,3.3-3.5-1.2-3.5-3,.4-1.4.8-1.8c.3-.3,1-.7,1.6-1.1-1.2-.7-2-1.5-2-2.8s1.3-3,3.2-3ZM147.1,85.8c1.2,0,1.9-.8,1.9-2.1s-1.2-2.1-2.7-2.8c-1,.6-1.5,1.4-1.5,2.5,0,1.7,1,2.5,2.2,2.5ZM146.9,75.3c-1.1,0-1.6.8-1.6,1.9s.9,1.8,2.3,2.5c.7-.5,1.2-1.2,1.2-2.2,0-1.5-.9-2.2-1.8-2.2Z"/>
  <path class="st0" d="M103.6,75c-1.7,3.7-3.4,7.3-5.1,11h-1.3c0,.1-.1,0-.1,0,1.9-3,3.9-6.8,5.3-9.8h-3.9c-1.2,0-1.2.2-1.7,1.4h-.6c.2-1,.3-1.9.3-2.7h7v.2Z"/>
  <path class="st0" d="M54.6,79.5c.4-.2.8-.3,1.2-.3,1.9,0,3.2,1.5,3.2,3.3s-1.5,4-3.7,4-3.7-1.7-3.7-4.5,2.8-6,5-6.8c.4-.1,1.3-.3,2-.5v.6c-.5.1-1.3.4-1.9.6-1.1.5-2.8,1.7-3.3,4.2l1.2-.6ZM55,80.2c-.7,0-1.3.3-1.7.5,0,.3-.1.8-.1,1.2,0,2.2.8,3.9,2.4,3.9s1.8-1.5,1.8-2.7-.7-3-2.4-3Z"/>
  <path class="st0" d="M9.5,74.7h.1c0,.1-.5,1.3-.5,1.3h-4.1c-.2,1-.4,2.4-.6,3.3.7-.3,1.7-.5,2.1-.5,2.2,0,3.4,1.6,3.4,3.1s-.5,2.1-1.5,3c-1,.8-2.2,1.3-3.2,1.3s-1.5-.3-1.9-.7c-.3-.2-.3-.4-.3-.6,0-.2.1-.4.4-.6.2-.1.3-.1.5,0,.5.5,1.2,1,2.3,1s2.2-1.3,2.2-2.6-1-2.7-3-2.7-1.3.2-1.8.3h0c.3-1.5.7-4,.9-5.5h5Z"/>
  <path class="st0" d="M200.1,80.9l-1.2.6c-.4.2-.7.3-1.1.3-1.9,0-3.2-1.5-3.2-3.4s1.4-3.7,3.7-3.7,3.6,2.1,3.6,4.5-2.1,5.8-4.6,6.7c-.7.3-1.7.4-2.1.5v-.5c2.4-.5,4.3-2.2,4.9-5ZM198,75.4c-1.4,0-1.9,1.3-1.9,2.6s.9,2.9,2.4,2.9,1.2-.2,1.6-.5c0-.4,0-.8,0-1.2,0-1.6-.5-3.8-2.2-3.8Z"/>
  <g>
    <path class="st0" d="M239.7,86.2v-.5c2-.1,2.1-.2,2.1-1.6v-6.9c0-.9-.1-1-.9-1h-.9v-.5c1.2-.2,2.4-.5,3.3-.9v9.4c0,1.4.1,1.4,2.1,1.6v.5h-5.7Z"/>
    <path class="st0" d="M251.2,74.7c2.7,0,3.7,3,3.7,5.8s-1,5.8-3.7,5.8-3.8-3-3.8-5.8,1-5.8,3.8-5.8ZM251.2,75.4c-1.7,0-2.1,2.6-2.1,5.2s.5,5.2,2.1,5.2,2.1-2.7,2.1-5.2-.5-5.2-2.1-5.2Z"/>
  </g>
  <g>
    <path class="st0" d="M293.6,86.2v-.5c2-.1,2.1-.2,2.1-1.6v-6.9c0-.9-.1-1-.9-1h-.9v-.5c1.2-.2,2.4-.5,3.3-.9v9.4c0,1.4.1,1.4,2.1,1.6v.5h-5.7Z"/>
    <path class="st0" d="M302.3,86.2v-.5c2-.1,2.1-.2,2.1-1.6v-6.9c0-.9-.1-1-.9-1h-.9v-.5c1.2-.2,2.4-.5,3.3-.9v9.4c0,1.4.1,1.4,2.1,1.6v.5h-5.7Z"/>
  </g>
  <g>
    <path class="st0" d="M139.5,128.2v-.5c2-.1,2.1-.2,2.1-1.6v-6.9c0-.9-.1-1-.9-1h-.9v-.5c1.2-.2,2.4-.5,3.3-.9v9.4c0,1.4.1,1.4,2.1,1.6v.5h-5.7Z"/>
    <path class="st0" d="M154,116.9h.1c0,.1-.5,1.3-.5,1.3h-4.1c-.2,1-.4,2.4-.6,3.3.7-.3,1.7-.5,2.1-.5,2.2,0,3.4,1.6,3.4,3.1s-.5,2.1-1.5,3c-1,.8-2.2,1.3-3.2,1.3s-1.5-.3-1.9-.7c-.3-.2-.3-.4-.3-.6,0-.2.1-.4.4-.6.2-.1.3-.1.5,0,.5.5,1.2,1,2.3,1s2.2-1.3,2.2-2.6-1-2.7-3-2.7-1.3.2-1.8.3h0c.3-1.5.7-4,.9-5.5h5Z"/>
  </g>
  <g>
    <path class="st0" d="M92.2,128.2v-.5c2-.1,2.1-.2,2.1-1.6v-6.9c0-.9-.1-1-.9-1h-.9v-.5c1.2-.2,2.4-.5,3.3-.9v9.4c0,1.4.1,1.4,2.1,1.6v.5h-5.7Z"/>
    <path class="st0" d="M105.9,124.9v1.4c0,1.2,0,1.3,1.4,1.4v.5h-4.2v-.5c1.4-.1,1.4-.2,1.4-1.4v-1.4h-4.8v-.5c1.7-2.4,3.6-5.1,5.4-7.6h.8v7.2h1.8v.9h-1.8ZM104.4,118.7c-1.1,1.7-2.4,3.5-3.6,5.3h3.6v-5.3Z"/>
  </g>
  <g>
    <path class="st0" d="M47.8,128.2v-.5c2-.1,2.1-.2,2.1-1.6v-6.9c0-.9-.1-1-.9-1h-.9v-.5c1.2-.2,2.4-.5,3.3-.9v9.4c0,1.4.1,1.4,2.1,1.6v.5h-5.7Z"/>
    <path class="st0" d="M55.9,118.9l.8-1.1c.5-.6,1.3-1,2.3-1,1.6,0,2.7,1,2.7,2.4s-.2,1-.6,1.3c-.3.3-.8.6-1.3,1,1.7.4,2.7,1.5,2.7,2.8,0,2.9-3.5,4.2-4.7,4.2s-1.6-.4-1.9-.6c-.2-.2-.3-.4-.3-.6,0-.3.3-.6.4-.7.1-.1.3-.1.5,0,.5.4,1.2,1,2.2,1s2.2-1,2.2-2.7c0-1.7-1.2-2.3-2.4-2.3s-.9.1-1.2.2v-.5c1.5-.5,2.8-1.2,2.8-2.6s-.7-1.7-1.7-1.7-1.8.7-2.3,1.4l-.4-.4Z"/>
  </g>
  <g>
    <path class="st0" d="M3,128.2v-.5c2-.1,2.1-.2,2.1-1.6v-6.9c0-.9-.1-1-.9-1h-.9v-.5c1.2-.2,2.4-.5,3.3-.9v9.4c0,1.4.1,1.4,2.1,1.6v.5H3Z"/>
    <path class="st0" d="M18.2,125.8c-.2.8-.5,1.7-.7,2.4h-6.8v-.4c1-1,2.1-2,3-3.1,1.1-1.3,2.2-2.8,2.2-4.3s-.8-2.4-2.1-2.4-2,1-2.5,1.7l-.4-.4,1-1.5c.6-.6,1.4-1.1,2.5-1.1,1.7,0,3.1,1.2,3.1,3.1s-.6,2.6-2.3,4.4c-.8.8-1.9,1.9-2.7,2.6h3.4c1,0,1.2,0,1.9-1.2h.5Z"/>
  </g>
  <g>
    <path class="st0" d="M190.6,128.3v-.5c2-.1,2.1-.2,2.1-1.6v-6.9c0-.9-.1-1-.9-1h-.9v-.5c1.2-.2,2.4-.5,3.3-.9v9.4c0,1.4.1,1.4,2.1,1.6v.5h-5.7Z"/>
    <path class="st0" d="M201.5,121.5c.4-.2.8-.3,1.2-.3,1.9,0,3.2,1.5,3.2,3.3s-1.5,4-3.7,4-3.7-1.7-3.7-4.5,2.8-6,5-6.8c.4-.1,1.3-.3,2-.5v.6c-.5.1-1.3.4-1.9.6-1.1.5-2.8,1.7-3.3,4.2l1.2-.6ZM201.9,122.2c-.7,0-1.3.3-1.7.5,0,.3-.1.8-.1,1.2,0,2.2.8,3.9,2.4,3.9s1.8-1.5,1.8-2.7-.7-3-2.4-3Z"/>
  </g>
  <g>
    <path class="st0" d="M239.7,128.2v-.5c2-.1,2.1-.2,2.1-1.6v-6.9c0-.9-.1-1-.9-1h-.9v-.5c1.2-.2,2.4-.5,3.3-.9v9.4c0,1.4.1,1.4,2.1,1.6v.5h-5.7Z"/>
    <path class="st0" d="M255,117.2c-1.7,3.7-3.4,7.3-5.1,11h-1.3c0,.1-.1,0-.1,0,1.9-3,3.9-6.8,5.3-9.8h-3.9c-1.2,0-1.2.2-1.7,1.4h-.6c.2-1,.3-1.9.3-2.7h7v.2Z"/>
  </g>
  <g>
    <path class="st0" d="M293.3,128.2v-.5c2-.1,2.1-.2,2.1-1.6v-6.9c0-.9-.1-1-.9-1h-.9v-.5c1.2-.2,2.4-.5,3.3-.9v9.4c0,1.4.1,1.4,2.1,1.6v.5h-5.7Z"/>
    <path class="st0" d="M304.9,116.7c1.7,0,2.9,1.2,2.9,2.7s-.2,1.1-.5,1.5c-.2.2-.7.6-1.5,1.2,1.2.7,2.5,1.5,2.5,3.1s-1.9,3.3-3.6,3.3-3.5-1.2-3.5-3,.4-1.4.8-1.8c.3-.3,1-.7,1.6-1.1-1.2-.7-2-1.5-2-2.8s1.3-3,3.2-3ZM304.9,127.8c1.2,0,1.9-.8,1.9-2.1s-1.2-2.1-2.7-2.8c-1,.6-1.5,1.4-1.5,2.5,0,1.7,1,2.5,2.2,2.5ZM304.7,117.3c-1.1,0-1.6.8-1.6,1.9s.9,1.8,2.3,2.5c.7-.5,1.2-1.2,1.2-2.2,0-1.5-.9-2.2-1.8-2.2Z"/>
  </g>
  <g>
    <path class="st0" d="M146.4,164.9c-.2.8-.5,1.7-.7,2.4h-6.8v-.4c1-1,2.1-2,3-3.1,1.1-1.3,2.2-2.8,2.2-4.3s-.8-2.4-2.1-2.4-2,1-2.5,1.7l-.4-.4,1-1.5c.6-.6,1.4-1.1,2.5-1.1,1.7,0,3.1,1.2,3.1,3.1s-.6,2.6-2.3,4.4c-.8.8-1.9,1.9-2.7,2.6h3.4c1,0,1.2,0,1.9-1.2h.5Z"/>
    <path class="st0" d="M155.1,164.9c-.2.8-.5,1.7-.7,2.4h-6.8v-.4c1-1,2.1-2,3-3.1,1.1-1.3,2.2-2.8,2.2-4.3s-.8-2.4-2.1-2.4-2,1-2.5,1.7l-.4-.4,1-1.5c.6-.6,1.4-1.1,2.5-1.1,1.7,0,3.1,1.2,3.1,3.1s-.6,2.6-2.3,4.4c-.8.8-1.9,1.9-2.7,2.6h3.4c1,0,1.2,0,1.9-1.2h.5Z"/>
  </g>
  <g>
    <path class="st0" d="M99.7,164.9c-.2.8-.5,1.7-.7,2.4h-6.8v-.4c1-1,2.1-2,3-3.1,1.1-1.3,2.2-2.8,2.2-4.3s-.8-2.4-2.1-2.4-2,1-2.5,1.7l-.4-.4,1-1.5c.6-.6,1.4-1.1,2.5-1.1,1.7,0,3.1,1.2,3.1,3.1s-.6,2.6-2.3,4.4c-.8.8-1.9,1.9-2.7,2.6h3.4c1,0,1.2,0,1.9-1.2h.5Z"/>
    <path class="st0" d="M101.9,167.3v-.5c2-.1,2.1-.2,2.1-1.6v-6.9c0-.9-.1-1-.9-1h-.9v-.5c1.2-.2,2.4-.5,3.3-.9v9.4c0,1.4.1,1.4,2.1,1.6v.5h-5.7Z"/>
  </g>
  <g>
    <path class="st0" d="M54.6,164.9c-.2.8-.5,1.7-.7,2.4h-6.8v-.4c1-1,2.1-2,3-3.1,1.1-1.3,2.2-2.8,2.2-4.3s-.8-2.4-2.1-2.4-2,1-2.5,1.7l-.4-.4,1-1.5c.6-.6,1.4-1.1,2.5-1.1,1.7,0,3.1,1.2,3.1,3.1s-.6,2.6-2.3,4.4c-.8.8-1.9,1.9-2.7,2.6h3.4c1,0,1.2,0,1.9-1.2h.5Z"/>
    <path class="st0" d="M59.6,155.8c2.7,0,3.7,3,3.7,5.8s-1,5.8-3.7,5.8-3.8-3-3.8-5.8,1-5.8,3.8-5.8ZM59.6,156.5c-1.7,0-2.1,2.6-2.1,5.2s.5,5.2,2.1,5.2,2.1-2.7,2.1-5.2-.5-5.2-2.1-5.2Z"/>
  </g>
  <g>
    <path class="st0" d="M3,167.3v-.5c2-.1,2.1-.2,2.1-1.6v-6.9c0-.9-.1-1-.9-1h-.9v-.5c1.2-.2,2.4-.5,3.3-.9v9.4c0,1.4.1,1.4,2.1,1.6v.5H3Z"/>
    <path class="st0" d="M16.3,162l-1.2.6c-.4.2-.7.3-1.1.3-1.9,0-3.2-1.5-3.2-3.4s1.4-3.7,3.7-3.7,3.6,2.1,3.6,4.5-2.1,5.8-4.6,6.7c-.7.3-1.7.4-2.1.5v-.5c2.4-.5,4.3-2.2,4.9-5ZM14.3,156.5c-1.4,0-1.9,1.3-1.9,2.6s.9,2.9,2.4,2.9,1.2-.2,1.6-.5c0-.4,0-.8,0-1.2,0-1.6-.5-3.8-2.2-3.8Z"/>
  </g>
  <g>
    <path class="st0" d="M197.8,164.9c-.2.8-.5,1.7-.7,2.4h-6.8v-.4c1-1,2.1-2,3-3.1,1.1-1.3,2.2-2.8,2.2-4.3s-.8-2.4-2.1-2.4-2,1-2.5,1.7l-.4-.4,1-1.5c.6-.6,1.4-1.1,2.5-1.1,1.7,0,3.1,1.2,3.1,3.1s-.6,2.6-2.3,4.4c-.8.8-1.9,1.9-2.7,2.6h3.4c1,0,1.2,0,1.9-1.2h.5Z"/>
    <path class="st0" d="M199.4,158l.8-1.1c.5-.6,1.3-1,2.3-1,1.6,0,2.7,1,2.7,2.4s-.2,1-.6,1.3c-.3.3-.8.6-1.3,1,1.7.4,2.7,1.5,2.7,2.8,0,2.9-3.5,4.2-4.7,4.2s-1.6-.4-1.9-.6c-.2-.2-.3-.4-.3-.6,0-.3.3-.6.4-.7.1-.1.3-.1.5,0,.5.4,1.2,1,2.2,1s2.2-1,2.2-2.7c0-1.7-1.2-2.3-2.4-2.3s-.9.1-1.2.2v-.5c1.5-.5,2.8-1.2,2.8-2.6s-.7-1.7-1.7-1.7-1.8.7-2.3,1.4l-.4-.4Z"/>
  </g>
  <g>
    <path class="st0" d="M246.6,164.9c-.2.8-.5,1.7-.7,2.4h-6.8v-.4c1-1,2.1-2,3-3.1,1.1-1.3,2.2-2.8,2.2-4.3s-.8-2.4-2.1-2.4-2,1-2.5,1.7l-.4-.4,1-1.5c.6-.6,1.4-1.1,2.5-1.1,1.7,0,3.1,1.2,3.1,3.1s-.6,2.6-2.3,4.4c-.8.8-1.9,1.9-2.7,2.6h3.4c1,0,1.2,0,1.9-1.2h.5Z"/>
    <path class="st0" d="M253.8,164v1.4c0,1.2,0,1.3,1.4,1.4v.5h-4.2v-.5c1.4-.1,1.4-.2,1.4-1.4v-1.4h-4.8v-.5c1.7-2.4,3.6-5.1,5.4-7.6h.8v7.2h1.8v.9h-1.8ZM252.4,157.8c-1.1,1.7-2.4,3.5-3.6,5.3h3.6v-5.3Z"/>
  </g>
  <g>
    <path class="st0" d="M300.3,164.9c-.2.8-.5,1.7-.7,2.4h-6.8v-.4c1-1,2.1-2,3-3.1,1.1-1.3,2.2-2.8,2.2-4.3s-.8-2.4-2.1-2.4-2,1-2.5,1.7l-.4-.4,1-1.5c.6-.6,1.4-1.1,2.5-1.1,1.7,0,3.1,1.2,3.1,3.1s-.6,2.6-2.3,4.4c-.8.8-1.9,1.9-2.7,2.6h3.4c1,0,1.2,0,1.9-1.2h.5Z"/>
    <path class="st0" d="M308.3,156.1h.1c0,.1-.5,1.3-.5,1.3h-4.1c-.2,1-.4,2.4-.6,3.3.7-.3,1.7-.5,2.1-.5,2.2,0,3.4,1.6,3.4,3.1s-.5,2.1-1.5,3c-1,.8-2.2,1.3-3.2,1.3s-1.5-.3-1.9-.7c-.3-.2-.3-.4-.3-.6,0-.2.1-.4.4-.6.2-.1.3-.1.5,0,.5.5,1.2,1,2.3,1s2.2-1.3,2.2-2.6-1-2.7-3-2.7-1.3.2-1.8.3h0c.3-1.5.7-4,.9-5.5h5Z"/>
  </g>
  <g>
    <path class="st0" d="M146.4,207.8c-.2.8-.5,1.7-.7,2.4h-6.8v-.4c1-1,2.1-2,3-3.1,1.1-1.3,2.2-2.8,2.2-4.3s-.8-2.4-2.1-2.4-2,1-2.5,1.7l-.4-.4,1-1.5c.6-.6,1.4-1.1,2.5-1.1,1.7,0,3.1,1.2,3.1,3.1s-.6,2.6-2.3,4.4c-.8.8-1.9,1.9-2.7,2.6h3.4c1,0,1.2,0,1.9-1.2h.5Z"/>
    <path class="st0" d="M153.3,204.9l-1.2.6c-.4.2-.7.3-1.1.3-1.9,0-3.2-1.5-3.2-3.4s1.4-3.7,3.7-3.7,3.6,2.1,3.6,4.5-2.1,5.8-4.6,6.7c-.7.3-1.7.4-2.1.5v-.5c2.4-.5,4.3-2.2,4.9-5ZM151.2,199.4c-1.4,0-1.9,1.3-1.9,2.6s.9,2.9,2.4,2.9,1.2-.2,1.6-.5c0-.4,0-.8,0-1.2,0-1.6-.5-3.8-2.2-3.8Z"/>
  </g>
  <g>
    <path class="st0" d="M99.4,207.8c-.2.8-.5,1.7-.7,2.4h-6.8v-.4c1-1,2.1-2,3-3.1,1.1-1.3,2.2-2.8,2.2-4.3s-.8-2.4-2.1-2.4-2,1-2.5,1.7l-.4-.4,1-1.5c.6-.6,1.4-1.1,2.5-1.1,1.7,0,3.1,1.2,3.1,3.1s-.6,2.6-2.3,4.4c-.8.8-1.9,1.9-2.7,2.6h3.4c1,0,1.2,0,1.9-1.2h.5Z"/>
    <path class="st0" d="M104.5,198.7c1.7,0,2.9,1.2,2.9,2.7s-.2,1.1-.5,1.5c-.2.2-.7.6-1.5,1.2,1.2.7,2.5,1.5,2.5,3.1s-1.9,3.3-3.6,3.3-3.5-1.2-3.5-3,.4-1.4.8-1.8c.3-.3,1-.7,1.6-1.1-1.2-.7-2-1.5-2-2.8s1.3-3,3.2-3ZM104.5,209.8c1.2,0,1.9-.8,1.9-2.1s-1.2-2.1-2.7-2.8c-1,.6-1.5,1.4-1.5,2.5,0,1.7,1,2.5,2.2,2.5ZM104.3,199.3c-1.1,0-1.6.8-1.6,1.9s.9,1.8,2.3,2.5c.7-.5,1.2-1.2,1.2-2.2,0-1.5-.9-2.2-1.8-2.2Z"/>
  </g>
  <g>
    <path class="st0" d="M54.5,207.8c-.2.8-.5,1.7-.7,2.4h-6.8v-.4c1-1,2.1-2,3-3.1,1.1-1.3,2.2-2.8,2.2-4.3s-.8-2.4-2.1-2.4-2,1-2.5,1.7l-.4-.4,1-1.5c.6-.6,1.4-1.1,2.5-1.1,1.7,0,3.1,1.2,3.1,3.1s-.6,2.6-2.3,4.4c-.8.8-1.9,1.9-2.7,2.6h3.4c1,0,1.2,0,1.9-1.2h.5Z"/>
    <path class="st0" d="M63.4,199.2c-1.7,3.7-3.4,7.3-5.1,11h-1.3c0,.1-.1,0-.1,0,1.9-3,3.9-6.8,5.3-9.8h-3.9c-1.2,0-1.2.2-1.7,1.4h-.6c.2-1,.3-1.9.3-2.7h7v.2Z"/>
  </g>
  <g>
    <path class="st0" d="M10.5,207.9c-.2.8-.5,1.7-.7,2.4H3v-.4c1-1,2.1-2,3-3.1,1.1-1.3,2.2-2.8,2.2-4.3s-.8-2.4-2.1-2.4-2,1-2.5,1.7l-.4-.4,1-1.5c.6-.6,1.4-1.1,2.5-1.1,1.7,0,3.1,1.2,3.1,3.1s-.6,2.6-2.3,4.4c-.8.8-1.9,1.9-2.7,2.6h3.4c1,0,1.2,0,1.9-1.2h.5Z"/>
    <path class="st0" d="M14.9,203.5c.4-.2.8-.3,1.2-.3,1.9,0,3.2,1.5,3.2,3.3s-1.5,4-3.7,4-3.7-1.7-3.7-4.5,2.8-6,5-6.8c.4-.1,1.3-.3,2-.5v.6c-.5.1-1.3.4-1.9.6-1.1.5-2.8,1.7-3.3,4.2l1.2-.6ZM15.3,204.2c-.7,0-1.3.3-1.7.5,0,.3-.1.8-.1,1.2,0,2.2.8,3.9,2.4,3.9s1.8-1.5,1.8-2.7-.7-3-2.4-3Z"/>
  </g>
  <g>
    <path class="st0" d="M190.4,200.9l.8-1.1c.5-.6,1.3-1,2.3-1,1.6,0,2.7,1,2.7,2.4s-.2,1-.6,1.3c-.3.3-.8.6-1.3,1,1.7.4,2.7,1.5,2.7,2.8,0,2.9-3.5,4.2-4.7,4.2s-1.6-.4-1.9-.6c-.2-.2-.3-.4-.3-.6,0-.3.3-.6.4-.7.1-.1.3-.1.5,0,.5.4,1.2,1,2.2,1s2.2-1,2.2-2.7c0-1.7-1.2-2.3-2.4-2.3s-.9.1-1.2.2v-.5c1.5-.5,2.8-1.2,2.8-2.6s-.7-1.7-1.7-1.7-1.8.7-2.3,1.4l-.4-.4Z"/>
    <path class="st0" d="M202.5,198.7c2.7,0,3.7,3,3.7,5.8s-1,5.8-3.7,5.8-3.8-3-3.8-5.8,1-5.8,3.8-5.8ZM202.5,199.4c-1.7,0-2.1,2.6-2.1,5.2s.5,5.2,2.1,5.2,2.1-2.7,2.1-5.2-.5-5.2-2.1-5.2Z"/>
  </g>
  <g>
    <path class="st0" d="M239.9,200.9l.8-1.1c.5-.6,1.3-1,2.3-1,1.6,0,2.7,1,2.7,2.4s-.2,1-.6,1.3c-.3.3-.8.6-1.3,1,1.7.4,2.7,1.5,2.7,2.8,0,2.9-3.5,4.2-4.7,4.2s-1.6-.4-1.9-.6c-.2-.2-.3-.4-.3-.6,0-.3.3-.6.4-.7.1-.1.3-.1.5,0,.5.4,1.2,1,2.2,1s2.2-1,2.2-2.7c0-1.7-1.2-2.3-2.4-2.3s-.9.1-1.2.2v-.5c1.5-.5,2.8-1.2,2.8-2.6s-.7-1.7-1.7-1.7-1.8.7-2.3,1.4l-.4-.4Z"/>
    <path class="st0" d="M249.2,210.2v-.5c2-.1,2.1-.2,2.1-1.6v-6.9c0-.9-.1-1-.9-1h-.9v-.5c1.2-.2,2.4-.5,3.3-.9v9.4c0,1.4.1,1.4,2.1,1.6v.5h-5.7Z"/>
  </g>
  <g>
    <path class="st0" d="M197.1,5.8c-.6,0-.7.2-1,.9-.2.6-1.4,3.5-1.9,4.6h-.3c-.5-1.4-1.3-3.4-1.8-4.7-.2-.6-.4-.7-.9-.8v-.2h2.2v.2c-.6,0-.7.2-.6.5.2.6.8,2.4,1.4,3.8.5-1.1,1-2.5,1.4-3.6.2-.5,0-.6-.6-.7v-.2h2v.2Z"/>
    <path class="st0" d="M197.5,11.2v-.2c.7,0,.8-.1.8-.8v-3.4c0-.7,0-.8-.8-.9v-.2h2.3v.2c-.7,0-.8.1-.8.9v3.4c0,.7,0,.8.8.8v.2h-2.3Z"/>
    <path class="st0" d="M205.2,9.8c0,.2-.3,1.1-.4,1.4h-4.2v-.2c.8,0,.9-.1.9-.8v-3.4c0-.8,0-.8-.7-.9v-.2h2.7c.8,0,1.2,0,1.3,0,0,.2,0,.9,0,1.3h-.3c0-.3-.2-.4-.3-.6-.1-.3-.3-.3-.9-.3h-.8c-.3,0-.3,0-.3.3v1.9h1c.7,0,.7-.1.8-.7h.3v1.8h-.3c-.1-.6-.2-.7-.8-.7h-1v1.7c0,.6.2.7.6.7h.8c.5,0,.6,0,.8-.3.2-.2.3-.5.5-.8h.3Z"/>
  </g>
  <g>
    <path class="st0" d="M243.1,7c-.1-.6-.4-1.1-1.2-1.1s-.9.5-.9.9.4.9,1.1,1.3c1,.5,1.5.9,1.5,1.8s-.8,1.6-1.9,1.6-1-.1-1.3-.3c0-.2-.2-.8-.2-1.3h.3c.2.5.6,1.3,1.5,1.3s1-.4,1-1-.4-.9-1.1-1.4c-.9-.5-1.4-.9-1.4-1.7s.6-1.5,1.8-1.5,1,.1,1.1.2c0,.3,0,.7.1,1.2h-.3Z"/>
    <path class="st0" d="M247.6,11.3v-.2c.6,0,.6-.2.5-.5-.1-.3-.3-.8-.5-1.3h-1.9c-.1.4-.3.7-.4,1.1-.2.6,0,.6.6.7v.2h-2v-.2c.5,0,.7-.1,1-.9l1.8-4.6h.3c.5,1.4,1.1,3.1,1.7,4.6.3.8.4.8,1,.9v.2h-2.1ZM246.8,6.7c-.3.7-.6,1.5-.8,2.2h1.6l-.8-2.2Z"/>
    <path class="st0" d="M253.1,8.2c.8.1,1.5.5,1.5,1.4s-.3,1.1-.8,1.3c-.5.3-.9.3-1.5.3h-2.1v-.2c.7,0,.8-.1.8-.8v-3.5c0-.7,0-.8-.8-.8v-.2h2.3c.6,0,1.1.1,1.3.3.3.2.5.5.5,1,0,.8-.7,1.2-1.2,1.3ZM252.1,8.1c1,0,1.3-.4,1.3-1.1s-.4-1.1-1.2-1.1-.4,0-.5,0c0,0,0,.1,0,.4v1.7h.4ZM251.7,10.2c0,.6.1.8.8.8s1.3-.4,1.3-1.3-.6-1.3-1.7-1.3h-.4v1.8Z"/>
  </g>
  <g>
    <path class="st0" d="M293.1,5.6c1.2,0,2,.2,2.5.8.4.4.7,1,.7,1.9s-.4,1.8-1.1,2.3c-.7.5-1.5.7-2.6.7h-2v-.2c.7,0,.8-.1.8-.8v-3.5c0-.7-.1-.8-.8-.8v-.2h2.4ZM292.2,10.1c0,.6.3.8.9.8,1.6,0,2.4-1.1,2.4-2.6s-.3-1.7-1-2.1c-.4-.3-.9-.3-1.5-.3s-.6,0-.7.1c0,0-.1.1-.1.5v3.6Z"/>
    <path class="st0" d="M300.2,5.5c1.5,0,2.8,1.1,2.8,2.9s-1.3,3-2.9,3-2.9-1.3-2.9-2.9,1.1-3,2.9-3ZM300,5.8c-1,0-1.9.8-1.9,2.4s.9,2.8,2.1,2.8,1.8-.8,1.8-2.5-1-2.8-2.1-2.8Z"/>
    <path class="st0" d="M308.7,11.3v-.2c.7,0,.7-.1.7-1v-3.5c-.7,1.6-1.8,4.1-2.1,4.8h-.2c-.3-.8-1.3-3.2-1.9-4.7-.1,3-.2,3.7-.2,3.9,0,.5.2.6.8.6v.2h-2.1v-.2c.5,0,.7-.2.8-.6,0-.4,0-.7.3-3.9,0-.5,0-.6-.8-.7v-.2h1.5l1.9,4.4,2.1-4.4h1.5v.2c-.7,0-.8.2-.8.8v3.3c0,.9,0,1,.9,1v.2h-2.3Z"/>
  </g>
  <path class="st0" d="M198.3,151.6c.4-1.7,2.3-3.5,3.9-4.3,5.2-2.6,11.7-.3,13.5,5.3,2.3,7.5-2.5,12.8-8,17s-6.7,4.2-9.4,7c.1-.9,1.2-1.9,1.9-2.5,6.4-5.6,16.6-8.9,15.4-19.7s-15.2-10.5-17.4-1.1l-1-2.4c-6.7-9.4-19.7-2.1-16,8.9,2.4,7.4,10.5,9.9,15.5,14.7s1.4,1.4,1.3,2.1c-2-2.5-5.1-4.1-7.7-6-5.5-4-10.8-8.4-10.2-15.9s12.1-11.8,17.2-4.8c.2.2.8,1.7,1.1,1.4Z"/>
</svg>