<?xml version="1.0" encoding="UTF-8"?>
<svg id="Capa_1" xmlns="http://www.w3.org/2000/svg" version="1.1" viewBox="0 0 303 94">
  <!-- Generator: Adobe Illustrator 29.5.1, SVG Export Plug-In . SVG Version: 2.1.0 Build 141)  -->
  <defs>
    <style>
      .st0 {
        fill: #fff;
      }
    </style>
  </defs>
  <g>
    <path class="st0" d="M112.6,19.9c-.2.9-1.2,4.6-1.5,5.7h-17.5v-1c3.3-.3,3.6-.6,3.6-3.5V6.8c0-3.2-.4-3.4-3.1-3.6v-1h11c3.4,0,4.8,0,5.2,0,0,.9.2,3.6.3,5.5l-1.1.2c-.3-1.2-.7-2-1.1-2.7-.6-1.2-1.4-1.4-3.6-1.4h-3.4c-1.1,0-1.2.1-1.2,1.2v8h4c2.7,0,2.9-.5,3.3-3h1.1v7.4h-1.1c-.5-2.6-.8-3-3.3-3h-4v7.2c0,2.5.8,2.7,2.6,2.8h3.3c2.2,0,2.6-.3,3.3-1.3.7-.8,1.4-2.2,1.9-3.3l1.1.3Z"/>
    <path class="st0" d="M140,3.2c-2.3.3-3.1.6-3.2,2.3,0,1.2-.1,2.7-.1,6v14.4h-1.4l-15.4-18.8v9c0,3.2.1,4.9.2,5.9,0,1.8,1,2.4,3.6,2.6v1h-8.7v-1c2.2-.2,3.1-.7,3.2-2.5.1-1.2.2-2.8.2-6V6.9c0-1,0-1.6-.7-2.4-.7-.9-1.4-1.1-3.2-1.3v-1h5.4l15.3,18.1v-8.8c0-3.3,0-4.9-.2-6-.1-1.6-.9-2.1-3.8-2.3v-1h8.9v1Z"/>
    <path class="st0" d="M161.5,19.9c-.2.9-1.2,4.6-1.5,5.7h-17.5v-1c3.3-.3,3.6-.6,3.6-3.5V6.8c0-3.2-.4-3.4-3.1-3.6v-1h11c3.4,0,4.8,0,5.2,0,0,.9.2,3.6.3,5.5l-1.1.2c-.3-1.2-.7-2-1.1-2.7-.6-1.2-1.4-1.4-3.6-1.4h-3.4c-1.1,0-1.2.1-1.2,1.2v8h4c2.7,0,2.9-.5,3.3-3h1.1v7.4h-1.1c-.5-2.6-.8-3-3.3-3h-4v7.2c0,2.5.8,2.7,2.6,2.8h3.3c2.2,0,2.6-.3,3.3-1.3.7-.8,1.4-2.2,1.9-3.3l1.1.3Z"/>
    <path class="st0" d="M185.4,25.9c-.5,0-.9,0-1.3,0-2.6-.2-4-.9-5.6-3.1-1.3-1.8-2.6-4.1-3.8-5.9-.7-1.2-1.2-1.4-3-1.4h-1.3v5.7c0,3.1.4,3.2,3.3,3.5v1h-9.6v-1c3-.3,3.2-.5,3.2-3.5V6.7c0-3.1-.4-3.2-3.2-3.5v-1h9.2c2.6,0,4.4.3,5.8,1.2,1.5.9,2.4,2.6,2.4,4.8s-2,5-4.6,6.2c.6,1.1,2.2,3.5,3.3,5.1,1.3,1.9,2,2.8,2.8,3.7,1,1,1.8,1.4,2.6,1.7v1ZM172.1,14.2c1.9,0,3.1-.3,4-1,1.4-1,2-2.5,2-4.4,0-3.9-2.6-5.3-5.3-5.3s-1.7.1-1.9.4c-.3.3-.4.6-.4,1.5v8.8h1.7Z"/>
    <path class="st0" d="M198.8,1.7c6.2,0,11.7,4.7,11.7,11.9s-5.3,12.6-11.9,12.6-12-5.3-12-12,4.6-12.4,12.2-12.4ZM198.1,3c-4,0-7.7,3.4-7.7,10.1s3.7,11.6,8.8,11.6,7.6-3.2,7.6-10.2-4-11.6-8.7-11.6Z"/>
  </g>
  <g>
    <path class="st0" d="M132.5,58.2c0,1.8,3.5.2,4.4-.2-.7.7-2.9,2.2-4.7,2.8-1.9.6-4.3-.2-4.3-2.5s.2-1.6.8-2.6c3.9-7.3,17.1-15.1,26.1-15.1s6.7,2.1,6.7,6.2c0,13-28.2,33.3-36,38.1,3.8-1,8.2-1.3,11.5-1.3s1.6,0,2.2,0c8.6.3,13.4,3.9,13.7,5.1-.2.1-3.1-3.1-11-3.1-18.9,0-32.5,8.7-33.8,8.7s-2.5-4.7-1.6-4.7c10.1,0,52.5-35.3,52.5-44.1s-1.4-3.3-3.6-3.3c-7.8,0-23.1,12.5-23.1,16.1Z"/>
    <path class="st0" d="M179.4,51.2c-.6,1.4-2.7,2.9-4.7,3.2-1.6.2-3.2-1-3.2-2.8,0-5.8,11-11.7,19.8-11.7s6.5,1.4,6.5,5.5c0,6.9-10,12.5-15.8,15.4,5.8,0,9.2,2.9,9.2,7,0,12.1-21.8,24.9-33.5,24.9s-8.2-.5-8-5.6c.5-7.8,14.3-16.6,19-16.6s.3.2.1.2c-2.8,0-16.8,9.6-16.8,15.4s1.6,2.6,4.5,2.6c12.7,0,31.3-16.1,31.3-22.7s-2.2-4-4.6-4c-6.1,0-10.2,2.8-12.9,2.8s-2.4-3.9-1.2-3.9c6.4,0,25.7-11.6,27-16.5.5-2.1-1.6-2.9-3.6-2.9-8.7,0-17.4,8.4-17.4,10.5s2.6.7,4.1-.8Z"/>
  </g>
  <g>
    <g>
      <g>
        <path class="st0" d="M19.6,60.8c-1.4.2-1.8.4-2.5,2.3-.6,1.4-3.5,8.4-4.5,11h-.7c-1.2-3.4-3-8.3-4.2-11.4-.6-1.6-.9-1.8-2.2-1.9v-.6h5.3v.6c-1.6.2-1.6.4-1.3,1.2.5,1.5,2.1,5.7,3.4,9.2,1.1-2.7,2.5-6.1,3.5-8.8.5-1.2.2-1.4-1.5-1.6v-.6h4.8v.6Z"/>
        <path class="st0" d="M20.5,73.9v-.6c1.7-.2,1.9-.3,1.9-2.1v-8.3c0-1.8-.2-1.9-1.9-2.1v-.6h5.6v.6c-1.7.2-1.9.3-1.9,2.1v8.3c0,1.8.2,1.9,1.9,2.1v.6h-5.6Z"/>
        <path class="st0" d="M39.1,70.6c-.1.5-.7,2.7-.9,3.3h-10.2v-.6c2-.1,2.1-.3,2.1-2.1v-8.3c0-1.9-.2-2-1.8-2.1v-.6h6.4c2,0,2.8,0,3,0,0,.5.1,2.1.2,3.2h-.6c-.2-.6-.4-1-.6-1.5-.3-.7-.8-.8-2.1-.8h-2c-.7,0-.7,0-.7.7v4.6h2.3c1.6,0,1.7-.3,1.9-1.7h.7v4.3h-.7c-.3-1.5-.4-1.7-2-1.7h-2.3v4.2c0,1.5.5,1.6,1.5,1.6h2c1.3,0,1.5-.2,2-.7.4-.4.8-1.3,1.1-1.9l.6.2Z"/>
        <path class="st0" d="M53,74.1c-.3,0-.5,0-.8,0-1.5-.1-2.4-.5-3.3-1.8-.8-1.1-1.5-2.4-2.2-3.5-.4-.7-.7-.8-1.8-.8h-.7v3.3c0,1.8.2,1.9,1.9,2.1v.6h-5.6v-.6c1.7-.2,1.9-.3,1.9-2.1v-8.4c0-1.8-.2-1.8-1.9-2v-.6h5.4c1.5,0,2.6.2,3.4.7.9.5,1.4,1.5,1.4,2.8s-1.2,2.9-2.7,3.6c.4.7,1.3,2.1,1.9,3,.8,1.1,1.2,1.6,1.7,2.2.6.6,1,.8,1.5,1v.6ZM45.3,67.2c1.1,0,1.8-.2,2.3-.6.8-.6,1.2-1.4,1.2-2.6,0-2.2-1.5-3.1-3.1-3.1s-1,0-1.1.2c-.2.1-.3.4-.3.9v5.1h1Z"/>
        <path class="st0" d="M68.4,60.8c-1.3.1-1.8.4-1.8,1.3,0,.7,0,1.6,0,3.5v8.4h-.8l-9-11v5.2c0,1.9,0,2.8.1,3.4,0,1.1.6,1.4,2.1,1.5v.6h-5.1v-.6c1.3-.1,1.8-.4,1.9-1.4,0-.7.1-1.6.1-3.5v-5.4c0-.6,0-.9-.4-1.4-.4-.5-.8-.7-1.9-.8v-.6h3.1l8.9,10.6v-5.1c0-2,0-2.9-.1-3.5,0-.9-.5-1.2-2.2-1.3v-.6h5.2v.6Z"/>
        <path class="st0" d="M80.9,70.6c-.1.5-.7,2.7-.9,3.3h-10.2v-.6c2-.1,2.1-.3,2.1-2.1v-8.3c0-1.9-.2-2-1.8-2.1v-.6h6.4c2,0,2.8,0,3,0,0,.5.1,2.1.2,3.2h-.6c-.2-.6-.4-1-.6-1.5-.3-.7-.8-.8-2.1-.8h-2c-.7,0-.7,0-.7.7v4.6h2.3c1.6,0,1.7-.3,1.9-1.7h.7v4.3h-.7c-.3-1.5-.4-1.7-2-1.7h-2.3v4.2c0,1.5.5,1.6,1.5,1.6h2c1.3,0,1.5-.2,2-.7.4-.4.8-1.3,1.1-1.9l.6.2Z"/>
        <path class="st0" d="M89.7,63.4c-.4-1.4-.9-2.8-2.9-2.8s-2.2,1.2-2.2,2.3.9,2.2,2.7,3.1c2.5,1.3,3.6,2.3,3.6,4.3s-1.9,3.9-4.6,3.9-2.4-.4-3.2-.7c-.2-.6-.4-2-.6-3.1l.7-.2c.4,1.4,1.3,3.2,3.5,3.2s2.4-1,2.4-2.4-.9-2.3-2.7-3.3c-2.2-1.2-3.4-2.2-3.4-4.2s1.6-3.6,4.3-3.6,2.3.3,2.8.4c0,.8.2,1.6.3,3h-.7Z"/>
      </g>
      <g>
        <path class="st0" d="M245,70.6c-.3.9-.6,2-.8,2.8h-7.9v-.5c1.2-1.1,2.4-2.4,3.4-3.6,1.3-1.6,2.6-3.2,2.6-5.1s-.9-2.8-2.5-2.8-2.4,1.1-2.9,2l-.5-.4,1.2-1.7c.7-.7,1.7-1.3,2.9-1.3,2,0,3.6,1.4,3.6,3.6s-.7,3-2.6,5.1c-.9.9-2.2,2.2-3.1,3.1h4c1.1,0,1.4-.1,2.2-1.4l.5.2Z"/>
        <path class="st0" d="M250.8,60.1c3.1,0,4.3,3.5,4.3,6.8s-1.2,6.8-4.3,6.8-4.4-3.5-4.4-6.8,1.2-6.8,4.4-6.8ZM250.8,60.8c-2,0-2.4,3.1-2.4,6s.6,6.1,2.4,6.1,2.4-3.1,2.4-6.1-.5-6-2.4-6Z"/>
        <path class="st0" d="M265.3,70.6c-.3.9-.6,2-.8,2.8h-7.9v-.5c1.2-1.1,2.4-2.4,3.4-3.6,1.3-1.6,2.6-3.2,2.6-5.1s-.9-2.8-2.5-2.8-2.4,1.1-2.9,2l-.5-.4,1.2-1.7c.7-.7,1.7-1.3,2.9-1.3,2,0,3.6,1.4,3.6,3.6s-.7,3-2.6,5.1c-.9.9-2.2,2.2-3.1,3.1h4c1.1,0,1.4-.1,2.2-1.4l.5.2Z"/>
        <path class="st0" d="M270.4,65.5c.4-.2.9-.4,1.3-.4,2.2,0,3.8,1.7,3.8,3.9s-1.8,4.6-4.3,4.6-4.4-2-4.4-5.2,3.3-7.1,5.8-7.9c.5-.2,1.5-.4,2.4-.5v.7c-.5.1-1.5.4-2.2.7-1.3.6-3.3,2-3.8,4.9l1.4-.7ZM270.9,66.3c-.8,0-1.6.3-2,.6,0,.4-.1.9-.1,1.4,0,2.6,1,4.6,2.8,4.6s2.1-1.7,2.1-3.1-.8-3.4-2.8-3.4Z"/>
      </g>
    </g>
    <g>
      <g>
        <rect class="st0" x="1.2" y="51.6" width="93" height="2"/>
        <rect class="st0" x="209.2" y="51.6" width="93" height="2"/>
      </g>
      <g>
        <rect class="st0" x="1.8" y="80.6" width="93" height="2"/>
        <rect class="st0" x="209.8" y="80.6" width="93" height="2"/>
      </g>
    </g>
  </g>
</svg>