<?xml version="1.0" encoding="UTF-8"?>
<svg id="Capa_1" xmlns="http://www.w3.org/2000/svg" version="1.1" viewBox="0 0 294 350">
  <!-- Generator: Adobe Illustrator 29.5.1, SVG Export Plug-In . SVG Version: 2.1.0 Build 141)  -->
  <path d="M29.6,11.5c0-.9-.4-1.7-1.1-2.3.6-.9,1.3-1.8,2.1-2.5.8-.7,1.6-1.4,2.5-2,.2-.1.4-.2.5-.3.1,0,.2-.2.3-.2.4-.2.8-.2,1.2-.2h.2c-.5-.2-1.1-.4-1.8-.4-.7,0-1.5,0-2.5,0-3.7,0-7,.5-9.8,1.6-3.9,1.5-5.8,3.8-5.8,6.8s.6,3.1,1.9,4.1c1.1,1,2.6,1.4,4.3,1.4h.4c.1,0,.3,0,.5,0-1.2,3.3-2.6,5.9-4.2,7.7-1.9,2.2-4.4,3.7-7.4,4.5-.2,0-.5,0-.7.1-.3,0-.6,0-.9,0-1.8,0-3.2-.4-4.3-1.3-1.2-.9-1.8-2.3-1.8-4,0-2.6.8-4.8,2.5-6.6,1.7-1.8,3.8-2.8,6.4-2.8s2.1.3,2.7,1c.7.6,1,1.5,1,2.6s-.5,2.6-1.6,3.6c-1,.9-2.2,1.4-3.7,1.4s-1.3-.2-1.8-.6c-.5-.4-.8-1-.8-1.7s0-.6.2-1c.2-.4.2-.7.2-.8s0,0-.1-.1c-.1,0-.2.1-.2.3,0,.2,0,.3,0,.1h0c-.2.5-.4,1-.4,1.5,0,.8.3,1.4.8,1.9.5.5,1.2.7,2,.7,1.6,0,3-.5,4.2-1.4,1.3-1,2-2.2,2-3.8s-.5-2.3-1.5-3.1c-.9-.7-2-1-3.4-1-2.5,0-4.8.8-6.7,2.5-2,1.7-3,3.8-3,6.4s.8,3.5,2.3,4.9c1.4,1.2,3.2,1.8,5.2,1.8s.9,0,1.4-.1c7.4-1.3,12.1-5.7,14.3-13.3,1.2-.4,2.2-1.1,3.1-2,1-1,1.4-2.1,1.4-3.3ZM24.6,12.6c-.8,1.3-1.4,2.8-1.9,4.3h-.3c-.7,0-1.3,0-2-.3-.6-.2-1.2-.4-1.7-.8-1.1-.9-1.7-2-1.7-3.4s.2-1.8.6-2.7c.9-2.1,2.8-3.7,5.7-4.8,1.2-.5,2.4-.8,3.6-1,1.3-.2,2.6-.3,3.9-.3h.6c.2,0,.5,0,.8,0,.3,0,.6,0,.8,0h.7c-2.1.7-4.2,2.2-6.3,4.7-.5-.2-1-.2-1.4-.2-.9,0-1.7.3-2.4.8-.8.6-1.2,1.3-1.2,2.2s.2.8.6,1c0,0,.1,0,.1,0,0-.1,0-.2-.2-.4-.1-.1-.2-.3-.2-.6,0-.7.4-1.3,1.2-1.8.7-.4,1.5-.6,2.2-.6s.7,0,1,.1c-.9,1.1-1.8,2.4-2.5,3.7ZM25.2,16.3c.8-2.6,1.8-4.9,3.1-6.8.6.5.9,1.1.9,1.9s-.4,2.1-1.3,3c-.7.8-1.6,1.4-2.7,1.9Z"/>
  <path d="M42.3,13.1c.8,0,1.2-.5,1.2-1.4s-.4-1.2-1.3-1.2-1.2.5-1.2,1.4.4,1.2,1.3,1.2Z"/>
  <path d="M91.9,24.5c.3-.5.6-1,.9-1.6,0,0,0,0,0,0,.5-.7.8-1.4,1.1-2,.3-.6.5-1.1.6-1.5.2-.6.4-1.2.6-1.8.2-.6.3-1.1.4-1.5.4,0,.9,0,1.5,0,.6,0,1.2,0,1.7,0,.7,0,1.1.2,1.1.7s-.4,1.3-1.3,2.5c-1.3,1.8-2.1,2.9-2.4,3.4-.9,1.4-1.3,2.7-1.3,3.8s.8,2.1,2.4,2.1,2.5-.7,3.8-2c.8-.8,1.5-1.6,2.1-2.5.1-.2.2-.3.3-.5-.2.8-.3,1.5-.3,2.2,0,1.9.9,2.9,2.6,2.9s.8,0,1.2-.2c.4-.2.8-.4,1.1-.6,1-.7,1.8-1.6,2.4-2.8.4-.8.8-1.5,1.2-2.2,0,.4,0,.8,0,1.2,0,1.2.3,2.3.8,3.1.6,1,1.5,1.5,2.7,1.5s1.9-.4,2.8-1.2c.4-.3.8-.7,1.1-1.1.3-.4.6-.9.9-1.3.3.3.7.4,1.2.4.8,0,1.6-.3,2.2-.9.6-.6,1.2-1.5,1.8-2.7,0-.1,0-.2,0-.3,0,0,0,0-.1,0,0,0-.1,0-.2.2-.7,1.3-1.3,2.2-1.8,2.7-.5.5-1.2.8-2,.8s-.7,0-1-.3h0c.6-.8,1.1-1.7,1.5-2.9.2-.6.3-1.1.4-1.6,0-.5.1-1,.1-1.5,0-1.1-.3-1.9-.8-2.6-.6-.7-1.4-1.1-2.4-1.1-2.1,0-3.8,1-5.3,3-.8,1.1-1.4,2.3-1.7,3.6-.3.5-.6,1-.9,1.7-.4.7-.8,1.5-1.3,2.2-.5.7-1.1,1.4-1.8,1.9-.3.2-.6.4-.9.5s-.7.2-1.1.2-.7,0-.9-.3c-.3-.2-.4-.5-.4-1,0-1.1.7-3,2.1-5.7l3.4-6.6h0c-.8.5-1.5.8-2,.8s-.4,0-.5-.2h-.1l-3,5.9c-.1.2-.2.5-.3.7-.3.6-.7,1.2-1.1,1.8-.6.8-1.2,1.5-1.9,2.2-1.4,1.4-2.7,2.1-3.8,2.1s-.6-.1-.7-.3c-.1-.2-.2-.4-.2-.7,0-.9.3-1.7.8-2.6.5-.8,1-1.6,1.5-2.3,2.1-2.7,3.2-4.6,3.2-5.4s-.7-1.2-2-1.2-1.5,0-2.3,0-1.4,0-1.8,0c0-.4.1-.7.2-1,0-.3,0-.5,0-.7,0-.8-.2-1.2-.7-1.2s-1,.5-1,1.4.3,1.4,1,1.8c0,.2-.1.7-.3,1.3-.2.7-.4,1.3-.6,1.9-.2.7-.5,1.3-.8,1.8,0,.2-.2.3-.3.5,0,0,0,0,0,0-.6,1.2-1.2,2.1-1.6,2.8-.5.7-1,1.4-1.7,2.1-.5.6-1,1-1.4,1.2-.5.2-.8.4-1.2.4-.5,0-.7-.3-.7-.8,0-1.4.7-3.4,2-6l3.4-6.6h0c-.8.6-1.5.9-2,.9s-.4,0-.5-.2h-.1l-2.4,4.8c.3-.9.4-1.7.4-2.4,0-1.6-.7-2.4-2-2.4s-3,.7-4.6,2.2c-1.5,1.4-2.4,2.9-2.9,4.4,0,.1,0,.2,0,.3-.3.5-.6,1-1,1.5-.6.8-1.2,1.5-1.9,2.2-1.4,1.4-2.7,2.1-3.8,2.1s-.6-.1-.7-.3c-.1-.2-.2-.4-.2-.7,0-.9.3-1.7.8-2.6.5-.8,1-1.6,1.5-2.3,2.1-2.7,3.2-4.6,3.2-5.4s-.7-1.2-2-1.2-1.5,0-2.3,0-1.4,0-1.8,0c0-.4.1-.7.2-1,0-.3,0-.5,0-.7,0-.8-.2-1.2-.7-1.2s-1,.5-1,1.4.3,1.4,1,1.8c0,.2-.1.7-.3,1.3-.2.7-.4,1.3-.6,1.9-.2.7-.5,1.3-.8,1.8,0,.2-.2.3-.3.5,0,0,0,0,0,0-.6,1.1-1.2,2.1-1.7,2.9-.6.8-1.1,1.4-1.5,1.9s-1.2,1-1.9,1.4c-.7.4-1.5.6-2.2.6s-1.2-.3-1.5-.8c-.3-.5-.5-1.2-.5-2.1s.2-1.7.5-2.5c2,0,3.8-.9,5.6-2.7,1.3-1.3,1.9-2.5,1.9-3.6s-.7-1.4-2-1.4-3.6,1.1-5.3,3.3c-1.1,1.4-1.8,2.8-2.2,4.2-.1.2-.2.5-.4.7-.4.7-.8,1.5-1.3,2.2s-1.1,1.4-1.8,2c-.3.2-.6.4-1,.5-.4.2-.8.2-1.2.2s-.7,0-1-.3c-.3-.2-.4-.5-.4-.8,0-.9.8-2.7,2.3-5.2,1.5-2.6,2.3-4.4,2.3-5.5s-.2-.8-.5-1c-.3-.3-.7-.4-1.1-.4-1.8,0-4.2,2.7-7.3,8.2,0-.1.2-.6.6-1.4.3-.8.8-2,1.4-3.5,1.2-2.8,1.8-4.2,1.8-4.3h0c-.6,1.1-1.2,1.7-1.9,1.7s-.4-.1-.7-.3h0c-.4,1.2-.8,2.3-1.1,3.2-.3.9-.6,1.7-.9,2.3,0,.2-.1.4-.2.5,0,0,0,0,0,0-.3.5-.6,1.1-1,1.9-.4.7-.8,1.5-1.3,2.2-.5.7-1.1,1.4-1.8,1.9-.3.2-.6.4-.9.5-.4.2-.7.2-1.1.2s-.7,0-.9-.3c-.3-.2-.4-.5-.4-1,0-1.1.7-3,2.1-5.7l3.4-6.6h0c-.8.5-1.5.8-2,.8s-.4,0-.5-.2h-.1l-3,5.9c-.2.4-.4.8-.5,1.2-.3.5-.6,1-.9,1.5-.5.8-.9,1.4-1.3,1.8-1.4,1.5-2.7,2.2-4,2.2s-1.3-.5-1.3-1.6c0-1.5.8-3.7,2.4-6.6l2.7-4.8h3v-.3h0s-2.8,0-2.8,0l3.6-6h-.1c-.2.3-.5.5-.9.8-.4.3-.8.4-1.2.4s-.6,0-.8-.2l-2.9,5h-2.3s0,.3,0,.3h0c0,0,2.1,0,2.1,0-.9,1.6-1.6,2.8-2,3.6-.5.8-.7,1.3-.8,1.4-1.1,2.2-1.6,4.1-1.6,5.6s.9,2.8,2.8,2.8,2.9-.8,4.2-2.3c.6-.6,1.1-1.3,1.5-2,0,0,.1-.2.2-.3-.2.6-.3,1.3-.3,1.9,0,1.9.9,2.9,2.6,2.9s.8,0,1.2-.2c.4-.2.8-.4,1.1-.6,1-.7,1.8-1.6,2.4-2.8-.8,1.8-1.4,3.3-2,4.5h0c.2,0,.4-.3.6-.7.2-.4.5-.6.9-.6s.5,0,.8.2h0c.4-1,.8-1.8,1.1-2.6.4-.8.7-1.4,1.1-2,1.4-2.6,2.7-4.6,3.7-5.9,1-1.3,1.8-2,2.4-2h.2c.5,0,.8.2.8.7s-.7,2-2,4.2c-1.3,2.2-2,4-2,5.4s.2,1.4.7,1.8c.5.4,1.1.6,1.8.6s.9,0,1.3-.2c.4-.2.8-.4,1.1-.6,1-.7,1.8-1.6,2.4-2.8.2-.4.4-.8.6-1.2,0,.2,0,.4,0,.6,0,1.3.3,2.4.8,3.1.5.7,1.4,1.1,2.7,1.1s1.7-.2,2.5-.6c.8-.4,1.4-.8,1.9-1.3.9-.8,1.5-1.6,2.1-2.4.4-.6.8-1.3,1.1-2,.3-.5.6-1.1.8-1.6.3-.6.5-1.1.6-1.5.2-.6.4-1.2.6-1.8.2-.6.3-1.1.4-1.5.4,0,.9,0,1.5,0,.6,0,1.2,0,1.7,0,.7,0,1.1.2,1.1.7s-.4,1.3-1.3,2.5c-1.3,1.8-2.1,2.9-2.4,3.4-.9,1.4-1.3,2.7-1.3,3.8s.8,2.1,2.4,2.1,2.5-.7,3.8-2c.8-.8,1.5-1.6,2.1-2.5.2-.3.4-.6.6-.9,0,.5-.1.9-.1,1.4,0,1,.2,1.9.6,2.5.5.9,1.1,1.3,2,1.3,1.8,0,3.7-1.8,5.6-5.4-.2,1-.4,1.8-.4,2.6,0,1.9.7,2.9,2.1,2.9s1.7-.5,2.7-1.4c.8-.8,1.4-1.6,2-2.5ZM113.6,22.2c.4-1.5,1.1-2.9,2-4.1,1.1-1.5,2.4-2.3,3.6-2.3s2.3,1.2,2.3,3.6h-.1c0,0-.1,0-.2,0h-.4c-.6,0-1,.3-1.4,1-.2.3-.3.6-.4.9,0,.3-.1.6-.2.9,0,.2,0,.3,0,.4v.2c0,.7.2,1.5.7,2.3,0,0-.1.2-.1.2-1.4,2.2-2.7,3.2-4.2,3.2s-2-1.2-2-3.6.1-1.8.4-2.6ZM59.2,20.7c.4-.7.9-1.4,1.6-2.2,1.4-1.8,2.7-2.7,3.7-2.7s1,.2,1,.6-.3,1.3-.8,2.1c-.5.7-.9,1.3-1.4,1.8h0c-1.8,1.6-3.5,2.4-4.9,2.4.2-.6.5-1.3.9-2ZM85.8,21.8c-2.3,4.2-4.3,6.3-5.8,6.3s-1-.6-1-1.7.3-2.7.8-4.3c.2-.6.5-1.3.9-1.9.4-.7.8-1.3,1.3-2,1.3-1.7,2.4-2.5,3.4-2.5s1.4.7,1.4,2.2-.4,2.7-1.1,4Z"/>
  <path d="M110.3,13.1c.8,0,1.2-.5,1.2-1.4s-.4-1.2-1.3-1.2-1.2.5-1.2,1.4.4,1.2,1.3,1.2Z"/>
  <path d="M156.7,21.8c.2-.3.2-.4,0-.4s-.2,0-.2.2c-.6,1.1-1.2,2.1-1.7,2.9-.6.8-1.1,1.4-1.5,1.9-.5.5-1.2,1-1.9,1.4-.7.4-1.5.6-2.2.6s-1.2-.3-1.5-.8c-.3-.5-.5-1.2-.5-2.1s.2-1.7.5-2.5c2,0,3.8-.9,5.6-2.7,1.3-1.3,1.9-2.5,1.9-3.6s-.7-1.4-2-1.4-3.6,1.1-5.3,3.3c-1.1,1.4-1.8,2.7-2.1,4.1-.4.7-.8,1.3-1.1,1.8-.5.7-1,1.4-1.7,2.1-.5.6-1,1-1.4,1.2-.5.2-.8.4-1.2.4-.6,0-.9-.4-.9-1.1,0-1.4,1.2-4.3,3.5-8.8l6-11.5h0c-.8.5-1.4.8-2,.8s-.5,0-.6-.2h0l-6.5,12.8c.3-.9.5-1.7.5-2.5,0-1.5-.7-2.3-2-2.3s-2.3.4-3.3,1.1c-1,.7-1.9,1.6-2.6,2.6-.7,1-1.3,2-1.6,3-.3.7-.4,1.6-.4,2.6s.2,1.8.6,2.6c.4.8,1.1,1.2,2,1.2,1.8,0,3.7-1.8,5.6-5.4-.3,1-.4,2-.4,2.8s.2,1.5.7,1.9c.4.4,1,.6,1.7.6s1.7-.5,2.7-1.4c.8-.8,1.4-1.6,2-2.5.2-.3.4-.7.6-1,0,.4,0,.7,0,1,0,1.3.3,2.4.8,3.1.5.7,1.4,1.1,2.7,1.1s1.7-.2,2.5-.6c.8-.4,1.4-.8,1.9-1.3.9-.8,1.5-1.6,2.1-2.4.5-.8,1-1.7,1.5-2.6ZM148.5,20.7c.4-.7.9-1.4,1.6-2.2,1.4-1.8,2.7-2.7,3.7-2.7s1,.2,1,.6-.3,1.3-.8,2.1c-.5.7-.9,1.3-1.4,1.8h0c-1.8,1.6-3.5,2.4-4.9,2.4.2-.6.5-1.3.9-2ZM138.7,21.9c-1.1,2-2.1,3.6-3.1,4.6-1,1.1-1.8,1.6-2.6,1.6s-.7-.2-.8-.5c-.2-.3-.2-.8-.2-1.3s0-1.1.2-1.7c.1-.6.2-1.1.4-1.6.1-.5.2-.8.3-.9.5-1.3,1.2-2.6,2.2-4,.6-.9,1.2-1.5,1.8-1.8.6-.4,1.1-.5,1.6-.5s.9.2,1.1.5c.2.3.3.8.3,1.3s0,1-.2,1.6c-.1.6-.3,1.1-.5,1.6-.2.5-.3.8-.4,1Z"/>
  <path d="M202.8,13.1c.8,0,1.2-.5,1.2-1.4s-.4-1.2-1.3-1.2-1.2.5-1.2,1.4.4,1.2,1.3,1.2Z"/>
  <path d="M222.7,13.1c.8,0,1.2-.5,1.2-1.4s-.4-1.2-1.3-1.2-1.2.5-1.2,1.4.4,1.2,1.3,1.2Z"/>
  <path d="M291.9,21.4c0,0-.2,0-.2.2-.5,1-1,1.9-1.7,2.8-.7.9-1.4,1.6-2.1,2.2-.7.6-1.6,1-2.4,1.4-.9.3-1.8.5-2.7.5s-1.1,0-1.7-.2c3.1,0,5-1.5,5.7-4.5,0-.3,0-.5.1-.8,0-.2,0-.5,0-.8,0-1-.4-2.2-1.1-3.5-.7-1.3-1.1-2.3-1.1-2.8s.1-.9.3-1c.1,0,.5-.1,1-.2.6,0,.9-.3.9-.6s-.2-.4-.6-.4-.2,0-.4,0c-.5.1-1.3,1.1-2.2,2.8-.3.6-.7,1.1-1,1.7-.3.6-.6,1.1-1,1.7l-.4.7c-.2,0-.4,0-.5,0-.4,0-.8.3-1.2.8-.4.5-.6.9-.8,1.4h0c-.2.5-.3,1.1-.3,1.6,0,0-.1.2-.2.2-.6.8-1.1,1.4-1.5,1.9s-1.2,1-1.9,1.4c-.7.4-1.5.6-2.2.6s-1.2-.3-1.5-.8c-.3-.5-.5-1.2-.5-2.1s.2-1.7.5-2.5c2,0,3.8-.9,5.6-2.7,1.3-1.3,1.9-2.5,1.9-3.6s-.7-1.4-2-1.4-3.6,1.1-5.3,3.3c-1.1,1.4-1.8,2.7-2.1,4-.4.7-.8,1.3-1.1,1.8-.5.7-1,1.4-1.7,2.1-.5.6-1,1-1.4,1.2-.5.2-.8.4-1.2.4-.6,0-.9-.4-.9-1.1,0-1.4,1.2-4.3,3.5-8.8l6-11.5h0c-.8.5-1.4.8-2,.8s-.5,0-.6-.2h0l-6.5,12.8c.3-.9.5-1.7.5-2.5,0-1.5-.7-2.3-2-2.3s-2.3.4-3.3,1.1c-1,.7-1.9,1.6-2.6,2.6-.7,1-1.3,2-1.6,3,0,.1,0,.3-.1.5-.4.7-.8,1.3-1.1,1.8-.5.7-1,1.4-1.7,2.1-.5.6-1,1-1.4,1.2s-.8.4-1.2.4c-.5,0-.7-.3-.7-.8,0-1.4.7-3.4,2-6l3.4-6.6h0c-.8.6-1.5.9-2,.9s-.4,0-.5-.2h-.1l-2.4,4.8c.3-.9.4-1.7.4-2.4,0-1.6-.7-2.4-2-2.4s-3,.7-4.6,2.2c-1.5,1.4-2.4,2.9-2.9,4.4,0,.1,0,.3,0,.4-.5.8-.9,1.5-1.2,2-.5.7-1,1.4-1.7,2.1-.5.6-1,1-1.4,1.2-.5.2-.8.4-1.2.4-.6,0-.9-.4-.9-1.1,0-1.4,1.2-4.3,3.5-8.8l6-11.5h0c-.8.5-1.4.8-2,.8s-.5,0-.6-.2h0l-6.5,12.8c.3-.9.5-1.7.5-2.5,0-1.5-.7-2.3-2-2.3s-2.3.4-3.3,1.1c-1,.7-1.9,1.6-2.6,2.6-.7,1-1.3,2-1.6,3,0,.1,0,.3-.1.4-.1.3-.3.5-.4.9-.4.7-.8,1.5-1.3,2.2-.5.7-1.1,1.4-1.8,1.9-.3.2-.6.4-.9.5s-.7.2-1.1.2-.7,0-.9-.3c-.3-.2-.4-.5-.4-1,0-1.1.7-3,2.1-5.7l3.4-6.6h0c-.8.5-1.5.8-2,.8s-.4,0-.5-.2h-.1l-3,5.9c-.2.4-.4.7-.5,1.1-.8,1.4-1.8,2.2-2.8,2.2s-.8-.2-1.1-.6c-.3-.4-.5-.8-.5-1.1,1.4-2.7,2.1-4.8,2.1-6.3s-.3-1.3-.8-1.3-.8.5-1.2,1.4c-.3.7-.5,1.3-.6,2,0,.3,0,.7-.1,1,0,.3,0,.7,0,1,0,1.1.1,1.9.4,2.4-2.1,3.5-4,5.2-5.6,5.2s-1-.5-1-1.5c0-1.7.5-3.5,1.6-5.6,1.8-3.4,3.1-5.4,3.8-6.2h0c-.7.5-1.4.7-2,.7s-.5,0-.7-.2h0c-1,1.8-1.7,3.2-2.3,4.4-.3.6-.6,1.2-.8,1.6,0,0,0,0,0,0-.3.5-.6,1.1-1,1.9-.4.7-.8,1.5-1.3,2.2-.5.7-1.1,1.4-1.8,1.9-.3.2-.6.4-.9.5-.4.2-.7.2-1.1.2s-.7,0-.9-.3c-.3-.2-.4-.5-.4-1,0-1.1.7-3,2.1-5.7l3.4-6.6h0c-.8.5-1.5.8-2,.8s-.4,0-.5-.2h-.1l-3,5.9c-.2.4-.4.8-.5,1.2-.3.5-.6,1-.9,1.5-.5.8-.9,1.4-1.3,1.8-1.4,1.5-2.7,2.2-4,2.2s-1.3-.5-1.3-1.6c0-1.5.8-3.7,2.4-6.6l2.7-4.8h3v-.3h0s-2.8,0-2.8,0l3.6-6h-.1c-.2.3-.5.5-.9.8-.4.3-.8.4-1.2.4s-.6,0-.8-.2l-2.9,5h-2.3s0,.3,0,.3h0c0,0,2.1,0,2.1,0-.9,1.6-1.6,2.8-2,3.6-.5.8-.7,1.3-.8,1.4-.5,1-.9,1.9-1.1,2.8-.4.6-.7,1.2-1,1.6-.6.8-1.1,1.4-1.5,1.9s-1.2,1-1.9,1.4c-.7.4-1.5.6-2.2.6s-1.3-.2-1.6-.7c-.3-.5-.4-1.1-.4-1.7s.1-1.6.4-2.5c.3-.9.5-1.6.8-2.1.6-1.2,1.3-2.4,2.2-3.4,1.2-1.4,2.3-2.2,3.3-2.2s1.4.5,1.4,1.4-.4,1.3-1.1,1.8c-.7.5-1.1.9-1.1,1.3s.2.5.6.5,1-.4,1.5-1.2c.4-.7.6-1.3.6-1.9,0-1.6-.9-2.4-2.6-2.4s-3.7,1.1-5.4,3.4c-.8,1.1-1.4,2.2-1.8,3.3-.1.3-.2.6-.3.9-.4.6-.7,1.2-1,1.6-.5.7-1,1.4-1.7,2.1-.5.6-1,1-1.4,1.2s-.8.4-1.2.4c-.5,0-.7-.3-.7-.8,0-1.4.7-3.4,2-6l3.4-6.6h0c-.8.6-1.5.9-2,.9s-.4,0-.5-.2h-.1l-2.4,4.8c.3-.9.4-1.7.4-2.4,0-1.6-.7-2.4-2-2.4s-3,.7-4.6,2.2c-1.5,1.4-2.4,2.9-2.9,4.4-.2.9-.4,1.8-.4,2.6s.2,1.9.6,2.5c.5.9,1.1,1.3,2,1.3,1.8,0,3.7-1.8,5.6-5.4-.2,1-.4,1.8-.4,2.6,0,1.9.7,2.9,2.1,2.9s1.7-.5,2.7-1.4c.8-.8,1.4-1.6,2-2.5.2-.3.3-.5.5-.8,0,.5-.1.9-.1,1.4,0,1.3.3,2.2,1,2.8.7.6,1.5.9,2.6.9s1.7-.2,2.5-.6c.8-.4,1.4-.8,1.9-1.3.9-.8,1.5-1.6,2.1-2.4,0-.1.1-.3.2-.4-.1.6-.2,1.1-.2,1.6,0,1.9.9,2.8,2.8,2.8s2.9-.8,4.2-2.3c.6-.6,1.1-1.3,1.5-2,0,0,.1-.2.2-.3-.2.6-.3,1.3-.3,1.9,0,1.9.9,2.9,2.6,2.9s.8,0,1.2-.2c.4-.2.8-.4,1.1-.6,1-.7,1.8-1.6,2.4-2.8.3-.5.5-1,.8-1.5-.2.7-.2,1.3-.2,1.8,0,2.1.8,3.1,2.5,3.1s2.2-.6,3.4-1.9c.9-.9,1.6-2,2.2-3.3.2.5.5.9.8,1.1.3.3.7.4,1.1.4.7,0,1.3-.3,1.8-.8.2-.2.4-.4.5-.6-.2.8-.3,1.5-.3,2.3,0,1.9.9,2.9,2.6,2.9s.8,0,1.2-.2c.4-.2.8-.4,1.1-.6,1-.7,1.8-1.6,2.4-2.8.2-.4.4-.8.7-1.3,0,.3,0,.6,0,.9,0,1,.2,1.8.6,2.6.4.8,1.1,1.2,2,1.2,1.8,0,3.7-1.8,5.6-5.4-.3,1-.4,2-.4,2.8s.2,1.5.7,1.9c.4.4,1,.6,1.7.6s1.7-.5,2.7-1.4c.8-.8,1.4-1.6,2-2.5.3-.4.5-.8.7-1.3,0,.5-.1.9-.1,1.3,0,1,.2,1.9.6,2.5.5.9,1.1,1.3,2,1.3,1.8,0,3.7-1.8,5.6-5.4-.2,1-.4,1.8-.4,2.6,0,1.9.7,2.9,2.1,2.9s1.7-.5,2.7-1.4c.8-.8,1.4-1.6,2-2.5.2-.3.4-.6.5-1,0,.4,0,.7,0,1.1,0,1,.2,1.8.6,2.6.4.8,1.1,1.2,2,1.2,1.8,0,3.7-1.8,5.6-5.4-.3,1-.4,2-.4,2.8s.2,1.5.7,1.9c.4.4,1,.6,1.7.6s1.7-.5,2.7-1.4c.8-.8,1.4-1.6,2-2.5.2-.3.4-.7.6-1,0,.4,0,.7,0,1.1,0,1.3.3,2.4.8,3.1.5.7,1.4,1.1,2.7,1.1s1.7-.2,2.5-.6c.8-.4,1.4-.8,1.9-1.3.6-.6,1.2-1.2,1.6-1.8,0,2.5,1.4,3.8,4,3.8s2.9-.3,4-1c1.1-.6,2-1.3,2.6-1.9.5-.6,1-1.2,1.5-1.9.5-.7.9-1.5,1.3-2.3.1-.3.1-.4,0-.4ZM272.1,20.7c.4-.7.9-1.4,1.6-2.2,1.4-1.8,2.7-2.7,3.7-2.7s1,.2,1,.6-.3,1.3-.8,2.1c-.5.7-.9,1.3-1.4,1.8h0c-1.8,1.6-3.5,2.4-4.9,2.4.2-.6.5-1.3.9-2ZM170.6,21.8c-2.3,4.2-4.3,6.3-5.8,6.3s-1-.6-1-1.7.3-2.7.8-4.3c.2-.6.5-1.3.9-1.9.4-.7.8-1.3,1.3-2,1.3-1.7,2.4-2.5,3.4-2.5s1.4.7,1.4,2.2-.4,2.7-1.1,4ZM231.9,21.9c-1.1,2-2.1,3.6-3.1,4.6-1,1.1-1.8,1.6-2.6,1.6s-.7-.2-.8-.5c-.2-.3-.2-.8-.2-1.3s0-1.1.2-1.7c.1-.6.2-1.1.4-1.6.1-.5.2-.8.3-.9.5-1.3,1.2-2.6,2.2-4,.6-.9,1.2-1.5,1.8-1.8.6-.4,1.1-.5,1.6-.5s.9.2,1.1.5.3.8.3,1.3,0,1-.2,1.6c-.1.6-.3,1.1-.5,1.6-.2.5-.3.8-.4,1ZM247.2,21.8c-2.3,4.2-4.3,6.3-5.8,6.3s-1-.6-1-1.7.3-2.7.8-4.3c.2-.6.5-1.3.9-1.9.4-.7.8-1.3,1.3-2,1.3-1.7,2.4-2.5,3.4-2.5s1.4.7,1.4,2.2-.4,2.7-1.1,4ZM262.2,21.9c-1.1,2-2.1,3.6-3.1,4.6-1,1.1-1.8,1.6-2.6,1.6s-.7-.2-.8-.5c-.2-.3-.2-.8-.2-1.3s0-1.1.2-1.7c.1-.6.2-1.1.4-1.6.1-.5.2-.8.3-.9.5-1.3,1.2-2.6,2.2-4,.6-.9,1.2-1.5,1.8-1.8.6-.4,1.1-.5,1.6-.5s.9.2,1.1.5c.2.3.3.8.3,1.3s0,1-.2,1.6c-.1.6-.3,1.1-.5,1.6-.2.5-.3.8-.4,1ZM278.9,25.7c0-.7.1-1.3.4-1.7.2-.2.5-.4,1-.7.5-.2.8-.5,1-.8.3-.5.4-.9.4-1.2s0-.4-.2-.6c.5-.7.9-1.4,1.4-2.2.5-.8,1-1.7,1.5-2.8,0,.3,0,.6,0,.9,0,.4.1.8.2,1.3.1.5.2.9.3,1.3,0,.4,0,.6,0,.9,0,1.6-.4,3.2-1.1,4.8-.9,2.1-2,3.1-3.4,3.1s-1.8-.8-1.8-2.3Z"/>
  <path d="M135.3,75.1c.5,0,1.2,0,1.4-.5.1-.4,0-2.6,0-3.1,0-.2,0-.3,0-.4l-21.8-13.6c-.6-.2-1.2.3-1.7.6-6.1,3.5-12.3,7.6-18.3,11.3-.4.3-2.3,1.4-2.4,1.6,0,.1,0,.3,0,.4,0,.5,0,2.7,0,3.1.2.6.9.5,1.4.5v8.4c0,0,.5.7.5.7l-1.3,13c0,.8.8.8,1.5.9v2.1h-3.2c-.2,0-.4.4-.5.6,0,.4,0,3.2,0,3.4,0,.2.5.5.7.4h45.9c.3-.1.5-.4.6-.7,0-.6,0-2.6,0-3.1,0-.2-.3-.6-.5-.6h-3.2v-2.1c.6,0,1.4,0,1.5-.9l-1.3-13,.5-.7v-8.4ZM114.6,59l18.7,11.7h-8.2c0,0-.2-.4-.3-.5-.5-.5-1.3-.2-1.9-.2-.6,0-.2-.5-.1-.9,0-.5,0-1.8,0-2.3-.2-.8-2.3-.6-3-.6-1.2,0-2.3.6-3.2,1.5-1.3-.8-2.5-1-3.8,0-.7-.6-1.3-1.1-2.3-1.3-.7-.2-2.7-.3-3.4-.1-.2,0-.5.3-.6.6-.1.8,0,2.3.2,3.1h-1.7c-.5,0-.8.8-.8.8h-8.2l18.6-11.7ZM130.9,95.4l.6-11.8,1.6.2.2.2,1.2,12.6c-1.2,0-2.7-.3-3.5-1.2ZM133.1,98.1v2h-1.5v-2.5c.5.2,1,.2,1.5.5ZM133.8,81.7c-1.3-1-2.2-2.2-2.8-3.8-.2-.6-.2-1.6-1.1-1.3-1.1.2,0,2.4.3,3.1.5.9,1.1,1.7,1.9,2.4-.5,0-1.1-.2-1.5-.5-2.9-1.2-5-3.5-6-6.5h9.3v6.6ZM99.1,96.8c0-.3,1.1-.7.7-1.4,1.5.4,3.1-.2,3.7-1.7l-2-11.8c2-1.6,3.9-3.6,4.5-6.2.8.4,1.5.8,2.4.8.5,0,1.2,0,1.7,0,.3,0,.7.4,1.1.5.2,0,.9,0,1,0,.2,0,.3.5.5.7,1.1,1.3,3,1.3,4.1,0,.2-.2.3-.6.5-.7.1,0,.8,0,1.1-.1.4,0,.7-.4,1-.5.5,0,1.1,0,1.7,0,.9,0,1.6-.4,2.3-.8.8,2.5,2.5,4.5,4.5,6.2-.5,3.3-1.2,6.5-1.7,9.8-.2,1.3-.7,2.2.5,3.1.9.7,1.9.8,2.9.6,0,.2,0,.5,0,.7,0,.2.7.6.7.7v3.3l-.2.2h-30.7l-.2-.2c.2-.8-.2-2.5,0-3.3ZM94.8,96.6l1.2-12.6.2-.2,1.6-.2.6,11.8c-.9,1-2.3,1.3-3.5,1.2ZM97.6,97.7v2.5h-1.5v-2c.4-.3,1-.3,1.5-.5ZM97.3,82.1c0,0-.2,0-.2,0,.3-.3.6-.5.8-.8.4-.5,1-1.4,1.2-1.9.3-.6,1.1-2.5,0-2.7-1-.2-1.1,1.2-1.4,1.9-.4.9-1.4,2.3-2.2,2.9-.1,0-.1.2-.3.2v-6.5h9.3c-.6,1.8-1.6,3.4-3,4.7-1.1,1-2.9,2-4.4,2.4ZM100.1,82.7l1.8,10.8c-.6.7-1.5.6-2.3.3,0-3.5-.3-6.9-.5-10.4,0-.4.6-.5,1-.7ZM119.6,72.8c0-.2,1-.6,1.2-.7.1,0,.7-.7.8-.7h1.8c.3,2.2-1.2,3.8-3.4,3.7,0-.9,0-1.5-.5-2.3ZM120.1,70.8c-.4-1.2-1.1-2-2.4-2.2.2-.3.5-.5.8-.6.2-.1.9-.3,1.1-.3h1.5c.1,1.2-.2,2.3-1.1,3.1ZM118.5,71.8c-.2.4-.7.5-.7,1,0,.6.3.6.6,1,.7,1,0,2-1.2,1.9-.4,0-.6-.4-1.1,0-.3.3-.2.9-.5,1.2-.4.5-1,.5-1.6.2-.7-.4-.4-1.1-.8-1.4-.5-.4-.7,0-1,0-.7,0-1.3-.1-1.5-.8-.3-1.1.7-1.2.8-1.8,0-.7-.4-.7-.6-1.1-.6-.9.2-2,1.2-1.8.2,0,.4.2.6.2,1.2,0,.3-2.2,2.3-1.8,1,.2.6,1.4,1.2,1.7.5.2.6,0,1-.1,1-.1,1.7.8,1.3,1.7ZM109.1,70.8c-.9-.8-1.2-1.9-1.1-3,.7,0,1.5-.1,2.2,0,.2,0,1.4.7,1.3.8-1.3.2-2,1.1-2.4,2.2ZM108.4,72.1c.2.1,1.2.5,1.2.7-.4.7-.6,1.4-.5,2.3-2.2,0-3.7-1.5-3.4-3.7.5,0,1.4-.1,1.8,0,0,0,.6.6.8.7ZM129.1,82.7c.3.3,1,.2,1,.7-.2,3.5-.4,7-.5,10.4-.8.2-1.9.5-2.3-.5l1.9-10.6ZM93.9,73.6v-1.5h10.4c0,.5,0,1,.2,1.5h-10.6ZM136.8,101.6v1.5h-44.3v-1.5h44.3ZM124.7,73.6c.1-.5.3-1,.2-1.5h10.4v1.5h-10.6Z"/>
  <path d="M112.4,95c.4.2,1.9.8,2.3.7,1.2,0,4-1.6,4.9-2.4,4.2-3.6,2.4-10.6-3.3-9.3-.5.1-1.4.6-1.7.7-.2,0-1.3-.6-1.8-.7-.6-.1-1.1-.2-1.7-.1-1.9.2-3.6,1.8-3.8,3.7-.4,3.6,2.1,6.1,5.1,7.4ZM111.3,85.4c.5,0,.9,0,1.4.2.6.2,1.5.9,1.9.9.5,0,1-.5,1.5-.7,4.1-1.6,5.8,3,3.1,6-.8.8-3.6,2.6-4.7,2.5-1.4-.1-4.1-1.9-4.9-3.1-1.4-2.1-1.2-5.3,1.7-5.7Z"/>
  <path d="M114.1,70.7c-2.5.4-2.1,4.6.7,4.4,3-.2,2.7-5-.7-4.4ZM114.7,73.6c-.9.1-1.2-1.2-.3-1.4,1.2-.3,1.3,1.3.3,1.4Z"/>
  <path d="M173.6,185.9c4.3.3,8.7-1.7,12.8-1.5,1.4,0,2.3,1,3.6,1.5,3.3,1.2,6.6-.6,9.8,0,1,.2,2.1.6,3.1.7,2,.1,4.9,0,6.9,0,1.7-.1,1.6-1.8,1.3-3.1,0-.2.3-.2.4-.2.3-.3.3-3.1.3-3.7,0-2.4.3-5.1-.3-7.4-.3-1.3,0-2.9.2-4.2.1-1.3.2-2.5,0-3.8l2-.5c-.3-2.2-.8-4.5-1.7-6.6,0-2.6,1.2-7,0-9.5-.2-.3-.7-.8-.7-1,0-.3.2-1-.5-.9,0-.3.2-.6.3-.8,0,0,.1,0,.2-.1,2.5-3.4-.1-6.3-3.8-4.6-.6.3-.8.4-.2.9-.2.4-.4.7-.5,1.2,0,.3.2.5.1.7,0,.3-.6.9-.6.9.5.3.3.4.4.9,0,.2.2.4.2.6,0,.2-.2.4,0,.6.2.2,1,.2,1.2,0,.1.3-.2.4-.4.6-.9,1.1-1.3,2.4-1.6,3.7-.2.8-.2,2.2-.5,2.9-.1.4-1.3,1.6-1.7,1.8-.4.3-2.9,1.8-3.2,1.5,0-.6.2-1.3.5-1.9.1-.3.4-.6.5-.9.5-1.2-.5-1.8-1.1-2.6-.4-.5-1.1-2-1-2.7,0-.3.3-.8.3-1.1,0,0,1,.5,1.4,0,0,0,.2-.7.2-.8,0,0,0-.5,0-.5,0-.2-.3-.3.2-.5-.8-.6-.4-1.3-.7-2-.4-.9-.8-1.4-1.8-1.6-1.2-.2-2.3,0-2.9,1.1-.1.3-.3,1.1-.4,1.3,0,.1-.6.3-.8.4-.5.4-.4,1.1-.6,1.7,0,.5.4.5.7.6.3.1.4.5.8.6.5.1.9-.2,1.4-.2,0,0-.7,1-.8,1.1-1,1.5-1,3.1-.7,4.8.3,1.7,1.3,3.5.8,5.3-2.6,2.8-5.2,5.6-7.3,8.7-2.4,3.5-4.4,7.3-6.7,10.8-2.3,3.6-5.5,7.4-10.1,7.7-.1,0,.6.2.7.2ZM205.4,157.1v4.7c0,0,.3.2.3.2.2,0,.7.2.7.3,0,1.5.1,3.1.3,4.6.3,3,.5,6,.9,9,.1.9.5,2.5.5,3.4,0,1.2-1,1.6-.7,3.1,0,.2.2.4.2.5,0,.3-.9,1.3-1.2,1.5-.9.6-1.9.5-2.9.8,0,0-.1-.2-.1-.2-.2-.6-.4-1.5-.5-2.2-1.5-7.3.5-14.9-1.1-22.2-.2-.7-.4-1.4-.5-2.1,1.5,0,2.9-.7,4.2-1.3Z"/>
  <path d="M163.2,78.6c0-2.4-1.9-4.4-4.3-4.5v-23.2h-1.3v23.4c-1.9.5-3.3,2.2-3.3,4.3s1.4,3.8,3.3,4.3v71.4c-1.9.5-3.3,2.2-3.3,4.3s1.4,3.8,3.3,4.3v71.4c-1.9.5-3.3,2.2-3.3,4.3s1.4,3.8,3.3,4.3v71.4c-1.9.5-3.3,2.2-3.3,4.3s1.4,3.8,3.3,4.3v23.4h1.3v-23.2c2.4,0,4.3-2.1,4.3-4.5s-1.9-4.4-4.3-4.5v-71.1c2.4,0,4.3-2.1,4.3-4.5s-1.9-4.4-4.3-4.5v-71.1c2.4,0,4.3-2.1,4.3-4.5s-1.9-4.4-4.3-4.5v-71.1c2.4,0,4.3-2.1,4.3-4.5Z"/>
  <path d="M180.4,70.2c.4-.2,1-.4,1.5-.5v-.5c-.6,0-1.4.2-1.7.4-1.6.5-3.7,2.3-3.7,5s1.2,3.4,2.8,3.4,2.8-1.3,2.8-3-1-2.5-2.4-2.5-.6,0-.9.2l-.9.4c.4-1.8,1.6-2.7,2.4-3ZM179.1,73.4c1.2,0,1.7,1,1.7,2.2s-.3,2-1.3,2-1.7-1.2-1.7-2.9,0-.7,0-.9c.3-.2.7-.3,1.2-.3Z"/>
  <path d="M184.6,74c.5,0,.9-.4.9-.9s-.4-.9-.9-.9-.8.4-.8.9.4.9.8.9Z"/>
  <path d="M184.6,78c.5,0,.9-.3.9-.9s-.4-.9-.9-.9-.8.4-.8.9.4.9.8.9Z"/>
  <path d="M189.8,69.4c-2.1,0-2.8,2.4-2.8,4.3s.8,4.3,2.8,4.3,2.8-2.4,2.8-4.3-.7-4.3-2.8-4.3ZM189.8,77.6c-1.1,0-1.5-2-1.5-3.9s.3-3.8,1.5-3.8,1.5,1.9,1.5,3.8-.3,3.8-1.4,3.8Z"/>
  <path d="M196.4,69.4c-2.1,0-2.8,2.4-2.8,4.3s.8,4.3,2.8,4.3,2.8-2.4,2.8-4.3-.7-4.3-2.8-4.3ZM196.4,77.6c-1.1,0-1.5-2-1.5-3.9s.3-3.8,1.5-3.8,1.5,1.9,1.5,3.8-.3,3.8-1.4,3.8Z"/>
  <path d="M202.9,80.7v.4h3.2v-.4c-1,0-1.1-.2-1.1-1.1v-1.8c.2.1.5.2.9.2,1.7-.3,3.3-1.6,3.3-3.6s-.9-2.6-2.4-2.6-.5,0-.8.3c0,0-1.1.6-1.1.6v-1c-.7.3-1.4.5-2,.6v.4c.8.1.9.2.9,1v6.1c0,.9,0,.9-1,1ZM205,73.2c.3-.2.8-.5,1.3-.5.9,0,1.7.8,1.7,2.3s-.7,2.4-1.8,2.4-.9-.2-1.2-.5v-3.7Z"/>
  <path d="M212.1,77.2c0-.5-.4-.9-.9-.9s-.9.4-.9.9.4.9.9.9.9-.4.9-.9Z"/>
  <path d="M213,77.5v.4h2.9v-.4c-.7,0-.8-.1-.8-1v-3.2c.4-.3.9-.6,1.4-.6.8,0,1.1.5,1.1,1.5v2.3c0,.9-.1.9-.9,1v.4h2.9v-.4c-.7,0-.8-.1-.8-1v-2.6c0-.2,0-.4,0-.6.5-.4.9-.6,1.4-.6.8,0,1.1.5,1.1,1.5v2.2c0,.9,0,1-.8,1v.4h2.8v-.4c-.7,0-.8-.1-.8-1v-2.6c0-1.3-.6-2.1-1.7-2.1s-.8.2-1.1.3c-.3.2-.7.4-1,.7-.3-.7-.8-1.1-1.5-1.1s-.7.1-1.1.4c-.4.2-.7.5-1,.7v-1.1c-.6.3-1.3.4-1.9.5v.4c.7.1.8.2.8,1v2.8c0,.9,0,.9-.9,1Z"/>
  <path d="M225.2,76.3c-.5,0-.9.4-.9.9s.4.9.9.9.9-.4.9-.9-.4-.9-.9-.9Z"/>
  <path d="M182.1,91.2h0c-.3,0-.5-.1-.7-.3-.2-.2-.5-.6-.8-1.1-.3-.4-.7-1.1-.9-1.5.7-.3,1.2-.8,1.2-1.6s-.2-.9-.6-1.2c-.3-.2-.8-.3-1.5-.3h-2.3c.8.2.8.3.8,1v4.1c0,.7,0,.8-.8.9h0c0,.1,2.3.1,2.3.1h0c-.8-.2-.8-.3-.8-1v-1.8h.4c.5,0,.6,0,.8.5.3.6.8,1.3,1.1,1.8.4.5.6.6,1.4.7,0,0,.3,0,.4,0h0s4.2,0,4.2,0c0-.3.2-1,.3-1.3h-.1c-.1.2-.2.4-.4.7-.2.4-.4.4-.8.4h-.9c-.5,0-.8,0-.8-.7v-2.2h1.2c.6,0,.7,0,.8.8h.1v-1.8h-.1c-.1.6-.2.8-.8.8h-1.2v-2.2c0-.3,0-.3.3-.3h1c.6,0,.7,0,.8.3,0,.2.2.5.3.7h.1c0-.3,0-1,0-1.3-.2,0-.5,0-1.3,0h-2.7c.7.3.8.3.8,1.1v3.9c0,.8,0,.8-.9,1ZM178.7,88.3h-.6v-2.4c0-.3,0-.4.1-.4,0,0,.2,0,.6,0,.8,0,1.4.5,1.4,1.5s-.1,1-.5,1.2c-.3.2-.5.2-1,.2Z"/>
  <path d="M190.6,85.2c.3,0,.8,0,1.1.2.5.2.7.6.8,1.2h.2c0-.4,0-.9-.1-1.4-.3,0-.9-.2-1.6-.2-2.1,0-3.6,1.2-3.6,3.2s1.1,3.2,3.4,3.2,1.3-.2,1.6-.2c.1-.2.4-1,.5-1.3h-.2c-.4.7-.8,1.3-1.9,1.3-1.7,0-2.6-1.3-2.6-3.1s.8-2.8,2.5-2.8Z"/>
  <path d="M193.5,91.2h0c0,.1,4.3.1,4.3.1,0-.3.2-1,.3-1.3h-.1c-.1.2-.2.4-.4.7-.2.4-.4.4-.8.4h-.9c-.5,0-.8,0-.8-.7v-2.2h1.2c.6,0,.7,0,.8.8h.1v-1.8h-.1c-.1.6-.2.8-.8.8h-1.2v-2.2c0-.3,0-.3.3-.3h1c.6,0,.7,0,.8.3,0,.2.2.5.3.7h.1c0-.3,0-1,0-1.3-.2,0-.5,0-1.3,0h-2.7c.7.3.8.3.8,1.1v3.9c0,.8,0,.8-.9,1Z"/>
  <path d="M200.6,88.7c0,0,.2,0,.3,0,.9,0,2-.6,2-1.9s-.2-1-.6-1.3c-.4-.3-.9-.4-1.5-.4h-2.2c.7.2.8.3.8,1v4c0,.7,0,.8-.8.9h0c0,.1,2.3.1,2.3.1h0c-.7-.2-.8-.3-.8-1v-1.7l.6.2ZM200,86c0-.4,0-.5.1-.6,0,0,.3-.1.5-.1.8,0,1.5.5,1.5,1.5s-.8,1.6-1.4,1.6-.5,0-.7,0v-2.3Z"/>
  <path d="M207,85.2c.3,0,.8,0,1.1.2.5.2.7.6.8,1.2h.2c0-.4,0-.9-.1-1.4-.3,0-.9-.2-1.6-.2-2.1,0-3.6,1.2-3.6,3.2s1.1,3.2,3.4,3.2,1.3-.2,1.6-.2c.1-.2.4-1,.5-1.3h-.2c-.4.7-.8,1.3-1.9,1.3-1.7,0-2.6-1.3-2.6-3.1s.8-2.8,2.5-2.8Z"/>
  <path d="M209.9,91.2h0c0,.1,2.3.1,2.3.1h0c-.8-.3-.8-.3-.8-1.1v-4c0-.8,0-.8.8-1h0c0-.1-2.3-.1-2.3-.1h0c.8.2.8.3.8,1.1v4c0,.7,0,.8-.8.9Z"/>
  <path d="M215.9,91.4c1.7,0,3.1-1.3,3.1-3.3s-1.4-3.1-3-3.1-3.1,1.6-3.1,3.3,1.3,3.1,3,3.1ZM215.8,85.2c1.4,0,2.3,1.2,2.3,3.2s-.9,2.8-2,2.8-2.4-1.3-2.4-3.2,1-2.8,2.1-2.8Z"/>
  <path d="M220.9,85.2h-1.3c.3.2.6.3.9.5,0,.1.1.2.1.4v2.8c0,.9,0,1.2,0,1.5,0,.6-.2.6-.9.8h0c0,.1,2.1.1,2.1.1h0c-.7-.2-.9-.4-.9-.9,0-.3,0-.6,0-1.5v-2.7l4.2,5.2h.2v-4c0-.8,0-1,0-1.2,0-.6,0-.8.7-.9h0c0-.1-2-.1-2-.1h0c.8.2.9.4.9,1,0,.3,0,.5,0,1.3v2.7l-4.1-4.9Z"/>
  <path d="M93.7,148.6c.4-.2,1-.4,1.5-.5v-.5c-.6,0-1.4.2-1.7.4-1.6.5-3.7,2.3-3.7,5s1.2,3.4,2.8,3.4,2.8-1.3,2.8-3-1-2.5-2.4-2.5-.6,0-.9.2l-.9.4c.4-1.8,1.6-2.7,2.4-3ZM92.5,151.8c1.2,0,1.7,1,1.7,2.2s-.3,2-1.3,2-1.7-1.2-1.7-2.9,0-.7,0-.9c.3-.2.7-.3,1.2-.3Z"/>
  <path d="M97.9,150.7c-.5,0-.8.4-.8.9s.4.9.8.9.9-.4.9-.9-.4-.9-.9-.9Z"/>
  <path d="M97.9,154.7c-.5,0-.8.4-.8.9s.4.9.8.9.9-.3.9-.9-.4-.9-.9-.9Z"/>
  <path d="M102.8,155.7c-.8,0-1.3-.4-1.7-.7-.1-.1-.3-.1-.4,0-.1,0-.3.3-.3.5,0,.2,0,.3.2.5.2.2.8.5,1.4.5.9,0,3.6-.9,3.6-3.1,0-1-.7-1.8-2-2.1.4-.3.7-.5,1-.7.2-.3.4-.6.4-1,0-1-.8-1.8-2-1.8s-1.4.3-1.8.8l-.6.8.3.3c.4-.5.9-1,1.7-1s1.3.4,1.3,1.2-.9,1.5-2.1,1.9v.4c.3,0,.7-.1,1-.1.8,0,1.7.5,1.7,1.7,0,1.3-.7,2-1.6,2Z"/>
  <path d="M112.5,152.1c0-2-.7-4.3-2.8-4.3s-2.8,2.4-2.8,4.3.8,4.3,2.8,4.3,2.8-2.4,2.8-4.3ZM109.7,155.9c-1.1,0-1.5-2-1.5-3.9s.3-3.8,1.5-3.8,1.5,1.9,1.5,3.8-.3,3.8-1.4,3.8Z"/>
  <path d="M116.2,159.1v.4h3.2v-.4c-1,0-1.1-.2-1.1-1.1v-1.8c.2.1.5.2.9.2,1.7-.3,3.3-1.6,3.3-3.6s-.9-2.6-2.4-2.6-.5,0-.8.3c0,0-1.1.6-1.1.6v-1c-.7.3-1.4.5-2,.6v.4c.8.1.9.2.9,1v6.1c0,.9,0,.9-1,1ZM118.4,151.6c.3-.2.8-.5,1.3-.5.9,0,1.7.8,1.7,2.3s-.7,2.4-1.8,2.4-.9-.2-1.2-.5v-3.7Z"/>
  <path d="M124.5,156.4c.5,0,.9-.4.9-.9s-.4-.9-.9-.9-.9.4-.9.9.4.9.9.9Z"/>
  <path d="M136.6,155.9c-.7,0-.8-.1-.8-1v-2.6c0-1.3-.6-2.1-1.7-2.1s-.8.2-1.1.3c-.3.2-.7.4-1,.7-.3-.7-.8-1.1-1.5-1.1s-.7.1-1.1.4c-.4.2-.7.5-1,.7v-1.1c-.6.3-1.3.4-1.9.5v.4c.7.1.8.2.8,1v2.8c0,.9,0,.9-.9,1v.4h2.9v-.4c-.7,0-.8-.1-.8-1v-3.2c.4-.3.9-.6,1.4-.6.8,0,1.1.5,1.1,1.5v2.3c0,.9-.1.9-.9,1v.4h2.9v-.4c-.7,0-.8-.1-.8-1v-2.6c0-.2,0-.4,0-.6.5-.4.9-.6,1.4-.6.8,0,1.1.5,1.1,1.5v2.2c0,.9,0,1-.8,1v.4h2.8v-.4Z"/>
  <path d="M138.5,154.6c-.5,0-.9.4-.9.9s.4.9.9.9.9-.4.9-.9-.4-.9-.9-.9Z"/>
  <path d="M91.9,171.6c-1.7,0-2.6-1.3-2.6-3.1s.8-2.8,2.5-2.8.8,0,1.1.2c.5.2.7.6.8,1.2h.2c0-.4,0-.9-.1-1.4-.3,0-.9-.2-1.6-.2-2.1,0-3.6,1.2-3.6,3.2s1.1,3.2,3.4,3.2,1.3-.2,1.6-.2c.1-.2.4-1,.5-1.3h-.2c-.4.7-.8,1.3-1.9,1.3Z"/>
  <path d="M99.2,170.3h-.1c-.1.2-.2.4-.4.7-.2.4-.4.4-.8.4h-.9c-.5,0-.8,0-.8-.7v-2.2h1.2c.6,0,.7,0,.8.8h.1v-1.8h-.1c-.1.6-.2.8-.8.8h-1.2v-2.2c0-.3,0-.3.3-.3h1c.6,0,.7,0,.8.3,0,.2.2.5.3.7h.1c0-.3,0-1,0-1.3-.2,0-.5,0-1.3,0h-2.7c.7.3.8.3.8,1.1v3.9c0,.8,0,.8-.9,1h0c0,.1,4.3.1,4.3.1,0-.3.2-1,.3-1.3Z"/>
  <path d="M105.2,171.7h4.2c0-.3.2-1,.3-1.3h-.1c-.1.2-.2.4-.4.7-.2.4-.4.4-.8.4h-.9c-.5,0-.8,0-.8-.7v-2.2h1.2c.6,0,.7,0,.8.8h.1v-1.8h-.1c-.1.6-.2.8-.8.8h-1.2v-2.2c0-.3,0-.3.3-.3h1c.6,0,.7,0,.8.3,0,.2.2.5.3.7h.1c0-.3,0-1,0-1.3-.2,0-.5,0-1.3,0h-2.7c.7.3.8.3.8,1.1v3.9c0,.8,0,.8-.9,1h0c-.3,0-.5-.1-.7-.3-.2-.2-.5-.6-.8-1.1-.3-.4-.7-1.1-.9-1.5.7-.3,1.2-.8,1.2-1.6s-.2-.9-.6-1.2c-.3-.2-.8-.3-1.5-.3h-2.3c.8.2.8.3.8,1v4.1c0,.7,0,.8-.8.9h0c0,.1,2.3.1,2.3.1h0c-.8-.2-.8-.3-.8-1v-1.8h.4c.5,0,.6,0,.8.5.3.6.8,1.3,1.1,1.8.4.5.6.6,1.4.7,0,0,.3,0,.4,0h0ZM101.7,168.6h-.6v-2.4c0-.3,0-.4.1-.4,0,0,.2,0,.6,0,.8,0,1.4.5,1.4,1.5s-.1,1-.5,1.2c-.3.2-.5.2-1,.2Z"/>
  <path d="M117.9,171.6c-.8-.1-.9-.2-.9-1.1v-3.7c0-.9,0-1,.9-1.1h0c0-.1-1.4-.1-1.4-.1l-2.4,4.9-2.2-4.9h-1.5c.8.2.9.4.9.8-.2,3.5-.2,4-.2,4.4,0,.5-.2.7-.8.8h0c0,.1,2,.1,2,.1h0c-.7-.2-.8-.4-.8-.9s0-.9.1-4.5c1.1,2.6,2.1,5.1,2.2,5.3h0c.2-.4,1.7-3.7,2.5-5.5v4.2c0,.9,0,1-.8,1.1h0c0,.1,2.3.1,2.3.1h0Z"/>
  <path d="M124.6,168.5c0-1.8-1.4-3.1-3-3.1s-3.1,1.6-3.1,3.3,1.3,3.1,3,3.1,3.1-1.3,3.1-3.3ZM121.8,171.6c-1.4,0-2.4-1.3-2.4-3.2s1-2.8,2.1-2.8,2.3,1.2,2.3,3.2-.9,2.8-2,2.8Z"/>
  <path d="M130.7,171.8h.2v-4c0-.8,0-1,0-1.2,0-.6,0-.8.7-.9h0c0-.1-2-.1-2-.1h0c.8.2.9.4.9,1,0,.3,0,.5,0,1.3v2.7l-4.1-4.9h-1.3c.3.2.6.3.9.5,0,.1.1.2.1.4v2.8c0,.9,0,1.2,0,1.5,0,.6-.2.6-.9.8h0c0,.1,2.1.1,2.1.1h0c-.7-.2-.9-.4-.9-.9,0-.3,0-.6,0-1.5v-2.7l4.2,5.2Z"/>
  <path d="M134.6,165.6h0c0-.1-2.3-.1-2.3-.1h0c.8.2.8.3.8,1.1v4c0,.7,0,.8-.8.9h0c0,.1,2.3.1,2.3.1h0c-.8-.3-.8-.3-.8-1.1v-4c0-.8,0-.8.8-1Z"/>
  <path d="M138.7,171.6h0c0,.1,2.1.1,2.1.1h0c-.6-.2-.7-.2-1-1.1-.6-1.8-1.2-3.5-1.8-5.2h-.1s-2,5.1-2,5.1c-.3.9-.5,1-1,1h0c0,.1,2,.1,2,.1h0c-.7-.3-.9-.3-.7-1,.1-.5.3-.9.5-1.5h1.9c.3.8.5,1.5.6,1.9.1.3,0,.4-.5.5ZM136.8,168.9c.3-.8.6-1.6.9-2.4l.8,2.4h-1.7Z"/>
  <path d="M223.1,325.2c-.4-9.4-7.8-17.9-17.2-19.3.6-1.6.8-3.3-.3-4.7-2.5-3.4-7.7-1.5-7.6,2.7l.5,2c-9.4,1.6-16.7,9.8-17.2,19.4-5.4,0-6,7.4-.7,8.2h43.1c5.3-.8,4.7-8.3-.7-8.2ZM203.6,302.2c1.8,1.8-.9,4.5-2.7,2.7-1.8-1.8.9-4.4,2.7-2.7ZM208.6,309c6.8,2.4,11.8,9,12.2,16.2h-37.1c1-12.3,13.2-20.4,24.9-16.2ZM223.6,331.1h-42.8c-2-.4-2.1-3.1,0-3.6h42.8c2.2.2,2.3,3.2.1,3.6Z"/>
  <path d="M176.8,318.2c3.1-1.8,1.4-7.5,1.8-10.6,0-.9-1.2-1.1-1.5-.2-.2,2.1.2,4.6,0,6.6,0,.1,0,.2-.1.3h-1.3v-6.9c0-.2-.5-.5-.7-.5-.3,0-.8.3-.8.6v6.8h-1.3v-6.8c0-.2-.4-.6-.7-.6-.2,0-.8.3-.8.4v7h-1.4v-6.9c0,0-.3-.4-.4-.4-.5-.3-1,0-1.1.6.1,2.5-.2,5.2,0,7.6.1,1.3.8,2.5,1.9,3.1.3.1.9.3,1,.4.1.1,0,.9,0,1.1-.2,4.6-.3,9.2-.3,13.8,0,.3-.1.7,0,1.1.2,3,4.4,3.1,4.7,0,0-.5,0-.9,0-1.3,0-4.5-.2-9-.3-13.5,0-.2,0-1.2,0-1.3.1,0,.8-.3,1.1-.4ZM175.5,317.2c-.5.2-1.3,0-1.4.7-.2,1.5.3,3.5,0,5l.2,7c.2,1.2,0,2.4,0,3.6,0,.7.4,2-.8,2-1.2,0-.8-1.6-.8-2.3,0-3.5,0-7,.2-10.4-.2-1.5.3-3.4,0-4.8-.1-.8-.8-.6-1.4-.7-.6-.2-1.3-.8-1.5-1.4h6.6c-.2.7-.8,1.2-1.5,1.4Z"/>
  <path d="M230.9,307.8c-4.3,3.7-2.4,11.7-2.8,16.7,0,.4.6,1.1.9,1.1h1.3c.2.7-.4.5-.7.8-.2.1-.3.4-.3.6.2,2.6-.2,5.4,0,8,.2,2.6,4.3,2.8,4.6-.2v-27.6c-.4-1.2-2.4.1-3,.6ZM232.5,334.8c0,.7-1.5,1.1-1.7,0v-7.3c.4,0,.8,0,.9-.4.1-.4.1-1.7,0-2.1-.3-.9-1.3-.9-2.1-.9v-9.8c.1-1.3.4-2.6,1-3.7.4-.8,1.1-1.7,1.9-2v26.2Z"/>
  <path d="M97.7,307h2.8c-1.1,2.3-2.5,5-3.9,7.2v.2c0,0,1.1-.1,1.1-.1,1.3-2.8,2.5-5.5,3.8-8.2v-.2h-5.3c0,.6-.1,1.2-.3,2.1h.4c.4-.9.4-1,1.3-1Z"/>
  <path d="M103.9,308.6c-.5,0-.8.4-.8.9s.4.9.8.9.9-.4.9-.9-.4-.9-.9-.9Z"/>
  <path d="M103.9,312.6c-.5,0-.8.4-.8.9s.4.9.8.9.9-.3.9-.9-.4-.9-.9-.9Z"/>
  <path d="M111.7,311.3c0-1-.7-1.8-2-2.1.4-.3.7-.5,1-.7.2-.3.4-.6.4-1,0-1-.8-1.8-2-1.8s-1.4.3-1.8.8l-.6.8.3.3c.4-.5.9-1,1.7-1s1.3.4,1.3,1.2-.9,1.5-2.1,1.9v.4c.3,0,.7-.1,1-.1.8,0,1.7.5,1.7,1.7,0,1.3-.7,2-1.6,2s-1.3-.4-1.7-.7c-.1-.1-.3-.1-.4,0-.1,0-.3.3-.3.5,0,.2,0,.3.2.5.2.2.8.5,1.4.5.9,0,3.6-.9,3.6-3.1Z"/>
  <path d="M115.7,305.7c-2.1,0-2.8,2.4-2.8,4.3s.8,4.3,2.8,4.3,2.8-2.4,2.8-4.3-.7-4.3-2.8-4.3ZM115.7,313.9c-1.1,0-1.5-2-1.5-3.9s.3-3.8,1.5-3.8,1.5,1.9,1.5,3.8-.3,3.8-1.4,3.8Z"/>
  <path d="M125.5,317.1c-1,0-1.1-.2-1.1-1.1v-1.8c.2.1.5.2.9.2,1.7-.3,3.3-1.6,3.3-3.6s-.9-2.6-2.4-2.6-.5,0-.8.3c0,0-1.1.6-1.1.6v-1c-.7.3-1.4.5-2,.6v.4c.8.1.9.2.9,1v6.1c0,.9,0,.9-1,1v.4h3.2v-.4ZM124.4,309.6c.3-.2.8-.5,1.3-.5.9,0,1.7.8,1.7,2.3s-.7,2.4-1.8,2.4-.9-.2-1.2-.5v-3.7Z"/>
  <path d="M130.5,312.6c-.5,0-.9.4-.9.9s.4.9.9.9.9-.4.9-.9-.4-.9-.9-.9Z"/>
  <path d="M136.1,313.8v.4h2.9v-.4c-.7,0-.8-.1-.8-1v-2.6c0-.2,0-.4,0-.6.5-.4.9-.6,1.4-.6.8,0,1.1.5,1.1,1.5v2.2c0,.9,0,1-.8,1v.4h2.8v-.4c-.7,0-.8-.1-.8-1v-2.6c0-1.3-.6-2.1-1.7-2.1s-.8.2-1.1.3c-.3.2-.7.4-1,.7-.3-.7-.8-1.1-1.5-1.1s-.7.1-1.1.4c-.4.2-.7.5-1,.7v-1.1c-.6.3-1.3.4-1.9.5v.4c.7.1.8.2.8,1v2.8c0,.9,0,.9-.9,1v.4h2.9v-.4c-.7,0-.8-.1-.8-1v-3.2c.4-.3.9-.6,1.4-.6.8,0,1.1.5,1.1,1.5v2.3c0,.9-.1.9-.9,1Z"/>
  <path d="M144.6,312.6c-.5,0-.9.4-.9.9s.4.9.9.9.9-.4.9-.9-.4-.9-.9-.9Z"/>
  <path d="M101,330.3c-2.2,0-3.4-1.6-3.4-4s1-3.6,3.2-3.6,1,0,1.4.2c.7.3.9.8,1.1,1.5h.2c0-.5-.1-1.2-.2-1.8-.4,0-1.1-.3-2.1-.3-2.7,0-4.6,1.6-4.6,4.1s1.4,4.1,4.4,4.1,1.7-.2,2-.3c.2-.3.5-1.3.6-1.7h-.2c-.5,1-1.1,1.7-2.4,1.7Z"/>
  <path d="M115.8,329.6c-.3.5-.5.6-1.1.6h-1.2c-.7,0-1,0-1-.8v-2.9h1.5c.8,0,.9.1,1.1,1h.2v-2.3h-.2c-.1.8-.3,1-1.1,1h-1.5v-2.8c0-.3,0-.4.4-.4h1.3c.7,0,.9,0,1.1.4.1.2.3.6.4,1h.2c0-.4,0-1.3,0-1.7-.2,0-.6,0-1.6,0h-3.4c.9.3,1,.4,1,1.4v5.1c0,1,0,1.1-1.1,1.2h0c0,.1,5.5.1,5.5.1,0-.4.3-1.3.4-1.7h-.2c-.1.3-.3.6-.5.8Z"/>
  <path d="M128.5,322.7c1,.1,1.2.3,1.2,1.1,0,.4,0,.6,0,1.6v3.5l-5.2-6.4h-1.7c.4.2.8.3,1.1.7.1.1.2.3.2.5v3.6c0,1.2,0,1.6,0,1.9,0,.7-.2.8-1.1,1h0c0,.1,2.7.1,2.7.1h0c-.9-.3-1.1-.5-1.2-1.2,0-.4,0-.8,0-1.9v-3.5l5.5,6.7h.2v-5.1c0-1.1,0-1.3,0-1.6,0-.8,0-1,1-1.2h0c0-.1-2.6-.1-2.6-.1h0Z"/>
  <path d="M143.6,329.1c-.8-2.3-1.6-4.5-2.4-6.7h-.2s-2.5,6.6-2.5,6.6c-.4,1.1-.7,1.2-1.3,1.3h0c0,.1,2.5.1,2.5.1h0c-.9-.3-1.1-.4-.8-1.2.2-.6.4-1.2.7-2h2.4c.4,1,.7,1.9.8,2.4.1.4,0,.5-.7.7h0c0,.1,2.7.1,2.7.1h0c-.8-.3-.9-.3-1.3-1.4ZM139.8,326.9c.4-1,.7-2.1,1.1-3.1l1.1,3.1h-2.2Z"/>
  <path d="M177.1,234.4l1.3-.2c1.2-2.6,2.5-5.3,3.7-7.9v-.2h-5.5c0,.6-.2,1.2-.3,2.3h.5c.4-.8.5-.9,1.3-.9h2.7c-1.1,2.1-2.4,4.4-3.8,6.6v.2Z"/>
  <path d="M184.4,230.7c.6,0,1-.4,1-1.1s-.4-1-1-1-1,.4-1,1,.4,1.1,1,1.1Z"/>
  <path d="M185.4,233.3c0-.6-.4-1-1-1s-1,.4-1,1,.4,1.1,1,1.1,1-.4,1-1.1Z"/>
  <path d="M189.7,226c-2.2,0-2.9,2.3-2.9,4.2s.7,4.2,2.9,4.2,2.9-2.3,2.9-4.2-.7-4.2-2.9-4.2ZM189.8,233.8c-.9,0-1.1-1.9-1.1-3.7s.2-3.6,1.1-3.6,1.1,1.8,1.1,3.6-.2,3.7-1.1,3.7Z"/>
  <path d="M199.2,230.2c0-1.9-.7-4.2-2.9-4.2s-2.9,2.3-2.9,4.2.7,4.2,2.9,4.2,2.9-2.3,2.9-4.2ZM195.2,230.1c0-1.7.2-3.6,1.1-3.6s1.1,1.8,1.1,3.6-.2,3.7-1.1,3.7-1.1-1.9-1.1-3.7Z"/>
  <path d="M205.9,234.4c1.7-.4,3.2-1.6,3.2-3.5s-.8-2.5-2.2-2.5-.5,0-.8.3c0,0-.9.5-.9.5v-.9c-.8.2-1.7.5-2.4.6v.4c.6,0,.7.2.7.9v5.8c0,.7,0,.8-.8.9v.4h3.5v-.4c-.9-.1-1-.2-1-.9v-1.6c.2,0,.5.1.8.1ZM205.1,229.6c.2-.2.5-.3.8-.3.6,0,1.4.6,1.4,2.2s-.5,2.2-1.2,2.2-.8-.2-1.1-.5v-3.7Z"/>
  <path d="M211.1,234.4c.6,0,1.1-.5,1.1-1.1s-.5-1.1-1.1-1.1-1,.5-1,1.1.4,1.1,1,1.1Z"/>
  <path d="M220.8,230.6v2.2c0,.8,0,.8-.6.9v.4h3v-.4c-.6-.1-.7-.2-.7-.9v-2.5c0-1.3-.6-2.1-1.7-2.1s-.8.2-1,.3c-.3.2-.6.4-.9.6-.2-.6-.7-1-1.4-1s-.7.2-1.1.4c-.3.2-.5.3-.8.5v-1c-.8.2-1.6.4-2.3.5v.4c.6,0,.6.2.6.9v2.7c0,.8,0,.8-.8.9v.4h3v-.4c-.5,0-.6-.1-.6-.9v-3.2c.4-.3.7-.4,1-.4.5,0,.8.3.8,1.2v2.4c0,.8,0,.8-.6.9v.4h2.9v-.4c-.6,0-.6-.1-.6-.9v-2.6c0-.2,0-.4,0-.5.4-.3.7-.4,1-.4.4,0,.9.2.9,1.3Z"/>
  <path d="M226.4,233.3c0-.6-.5-1.1-1.1-1.1s-1,.5-1,1.1.4,1.1,1,1.1,1.1-.5,1.1-1.1Z"/>
  <path d="M182.8,249.1c.7-.4,1.2-1.1,1.2-2,0-1.3-1-1.9-2.3-2.1.8-.2,1.8-.7,1.8-1.9s-.3-1.1-.7-1.4c-.4-.3-.9-.5-1.9-.5h-3.2v.2c1,.2,1.1.3,1.1,1.3v5.5c0,1,0,1.1-1.1,1.3v.2h2.9c.8,0,1.5-.1,2.1-.5ZM179.8,242.2c0-.5,0-.6.3-.7.1,0,.4,0,.6,0,1.3,0,1.7.9,1.7,1.8s-.4,1.7-1.9,1.7h-.7v-2.7ZM179.8,248.1v-3h.8c1.6,0,2.4.8,2.4,2.1s-.8,2-1.9,2-1.2-.2-1.2-1.2Z"/>
  <path d="M187.6,245.7c.7,0,.8,0,1.1.6.5.8,1.1,1.8,1.5,2.4.5.7.8.8,1.9.9,0,0,.4,0,.5,0v-.2c-.5,0-.7-.2-1-.5-.3-.3-.6-.8-1.1-1.5-.4-.6-1-1.6-1.2-2,.9-.4,1.7-1.2,1.7-2.2s-.3-1.3-.8-1.6c-.5-.3-1.2-.5-2-.5h-3.1v.2c1,.2,1.1.3,1.1,1.3v5.6c0,1-.1,1.1-1.1,1.3v.2h3.2v-.2c-1-.1-1.1-.3-1.1-1.3v-2.5h.5ZM187.1,242.1c0-.4,0-.5.2-.6.1,0,.3-.1.8-.1,1.1,0,1.9.6,1.9,2s-.2,1.3-.7,1.7c-.4.3-.7.3-1.4.3h-.8v-3.3Z"/>
  <path d="M196,241.3v-.2h-3.2v.2c1,.2,1.1.2,1.1,1.3v5.5c0,1-.1,1.1-1.1,1.3v.2h3.2v-.2c-1-.2-1.1-.3-1.1-1.3v-5.5c0-1.1,0-1.2,1.1-1.3Z"/>
  <path d="M204.4,249.7h.2v-5.5c0-1.1,0-1.4,0-1.7,0-.9.1-1,1-1.2v-.2h-2.8v.2c1.1.1,1.2.4,1.3,1.2,0,.4,0,.6,0,1.7v3.7l-5.6-6.8h-1.8v.2c.5,0,.9.2,1.2.6.1.2.2.3.2.5v3.8c0,1.2,0,1.7,0,2,0,.8-.2.9-1.2,1.1v.2h2.9v-.2c-1-.2-1.2-.3-1.2-1.1,0-.4,0-.8,0-2.1v-3.7l5.8,7.2Z"/>
  <path d="M213.2,248.5c.9-.7,1.6-1.9,1.6-3.5s-.4-2.1-1.1-2.8c-.8-.7-1.9-1.1-3.6-1.1h-3.5v.2c1,.1,1.1.3,1.1,1.3v5.5c0,1,0,1.1-1.1,1.3v.2h3.3c1.3,0,2.3-.3,3.3-1ZM208.7,247.9v-5.7c0-.5,0-.6.2-.7.2,0,.6-.1,1-.1.8,0,1.5.1,2.1.4,1.2.6,1.8,1.9,1.8,3.4,0,2.2-1,3.9-3.4,3.9s-1.6-.1-1.6-1.3Z"/>
  <path d="M219.1,241.3v-.2h-3.2v.2c1,.2,1.1.2,1.1,1.3v5.5c0,1-.1,1.1-1.1,1.3v.2h3.2v-.2c-1-.2-1.1-.3-1.1-1.3v-5.5c0-1.1,0-1.2,1.1-1.3Z"/>
  <path d="M222.2,249.8c1.5,0,2.7-1,2.7-2.4s-1.1-2-2.1-2.6c-1-.6-1.6-1-1.6-2s.4-1.5,1.4-1.5,1.6.7,1.8,1.6h.2c0-.6-.2-1.3-.2-1.7-.3,0-.8-.2-1.6-.2-1.5,0-2.5.9-2.5,2.2s1.1,1.9,2,2.5c.9.6,1.6,1.1,1.6,2.1s-.5,1.7-1.6,1.7-1.9-1.1-2.1-1.9h-.2c0,.3.2,1.4.3,1.8.4.2,1.1.4,1.8.4Z"/>
  <path d="M118.9,265c-1.5-.4-3-.3-4.2-1.5-1.5-1.6-.9-3.5-.9-5.5,0-2.4.2-8.6,1.6-10.5.5-.7,1.3-1.3,1.9-2.2,3.6-5.3,4.6-12.7,5.1-19l1.2,5.4c1.1,3.9,2.6,7.8,5.4,10.9.6.7.9.6,1.3,1.6,1,2.6,1.7,9.4,1.8,12.3,0,1.2-.8,2.6-1.7,3.3-1.1.7-2.3.7-3.4,1.1-.1,0-.4,0-.3.2l14.3-2.1c0-.2,0-.2-.2-.2-.6,0-1.6.2-2.2.2-2.2,0-3.6-1.2-4.2-3.3-.8-2.8-2.2-9.3-1.9-12,0-.9.8-1.8,1.2-2.7,2.2-5.3,1.7-12.9.7-18.4-.4-2.2-1-4.4-1.6-6.6l-8.5,1.3c0,7.2,1.3,14.5,4,21.2l2.1,4.1c-1.1-1.1-2.1-2.5-2.8-3.9-2.6-4.8-4-11.2-4.4-16.6-.1-1.5,0-3-.2-4.5l-1.1.3.2,3.9h-.7c.1,4.9-.3,9.9-1.5,14.7-.9,3.6-2.4,7.5-4.9,10.4l1.5-3.1c2.9-7,3.8-14.7,3.7-22.3l-8.6-.9c-1.5,6-2.4,12.3-1.6,18.5.3,2.4.9,4.9,1.9,7.1.2.4.6.8.7,1.2.7,1.5,0,5.7-.2,7.5-.3,1.7-.8,6.1-1.8,7.3-1.3,1.5-2.9,1.4-4.7,1.3-.2,0-.8,0-.9.1l14.3,1.6c0-.2-.2-.2-.3-.2ZM132.6,236.8c.6-.1.9.6.5,1-.8.7-1.4-.8-.5-1ZM114.8,243.2c.4.4.1,1.2-.6,1-1-.3,0-1.6.6-1Z"/>
  <path d="M119,210.4c-1.7.3-1.7,3.2.3,3.4,2.5.1,2.5-3.9-.3-3.4ZM119.7,213.5c-1.5.2-1.6-1.8-.3-1.9,1.2-.1,1.5,1.8.3,1.9Z"/>
  <path d="M116.1,211.3c1.3-1.3-.9-3.2-2-1.8-1.1,1.3.8,3.1,2,1.8ZM114.3,211.2c-.8-.8.4-1.8,1.1-1.1.7.6-.3,1.9-1.1,1.1Z"/>
  <path d="M120.9,205.6c-1.5.1-1.6,2.5-.1,2.7,2.2.2,2-2.8.1-2.7ZM120.5,206.5c1.1-.2,1.3,1.3.4,1.5-1.1.2-1.3-1.3-.4-1.5Z"/>
  <path d="M114.9,214.2c-1.4.4-1.1,2.9.8,2.5,1.6-.3,1.2-3-.8-2.5ZM116,216.4c-.6.7-1.8-.2-1.2-1,.7-.8,1.8.3,1.2,1Z"/>
  <path d="M123.9,209.8c-1.6.3-1.2,2.9.6,2.5,1.5-.3,1.2-2.8-.6-2.5ZM124.2,212.2c-.7,0-1.1-1.3-.2-1.5,1.2-.2,1.2,1.4.2,1.5Z"/>
  <path d="M122.1,215.3c-.8-.9-2.2.5-1.3,1.3.8.7,2-.4,1.3-1.3ZM121.2,215.7c.9-.3,1.1,1,.2.9-.6,0-.5-.8-.2-.9Z"/>
  <path d="M119.7,219.2c.2.2,0,.6.2.6.7-1.6-1.8-1.9-1.7-.4,0,.8.9,1.1,1.4.6-1.6.2-.7-1.7,0-.8Z"/>
  <path d="M123.6,214.2h.9c.1-.1.2-.4,0-.7-.5-.4-1.1,0-.9.7Z"/>
  <path d="M115.8,219.1c.3-.2.2-.5,0-.8-.6-.4-1.3.3-.7.8-.1-.8.6-.6.6,0Z"/>
</svg>