<?xml version="1.0" encoding="UTF-8"?>
<svg id="Capa_1" xmlns="http://www.w3.org/2000/svg" version="1.1" viewBox="0 0 204 198">
  <!-- Generator: Adobe Illustrator 29.5.1, SVG Export Plug-In . SVG Version: 2.1.0 Build 141)  -->
  <g>
    <path d="M97.7,25.8c-1.2,4.7-2.6,9.7-5.3,13.8s-5.3,7.1-8,3.8-1.5-12.8-.4-16.7c.1-.4.2-.7.5-.9h13.1ZM85.2,41.5c-.9-2.4-.6-4.8-.7-7.2s.2-.9-.2-.8c-.5,2.6-1,5.9.9,8Z"/>
    <path d="M102.2,29.4h13.4c.8,1.5,1.4,3.5,1.7,5.2.6,3.1,1.5,8.6-.4,11.3s-7.6-2.3-9.2-4.5c-2.4-3.5-4.4-7.8-5.5-11.9ZM112.9,44.8c-1.9-1.7-3.4-3.7-5-5.7.7,2.3,2.6,4.9,5,5.7Z"/>
    <path d="M98.2,16.6c.6-.2.7.9.7,1.3.6,6.5-2.6,18.4-6.3,23.8-2.2,3.2-5.5,4.4-7.1,8s-1.3,3.6-1.8,5.3c-1.2,3.6-3.4,10.1-3.9,13.6-.1.8-.2,2,.3,2.7s2.7,1.3,3.5,1.9.1.4.1.7l-11.1-2.8c.1-1.3,1.5-.5,2.3-.5,1.4,0,2.6.3,3.4-1.1,1.5-6.2,4.3-13.2,5.2-19.4s-.4-4.5-1.2-7.6c-1.8-6.6.5-15.9,3.2-22.1s1.1-2.5,1.7-3.3.5-.7.4,0c-2.9,5.4-5.1,12.1-5.5,18.2-.2,3.1.2,12.1,5.3,10.5s9.2-13,10.3-17.9c.8-3.5,1.5-7.6.6-11.1Z"/>
    <path d="M100.6,20.4c-.3.6-.3,1.3-.2,2,.5,7.4,5,19.3,10.8,24s4.7,3.1,6.5.3c2.2-3.4.7-10.5-.3-14.3s-2.8-7.6-4.9-11c0-.9.9.7.9.8,3.1,5.3,6.4,14.4,6,20.5-.1,1.8-1,3.5-1.2,5-.5,3.8,4.1,15.1,5.7,19.1s1.2,3.6,1.9,4.3c1.5,1.8,3.5,0,5.2.3s.7.3.2.7l-10.6,3.9c0-.3,0-.5.2-.7.5-.6,2.2-1.2,2.9-1.8,1.3-1.1.7-2.4.3-3.8-1.2-3.8-6.1-16.5-8.3-19.2s-4.5-3.1-6.4-5.2c-4.5-5-9.4-17.7-9-24.4,0-.5-.2-.7.5-.6Z"/>
    <path d="M100.3,5l-.7.9.7,1.3c-1.1-.4-1.2-.2-1.8.7-.5-.8-.7-1.1-1.8-.9.6-.8.6-1.1,0-1.9h1.4s.4-.9.4-.9c.5.8.7,1.1,1.8.9Z"/>
    <path d="M83.3,10.9c.3.2,1,0,1.4,0-.8,1-.8,1.1-.2,2.1-.3,0-.7-.2-1-.1-.5.2-.6,2-1.2,0h-1.2c.6-.8.6-1.2,0-1.9,1.2,0,1.4.2,1.8-1,.2,0,.2.8.4.9Z"/>
    <path d="M114.3,11.9c-.3.7.7.9.7,1.1s-.7.6-.2,1.3c-.9-.3-1,0-1.7.5v-.9s-.9,0-.9,0c.5-.6.7-.8.5-1.7.8.5.9-.1,1.7-.2Z"/>
    <path d="M100.6,14.1c0,.1.4,0,.4.2,0,.2-.3.4-.3.6s0,.4,0,.5c0,0-.8-.3-1.2.2.3-.6-.5-.8-.5-.9,0-1.4.7-.7,1.4-1.3,0,.2,0,.4,0,.6Z"/>
    <path d="M102.7,11.6c-.7,0-2-.6-1.1-1.4s1.4.4,1.1,1.4Z"/>
  </g>
  <g>
    <path d="M30.8,120.4c-2.4,0-3.6-.8-3.6-2.4s.2-1.3.6-1.7c.5-.5,1-.8,1.6-.8s.7.1.7.4,0,.3-.2.3-.2,0-.4-.1c-.1,0-.2,0-.4,0-.4,0-.7.2-1,.6-.3.3-.4.7-.4,1.1,0,.7.4,1.2,1.1,1.6.7.3,1.4.5,2.1.5,2.6,0,5.1-1,7.2-3.1.9-.8,1.7-1.8,2.5-2.9.8-1.2,1.7-2.5,2.5-4.1,0,0,.3-.7.9-1.9.6-1.2,1.5-3,2.6-5.4,2.9-5.9,6.1-10.1,9.8-12.6-2.1-.8-4.7-1.2-7.8-1.2s-3.5.1-5,.4c-1.6.3-3.1.7-4.5,1.3-3.3,1.3-5.8,3.3-7.4,6-1,1.7-1.5,3.3-1.5,5s.5,3.2,1.6,4.4c1.1,1.2,2.5,1.8,4.3,1.8s3.7-.7,5.2-2.1c1.5-1.4,2.3-3.1,2.3-5s-.4-2.4-1.1-3.3c-.8-.9-1.8-1.3-3.1-1.3s-1.9.3-2.7.9c-.8.7-1.2,1.5-1.2,2.6s.4,1.2,1.3,1.2.1,0,.2-.2c.1-.1.2-.2.3-.2,0,0,.1,0,.1.2,0,.3-.2.5-.6.5-1.2,0-1.7-.5-1.7-1.6s.5-2.1,1.5-2.9c1-.8,2-1.2,3.1-1.2s2.7.5,3.6,1.4c1,1,1.4,2.2,1.4,3.6,0,2.3-.9,4.2-2.7,5.7-1.7,1.4-3.7,2.2-6,2.2s-3.9-.6-5.3-1.9c-1.5-1.4-2.2-3.1-2.2-5.1s.4-2.8,1.1-4.2c1.6-3.1,4.3-5.4,8.3-7,3.3-1.3,7-1.9,11.1-1.9s5.9.4,8.3,1.2c2.3-1.4,4.4-2.1,6.3-2.1s.4,0,.4.1c0,.1,0,.2-.2.2s-.3,0-.6,0-.5,0-.8,0c-1.6.2-3.1.9-4.5,2,3.7,1.4,5.5,3.4,5.5,6.1s-1.3,4.6-3.9,6.2c-2.1,1.3-4.5,2.1-7.3,2.4.4,1,.7,2.4.9,4.1.1.9.2,1.8.3,2.8,0,.9.2,1.8.3,2.8.4,2.7,1,4.2,2,4.6.4.2.9.3,1.2.3,1.5,0,3.1-1,4.9-3,1.5-1.8,2.5-3.6,2.9-5.2h.1c0,0,.3,0,.3,0h0c-.7,2.1-1.8,4-3.4,5.9-2,2.2-3.8,3.3-5.6,3.3s-1.5-.2-2.1-.7c-1.2-.8-2-2.2-2.4-4.1-.1-.6-.2-1.3-.3-2.2,0-.9-.1-2-.2-3.2,0-2.4-.1-4-.4-5h-1c-.2,0-.5,0-.7,0-.2,0-.4,0-.6,0-1.8,4.5-3.7,7.8-5.4,10-2.6,3.1-5.7,5.1-9.5,5.9-1.2.3-2.2.4-3,.4ZM50.1,103.6h.8c-.3-.8-.7-1.4-1.2-1.7-.1.2-.2.4-.3.7-.1.3-.2.6-.4,1,.2,0,.4,0,.5,0,.2,0,.4,0,.5,0ZM52.4,103.5c2.4-.4,4.4-1.2,6.2-2.5,2.1-1.5,3.1-3.4,3.1-5.6s-1.4-4.2-4.1-5.4c-1.3,1.1-2.6,2.6-3.8,4.5-1.2,1.9-2.5,4.1-3.7,6.8,1.1.4,1.8,1.1,2.4,2.2Z"/>
    <path d="M68.6,119.3c-1.7,0-2.8-.5-3.5-1.4-.7-.9-1-2.3-1-4,0-2.5,1-5,3.1-7.7,2.2-2.8,4.5-4.2,6.8-4.2s2.6.6,2.6,1.8-.8,3-2.4,4.6c-2.3,2.3-4.7,3.5-7.2,3.5-.4,1.1-.6,2.1-.6,3.2s.2,2.1.7,2.7c.4.7,1.1,1,2,1s1.8-.2,2.8-.7,1.8-1.1,2.5-1.8c.6-.6,1.2-1.4,2-2.4s1.5-2.3,2.2-3.7c.1-.2.2-.3.3-.3.2,0,.2.2,0,.5-.6,1.2-1.2,2.3-1.9,3.3-.7,1.1-1.6,2.1-2.6,3.1-.7.7-1.5,1.2-2.5,1.7s-2.1.7-3.2.7ZM67.1,111.5c1.9,0,4-1,6.3-3h0c.7-.6,1.3-1.4,1.8-2.3.7-1.1,1-2,1-2.7s-.4-.8-1.2-.8c-1.3,0-2.9,1.2-4.7,3.5-.9,1-1.5,2-2.1,2.9-.5.9-.9,1.7-1.2,2.5Z"/>
    <path d="M81.8,119.3c-1.3,0-2.4-.4-3.3-1.1-.9-.8-1.3-1.9-1.3-3.5s.3-2.7.8-4.1c.5-1.4,1.3-2.8,2.3-4.2,2.2-2.9,4.5-4.4,6.9-4.4s3.3,1,3.3,3-.2,1.6-.7,2.5c-.6,1-1.2,1.5-1.9,1.5s-.8-.2-.8-.6.5-1,1.4-1.6c.9-.7,1.4-1.5,1.4-2.3s-.6-1.7-1.8-1.7-2.7.9-4.2,2.8c-1.1,1.4-2,2.8-2.8,4.4-.3.7-.7,1.6-1,2.7-.3,1.1-.5,2.2-.5,3.2s.2,1.6.6,2.2c.4.6,1,.9,2,.9s1.8-.2,2.8-.7c1-.5,1.8-1.1,2.5-1.8.6-.6,1.2-1.4,2-2.4.7-1,1.5-2.3,2.2-3.7.1-.2.2-.3.3-.3.2,0,.2.2,0,.5-.6,1.2-1.2,2.3-1.9,3.3-.7,1.1-1.5,2.1-2.6,3.1-.7.7-1.5,1.2-2.5,1.7-1,.5-2.1.7-3.2.7Z"/>
    <path d="M95.1,119.3c-1.7,0-2.8-.5-3.5-1.4-.7-.9-1-2.3-1-4,0-2.5,1-5,3.1-7.7,2.2-2.8,4.5-4.2,6.8-4.2s2.6.6,2.6,1.8-.8,3-2.4,4.6c-2.3,2.3-4.7,3.5-7.2,3.5-.4,1.1-.6,2.1-.6,3.2s.2,2.1.7,2.7c.4.7,1.1,1,2,1s1.8-.2,2.8-.7,1.8-1.1,2.5-1.8c.6-.6,1.2-1.4,2-2.4s1.5-2.3,2.2-3.7c.1-.2.2-.3.3-.3.2,0,.2.2,0,.5-.6,1.2-1.2,2.3-1.9,3.3-.7,1.1-1.6,2.1-2.6,3.1-.7.7-1.5,1.2-2.5,1.7s-2.1.7-3.2.7ZM93.6,111.5c1.9,0,4-1,6.3-3h0c.7-.6,1.3-1.4,1.8-2.3.7-1.1,1-2,1-2.7s-.4-.8-1.2-.8c-1.3,0-2.9,1.2-4.7,3.5-.9,1-1.5,2-2.1,2.9-.5.9-.9,1.7-1.2,2.5Z"/>
    <path d="M90,132c-.8,0-1.5-.3-2.2-.8-.7-.5-1.1-1.2-1.3-2h0c0-.1.3-.2.3-.2h.1c.4,1.6,1.2,2.4,2.3,2.4s3-1.1,5-3.3c1.5-1.6,2.8-3.3,3.9-5.1.7-1.1,1.4-2.4,2.2-4,.8-1.6,1.7-3.4,2.8-5.5,1.1-2.2,2-4,2.8-5.6s1.5-2.9,2.1-3.9c.4-.7.8-1.4,1.3-2s1.1-1.3,1.7-2c1.6-1.8,3-2.7,4-2.7s1,.3,1,.9-.3,1-1,1.1h-.8c-1,.2-1.9.6-2.7,1.2-.5.4-1,1-1.7,1.8-.6.8-1.3,1.8-2.1,3.1-1.4,2.2-2.5,4.5-3.2,6.9,3.5-6.6,6.7-9.9,9.5-9.9s3.1,1.3,3.1,3.9-1.1,5.7-3.4,8.3c-1.2,1.3-2.4,2.3-3.6,3-1.2.7-2.6,1.1-4,1.2.7.1,1.3.2,2,.2,1.3,0,2.5-.2,3.6-.6,1.1-.4,2.2-1,3.1-1.8,1-.8,1.9-1.7,2.7-2.9.8-1.1,1.6-2.3,2.2-3.6.1-.2.2-.3.3-.3.2,0,.2.2,0,.5-.5,1-1.1,2-1.7,2.9-.6.9-1.2,1.7-1.9,2.4-.8.8-1.9,1.7-3.4,2.5-1.4.9-3.2,1.3-5.2,1.3s-1.2,0-1.9-.2c-.7-.1-1.2-.4-1.6-.7-.3-.3-.5-.6-.6-1,0-.4-.1-.9-.2-1.5-.2.7-.4,1.4-.7,2.2-.3.8-.7,1.8-1.1,2.7-.4,1.1-.9,2.1-1.2,2.9-.4.8-.7,1.4-1,1.8-3,4.2-6.2,6.4-9.7,6.4ZM105.6,118.6c1.2,0,2.6-1,4.3-3,1.3-1.5,2.4-3,3.1-4.5,1.4-2.7,2.1-5,2.1-6.9s-.4-1.5-1.2-1.5c-1.9,0-4.1,1.8-6.4,5.4-1.1,1.7-1.9,3.2-2.4,4.5s-.8,2.5-.8,3.6c0,1.5.5,2.3,1.4,2.3Z"/>
    <path d="M123.2,119.3c-1.3,0-2.4-.4-3.3-1.1-.9-.8-1.3-1.9-1.3-3.5s.3-2.7.8-4.1c.5-1.4,1.3-2.8,2.3-4.2,2.2-2.9,4.5-4.4,6.9-4.4s3.3,1,3.3,3-.2,1.6-.7,2.5c-.6,1-1.2,1.5-1.9,1.5s-.8-.2-.8-.6.5-1,1.4-1.6c.9-.7,1.4-1.5,1.4-2.3s-.6-1.7-1.8-1.7-2.7.9-4.2,2.8c-1.1,1.4-2,2.8-2.8,4.4-.3.7-.7,1.6-1,2.7-.3,1.1-.5,2.2-.5,3.2s.2,1.6.6,2.2c.4.6,1,.9,2,.9s1.8-.2,2.8-.7c1-.5,1.8-1.1,2.5-1.8.6-.6,1.2-1.4,2-2.4.7-1,1.5-2.3,2.2-3.7.1-.2.2-.3.3-.3.2,0,.2.2,0,.5-.6,1.2-1.2,2.3-1.9,3.3-.7,1.1-1.5,2.1-2.6,3.1-.7.7-1.5,1.2-2.5,1.7-1,.5-2.1.7-3.2.7Z"/>
    <path d="M135,119.3c-2.3,0-3.4-1.2-3.4-3.8s.5-3.7,1.6-5.8l3.9-7.6h.2c.1.1.3.2.6.2.7,0,1.5-.4,2.6-1.2h.1c0,.1-4.4,8.6-4.4,8.6-1.8,3.5-2.7,5.9-2.7,7.3s.2,1,.5,1.3c.3.2.7.4,1.2.4s.9-.1,1.4-.3c.5-.2.9-.4,1.2-.7.9-.7,1.7-1.5,2.3-2.5.6-.9,1.2-1.9,1.7-2.9.5-1,.9-1.8,1.3-2.4.1-.2.2-.2.3-.2.1,0,.1.2,0,.3-.7,1.4-1.4,2.9-2.3,4.4-.8,1.5-1.9,2.7-3.1,3.6-.4.3-.9.6-1.4.8s-1,.3-1.6.3ZM141,99.3c-1.1,0-1.6-.5-1.6-1.6s.5-1.7,1.6-1.7,1.6.5,1.6,1.6-.5,1.7-1.6,1.7Z"/>
    <path d="M147,119.2c-1.5,0-2.7-.7-3.4-2-.7-1.1-1.1-2.4-1.1-4,0-2.7.9-5.2,2.6-7.6,1.9-2.5,4.1-3.8,6.8-3.8s2.4.5,3.1,1.4c.7.9,1,2,1,3.4s0,1.3-.2,1.9c-.1.7-.3,1.3-.5,2.1-.5,1.5-1.1,2.7-1.9,3.5v.2c.4.2.9.4,1.3.4,1,0,1.8-.3,2.5-1,.7-.7,1.5-1.8,2.3-3.5,0-.1.1-.2.2-.2s.1,0,.2.1c0,0,0,.2,0,.3-.7,1.5-1.5,2.7-2.3,3.4-.8.8-1.7,1.2-2.8,1.2s-1.2-.2-1.6-.6c-.3.6-.7,1.2-1.1,1.7-.4.5-.9,1-1.4,1.4-1.2,1-2.4,1.5-3.6,1.5ZM147.3,118.8c1.8,0,3.6-1.4,5.3-4.2,0-.1,0-.2.2-.3-.6-1-.9-2-.9-2.9v-.2c0-.1,0-.3,0-.5,0-.4.1-.8.2-1.2.1-.4.3-.8.5-1.1.5-.8,1.1-1.2,1.8-1.2h.5c.1,0,.2,0,.3,0h.2c0-3.1-1-4.6-2.9-4.6s-3.2,1-4.7,3c-1.2,1.6-2.1,3.3-2.6,5.3-.3,1.1-.5,2.2-.5,3.3,0,3,.8,4.6,2.5,4.6ZM148,98.8c0,0,.2-.2.6-.5.4-.3.8-.6,1.3-1,.5-.3.8-.6,1.1-.8.7-.5,1.4-1,2.2-1.5.8-.5,1.2-.8,1.4-.8s.4.1.6.4c.2.3.2.5,0,.6-.2.1-.7.4-1.5.8s-1.6.8-2.6,1.3-1.8.9-2.7,1.3c-.3.2-.5.2-.5.1Z"/>
    <path d="M155.1,120.5h0c1.2-2.8,2.8-6.5,4.8-11.2.3-.8.7-1.8,1.1-2.9.4-1.2.9-2.5,1.5-4.1h.1c.3.3.6.4.9.4.9,0,1.7-.7,2.4-2.2h0c0,.1-.8,2-2.3,5.5-.8,2-1.4,3.4-1.8,4.5-.4,1-.7,1.6-.7,1.7,3.9-7,7-10.5,9.3-10.5s1,.2,1.4.5c.4.3.6.8.6,1.3,0,1.4-1,3.8-2.9,7.1-2,3.3-2.9,5.5-2.9,6.7s.2.8.5,1c.3.2.8.4,1.2.4s1-.1,1.5-.3.9-.4,1.3-.7c.9-.7,1.7-1.6,2.4-2.5.7-1,1.2-1.9,1.7-2.9.5-1,.9-1.8,1.3-2.4.1-.2.2-.2.3-.2s.1.2,0,.3c-.7,1.4-1.4,2.9-2.3,4.4-.8,1.5-1.9,2.7-3.1,3.6-.4.3-.9.6-1.5.8s-1.1.3-1.7.3c-1,0-1.7-.3-2.3-.8-.6-.5-.9-1.3-.9-2.4,0-1.8.9-4.2,2.6-7,1.7-2.9,2.6-4.7,2.6-5.4s-.3-.9-1-.9h-.3c-.8,0-1.8.9-3.1,2.6-1.3,1.7-2.9,4.3-4.7,7.6-.4.8-.9,1.6-1.4,2.6s-.9,2.1-1.5,3.3h-.1c-.4-.2-.8-.3-1.1-.3-.4,0-.8.3-1.1.8-.3.6-.5.9-.8,1Z"/>
  </g>
  <g>
    <path d="M61.7,156.8c-.3,1.1-.9,2.8-1.3,3.5-.7.1-2.5.6-4.2.6-5.5,0-8.3-3.6-8.3-7.7s3.6-7.9,8.7-7.9,3.6.4,4.3.5c0,1,.3,2.4.4,3.6l-.7.2c-.5-1.5-1-2.5-2.2-3-.6-.3-1.5-.4-2.4-.4-3.8,0-5.8,2.8-5.8,6.6s2.3,7.3,6,7.3,3.5-1.1,4.7-3.4l.7.2Z"/>
    <path d="M71,160.7c-.3,0-.8-.2-1.1-.4-.3-.3-.4-.6-.6-1-.9.6-2,1.5-2.8,1.5-1.6,0-2.8-1.4-2.8-2.8s.6-1.9,1.9-2.3c1.4-.5,3.1-1.1,3.6-1.5v-.5c0-1.6-.8-2.6-2-2.6s-.8.3-1.1.5c-.3.3-.4.8-.6,1.5-.1.4-.3.5-.7.5s-1-.5-1-1,.3-.6.8-.9c.7-.5,2-1.3,3.3-1.6.7,0,1.4.2,1.9.6.8.7,1.2,1.5,1.2,2.7v4.4c0,1.1.4,1.4.8,1.4s.6-.1.8-.3l.2.6-2,1.1ZM69.3,154.9c-.5.3-1.6.7-2.1,1-.9.4-1.4.8-1.4,1.7,0,1.2.9,1.8,1.7,1.8s1.4-.4,1.9-.8v-3.6Z"/>
    <path d="M79.7,153.1c-.4-1.3-1-2.2-2.4-2.2s-1.4.6-1.4,1.5.7,1.4,2,2c2,.9,3,1.6,3,3.1s-1.9,3.2-3.7,3.2-2.2-.4-2.7-.6c-.1-.7-.3-1.9-.4-2.7h.7c.4,1.4,1.2,2.5,2.8,2.5s1.6-.6,1.6-1.6-.6-1.6-1.8-2.2c-1.6-.8-2.9-1.5-2.9-3.2s1.4-3,3.6-3,1.7.2,2.2.3c0,.6.2,2,.3,2.5l-.7.2Z"/>
    <path d="M89.8,160.7c-.3,0-.8-.2-1.1-.4-.3-.3-.4-.6-.6-1-.9.6-2,1.5-2.8,1.5-1.6,0-2.8-1.4-2.8-2.8s.6-1.9,1.9-2.3c1.4-.5,3.1-1.1,3.6-1.5v-.5c0-1.6-.8-2.6-2-2.6s-.8.3-1.1.5c-.3.3-.4.8-.6,1.5-.1.4-.3.5-.7.5s-1-.5-1-1,.3-.6.8-.9c.7-.5,2-1.3,3.3-1.6.7,0,1.4.2,1.9.6.8.7,1.2,1.5,1.2,2.7v4.4c0,1.1.4,1.4.8,1.4s.6-.1.8-.3l.2.6-2,1.1ZM88.1,154.9c-.5.3-1.6.7-2.1,1-.9.4-1.4.8-1.4,1.7,0,1.2.9,1.8,1.7,1.8s1.4-.4,1.9-.8v-3.6Z"/>
    <path d="M109.8,156.7c-.1.7-.8,3.1-1.1,3.8h-10.7v-.6c2.1-.2,2.3-.3,2.3-2.3v-9.1c0-2-.2-2.1-2.1-2.2v-.6h6.2v.6c-1.8.2-2.1.3-2.1,2.2v9.3c0,1.4.2,1.7,1.5,1.7,0,0,1.7,0,1.8,0,1.2,0,1.5-.1,2-.7.6-.6,1.1-1.5,1.4-2.4l.7.2Z"/>
    <path d="M111,160.5v-.6c1.4-.1,1.6-.3,1.6-1.8v-4.7c0-1.4,0-1.5-1.4-1.7v-.6c1.2-.2,2.3-.5,3.3-.9v7.9c0,1.6.2,1.7,1.7,1.8v.6h-5.1ZM113.4,147.8c-.6,0-1.2-.6-1.2-1.2s.6-1.3,1.2-1.3,1.2.5,1.2,1.3-.5,1.2-1.2,1.2Z"/>
    <path d="M123.9,160.5v-.6c1.3-.1,1.5-.3,1.5-1.9v-3.8c0-1.6-.6-2.7-2.1-2.7s-1.8.6-2.5,1.2v5.4c0,1.6.1,1.6,1.5,1.8v.6h-5v-.6c1.5-.2,1.7-.3,1.7-1.8v-4.7c0-1.5-.2-1.6-1.4-1.8v-.6c1.1-.2,2.2-.5,3.2-.9v1.8c.5-.3,1-.7,1.6-1.1.6-.4,1.2-.7,1.9-.7,1.8,0,3,1.4,3,3.6v4.4c0,1.6.1,1.6,1.5,1.8v.6h-4.8Z"/>
    <path d="M141,159.9c-.5,0-2.2.4-3.6.8v-1.5c-.4.3-1,.6-1.4.8-.9.5-1.5.7-1.8.7-1.8,0-4.3-1.8-4.3-5s2.8-5.6,5.9-5.6,1.1,0,1.6.3v-3.4c0-1.5-.2-1.5-1.8-1.7v-.6c1.1-.2,2.8-.5,3.6-.8v13.8c0,1.2.2,1.4,1,1.4h.7v.7ZM137.5,152.2c-.5-.8-1.5-1.2-2.4-1.2s-3.1.7-3.1,4,1.7,4.2,3.2,4.3c.8,0,1.7-.4,2.3-.8v-6.3Z"/>
    <path d="M149.4,160.7c-.3,0-.8-.2-1.1-.4-.3-.3-.4-.6-.6-1-.9.6-2,1.5-2.8,1.5-1.6,0-2.8-1.4-2.8-2.8s.6-1.9,1.9-2.3c1.4-.5,3.1-1.1,3.6-1.5v-.5c0-1.6-.8-2.6-2-2.6s-.8.3-1.1.5c-.3.3-.4.8-.6,1.5-.1.4-.3.5-.7.5s-1-.5-1-1,.3-.6.8-.9c.7-.5,2-1.3,3.3-1.6.7,0,1.4.2,1.9.6.8.7,1.2,1.5,1.2,2.7v4.4c0,1.1.4,1.4.8,1.4s.6-.1.8-.3l.2.6-2,1.1ZM147.7,154.9c-.5.3-1.6.7-2.1,1-.9.4-1.4.8-1.4,1.7,0,1.2.9,1.8,1.7,1.8s1.4-.4,1.9-.8v-3.6Z"/>
    <path d="M152.9,162.5c1-.5,1.8-1.1,1.8-2s-.7-1-1.5-1.2c-.1,0-.4-.3-.4-.7s.4-1.1,1.3-1.1,2,.8,2,2.4-1.6,2.9-2.9,3.3l-.3-.7Z"/>
    <path d="M16.4,188.2c-.3,0-.6,0-.8,0-1.7-.1-2.6-.6-3.6-2-.8-1.2-1.7-2.6-2.4-3.8-.5-.7-.8-.9-1.9-.9h-.8v3.6c0,2,.3,2.1,2.1,2.2v.6H2.8v-.6c1.9-.2,2.1-.3,2.1-2.2v-9.2c0-2-.3-2-2.1-2.2v-.6h5.9c1.7,0,2.8.2,3.7.8.9.6,1.6,1.6,1.6,3s-1.3,3.2-3,3.9c.4.7,1.4,2.2,2.1,3.3.8,1.2,1.3,1.8,1.8,2.4.6.7,1.1.9,1.7,1.1v.6ZM8,180.7c1.2,0,2-.2,2.5-.7.9-.7,1.3-1.6,1.3-2.8,0-2.5-1.6-3.3-3.4-3.3s-1.1,0-1.2.2c-.2.2-.3.4-.3,1v5.6h1.1Z"/>
    <path d="M17.3,188v-.6c1.5-.1,1.6-.3,1.6-1.8v-4.7c0-1.4,0-1.5-1.5-1.7v-.6c1.2-.2,2.3-.5,3.3-.9v7.9c0,1.6.2,1.7,1.7,1.8v.6h-5.1ZM18.7,175.8l2.5-3.8c.6-.2,2-.2,2.2-.1v.3c0,0-4.2,4-4.2,4l-.5-.4Z"/>
    <path d="M28.6,177.7c2.9,0,5,2.2,5,5.1s-2.8,5.5-5,5.5-5.1-2.5-5.1-5.1c0-3.7,2.9-5.5,5.1-5.5ZM28.4,178.4c-1.4,0-2.7,1.4-2.7,4s1.3,5,3.2,5,2.6-1,2.6-4.2-1.1-4.9-3.1-4.9Z"/>
    <path d="M45.4,177.9c.4-.2.7-.2,1-.2,2.5,0,4.5,2.1,4.5,4.9s-2.7,5.8-5.7,5.8c-1,0-2.3-.2-3.5-.8v-12.9c0-1.4,0-1.6-1.5-1.7v-.6c1.1-.1,2.5-.5,3.4-.8v7.2l1.9-.8ZM43.5,185.4c0,.4,0,.6.1.8.3.6,1.2,1.2,2.3,1.2,2,0,3-1.7,3-4.3s-1.6-4.2-3.5-4.2-1.4.2-1.9.4v6Z"/>
    <path d="M57.7,188h-5.3v-.6c1.4-.1,1.6-.3,1.6-1.7v-4.8c0-1.5,0-1.6-1.4-1.7v-.6c1.1-.2,2.2-.5,3.2-.9v2.5c.8-1.2,1.8-2.5,2.9-2.5s1.3.5,1.3,1.1-.4,1-.8,1.3c-.2.1-.4.1-.6,0-.3-.3-.6-.6-1-.6s-1.3.7-1.8,1.9v4.3c0,1.5.1,1.6,1.9,1.8v.6Z"/>
    <path d="M68.3,188.3c-.3,0-.8-.2-1.1-.4-.3-.3-.4-.6-.6-1-.9.6-2,1.5-2.8,1.5-1.6,0-2.8-1.4-2.8-2.8s.6-1.9,1.9-2.3c1.4-.5,3.1-1.1,3.6-1.5v-.5c0-1.6-.8-2.6-2-2.6s-.8.3-1.1.5c-.3.3-.4.8-.6,1.5-.1.4-.3.5-.7.5s-1-.5-1-1,.3-.6.8-.9c.7-.5,2-1.3,3.3-1.6.7,0,1.4.2,1.9.6.8.7,1.2,1.5,1.2,2.7v4.4c0,1.1.4,1.4.8,1.4s.6-.1.8-.3l.2.6-2,1.1ZM66.6,182.5c-.5.3-1.6.7-2.1,1-.9.4-1.4.8-1.4,1.7,0,1.2.9,1.8,1.7,1.8s1.4-.4,1.9-.8v-3.6Z"/>
    <path d="M80.8,178.6c-1.2.2-1.4.3-2,1.7-.8,1.8-2.1,4.9-3.3,8h-.7c-1-2.6-2.1-5.4-3.2-8.1-.5-1.3-.7-1.5-1.9-1.7v-.6h4.7v.6c-1.3.2-1.3.3-.9,1.3.6,1.6,1.5,4,2.2,5.6.8-2,1.6-3.9,2.1-5.4.4-1.1.3-1.4-1.2-1.5v-.6h4.2v.6Z"/>
    <path d="M86.4,177.7c2.9,0,5,2.2,5,5.1s-2.8,5.5-5,5.5-5.1-2.5-5.1-5.1c0-3.7,2.9-5.5,5.1-5.5ZM86.1,178.4c-1.4,0-2.7,1.4-2.7,4s1.3,5,3.2,5,2.6-1,2.6-4.2-1.1-4.9-3.1-4.9Z"/>
    <path d="M92.8,183.6l.3-1.5h8.6l-.3,1.5h-8.7ZM93.8,178.9l.3-1.5h8.6l-.3,1.5h-8.6ZM97,174h.9l-3,13.4h-1l3-13.4ZM100.6,174h.9l-3,13.4h-1l3-13.4Z"/>
    <path d="M113.9,174c-2.2,4.7-4.3,9.3-6.6,14l-1.7.2-.2-.3c2.4-3.9,4.9-8.6,6.7-12.6h-4.9c-1.5,0-1.6.2-2.2,1.7h-.7c.2-1.3.3-2.4.4-3.4h8.9v.3Z"/>
    <path d="M128.6,188v-.6c1.5-.2,1.7-.4,1.4-1.3-.3-.9-.8-2-1.2-3.5h-5c-.4,1-.7,1.9-1,2.9-.5,1.5-.2,1.7,1.7,1.9v.6h-5.3v-.6c1.4-.2,1.8-.3,2.6-2.4l4.8-12h.7c1.4,3.8,3,8.1,4.5,12.1.7,2,.9,2.2,2.6,2.4v.6h-5.7ZM126.3,175.8c-.7,2-1.5,4.1-2.2,5.9h4.3l-2.1-5.9Z"/>
    <path d="M135.3,178.5c1.2-.2,2.4-.5,3.4-.9v7.9c0,1.5,0,2.5-.5,3.7-.8,2.3-2.2,4-2.8,4.5-.2.2-.4.3-.6.3-.3,0-.8-.5-.8-1s0-.4.4-.5c.8-.2,1.4-.5,1.8-.9.3-.3.5-.8.6-1.6.1-1,.2-2.3.2-4.5v-4.5c0-1.5-.1-1.6-1.6-1.8v-.6ZM137.7,175.3c-.6,0-1.2-.6-1.2-1.2s.5-1.2,1.2-1.2,1.1.5,1.1,1.2-.5,1.2-1.1,1.2Z"/>
    <path d="M141.2,188v-.6c1.4-.1,1.6-.3,1.6-1.8v-4.7c0-1.4,0-1.5-1.4-1.7v-.6c1.2-.2,2.3-.5,3.3-.9v7.9c0,1.6.2,1.7,1.7,1.8v.6h-5.1ZM143.6,175.4c-.6,0-1.2-.6-1.2-1.2s.6-1.3,1.2-1.3,1.2.5,1.2,1.3-.5,1.2-1.2,1.2Z"/>
    <path d="M147.3,178.5c1.2-.2,2.4-.5,3.4-.9v7.9c0,1.5,0,2.5-.5,3.7-.8,2.3-2.2,4-2.8,4.5-.2.2-.4.3-.6.3-.3,0-.8-.5-.8-1s0-.4.4-.5c.8-.2,1.4-.5,1.8-.9.3-.3.5-.8.6-1.6.1-1,.2-2.3.2-4.5v-4.5c0-1.5-.1-1.6-1.6-1.8v-.6ZM149.7,175.3c-.6,0-1.2-.6-1.2-1.2s.5-1.2,1.2-1.2,1.1.5,1.1,1.2-.5,1.2-1.1,1.2Z"/>
    <path d="M153.2,188v-.6c1.4-.1,1.6-.3,1.6-1.8v-4.7c0-1.4,0-1.5-1.4-1.7v-.6c1.2-.2,2.3-.5,3.3-.9v7.9c0,1.6.2,1.7,1.7,1.8v.6h-5.1ZM155.6,175.4c-.6,0-1.2-.6-1.2-1.2s.6-1.3,1.2-1.3,1.2.5,1.2,1.3-.5,1.2-1.2,1.2Z"/>
    <path d="M168,185.9c-1,1.3-2.5,2.3-3.9,2.3-2.9,0-4.6-2.4-4.6-4.8s.8-3.3,2.3-4.5c1.2-.9,2.6-1.3,3.5-1.3s1.8.3,2.1.6c.3.3.4.4.4.7,0,.6-.6,1-.8,1s-.2,0-.4-.2c-.7-.6-1.5-1-2.3-1-1.5,0-2.8,1.3-2.8,3.7,0,3.2,2.2,4.2,3.5,4.2s1.7-.3,2.8-1.3l.4.5Z"/>
    <path d="M180.8,173.7c-1.8.2-2,.3-2,2.3v8.5c0,3-.5,4.6-2,6-.8.7-1.5,1.1-2.1,1.3l-.4-.7c1.3-.6,2-1.7,2.3-3,.2-1.1.2-2.4.2-4.4v-7.7c0-1.9-.2-2.1-2.1-2.3v-.6h6.1v.6Z"/>
    <path d="M188.7,188.3c-.3,0-.8-.2-1.1-.4-.3-.3-.4-.6-.6-1-.9.6-2,1.5-2.8,1.5-1.6,0-2.8-1.4-2.8-2.8s.6-1.9,1.9-2.3c1.4-.5,3.1-1.1,3.6-1.5v-.5c0-1.6-.8-2.6-2-2.6s-.8.3-1.1.5c-.3.3-.4.8-.6,1.5-.1.4-.3.5-.7.5s-1-.5-1-1,.3-.6.8-.9c.7-.5,2-1.3,3.3-1.6.7,0,1.4.2,1.9.6.8.7,1.2,1.5,1.2,2.7v4.4c0,1.1.4,1.4.8,1.4s.6-.1.8-.3l.2.6-2,1.1ZM187,182.5c-.5.3-1.6.7-2.1,1-.9.4-1.4.8-1.4,1.7,0,1.2.9,1.8,1.7,1.8s1.4-.4,1.9-.8v-3.6Z"/>
    <path d="M191.3,188v-.6c1.5-.1,1.7-.3,1.7-1.8v-11c0-1.4-.1-1.5-1.6-1.7v-.6c1.2-.1,2.7-.5,3.4-.8v14.1c0,1.5.1,1.6,1.6,1.8v.6h-5.1Z"/>
    <path d="M199.7,188.3c-.8,0-1.4-.6-1.4-1.5s.6-1.5,1.4-1.5,1.4.6,1.4,1.5-.6,1.5-1.4,1.5Z"/>
  </g>
</svg>