<?xml version="1.0" encoding="UTF-8"?>
<svg id="Capa_1" xmlns="http://www.w3.org/2000/svg" version="1.1" viewBox="0 0 380 401">
  <!-- Generator: Adobe Illustrator 29.5.1, SVG Export Plug-In . SVG Version: 2.1.0 Build 141)  -->
  <defs>
    <style>
      .st0 {
        fill: #b3907a;
      }

      .st1 {
        fill: #fff;
      }
    </style>
  </defs>
  <rect class="st0" x=".1" y="-.2" width="380" height="401"/>
  <g>
    <rect class="st1" x="106.1" y="288.6" width="168.1" height="93" rx="22.3" ry="22.3"/>
    <g>
      <path class="st0" d="M233.3,305.4c1.3,1.2,2.7,2.9,3.6,4.4s1.4,2.5,1.8,3.8c1.8-.8,3.7-1.2,5.7-1.4,3.4-.3,7.1-.4,8.6,3.3s-1.1,7.5-5,7.7h-.7s11,4.9,11,4.9c.4.3.7.7.7,1.2-1.3,3.2-2.8,6.4-4.2,9.6-.3.5-.8.7-1.4.7s-.6-.3-.9-.3v20c-.1,1.8.1,3.9,0,5.7s-.5,1.3-1.2,1.3h-42.6c-.7,0-1.2-.6-1.2-1.2v-26.8c0-.8.7-1.3,1.5-1.3,12.7.2,25.4-.2,38.2,0s.3,0,.4,0c0-.2,0-.1-.1-.1-.3-.1-.6-.3-.9-.4-12-5.6-24.2-10.8-36.3-16.3-.8-.3-1.3-1-1-1.9,1.4-2.9,2.5-6,4-8.9s.9-1.1,1.8-.8l10.8,4.9c-3-2.9-1.9-8.2,2.2-9.4s3.7-.1,5.2,1.2ZM236.5,315.2c0-.2,0-.4,0-.6-.4-1.9-3.7-7-5.5-7.8-3.3-1.5-5.9,3.3-2.7,5.2s3.9,1.9,5.6,2.5,1.8.7,2.7.6ZM227.8,325.3l2.9-6.6-15.6-7-2.9,6.6,15.6,7ZM239.2,316.3c0,.1.2.4.3.5,1.1,1.1,5.7,3.1,7.3,3.6,3.3,1.2,5.5-3,2.9-5.1s-4.6-.6-6.1-.4-3.1.5-4.4,1.3ZM238.3,319.1c-.5-.5-1-.9-1.3-1.4-.7,0-1.3,0-2,0l3.3,1.5ZM230.2,326.3l4.8,2.1,2.9-6.4-4.9-2.2-2.9,6.5ZM253,336.6l2.9-6.6-15.6-7-2.9,6.6,15.6,7ZM224.7,339.7h-14.6v24.1s14.6,0,14.6,0v-24.1ZM249.8,339.7h-14.6v24.1h14.6v-24.1ZM232.6,339.7h-5.2v24.1h5.2v-24.1Z"/>
      <path class="st0" d="M209.4,306.2c2.6,3,.2,6.2-1.8,8.6s-2.1,2.5-2.9,3.2-1.1.5-1.7.2-1.4-1.3-1.7-1.7c-1.6-1.7-4.5-5.1-4.4-7.4.1-3.5,3.9-5.6,6.9-3.6,1.9-1.3,4.2-.9,5.7.8ZM203.6,315.2c0,0,.3-.2.3-.2.9-1,3.9-4.3,4-5.6s-.6-2-1.6-2.1c-1.5-.1-1.5,1.3-2.6,1.3s-1.1-.9-1.8-1.2c-1.4-.6-2.6.7-2.4,2.1s2.2,3.5,2.9,4.3.9.9,1.2,1.4Z"/>
      <path class="st0" d="M210.6,324.1c3.3,3.4-.6,7.8-3,10.4s-1.5,1.7-2,1.9-.8.2-1.2,0-1.6-1.6-2-2c-1.6-1.7-4.4-5-4.2-7.4.3-3.4,4-5.4,6.9-3.5,1.8-1.2,4.1-.9,5.5.6ZM202.3,325.4c-1,.2-1.7,1.5-1.4,2.5s2.3,3.4,3.2,4.5.9,1,1,1c.9-1,1.9-2,2.7-3.1s1.6-2.1,1.5-3-1-2-2.1-1.8-1.2,1.3-2.2,1.3-1.1-.9-1.8-1.2-.6-.2-1-.1Z"/>
    </g>
  </g>
  <g>
    <path class="st1" d="M73.3,54.5c-4.1,0-8.3-1.2-12.5-3.6-2.6,1.2-5,1.8-7.3,1.8s-4.4-.5-6.6-1.5c-2.6-1.3-3.9-2.9-3.9-4.9s.6-2.5,1.7-3.4c1-.8,2.2-1.2,3.7-1.2,3.4,0,6.6,1.3,9.5,4,.7.7,1.4,1.3,2,1.8.6.5,1.1.9,1.5,1.2,2-1.6,3.9-4,5.8-7.1.8-1.3,1.5-2.7,2.3-4,.7-1.3,1.5-2.7,2.2-4-3.6-.2-6.7-1.1-9.5-2.6-3.5-1.9-5.3-4.4-5.3-7.6s.9-4.5,2.6-6.2c1.7-1.7,3.8-2.6,6.2-2.6s2.9.4,4,1.2c1.3.9,1.9,2.1,1.9,3.6s-.2.9-.6.9-.2-.3-.2-1,0-.2,0-.4c0-.2-.1-.4-.2-.6-.7-2.1-2.3-3.1-4.8-3.1s-3.8.9-5.3,2.6c-1.5,1.7-2.2,3.6-2.2,5.6,0,2.9,1.6,5.3,4.9,7.1,2.6,1.4,5.5,2.2,8.9,2.4,1.3-2.3,2.6-4.4,4-6.3,1.4-1.9,2.7-3.6,4.1-5.2,4.2-4.6,7.9-6.9,11.3-6.9s2.2.3,3,.8c.9.6,1.4,1.5,1.4,2.6,0,1.6-.9,3.5-2.8,5.9-.7.9-1.4,1.7-2.3,2.4-.8.8-1.7,1.5-2.6,2.2-.8.6-1.6,1.2-2.4,1.7-.8.5-1.7,1-2.6,1.4-2,.9-4.2,1.6-6.7,1.8-1.7,3.9-3.5,7.1-5.4,9.4-2.2,2.9-5,5.2-8.2,7,3.8,2.7,7.4,4,11,4s3.5-.4,4.9-1.1c1.7-.9,2.6-2.3,2.6-4s0-.4.2-.4.2.1.2.4v.2c0,1.8-.7,3.2-2.2,4.1-1.5.9-3.5,1.4-6.1,1.4ZM52.9,51.9c2.4,0,4.6-.6,6.6-1.8-1.1-.7-2.1-1.4-3.2-2.1-1.1-.7-2.1-1.4-3.2-2-3-1.9-5.2-2.8-6.7-2.8s-2.8.8-2.8,2.5.9,3.1,2.7,4.3c1.5,1,3.1,1.6,4.9,1.8.3,0,.6,0,.8,0h.8ZM76.7,32.6c1-.2,2-.4,3-.6s1.9-.6,2.9-.9c.8-.3,1.6-.7,2.4-1.2.8-.4,1.5-1,2.3-1.5,1.8-1.3,3.3-2.9,4.8-4.6,1.9-2.2,2.8-4.2,2.8-5.7s-.7-2-2-2-2.4.4-3.9,1.2c-2.4,1.3-4.6,3.1-6.5,5.4-1.9,2.3-3.6,5.2-5.1,8.5l-.7,1.5Z"/>
    <path class="st1" d="M89.8,51c-3.3,0-5-2.2-5-6.5s.6-5.6,1.7-9.1c.5-1.6,1.1-3.1,1.7-4.6.6-1.5,1.3-2.8,2-4.1.9-1.5,1.8-3,2.7-4.4.9-1.4,1.9-2.7,3-4,3.1-3.8,5.7-5.7,7.8-5.7s1.3.4,1.3,1.3-.5,2.9-1.4,5.3c-3.1,7.8-8.2,14.9-15.3,21.3-.7,2.6-1,4.6-1,6.2,0,2.7.8,4,2.5,4s1.1-.1,1.7-.3c.5-.2,1-.5,1.4-.8,1.1-.9,2-1.9,2.8-3,.8-1.1,1.4-2.3,2-3.4.6-1.1,1.1-2.1,1.5-2.9.1-.2.2-.3.4-.2s.1.2,0,.4c-.8,1.7-1.7,3.5-2.7,5.3-1,1.8-2.2,3.2-3.7,4.3-1.1.8-2.3,1.2-3.5,1.2ZM88.6,39.8c.8-.7,1.7-1.5,2.6-2.6.9-1,1.9-2.2,2.9-3.5,1-1.3,2.1-2.8,3.1-4.3,1.1-1.6,2.1-3.3,3.2-5.1,2.9-4.9,4.3-8.2,4.3-10.2s-.2-1-.7-1c-1.5,0-4.2,3.2-8.1,9.7-1,1.8-1.9,3.6-2.8,5.3-1,2.2-1.8,4.2-2.6,6.1-.8,1.9-1.4,3.8-1.9,5.5Z"/>
    <path class="st1" d="M100.3,50.9c-1,0-1.8-.3-2.4-1-.6-.7-.9-1.5-.9-2.5s.3-2.1.8-3.5c.6-1.5,1.3-3.2,2.4-5.3.4-.9,1-2,1.7-3.3.7-1.3,1.6-2.8,2.6-4.4h.1c.3.2.6.3,1,.3.9,0,1.8-.4,2.9-1.3h.1c-.6.8-1.7,2.5-3.2,5.2-.5.9-.9,1.7-1.4,2.4s-.8,1.4-1.3,2.1c-2.4,4.1-3.6,7.1-3.6,9.1s.5,1.7,1.5,1.7c2.3,0,5.4-3.6,9.5-10.7.6-1,1.2-2.3,2-3.8.8-1.5,1.7-3.3,2.7-5.3h.1c.3.1.6.2.8.3.2,0,.5.1.7.1.9,0,1.5-.4,1.9-1.2h.2c0,0-4.8,9.3-4.8,9.3-2.8,5.4-4.2,8.8-4.2,10.2s.3,1.1,1,1.1,1.1-.2,1.8-.6c.7-.4,1.5-1,2.2-1.9,1-1.1,1.8-2.2,2.5-3.3.7-1,1.5-2.5,2.5-4.3.1-.2.2-.3.4-.3.2,0,.2.2,0,.6-.7,1.4-1.5,2.8-2.4,4.1-.8,1.4-1.8,2.6-3,3.8s-2.9,2.3-4.1,2.3-1.9-.3-2.4-.8c-.6-.5-.8-1.4-.8-2.6s.2-2.1.6-3.2c-2.7,4.4-5.3,6.7-7.8,6.7Z"/>
    <path class="st1" d="M122.2,50.8c-2.5,0-3.8-1.6-3.8-4.8s.3-2.8.9-4.5c.3-.9.9-2.2,1.8-4,.9-1.8,2-4,3.5-6.7h.1c.3.2.7.3,1,.3,1,0,2-.4,3.1-1.2h0c-1.1,1.3-3.1,4.4-5.9,9.6-1.6,3.1-2.4,6-2.4,8.6s.5,2.3,1.5,2.3c2.5,0,5.4-2.7,8.6-8-.5-.8-.7-2-.7-3.6s0-1,0-1.5c0-.5.1-1,.2-1.6.1-.9.4-1.9.9-3,.6-1.4,1.2-2.1,1.9-2.1s1.2.7,1.2,2c0,2.4-1.1,5.6-3.2,9.7,0,.5.4,1.1.8,1.7.5.6,1,.9,1.7.9,1.8,0,3.3-1.4,4.8-4.3.1-.2.3-.3.4-.2.1,0,.2.2,0,.4-.8,1.5-1.6,2.7-2.4,3.4-.8.8-1.7,1.2-2.8,1.2s-1.1-.2-1.6-.6c-.5-.4-.9-1-1.3-1.7-.9,2-2.1,3.6-3.4,5-1.8,1.9-3.5,2.9-5.2,2.9Z"/>
    <path class="st1" d="M140.8,51.1c-2.7,0-4-1.5-4-4.5s.6-4.4,1.9-6.9l4.6-9h.2c.1.2.4.2.7.2.8,0,1.8-.5,3.1-1.4h.1c0,.1-5.2,10.2-5.2,10.2-2.2,4.2-3.2,7.1-3.2,8.7s.2,1.2.6,1.5c.4.3.9.4,1.4.4s1.1-.1,1.7-.4c.6-.2,1-.5,1.4-.8,1.1-.9,2-1.8,2.8-3,.8-1.1,1.4-2.3,2-3.4.6-1.1,1.1-2.1,1.5-2.9.1-.2.2-.3.4-.2s.1.2,0,.4c-.8,1.7-1.7,3.5-2.7,5.3-1,1.8-2.2,3.2-3.7,4.3-.5.4-1.1.7-1.7.9s-1.2.4-1.9.4ZM148,27.3c-1.3,0-2-.6-2-1.9s.6-2.1,1.9-2.1,2,.6,2,1.9-.6,2.1-1.9,2.1Z"/>
    <path class="st1" d="M164.3,50.7c-2.1,0-3.2-1.5-3.2-4.4s.2-2.4.6-3.9c-2.9,5.5-5.7,8.3-8.5,8.3s-2.4-.7-3.1-2c-.6-1-.9-2.3-.9-3.9s.2-2.6.6-4c.7-2.4,2.2-4.7,4.4-6.8,2.5-2.3,4.9-3.4,7.1-3.4s3.1,1.2,3.1,3.7-.2,2.3-.7,3.7l3.7-7.3h.2c.1.2.4.3.8.3.8,0,1.9-.5,3.1-1.5h.1c0,.1-5.2,10.3-5.2,10.3-2.1,4-3.1,7.1-3.1,9.2s.4,1.2,1.1,1.2,1.1-.2,1.8-.6,1.4-1,2.2-1.8c1-1.1,1.8-2.2,2.5-3.3.7-1,1.5-2.5,2.5-4.3.1-.2.2-.3.4-.3.2,0,.2.2,0,.6-.7,1.4-1.5,2.8-2.4,4.1-.8,1.4-1.8,2.6-3,3.8-1.5,1.5-2.8,2.2-4.1,2.2ZM153.4,50.2c2.3,0,5.2-3.2,8.8-9.7,1.1-2,1.7-4.1,1.7-6.2s-.7-3.3-2.1-3.3-3.3,1.3-5.3,3.9c-.8,1.1-1.4,2.1-2,3.1-.6,1-1,2-1.3,2.9-.9,2.4-1.3,4.6-1.3,6.6s.5,2.6,1.5,2.6Z"/>
    <path class="st1" d="M185.8,50.8c-1.5,0-2.5-.6-3.1-1.8-.6-1.2-.9-2.6-.9-4s.2-2.8.7-3.9c.6-1.5,1.4-3,2.5-4.6s2.4-2.9,4-4c1.5-1.1,3.2-1.6,5.1-1.6s3.1,1.2,3.1,3.5-.2,2.4-.7,3.8l10-19.6h.1c.2.2.4.2.9.2.9,0,1.9-.5,3.1-1.4h.1c0,.1-9.2,17.7-9.2,17.7-3.5,6.8-5.3,11.3-5.3,13.4s.4,1.7,1.3,1.7,1.1-.2,1.8-.6,1.4-1,2.2-1.8c1-1.1,1.8-2.2,2.5-3.3.7-1,1.5-2.5,2.5-4.3.1-.2.2-.3.4-.3.2,0,.2.2,0,.6-.7,1.4-1.5,2.8-2.4,4.1-.8,1.4-1.8,2.6-3,3.8-1.5,1.5-2.8,2.2-4.1,2.2s-1.9-.3-2.5-.9c-.7-.6-1-1.5-1-2.9s.2-2.8.7-4.3c-2.9,5.5-5.7,8.3-8.5,8.3ZM186.3,50.3c1.1,0,2.4-.8,3.9-2.4,1.5-1.6,3.1-4,4.7-7.1.2-.3.4-.8.6-1.6.3-.7.5-1.5.7-2.4.2-.9.3-1.7.3-2.5s-.2-1.5-.5-2c-.3-.5-.9-.8-1.7-.8s-1.6.3-2.5.8-1.8,1.5-2.7,2.8c-1.6,2.1-2.7,4.1-3.4,6.1,0,.2-.2.7-.4,1.4-.2.7-.4,1.5-.6,2.4-.2.9-.2,1.7-.2,2.5s.1,1.4.4,2c.2.5.7.8,1.3.8Z"/>
    <path class="st1" d="M210.4,51.1c-2,0-3.4-.6-4.2-1.7-.8-1.1-1.2-2.7-1.2-4.7,0-2.9,1.2-6,3.7-9.2,2.6-3.3,5.3-5,8.1-5s3.1.7,3.1,2.1-1,3.6-2.9,5.5c-2.7,2.8-5.6,4.2-8.6,4.2-.5,1.3-.7,2.5-.7,3.8s.3,2.5.8,3.2c.5.8,1.3,1.2,2.3,1.2s2.2-.3,3.3-.9c1.1-.6,2.1-1.3,2.9-2.1.7-.7,1.5-1.6,2.4-2.8.9-1.2,1.8-2.7,2.7-4.4.1-.2.2-.3.4-.3.2,0,.2.2,0,.6-.7,1.4-1.4,2.7-2.2,4-.8,1.3-1.8,2.5-3.1,3.7-.8.8-1.8,1.5-2.9,2s-2.4.9-3.8.9ZM208.6,41.9c2.2,0,4.8-1.2,7.5-3.6h0c.8-.7,1.5-1.6,2.2-2.8.8-1.3,1.2-2.3,1.2-3.2s-.5-1-1.5-1c-1.6,0-3.4,1.4-5.6,4.2-1,1.2-1.8,2.4-2.4,3.4-.6,1.1-1.1,2.1-1.4,3Z"/>
    <path class="st1" d="M235.5,51.3c-4.1,0-6.2-2-6.2-5.9s.2-2.3.6-3.5h0c.2-.7.6-1.4,1.2-2.1.7-.9,1.3-1.3,1.9-1.3s.5,0,.8.1l.7-1c.6-.9,1.1-1.7,1.6-2.6.5-.9,1-1.7,1.5-2.6,1.5-2.6,2.7-4,3.4-4.2.2,0,.4-.1.6-.1.6,0,.9.2.9.7s-.4.9-1.3,1c-.8.1-1.3.2-1.5.3-.3.2-.5.8-.5,1.6s.6,2.3,1.7,4.3c1.1,2,1.7,3.8,1.7,5.3s0,.8,0,1.2c0,.4-.1.8-.2,1.2-1.1,4.6-4,6.9-8.7,6.9.9.2,1.8.3,2.6.3,1.4,0,2.8-.3,4.2-.8,1.3-.5,2.6-1.2,3.7-2.1,1.2-.9,2.3-2.1,3.3-3.4,1-1.3,1.9-2.7,2.6-4.3.1-.2.2-.4.4-.4.2,0,.3.2,0,.6-.7,1.2-1.3,2.4-2.1,3.5-.7,1.1-1.5,2-2.3,2.9-1,1-2.3,2-4,2.9-1.7,1-3.7,1.5-6.2,1.5ZM232.8,50c2.1,0,3.8-1.6,5.1-4.7,1.1-2.4,1.7-4.9,1.7-7.4s0-.8-.2-1.3c-.1-.6-.3-1.2-.5-2-.2-.7-.3-1.4-.4-1.9,0-.6-.1-1,0-1.4-.8,1.6-1.6,3-2.3,4.2-.8,1.3-1.5,2.4-2.2,3.4.2.3.3.7.3,1,0,.6-.2,1.2-.7,1.9-.3.4-.8.8-1.5,1.2-.7.4-1.2.7-1.5,1-.5.7-.7,1.5-.7,2.6,0,2.3.9,3.5,2.8,3.5Z"/>
    <path class="st1" d="M252.9,51.1c-1.8,0-3.2-.8-4.1-2.3-.9-1.3-1.3-2.9-1.3-4.8,0-3.2,1-6.2,3.1-9,2.2-3,4.9-4.5,8.1-4.5s2.8.6,3.7,1.7c.8,1.1,1.2,2.4,1.2,4s0,1.5-.2,2.3c-.1.8-.4,1.6-.6,2.4-.6,1.8-1.4,3.2-2.3,4.2v.2c.5.3,1,.4,1.6.4,1.2,0,2.2-.4,3-1.2.8-.8,1.7-2.2,2.8-4.2,0-.2.1-.2.2-.2s.1,0,.2.2c0,.1,0,.2,0,.4-.9,1.8-1.8,3.2-2.7,4.1-1,.9-2.1,1.4-3.3,1.4s-1.4-.2-1.9-.7c-.4.7-.9,1.4-1.3,2-.5.6-1,1.2-1.7,1.7-1.4,1.2-2.8,1.8-4.3,1.8ZM253.4,50.6c2.2,0,4.3-1.7,6.4-5,0-.1,0-.2.2-.4-.7-1.2-1.1-2.4-1.1-3.5v-.3c0-.1,0-.3,0-.6,0-.4.1-.9.2-1.4.1-.5.3-.9.6-1.3.6-1,1.3-1.5,2.2-1.5h.6c.2,0,.3,0,.4,0h.2c0-3.7-1.2-5.5-3.5-5.5s-3.8,1.2-5.6,3.5c-1.4,1.9-2.4,4-3.1,6.3-.4,1.3-.6,2.6-.6,4,0,3.6,1,5.4,3,5.4Z"/>
    <path class="st1" d="M271.5,51c-3,0-4.5-2-4.5-6.1s0-1.2.1-1.8c0-.6.2-1.2.4-1.8,1-3.9,2.4-7.5,4-10.9.7-1.3,1.4-2.7,2.1-3.9.8-1.3,1.5-2.5,2.4-3.6.9-1.2,1.8-2.3,2.7-3.4.9-1.1,1.9-2.1,2.9-3.1,2.9-2.7,5.3-4,7.2-4s2.6.8,2.6,2.4-.6,3-1.8,5c-1,1.7-2,3.1-3.2,4.3-3.5,3.6-7.8,7-13.1,10.1-2.6,6.2-3.9,10.6-3.9,13.3s.2,1.8.6,2.3c.4.5.9.7,1.7.7s1.9-.3,2.7-1c.8-.7,1.6-1.5,2.3-2.6.7-1,1.3-2.1,1.8-3.1.5-1.1.9-2,1.2-2.8,0-.2-.2-.6-.3-1.2-.1-.6-.2-1.2-.2-1.8s0-1.3.2-1.8c.2-.5.4-.8.9-.8.7,0,1,.5,1,1.5s0,1.1-.2,1.8c-.2.7-.4,1.4-.8,2.2,0,.9.3,1.7.6,2.4.3.7.8,1,1.5,1s1.3-.4,2-1.1c.6-.7,1.2-1.7,1.8-2.9,0,0,0,0,.1,0s.2,0,.2.2c0,.1,0,.2,0,.3-.6,1.3-1.2,2.2-1.8,2.9-.7.7-1.4,1-2.4,1-1.3,0-2.1-1-2.3-3-2.4,6.2-5.2,9.3-8.5,9.3ZM273.8,33.3c5.3-3.5,9.3-6.7,12.1-9.5,3.2-3.3,4.8-6.4,4.8-9.2s-.6-2-1.9-2c-2.2,0-5.1,2.9-8.7,8.6-1.1,1.8-2.2,3.8-3.3,5.8-1,2-2,4.1-3,6.3Z"/>
    <path class="st1" d="M292,50.8c-2.4,0-3.7-1.1-3.7-3.2s.7-3.7,2-5.9c.4-.8,1.7-2.5,3.7-5.2,1.3-1.8,2-3.1,2-3.8s-.6-1-1.7-1-1.6,0-2.5,0c-.9,0-1.7,0-2.2.1-.1.7-.3,1.4-.6,2.3-.2.9-.5,1.8-.9,2.7-.2.6-.5,1.3-.9,2.3-.4,1-1,2-1.7,3.1-.1.2-.2.2-.3.2s0,0,0-.1c0-.2,0-.5.2-.8.3-.6.7-1.3,1.1-2.1.4-.8.8-1.8,1.2-2.8.3-.9.6-1.8.9-2.8.3-1,.4-1.7.5-2-1-.6-1.5-1.5-1.5-2.8s.5-2.1,1.5-2.1,1,.6,1,1.9,0,.6-.1,1c0,.4-.2.9-.3,1.5.6,0,1.5,0,2.7-.2,1.2,0,2.4,0,3.6,0,2.1,0,3.1.6,3.1,1.9s-1.6,4.1-4.8,8.3c-.7,1-1.5,2.2-2.3,3.5-.8,1.3-1.3,2.6-1.3,3.9s0,.7.2,1c.2.3.5.5,1,.5,1.8,0,3.7-1.1,5.8-3.2,1.1-1.1,2-2.2,2.9-3.4.9-1.2,1.7-2.6,2.4-4.1.2-.3.3-.5.4-.5s.1,0,.1.2c0,.2,0,.4-.2.7-.7,1.4-1.5,2.8-2.5,4.1-1,1.3-2.1,2.6-3.2,3.8-2,2-3.9,3-5.8,3Z"/>
    <path class="st1" d="M306.9,51.1c-2,0-3.4-.6-4.2-1.7-.8-1.1-1.2-2.7-1.2-4.7,0-2.9,1.2-6,3.7-9.2,2.6-3.3,5.3-5,8.1-5s3.1.7,3.1,2.1-1,3.6-2.9,5.5c-2.7,2.8-5.6,4.2-8.6,4.2-.5,1.3-.7,2.5-.7,3.8s.3,2.5.8,3.2c.5.8,1.3,1.2,2.3,1.2s2.2-.3,3.3-.9c1.1-.6,2.1-1.3,2.9-2.1.7-.7,1.5-1.6,2.4-2.8.9-1.2,1.8-2.7,2.7-4.4.1-.2.2-.3.4-.3.2,0,.2.2,0,.6-.7,1.4-1.4,2.7-2.2,4-.8,1.3-1.8,2.5-3.1,3.7-.8.8-1.8,1.5-2.9,2s-2.4.9-3.8.9ZM305.1,41.9c2.2,0,4.8-1.2,7.5-3.6h0c.8-.7,1.5-1.6,2.2-2.8.8-1.3,1.2-2.3,1.2-3.2s-.5-1-1.5-1c-1.6,0-3.4,1.4-5.6,4.2-1,1.2-1.8,2.4-2.4,3.4-.6,1.1-1.1,2.1-1.4,3Z"/>
    <path class="st1" d="M322.4,51.3c-4.1,0-6.2-2-6.2-5.9s.2-2.3.6-3.5h0c.2-.7.6-1.4,1.2-2.1.7-.9,1.3-1.3,1.9-1.3s.5,0,.8.1l.7-1c.6-.9,1.1-1.7,1.6-2.6.5-.9,1-1.7,1.5-2.6,1.5-2.6,2.7-4,3.4-4.2.2,0,.4-.1.6-.1.6,0,.9.2.9.7s-.4.9-1.3,1c-.8.1-1.3.2-1.5.3-.3.2-.5.8-.5,1.6s.6,2.3,1.7,4.3c1.1,2,1.7,3.8,1.7,5.3s0,.8,0,1.2c0,.4-.1.8-.2,1.2-1.1,4.6-4,6.9-8.7,6.9.9.2,1.8.3,2.6.3,1.4,0,2.8-.3,4.2-.8,1.3-.5,2.6-1.2,3.7-2.1,1.2-.9,2.3-2.1,3.3-3.4,1-1.3,1.9-2.7,2.6-4.3.1-.2.2-.4.4-.4.2,0,.3.2,0,.6-.7,1.2-1.3,2.4-2.1,3.5-.7,1.1-1.5,2-2.3,2.9-1,1-2.3,2-4,2.9-1.7,1-3.7,1.5-6.2,1.5ZM319.7,50c2.1,0,3.8-1.6,5.1-4.7,1.1-2.4,1.7-4.9,1.7-7.4s0-.8-.2-1.3c-.1-.6-.3-1.2-.5-2-.2-.7-.3-1.4-.4-1.9,0-.6-.1-1,0-1.4-.8,1.6-1.6,3-2.3,4.2-.8,1.3-1.5,2.4-2.2,3.4.2.3.3.7.3,1,0,.6-.2,1.2-.7,1.9-.3.4-.8.8-1.5,1.2-.7.4-1.2.7-1.5,1-.5.7-.7,1.5-.7,2.6,0,2.3.9,3.5,2.8,3.5Z"/>
  </g>
  <g>
    <path class="st1" d="M88.6,103.6c-.1.8-.5,2.7-.7,3.4h-10.8v-.3c2.1-.3,2.2-.4,2.2-2.4v-9.8c0-2,0-2.2-1.9-2.5v-.3h6.8c2.1,0,2.8,0,3.2,0,0,.8,0,2.5.2,3.2h-.3c-.2-.6-.5-1.4-.8-1.8-.4-.6-.8-.7-2.2-.7h-2.4c-.6,0-.7,0-.7.7v5.5h2.8c1.7,0,1.8-.3,2.1-1.9h.3v4.5h-.3c-.4-1.6-.5-1.9-2.1-1.9h-2.8v5.5c0,1.6.6,1.7,1.9,1.7h2.2c1.2,0,1.5-.2,2.1-1.1.4-.5.7-1.1,1-1.8h.3Z"/>
    <path class="st1" d="M89.8,107v-.3c1.3-.2,1.5-.3,1.5-2.1v-11.3c0-1.8-.1-2-1.5-2.2v-.3c1,0,2.5-.5,3.3-.8,0,.6,0,1.6,0,3.3v11.3c0,1.7,0,1.9,1.5,2.1v.3h-4.7Z"/>
    <path class="st1" d="M111.7,107v-.3c1.4-.2,1.5-.4,1.5-2.2v-3.7c0-1.6-.4-2.7-1.9-2.7s-1.5.3-2.4,1.1c0,.3,0,.5,0,1.1v4.6c0,1.6.1,1.7,1.4,2v.3h-4.5v-.3c1.3-.2,1.4-.4,1.4-2v-4.1c0-1.7-.5-2.6-2-2.6s-1.6.4-2.3,1.1v5.6c0,1.6,0,1.8,1.4,2v.3h-4.7v-.3c1.4-.2,1.5-.4,1.5-2v-4.8c0-1.5-.1-1.6-1.2-1.9v-.2c1.1-.2,1.9-.5,3-1,0,.8,0,1.4,0,1.8.4-.3.9-.7,1.5-1.1.7-.4,1.2-.7,1.9-.7,1.1,0,1.9.5,2.4,1.8.6-.5,1.3-1,1.9-1.3.6-.4,1-.5,1.6-.5,1.7,0,2.7,1.3,2.7,3.5v4.3c0,1.8.1,1.8,1.3,2.1v.3h-4.5Z"/>
    <path class="st1" d="M125.6,105c-1.4,1.8-2.9,2.3-3.6,2.3-2.8,0-4.4-2.3-4.4-4.9s.5-2.9,1.5-3.9c.9-1,2.2-1.6,3.3-1.6,2,0,3.3,1.7,3.3,3.2,0,.4,0,.6-.1.6-.5.2-3.3.3-6.3.4,0,3.6,1.9,4.9,3.6,4.9s1.7-.3,2.6-1.2l.2.2ZM121.6,97.5c-1.1,0-2.1.9-2.4,2.9,1.3,0,3.7,0,4.2,0,.2,0,.2-.1.2-.4,0-1.2-.7-2.5-2.1-2.5Z"/>
    <path class="st1" d="M127.2,97.7c1.3-.2,2.3-.4,3.2-.8,0,.7,0,2.1,0,3.1v5.2c0,1.3-.1,2.3-.5,3.4-.8,2.5-2.2,4-2.8,4.7-.2.2-.4.3-.5.3-.3,0-.6-.3-.6-.6s0-.3.2-.3c1-.3,1.5-.8,1.9-1.3.3-.5.4-1.3.5-2.2,0-1,0-2.3,0-3.6v-5.5c0-1.8,0-1.9-1.4-2.1v-.3ZM129.4,94c-.6,0-1.1-.5-1.1-1.1s.5-1.1,1.1-1.1,1.1.4,1.1,1.1-.5,1.1-1.1,1.1Z"/>
    <path class="st1" d="M137.9,96.9c2.9,0,4.8,2.3,4.8,5s-2.6,5.4-4.8,5.4-4.9-2.5-4.9-5.1c0-3.6,2.9-5.4,4.9-5.4ZM137.6,97.4c-1.6,0-2.6,1.7-2.6,4.2s1.3,5.2,3.2,5.2,2.5-1,2.5-4.4-1.1-5-3.1-5Z"/>
    <path class="st1" d="M149.1,107h-4.9v-.3c1.3-.2,1.4-.3,1.4-2v-4.8c0-1.5,0-1.6-1.2-1.9v-.2c1.1-.2,2-.5,3-1,0,.4,0,1.7,0,2.5.6-1,1.7-2.4,2.8-2.4s1.2.5,1.2,1-.3,1-.7,1.2c-.2.2-.4.1-.6,0-.4-.4-.6-.6-1.1-.6s-1.1.5-1.7,1.6v4.7c0,1.7.1,1.8,1.8,2v.3Z"/>
    <path class="st1" d="M161.2,107h-4.9v-.3c1.3-.2,1.4-.3,1.4-2v-4.8c0-1.5,0-1.6-1.2-1.9v-.2c1.1-.2,2-.5,3-1,0,.4,0,1.7,0,2.5.6-1,1.7-2.4,2.8-2.4s1.2.5,1.2,1-.3,1-.7,1.2c-.2.2-.4.1-.6,0-.4-.4-.6-.6-1.1-.6s-1.1.5-1.7,1.6v4.7c0,1.7.1,1.8,1.8,2v.3Z"/>
    <path class="st1" d="M172.3,105c-1.4,1.8-2.9,2.3-3.6,2.3-2.8,0-4.4-2.3-4.4-4.9s.5-2.9,1.5-3.9c.9-1,2.2-1.6,3.3-1.6,2,0,3.3,1.7,3.3,3.2,0,.4,0,.6-.1.6-.5.2-3.3.3-6.3.4,0,3.6,1.9,4.9,3.6,4.9s1.7-.3,2.6-1.2l.2.2ZM168.3,97.5c-1.1,0-2.1.9-2.4,2.9,1.3,0,3.7,0,4.2,0,.2,0,.2-.1.2-.4,0-1.2-.7-2.5-2.1-2.5Z"/>
    <path class="st1" d="M176.7,104.1c-.6.5-.7,1-.7,1.2,0,.5.4,1,1.4,1s1.7,0,2.4,0c1.8,0,3.4.8,3.4,2.8s-2.6,4.6-5.5,4.6-4.1-1.6-4.1-2.9.2-.9.5-1.2c.4-.4,1.4-1.2,2-1.7-.9-.3-1.4-.8-1.7-1.3-.2-.3-.3-.7-.2-1,.6-.4,1.7-1.1,2.2-1.7l.4.2ZM177.9,104.3c-2.3,0-3.8-1.7-3.8-3.6s2-3.9,4-3.9,1.5.2,2.2.6c.8,0,2.3-.3,2.9-.5h.1c-.2.5-.5,1.1-.8,1.3-.4,0-1,0-1.5,0,.5.5.8,1.4.8,2.2,0,2.5-2.2,3.8-3.9,3.8ZM178.5,107.8c-1.4,0-1.7,0-1.9.2-1,.7-1.4,1.3-1.4,2.2,0,1.4,1.5,2.6,3.4,2.6s3.2-1.4,3.2-2.7-.5-1.6-1.3-2c-.5-.2-1.1-.3-2-.3ZM177.8,97.3c-1.1,0-1.9,1-1.9,3s.9,3.6,2.3,3.6c1.1,0,1.8-1,1.8-3s-.9-3.5-2.2-3.5Z"/>
    <path class="st1" d="M190.9,107.3c-.4,0-.8-.1-1.1-.5-.2-.3-.4-.5-.5-1.1-.8.6-2.1,1.5-2.6,1.5-1.6,0-2.6-1.4-2.6-2.6s.6-1.7,1.7-2.1c1.3-.5,3-1,3.6-1.4v-.8c0-1.7-.8-2.7-2-2.7s-.8.1-1,.4c-.2.3-.4.9-.6,1.5,0,.4-.3.4-.5.4-.4,0-.9-.4-.9-.9s.2-.4.6-.7c.7-.5,2.3-1.4,3.3-1.6.7,0,1.3.2,1.8.6.8.7,1,1.5,1,2.9v4.2c0,1.1.4,1.5.8,1.5s.5,0,.7-.2v.3c.1,0-1.6,1.2-1.6,1.2ZM189.3,101.7c-.4.2-1.5.7-2.1,1-.8.4-1.3.8-1.3,1.7s.9,1.8,1.7,1.8,1.2-.2,1.7-.7c0-1.2,0-2.4,0-3.7Z"/>
    <path class="st1" d="M193.3,107v-.3c1.3-.2,1.5-.3,1.5-2.1v-11.3c0-1.8-.1-2-1.5-2.2v-.3c1,0,2.5-.5,3.3-.8,0,.6,0,1.6,0,3.3v11.3c0,1.7,0,1.9,1.5,2.1v.3h-4.7Z"/>
    <path class="st1" d="M204.2,96.9c2.9,0,4.8,2.3,4.8,5s-2.6,5.4-4.8,5.4-4.9-2.5-4.9-5.1c0-3.6,2.9-5.4,4.9-5.4ZM203.9,97.4c-1.6,0-2.6,1.7-2.6,4.2s1.3,5.2,3.2,5.2,2.5-1,2.5-4.4-1.1-5-3.1-5Z"/>
    <path class="st1" d="M222.8,105c-1.4,1.8-2.9,2.3-3.6,2.3-2.8,0-4.4-2.3-4.4-4.9s.5-2.9,1.5-3.9c.9-1,2.2-1.6,3.3-1.6,2,0,3.3,1.7,3.3,3.2,0,.4,0,.6-.1.6-.5.2-3.3.3-6.3.4,0,3.6,1.9,4.9,3.6,4.9s1.7-.3,2.6-1.2l.2.2ZM218.8,97.5c-1.1,0-2.1.9-2.4,2.9,1.3,0,3.7,0,4.2,0,.2,0,.2-.1.2-.4,0-1.2-.7-2.5-2.1-2.5Z"/>
    <path class="st1" d="M230.1,99.6c-.4-1.6-1.3-2.3-2.4-2.3s-1.5.6-1.5,1.6.8,1.6,1.9,2.2c1.7.8,2.7,1.6,2.7,3.1s-1.8,3.1-3.5,3.1-1.9-.3-2.4-.5c-.1-.4-.4-1.9-.4-2.5h.3c.4,1.3,1.3,2.5,2.9,2.5s1.7-.7,1.7-1.7-.6-1.7-1.8-2.3c-1.3-.7-2.6-1.5-2.6-3.1,0-1.6,1.3-2.9,3.3-2.9.9,0,1.6.2,2,.2,0,.5.2,2,.3,2.4h-.3Z"/>
    <path class="st1" d="M241.9,113.2v-.3c1.6-.2,1.7-.4,1.7-2.3v-4.3l-2.4,1c-3.2,0-4.8-2.6-4.8-4.8,0-3.3,3.2-5.6,5.9-5.6.8,0,1.4.2,1.8.3.3,0,.4,0,.5,0,.1,0,.5,0,.8-.2h0c0,.5-.1,1-.1,2.5v11c0,2,0,2.1,1.7,2.4v.3h-5.1ZM243.6,98.5c-.5-.6-1.5-.9-2.4-.9-1.7,0-2.9,1.2-2.9,4s1.8,4.6,3.7,4.6,1.2-.1,1.5-.4v-7.3Z"/>
    <path class="st1" d="M258.3,106.5c-1.1.1-2.5.5-3.3.8,0-.4,0-1.2,0-1.8-1.1,1.1-2.2,1.8-3.3,1.8-1.5,0-2.7-.9-2.7-3.2v-5c0-1-.3-1.2-.9-1.4h-.4v-.4c.8,0,2.3-.2,3.1-.4,0,.5,0,1.3,0,3.2v3.2c0,2,1,2.6,2,2.6s1.7-.2,2.3-1v-5.6c0-1.2-.3-1.4-1.1-1.6h-.5v-.4c1.2,0,2.6-.2,3.4-.4v7.6c0,1.3.2,1.4,1,1.5h.6v.4Z"/>
    <path class="st1" d="M267.5,105c-1.4,1.8-2.9,2.3-3.6,2.3-2.8,0-4.4-2.3-4.4-4.9s.5-2.9,1.5-3.9c.9-1,2.2-1.6,3.3-1.6,2,0,3.3,1.7,3.3,3.2,0,.4,0,.6-.1.6-.5.2-3.3.3-6.3.4,0,3.6,1.9,4.9,3.6,4.9s1.7-.3,2.6-1.2l.2.2ZM263.5,97.5c-1.1,0-2.1.9-2.4,2.9,1.3,0,3.7,0,4.2,0,.2,0,.2-.1.2-.4,0-1.2-.7-2.5-2.1-2.5Z"/>
    <path class="st1" d="M279.1,107v-.3c1.4-.2,1.5-.4,1.5-2.2v-3.7c0-1.5-.5-2.7-2-2.7s-1.8.5-2.4,1v5.5c0,1.7.2,1.8,1.5,2v.3h-4.7v-.3c1.4-.2,1.5-.4,1.5-2.1v-4.8c0-1.4,0-1.6-1.2-1.9v-.2c1-.1,2.1-.5,3-1,0,.5,0,1.1,0,1.9.5-.4,1-.7,1.6-1.1.7-.4,1.1-.7,1.8-.7,1.8,0,2.8,1.4,2.8,3.5v4.4c0,1.7.1,1.8,1.3,2v.3h-4.5Z"/>
    <path class="st1" d="M290,96.9c2.9,0,4.8,2.3,4.8,5s-2.6,5.4-4.8,5.4-4.9-2.5-4.9-5.1c0-3.6,2.9-5.4,4.9-5.4ZM289.7,97.4c-1.6,0-2.6,1.7-2.6,4.2s1.3,5.2,3.2,5.2,2.5-1,2.5-4.4-1.1-5-3.1-5Z"/>
    <path class="st1" d="M302,99.6c-.4-1.6-1.3-2.3-2.4-2.3s-1.5.6-1.5,1.6.8,1.6,1.9,2.2c1.7.8,2.7,1.6,2.7,3.1s-1.8,3.1-3.5,3.1-1.9-.3-2.4-.5c-.1-.4-.4-1.9-.4-2.5h.3c.4,1.3,1.3,2.5,2.9,2.5s1.7-.7,1.7-1.7-.6-1.7-1.8-2.3c-1.3-.7-2.6-1.5-2.6-3.1,0-1.6,1.3-2.9,3.3-2.9.9,0,1.6.2,2,.2,0,.5.2,2,.3,2.4h-.3Z"/>
    <path class="st1" d="M82.4,135.6c-.4,0-.8-.1-1.1-.5-.2-.3-.4-.5-.5-1.1-.8.6-2.1,1.5-2.6,1.5-1.6,0-2.6-1.4-2.6-2.6s.6-1.7,1.7-2.1c1.3-.5,3-1,3.6-1.4v-.8c0-1.7-.8-2.7-2-2.7s-.8.1-1,.4c-.2.3-.4.9-.6,1.5,0,.4-.3.4-.5.4-.4,0-.9-.4-.9-.9s.2-.4.6-.7c.7-.5,2.3-1.4,3.3-1.6.7,0,1.3.2,1.8.6.8.7,1,1.5,1,2.9v4.2c0,1.1.4,1.5.8,1.5s.5,0,.7-.2v.3c.1,0-1.6,1.2-1.6,1.2ZM80.7,130c-.4.2-1.5.7-2.1,1-.8.4-1.3.8-1.3,1.7s.9,1.8,1.7,1.8,1.2-.2,1.7-.7c0-1.2,0-2.4,0-3.7Z"/>
    <path class="st1" d="M93.2,133.2c-1,1.3-2.5,2.4-3.8,2.4-2.8,0-4.4-2.3-4.4-4.7s.7-3.2,2.3-4.5c1.2-.9,2.5-1.3,3.3-1.3s1.6.2,2,.6c.2.2.3.3.3.5,0,.4-.5,1-.7,1s-.2,0-.4-.3c-.6-.6-1.4-.9-2.3-.9-1.5,0-2.7.9-2.8,3.6,0,3.3,2.2,4.4,3.5,4.4s1.8-.3,2.8-1.2l.2.2Z"/>
    <path class="st1" d="M99.4,125.2c2.9,0,4.8,2.3,4.8,5s-2.6,5.4-4.8,5.4-4.9-2.5-4.9-5.1c0-3.6,2.9-5.4,4.9-5.4ZM99.1,125.7c-1.6,0-2.6,1.7-2.6,4.2s1.3,5.2,3.2,5.2,2.5-1,2.5-4.4-1.1-5-3.1-5Z"/>
    <path class="st1" d="M117.5,135.3v-.3c1.4-.2,1.5-.4,1.5-2.2v-3.7c0-1.6-.4-2.7-1.9-2.7s-1.5.3-2.4,1.1c0,.3,0,.5,0,1.1v4.6c0,1.6.1,1.7,1.4,2v.3h-4.5v-.3c1.3-.2,1.4-.4,1.4-2v-4.1c0-1.7-.5-2.6-2-2.6s-1.6.4-2.3,1.1v5.6c0,1.6,0,1.8,1.4,2v.3h-4.7v-.3c1.4-.2,1.5-.4,1.5-2v-4.8c0-1.5-.1-1.6-1.2-1.9v-.2c1.1-.2,1.9-.5,3-1,0,.8,0,1.4,0,1.8.4-.3.9-.7,1.5-1.1.7-.4,1.2-.7,1.9-.7,1.1,0,1.9.5,2.4,1.8.6-.5,1.3-1,1.9-1.3.6-.4,1-.5,1.6-.5,1.7,0,2.7,1.3,2.7,3.5v4.3c0,1.8.1,1.8,1.3,2.1v.3h-4.5Z"/>
    <path class="st1" d="M123.1,125.9c1.1-.2,2.3-.6,3.2-1,0,.4,0,1.1,0,1.8.5-.3,1.4-.9,1.8-1.1.6-.3,1-.5,1.4-.5,2.5,0,3.9,2.2,3.9,4.3,0,3.3-2.7,5.6-5.6,6.1-.6,0-1.2-.2-1.5-.4v3.5c0,2.1.2,2.2,1.8,2.5v.3h-5.1v-.3c1.4-.3,1.6-.4,1.6-2.2v-11c0-1.5-.2-1.6-1.4-1.9v-.2ZM126.2,133.8c.5.6,1.4.8,2.3.8,2,0,3.1-1.4,3.1-4.2s-1.4-4.1-3-4.1-1.7.4-2.3.8v6.6Z"/>
    <path class="st1" d="M141.9,135.6c-.4,0-.8-.1-1.1-.5-.2-.3-.4-.5-.5-1.1-.8.6-2.1,1.5-2.6,1.5-1.6,0-2.6-1.4-2.6-2.6s.6-1.7,1.7-2.1c1.3-.5,3-1,3.6-1.4v-.8c0-1.7-.8-2.7-2-2.7s-.8.1-1,.4c-.2.3-.4.9-.6,1.5,0,.4-.3.4-.5.4-.4,0-.9-.4-.9-.9s.2-.4.6-.7c.7-.5,2.3-1.4,3.3-1.6.7,0,1.3.2,1.8.6.8.7,1,1.5,1,2.9v4.2c0,1.1.4,1.5.8,1.5s.5,0,.7-.2v.3c.1,0-1.6,1.2-1.6,1.2ZM140.3,130c-.4.2-1.5.7-2.1,1-.8.4-1.3.8-1.3,1.7s.9,1.8,1.7,1.8,1.2-.2,1.7-.7c0-1.2,0-2.4,0-3.7Z"/>
    <path class="st1" d="M150.7,135.3v-.3c1.4-.2,1.5-.4,1.5-2.2v-3.7c0-1.5-.5-2.7-2-2.7s-1.8.5-2.4,1v5.5c0,1.7.2,1.8,1.5,2v.3h-4.7v-.3c1.4-.2,1.5-.4,1.5-2.1v-4.8c0-1.4,0-1.6-1.2-1.9v-.2c1-.1,2.1-.5,3-1,0,.5,0,1.1,0,1.9.5-.4,1-.7,1.6-1.1.7-.4,1.1-.7,1.8-.7,1.8,0,2.8,1.4,2.8,3.5v4.4c0,1.7.1,1.8,1.3,2v.3h-4.5ZM146.5,122.4c.8-1.5,1.6-1.8,2.1-1.8,1.1,0,2.1.8,3,.8s.8-.2,1.4-.9l.2.2c-.7,1.4-1.5,1.8-2,1.8-.9,0-2-.9-2.9-.9s-.9.3-1.4.9l-.2-.2Z"/>
    <path class="st1" d="M164.7,133.3c-1.4,1.8-2.9,2.3-3.6,2.3-2.8,0-4.4-2.3-4.4-4.9s.5-2.9,1.5-3.9c.9-1,2.2-1.6,3.3-1.6,2,0,3.3,1.7,3.3,3.2,0,.4,0,.6-.1.6-.5.2-3.3.3-6.3.4,0,3.6,1.9,4.9,3.6,4.9s1.7-.3,2.6-1.2l.2.2ZM160.7,125.8c-1.1,0-2.1.9-2.4,2.9,1.3,0,3.7,0,4.2,0,.2,0,.2-.1.2-.4,0-1.2-.7-2.5-2.1-2.5Z"/>
    <path class="st1" d="M172.2,135.3v-.3c1.4-.2,1.5-.4,1.5-2.2v-3.7c0-1.5-.5-2.7-2-2.7s-1.8.5-2.4,1v5.5c0,1.7.2,1.8,1.5,2v.3h-4.7v-.3c1.4-.2,1.5-.4,1.5-2.1v-4.8c0-1.4,0-1.6-1.2-1.9v-.2c1-.1,2.1-.5,3-1,0,.5,0,1.1,0,1.9.5-.4,1-.7,1.6-1.1.7-.4,1.1-.7,1.8-.7,1.8,0,2.8,1.4,2.8,3.5v4.4c0,1.7.1,1.8,1.3,2v.3h-4.5Z"/>
    <path class="st1" d="M190.8,133.3c-1.4,1.8-2.9,2.3-3.6,2.3-2.8,0-4.4-2.3-4.4-4.9s.5-2.9,1.5-3.9c.9-1,2.2-1.6,3.3-1.6,2,0,3.3,1.7,3.3,3.2,0,.4,0,.6-.1.6-.5.2-3.3.3-6.3.4,0,3.6,1.9,4.9,3.6,4.9s1.7-.3,2.6-1.2l.2.2ZM186.9,125.8c-1.1,0-2.1.9-2.4,2.9,1.3,0,3.7,0,4.2,0,.2,0,.2-.1.2-.4,0-1.2-.7-2.5-2.1-2.5Z"/>
    <path class="st1" d="M198.4,135.3v-.3c1.4-.2,1.5-.4,1.5-2.2v-3.7c0-1.5-.5-2.7-2-2.7s-1.8.5-2.4,1v5.5c0,1.7.2,1.8,1.5,2v.3h-4.7v-.3c1.4-.2,1.5-.4,1.5-2.1v-4.8c0-1.4,0-1.6-1.2-1.9v-.2c1-.1,2.1-.5,3-1,0,.5,0,1.1,0,1.9.5-.4,1-.7,1.6-1.1.7-.4,1.1-.7,1.8-.7,1.8,0,2.8,1.4,2.8,3.5v4.4c0,1.7.1,1.8,1.3,2v.3h-4.5Z"/>
    <path class="st1" d="M217,133.3c-1.4,1.8-2.9,2.3-3.6,2.3-2.8,0-4.4-2.3-4.4-4.9s.5-2.9,1.5-3.9c.9-1,2.2-1.6,3.3-1.6,2,0,3.3,1.7,3.3,3.2,0,.4,0,.6-.1.6-.5.2-3.3.3-6.3.4,0,3.6,1.9,4.9,3.6,4.9s1.7-.3,2.6-1.2l.2.2ZM213,125.8c-1.1,0-2.1.9-2.4,2.9,1.3,0,3.7,0,4.2,0,.2,0,.2-.1.2-.4,0-1.2-.7-2.5-2.1-2.5Z"/>
    <path class="st1" d="M224.3,127.9c-.4-1.6-1.3-2.3-2.4-2.3s-1.5.6-1.5,1.6.8,1.6,1.9,2.2c1.7.8,2.7,1.6,2.7,3.1s-1.8,3.1-3.5,3.1-1.9-.3-2.4-.5c-.1-.4-.4-1.9-.4-2.5h.3c.4,1.3,1.3,2.5,2.9,2.5s1.7-.7,1.7-1.7-.6-1.7-1.8-2.3c-1.3-.7-2.6-1.5-2.6-3.1,0-1.6,1.3-2.9,3.3-2.9.9,0,1.6.2,2,.2,0,.5.2,2,.3,2.4h-.3Z"/>
    <path class="st1" d="M230.4,135.4c-.3.2-.6.2-.8.2-1.4,0-2.2-.9-2.2-2.7v-6.8h-1.6c0-.1.3-.7.3-.7h1.3v-2.2c.5-.4,1.2-.9,1.6-1.4h.2c0,.5,0,1.8,0,3.6h2.4c0,.1,0,.5-.1.7h-2.3v6.2c0,1.9.7,2.3,1.4,2.3s1-.2,1.3-.3v.3c0,0-1.5.9-1.5.9Z"/>
    <path class="st1" d="M240.7,133.3c-1.4,1.8-2.9,2.3-3.6,2.3-2.8,0-4.4-2.3-4.4-4.9s.5-2.9,1.5-3.9c.9-1,2.2-1.6,3.3-1.6,2,0,3.3,1.7,3.3,3.2,0,.4,0,.6-.1.6-.5.2-3.3.3-6.3.4,0,3.6,1.9,4.9,3.6,4.9s1.7-.3,2.6-1.2l.2.2ZM236.7,125.8c-1.1,0-2.1.9-2.4,2.9,1.3,0,3.7,0,4.2,0,.2,0,.2-.1.2-.4,0-1.2-.7-2.5-2.1-2.5Z"/>
    <path class="st1" d="M256.9,134.8c-.5,0-2.1.4-3.4.9,0-.5,0-1.1,0-1.6-.6.4-1.3.8-1.9,1.1-.6.3-1,.4-1.3.4-1.8,0-4.1-1.8-4.1-4.9s2.7-5.5,5.8-5.5,1,0,1.5.2v-4c0-1.5-.1-1.8-1.7-2v-.3c1.1,0,2.8-.4,3.6-.8,0,.5,0,2,0,2.9v11.4c0,1.2.2,1.5,1,1.7h.6v.4ZM253.6,127c-.5-.8-1.6-1.1-2.6-1.1s-2.8.8-2.8,4.1c0,2.9,1.7,4.5,3.2,4.5s1.5-.3,2.1-.8v-6.6Z"/>
    <path class="st1" d="M257.9,135.3v-.3c1.4-.2,1.5-.3,1.5-2.1v-4.7c0-1.5-.1-1.6-1.3-1.9v-.3c1-.2,2.1-.5,3.1-.9,0,.5,0,1.9,0,2.9v4.9c0,1.7.2,1.9,1.5,2.1v.3h-4.8ZM259.5,123.4l2.4-3.7c.2-.1,1.7-.2,1.9-.2h0c0,.1-4.1,4.1-4.1,4.1l-.3-.2Z"/>
    <path class="st1" d="M270.8,135.6c-.4,0-.8-.1-1.1-.5-.2-.3-.4-.5-.5-1.1-.8.6-2.1,1.5-2.6,1.5-1.6,0-2.6-1.4-2.6-2.6s.6-1.7,1.7-2.1c1.3-.5,3-1,3.6-1.4v-.8c0-1.7-.8-2.7-2-2.7s-.8.1-1,.4c-.2.3-.4.9-.6,1.5,0,.4-.3.4-.5.4-.4,0-.9-.4-.9-.9s.2-.4.6-.7c.7-.5,2.3-1.4,3.3-1.6.7,0,1.3.2,1.8.6.8.7,1,1.5,1,2.9v4.2c0,1.1.4,1.5.8,1.5s.5,0,.7-.2v.3c.1,0-1.6,1.2-1.6,1.2ZM269.2,130c-.4.2-1.5.7-2.1,1-.8.4-1.3.8-1.3,1.7s.9,1.8,1.7,1.8,1.2-.2,1.7-.7c0-1.2,0-2.4,0-3.7Z"/>
    <path class="st1" d="M281.8,135.4c-.3.2-.6.2-.8.2-1.4,0-2.2-.9-2.2-2.7v-6.8h-1.6c0-.1.3-.7.3-.7h1.3v-2.2c.5-.4,1.2-.9,1.6-1.4h.2c0,.5,0,1.8,0,3.6h2.4c0,.1,0,.5-.1.7h-2.3v6.2c0,1.9.7,2.3,1.4,2.3s1-.2,1.3-.3v.3c0,0-1.5.9-1.5.9Z"/>
    <path class="st1" d="M291.1,135.6c-.4,0-.8-.1-1.1-.5-.2-.3-.4-.5-.5-1.1-.8.6-2.1,1.5-2.6,1.5-1.6,0-2.6-1.4-2.6-2.6s.6-1.7,1.7-2.1c1.3-.5,3-1,3.6-1.4v-.8c0-1.7-.8-2.7-2-2.7s-.8.1-1,.4c-.2.3-.4.9-.6,1.5,0,.4-.3.4-.5.4-.4,0-.9-.4-.9-.9s.2-.4.6-.7c.7-.5,2.3-1.4,3.3-1.6.7,0,1.3.2,1.8.6.8.7,1,1.5,1,2.9v4.2c0,1.1.4,1.5.8,1.5s.5,0,.7-.2v.3c.1,0-1.6,1.2-1.6,1.2ZM289.5,130c-.4.2-1.5.7-2.1,1-.8.4-1.3.8-1.3,1.7s.9,1.8,1.7,1.8,1.2-.2,1.7-.7c0-1.2,0-2.4,0-3.7Z"/>
    <path class="st1" d="M299.9,135.3v-.3c1.4-.2,1.5-.4,1.5-2.2v-3.7c0-1.5-.5-2.7-2-2.7s-1.8.5-2.4,1v5.5c0,1.7.2,1.8,1.5,2v.3h-4.7v-.3c1.4-.2,1.5-.4,1.5-2.1v-4.8c0-1.4,0-1.6-1.2-1.9v-.2c1-.1,2.1-.5,3-1,0,.5,0,1.1,0,1.9.5-.4,1-.7,1.6-1.1.7-.4,1.1-.7,1.8-.7,1.8,0,2.8,1.4,2.8,3.5v4.4c0,1.7.1,1.8,1.3,2v.3h-4.5Z"/>
    <path class="st1" d="M62.2,161.6c-1.4,1.8-2.9,2.3-3.6,2.3-2.8,0-4.4-2.3-4.4-4.9s.5-2.9,1.5-3.9c.9-1,2.2-1.6,3.3-1.6,2,0,3.3,1.7,3.3,3.2,0,.4,0,.6-.1.6-.5.2-3.3.3-6.3.4,0,3.6,1.9,4.9,3.6,4.9s1.7-.3,2.6-1.2l.2.2ZM58.2,154.1c-1.1,0-2.1.9-2.4,2.9,1.3,0,3.7,0,4.2,0,.2,0,.2-.1.2-.4,0-1.2-.7-2.5-2.1-2.5Z"/>
    <path class="st1" d="M69.5,156.2c-.4-1.6-1.3-2.3-2.4-2.3s-1.5.6-1.5,1.6.8,1.6,1.9,2.2c1.7.8,2.7,1.6,2.7,3.1s-1.8,3.1-3.5,3.1-1.9-.3-2.4-.5c-.1-.4-.4-1.9-.4-2.5h.3c.4,1.3,1.3,2.5,2.9,2.5s1.7-.7,1.7-1.7-.6-1.7-1.8-2.3c-1.3-.7-2.6-1.5-2.6-3.1,0-1.6,1.3-2.9,3.3-2.9.9,0,1.6.2,2,.2,0,.5.2,2,.3,2.4h-.3Z"/>
    <path class="st1" d="M71.3,154.2c1.1-.2,2.3-.6,3.2-1,0,.4,0,1.1,0,1.8.5-.3,1.4-.9,1.8-1.1.6-.3,1-.5,1.4-.5,2.5,0,3.9,2.2,3.9,4.3,0,3.3-2.7,5.6-5.6,6.1-.6,0-1.2-.2-1.5-.4v3.5c0,2.1.2,2.2,1.8,2.5v.3h-5.1v-.3c1.4-.3,1.6-.4,1.6-2.2v-11c0-1.5-.2-1.6-1.4-1.9v-.2ZM74.5,162.1c.5.6,1.4.8,2.3.8,2,0,3.1-1.4,3.1-4.2s-1.4-4.1-3-4.1-1.7.4-2.3.8v6.6Z"/>
    <path class="st1" d="M91.3,161.6c-1.4,1.8-2.9,2.3-3.6,2.3-2.8,0-4.4-2.3-4.4-4.9s.5-2.9,1.5-3.9c.9-1,2.2-1.6,3.3-1.6,2,0,3.3,1.7,3.3,3.2,0,.4,0,.6-.1.6-.5.2-3.3.3-6.3.4,0,3.6,1.9,4.9,3.6,4.9s1.7-.3,2.6-1.2l.2.2ZM87.4,154.1c-1.1,0-2.1.9-2.4,2.9,1.3,0,3.7,0,4.2,0,.2,0,.2-.1.2-.4,0-1.2-.7-2.5-2.1-2.5Z"/>
    <path class="st1" d="M101.3,161.5c-1,1.3-2.5,2.4-3.8,2.4-2.8,0-4.4-2.3-4.4-4.7s.7-3.2,2.3-4.5c1.2-.9,2.5-1.3,3.3-1.3s1.6.2,2,.6c.2.2.3.3.3.5,0,.4-.5,1-.7,1s-.2,0-.4-.3c-.6-.6-1.4-.9-2.3-.9-1.5,0-2.7.9-2.8,3.6,0,3.3,2.2,4.4,3.5,4.4s1.8-.3,2.8-1.2l.2.2Z"/>
    <path class="st1" d="M102.4,163.6v-.3c1.4-.2,1.5-.3,1.5-2.1v-4.7c0-1.6,0-1.7-1.3-1.9v-.3c1-.2,2.1-.5,3.1-.9,0,.5,0,1.9,0,2.9v4.9c0,1.7.1,1.8,1.5,2.1v.3h-4.8ZM104.7,150.6c-.5,0-1.1-.5-1.1-1.1s.5-1.1,1.1-1.1,1.1.4,1.1,1.1-.5,1.1-1.1,1.1Z"/>
    <path class="st1" d="M115.4,163.9c-.4,0-.8-.1-1.1-.5-.2-.3-.4-.5-.5-1.1-.8.6-2.1,1.5-2.6,1.5-1.6,0-2.6-1.4-2.6-2.6s.6-1.7,1.7-2.1c1.3-.5,3-1,3.6-1.4v-.8c0-1.7-.8-2.7-2-2.7s-.8.1-1,.4c-.2.3-.4.9-.6,1.5,0,.4-.3.4-.5.4-.4,0-.9-.4-.9-.9s.2-.4.6-.7c.7-.5,2.3-1.4,3.3-1.6.7,0,1.3.2,1.8.6.8.7,1,1.5,1,2.9v4.2c0,1.1.4,1.5.8,1.5s.5,0,.7-.2v.3c.1,0-1.6,1.2-1.6,1.2ZM113.7,158.2c-.4.2-1.5.7-2.1,1-.8.4-1.3.8-1.3,1.7s.9,1.8,1.7,1.8,1.2-.2,1.7-.7c0-1.2,0-2.4,0-3.7Z"/>
    <path class="st1" d="M117.7,163.6v-.3c1.3-.2,1.5-.3,1.5-2.1v-11.3c0-1.8-.1-2-1.5-2.2v-.3c1,0,2.5-.5,3.3-.8,0,.6,0,1.6,0,3.3v11.3c0,1.7,0,1.9,1.5,2.1v.3h-4.7Z"/>
    <path class="st1" d="M125.2,163.9c-.7,0-1.2-.5-1.2-1.2s.5-1.2,1.2-1.2,1.2.5,1.2,1.2-.5,1.2-1.2,1.2Z"/>
    <path class="st1" d="M140.3,151.5c-.4-1.7-1.2-3-3.3-3s-2.5,1.3-2.5,2.7,1,2.5,2.9,3.6c1.8,1.1,3.9,2.3,3.9,4.8s-2.1,4.4-4.9,4.4-2.6-.4-3.4-.7c-.1-.6-.5-2.8-.5-3.2h.3c.4,1.5,1.5,3.4,3.9,3.4s2.8-1.5,2.8-3.1-1.2-2.8-2.8-3.8c-1.8-1.1-3.7-2.3-3.7-4.7s1.8-4,4.6-4,2.4.3,2.9.4c0,.8.2,2,.4,3.1h-.4Z"/>
    <path class="st1" d="M142.7,163.6v-.3c1.4-.2,1.5-.3,1.5-2.1v-4.7c0-1.6,0-1.7-1.3-1.9v-.3c1-.2,2.1-.5,3.1-.9,0,.5,0,1.9,0,2.9v4.9c0,1.7.1,1.8,1.5,2.1v.3h-4.8ZM145,150.6c-.5,0-1.1-.5-1.1-1.1s.5-1.1,1.1-1.1,1.1.4,1.1,1.1-.5,1.1-1.1,1.1Z"/>
    <path class="st1" d="M163.5,163c-.5,0-2.1.4-3.4.9,0-.5,0-1.1,0-1.6-.6.4-1.3.8-1.9,1.1-.6.3-1,.4-1.3.4-1.8,0-4.1-1.8-4.1-4.9s2.7-5.5,5.8-5.5,1,0,1.5.2v-4c0-1.5-.1-1.8-1.7-2v-.3c1.1,0,2.8-.4,3.6-.8,0,.5,0,2,0,2.9v11.4c0,1.2.2,1.5,1,1.7h.6v.4ZM160.1,155.3c-.5-.8-1.6-1.1-2.6-1.1s-2.8.8-2.8,4.1c0,2.9,1.7,4.5,3.2,4.5s1.5-.3,2.1-.8v-6.6Z"/>
    <path class="st1" d="M172.6,161.6c-1.4,1.8-2.9,2.3-3.6,2.3-2.8,0-4.4-2.3-4.4-4.9s.5-2.9,1.5-3.9c.9-1,2.2-1.6,3.3-1.6,2,0,3.3,1.7,3.3,3.2,0,.4,0,.6-.1.6-.5.2-3.3.3-6.3.4,0,3.6,1.9,4.9,3.6,4.9s1.7-.3,2.6-1.2l.2.2ZM168.6,154.1c-1.1,0-2.1.9-2.4,2.9,1.3,0,3.7,0,4.2,0,.2,0,.2-.1.2-.4,0-1.2-.7-2.5-2.1-2.5Z"/>
    <path class="st1" d="M180,156.2c-.4-1.6-1.3-2.3-2.4-2.3s-1.5.6-1.5,1.6.8,1.6,1.9,2.2c1.7.8,2.7,1.6,2.7,3.1s-1.8,3.1-3.5,3.1-1.9-.3-2.4-.5c-.1-.4-.4-1.9-.4-2.5h.3c.4,1.3,1.3,2.5,2.9,2.5s1.7-.7,1.7-1.7-.6-1.7-1.8-2.3c-1.3-.7-2.6-1.5-2.6-3.1,0-1.6,1.3-2.9,3.3-2.9.9,0,1.6.2,2,.2,0,.5.2,2,.3,2.4h-.3Z"/>
    <path class="st1" d="M190.4,161.6c-1.4,1.8-2.9,2.3-3.6,2.3-2.8,0-4.4-2.3-4.4-4.9s.5-2.9,1.5-3.9c.9-1,2.2-1.6,3.3-1.6,2,0,3.3,1.7,3.3,3.2,0,.4,0,.6-.1.6-.5.2-3.3.3-6.3.4,0,3.6,1.9,4.9,3.6,4.9s1.7-.3,2.6-1.2l.2.2ZM186.4,154.1c-1.1,0-2.1.9-2.4,2.9,1.3,0,3.7,0,4.2,0,.2,0,.2-.1.2-.4,0-1.2-.7-2.5-2.1-2.5Z"/>
    <path class="st1" d="M198.8,163.9c-.4,0-.8-.1-1.1-.5-.2-.3-.4-.5-.5-1.1-.8.6-2.1,1.5-2.6,1.5-1.6,0-2.6-1.4-2.6-2.6s.6-1.7,1.7-2.1c1.3-.5,3-1,3.6-1.4v-.8c0-1.7-.8-2.7-2-2.7s-.8.1-1,.4c-.2.3-.4.9-.6,1.5,0,.4-.3.4-.5.4-.4,0-.9-.4-.9-.9s.2-.4.6-.7c.7-.5,2.3-1.4,3.3-1.6.7,0,1.3.2,1.8.6.8.7,1,1.5,1,2.9v4.2c0,1.1.4,1.5.8,1.5s.5,0,.7-.2v.3c.1,0-1.6,1.2-1.6,1.2ZM197.2,158.2c-.4.2-1.5.7-2.1,1-.8.4-1.3.8-1.3,1.7s.9,1.8,1.7,1.8,1.2-.2,1.7-.7c0-1.2,0-2.4,0-3.7Z"/>
    <path class="st1" d="M207.6,163.6v-.3c1.4-.2,1.5-.4,1.5-2.2v-3.7c0-1.5-.5-2.7-2-2.7s-1.8.5-2.4,1v5.5c0,1.7.2,1.8,1.5,2v.3h-4.7v-.3c1.4-.2,1.5-.4,1.5-2.1v-4.8c0-1.4,0-1.6-1.2-1.9v-.2c1-.1,2.1-.5,3-1,0,.5,0,1.1,0,1.9.5-.4,1-.7,1.6-1.1.7-.4,1.1-.7,1.8-.7,1.8,0,2.8,1.4,2.8,3.5v4.4c0,1.7.1,1.8,1.3,2v.3h-4.5Z"/>
    <path class="st1" d="M222.8,153.7c.3-.1.7-.2.9-.2,2.5,0,4.4,1.9,4.4,4.7s-2.7,5.7-5.6,5.7-2.1-.3-3.3-.8c0-.6,0-1.2,0-1.8v-11.5c0-1.6,0-1.8-1.5-2.1v-.3c1.2-.1,2.4-.5,3.3-.8,0,.6,0,2.2,0,3.1v4.7l1.9-.8ZM220.9,161.2c0,.3,0,.6.1.8.2.6,1.1,1.2,2.4,1.2,1.9,0,2.7-1.8,2.7-4.4s-1.5-4.3-3.5-4.3-1.3.1-1.7.3v6.3Z"/>
    <path class="st1" d="M237.8,161.6c-1.4,1.8-2.9,2.3-3.6,2.3-2.8,0-4.4-2.3-4.4-4.9s.5-2.9,1.5-3.9c.9-1,2.2-1.6,3.3-1.6,2,0,3.3,1.7,3.3,3.2,0,.4,0,.6-.1.6-.5.2-3.3.3-6.3.4,0,3.6,1.9,4.9,3.6,4.9s1.7-.3,2.6-1.2l.2.2ZM233.9,154.1c-1.1,0-2.1.9-2.4,2.9,1.3,0,3.7,0,4.2,0,.2,0,.2-.1.2-.4,0-1.2-.7-2.5-2.1-2.5Z"/>
    <path class="st1" d="M245.4,163.6v-.3c1.4-.2,1.5-.4,1.5-2.2v-3.7c0-1.5-.5-2.7-2-2.7s-1.8.5-2.4,1v5.5c0,1.7.2,1.8,1.5,2v.3h-4.7v-.3c1.4-.2,1.5-.4,1.5-2.1v-4.8c0-1.4,0-1.6-1.2-1.9v-.2c1-.1,2.1-.5,3-1,0,.5,0,1.1,0,1.9.5-.4,1-.7,1.6-1.1.7-.4,1.1-.7,1.8-.7,1.8,0,2.8,1.4,2.8,3.5v4.4c0,1.7.1,1.8,1.3,2v.3h-4.5Z"/>
    <path class="st1" d="M261.9,163c-.5,0-2.1.4-3.4.9,0-.5,0-1.1,0-1.6-.6.4-1.3.8-1.9,1.1-.6.3-1,.4-1.3.4-1.8,0-4.1-1.8-4.1-4.9s2.7-5.5,5.8-5.5,1,0,1.5.2v-4c0-1.5-.1-1.8-1.7-2v-.3c1.1,0,2.8-.4,3.6-.8,0,.5,0,2,0,2.9v11.4c0,1.2.2,1.5,1,1.7h.6v.4ZM258.6,155.3c-.5-.8-1.6-1.1-2.6-1.1s-2.8.8-2.8,4.1c0,2.9,1.7,4.5,3.2,4.5s1.5-.3,2.1-.8v-6.6Z"/>
    <path class="st1" d="M271.1,161.6c-1.4,1.8-2.9,2.3-3.6,2.3-2.8,0-4.4-2.3-4.4-4.9s.5-2.9,1.5-3.9c.9-1,2.2-1.6,3.3-1.6,2,0,3.3,1.7,3.3,3.2,0,.4,0,.6-.1.6-.5.2-3.3.3-6.3.4,0,3.6,1.9,4.9,3.6,4.9s1.7-.3,2.6-1.2l.2.2ZM267.1,154.1c-1.1,0-2.1.9-2.4,2.9,1.3,0,3.7,0,4.2,0,.2,0,.2-.1.2-.4,0-1.2-.7-2.5-2.1-2.5Z"/>
    <path class="st1" d="M281.1,161.5c-1,1.3-2.5,2.4-3.8,2.4-2.8,0-4.4-2.3-4.4-4.7s.7-3.2,2.3-4.5c1.2-.9,2.5-1.3,3.3-1.3s1.6.2,2,.6c.2.2.3.3.3.5,0,.4-.5,1-.7,1s-.2,0-.4-.3c-.6-.6-1.4-.9-2.3-.9-1.5,0-2.7.9-2.8,3.6,0,3.3,2.2,4.4,3.5,4.4s1.8-.3,2.8-1.2l.2.2Z"/>
    <path class="st1" d="M282.2,163.6v-.3c1.4-.2,1.5-.3,1.5-2.1v-4.7c0-1.6,0-1.7-1.3-1.9v-.3c1-.2,2.1-.5,3.1-.9,0,.5,0,1.9,0,2.9v4.9c0,1.7.1,1.8,1.5,2.1v.3h-4.8ZM284.4,150.6c-.5,0-1.1-.5-1.1-1.1s.5-1.1,1.1-1.1,1.1.4,1.1,1.1-.5,1.1-1.1,1.1Z"/>
    <path class="st1" d="M293,163.6h-4.9v-.3c1.3-.2,1.4-.3,1.4-2v-4.8c0-1.5,0-1.6-1.2-1.9v-.2c1.1-.2,2-.5,3-1,0,.4,0,1.7,0,2.5.6-1,1.7-2.4,2.8-2.4s1.2.5,1.2,1-.3,1-.7,1.2c-.2.2-.4.1-.6,0-.4-.4-.6-.6-1.1-.6s-1.1.5-1.7,1.6v4.7c0,1.7.1,1.8,1.8,2v.3Z"/>
    <path class="st1" d="M302.2,163.6v-.3c1.4-.2,1.5-.4,1.5-2.2v-3.7c0-1.5-.5-2.7-2-2.7s-1.8.5-2.4,1v5.5c0,1.7.2,1.8,1.5,2v.3h-4.7v-.3c1.4-.2,1.5-.4,1.5-2.1v-4.8c0-1.4,0-1.6-1.2-1.9v-.2c1-.1,2.1-.5,3-1,0,.5,0,1.1,0,1.9.5-.4,1-.7,1.6-1.1.7-.4,1.1-.7,1.8-.7,1.8,0,2.8,1.4,2.8,3.5v4.4c0,1.7.1,1.8,1.3,2v.3h-4.5Z"/>
    <path class="st1" d="M313.1,153.4c2.9,0,4.8,2.3,4.8,5s-2.6,5.4-4.8,5.4-4.9-2.5-4.9-5.1c0-3.6,2.9-5.4,4.9-5.4ZM312.8,154c-1.6,0-2.6,1.7-2.6,4.2s1.3,5.2,3.2,5.2,2.5-1,2.5-4.4-1.1-5-3.1-5Z"/>
    <path class="st1" d="M325.1,156.2c-.4-1.6-1.3-2.3-2.4-2.3s-1.5.6-1.5,1.6.8,1.6,1.9,2.2c1.7.8,2.7,1.6,2.7,3.1s-1.8,3.1-3.5,3.1-1.9-.3-2.4-.5c-.1-.4-.4-1.9-.4-2.5h.3c.4,1.3,1.3,2.5,2.9,2.5s1.7-.7,1.7-1.7-.6-1.7-1.8-2.3c-1.3-.7-2.6-1.5-2.6-3.1,0-1.6,1.3-2.9,3.3-2.9.9,0,1.6.2,2,.2,0,.5.2,2,.3,2.4h-.3Z"/>
    <path class="st1" d="M64.4,189.8c-1,1.3-2.5,2.4-3.8,2.4-2.8,0-4.4-2.3-4.4-4.7s.7-3.2,2.3-4.5c1.2-.9,2.5-1.3,3.3-1.3s1.6.2,2,.6c.2.2.3.3.3.5,0,.4-.5,1-.7,1s-.2,0-.4-.3c-.6-.6-1.4-.9-2.3-.9-1.5,0-2.7.9-2.8,3.6,0,3.3,2.2,4.4,3.5,4.4s1.8-.3,2.8-1.2l.2.2Z"/>
    <path class="st1" d="M70.6,181.7c2.9,0,4.8,2.3,4.8,5s-2.6,5.4-4.8,5.4-4.9-2.5-4.9-5.1c0-3.6,2.9-5.4,4.9-5.4ZM70.3,182.2c-1.6,0-2.6,1.7-2.6,4.2s1.3,5.2,3.2,5.2,2.5-1,2.5-4.4-1.1-5-3.1-5Z"/>
    <path class="st1" d="M82.9,191.9v-.3c1.4-.2,1.5-.4,1.5-2.2v-3.7c0-1.5-.5-2.7-2-2.7s-1.8.5-2.4,1v5.5c0,1.7.2,1.8,1.5,2v.3h-4.7v-.3c1.4-.2,1.5-.4,1.5-2.1v-4.8c0-1.4,0-1.6-1.2-1.9v-.2c1-.1,2.1-.5,3-1,0,.5,0,1.1,0,1.9.5-.4,1-.7,1.6-1.1.7-.4,1.1-.7,1.8-.7,1.8,0,2.8,1.4,2.8,3.5v4.4c0,1.7.1,1.8,1.3,2v.3h-4.5Z"/>
    <path class="st1" d="M103.9,191.4c-1.1.1-2.5.5-3.3.8,0-.4,0-1.2,0-1.8-1.1,1.1-2.2,1.8-3.3,1.8-1.5,0-2.7-.9-2.7-3.2v-5c0-1-.3-1.2-.9-1.4h-.4v-.4c.8,0,2.3-.2,3.1-.4,0,.5,0,1.3,0,3.2v3.2c0,2,1,2.6,2,2.6s1.7-.2,2.3-1v-5.6c0-1.2-.3-1.4-1.1-1.6h-.5v-.4c1.2,0,2.6-.2,3.4-.4v7.6c0,1.3.2,1.4,1,1.5h.6v.4Z"/>
    <path class="st1" d="M111.1,191.9v-.3c1.4-.2,1.5-.4,1.5-2.2v-3.7c0-1.5-.5-2.7-2-2.7s-1.8.5-2.4,1v5.5c0,1.7.2,1.8,1.5,2v.3h-4.7v-.3c1.4-.2,1.5-.4,1.5-2.1v-4.8c0-1.4,0-1.6-1.2-1.9v-.2c1-.1,2.1-.5,3-1,0,.5,0,1.1,0,1.9.5-.4,1-.7,1.6-1.1.7-.4,1.1-.7,1.8-.7,1.8,0,2.8,1.4,2.8,3.5v4.4c0,1.7.1,1.8,1.3,2v.3h-4.5Z"/>
    <path class="st1" d="M132.3,191.3c-.5,0-2.1.4-3.4.9,0-.5,0-1.1,0-1.6-.6.4-1.3.8-1.9,1.1-.6.3-1,.4-1.3.4-1.8,0-4.1-1.8-4.1-4.9s2.7-5.5,5.8-5.5,1,0,1.5.2v-4c0-1.5-.1-1.8-1.7-2v-.3c1.1,0,2.8-.4,3.6-.8,0,.5,0,2,0,2.9v11.4c0,1.2.2,1.5,1,1.7h.6v.4ZM128.9,183.6c-.5-.8-1.6-1.1-2.6-1.1s-2.8.8-2.8,4.1c0,2.9,1.7,4.5,3.2,4.5s1.5-.3,2.1-.8v-6.6Z"/>
    <path class="st1" d="M141.4,189.9c-1.4,1.8-2.9,2.3-3.6,2.3-2.8,0-4.4-2.3-4.4-4.9s.5-2.9,1.5-3.9c.9-1,2.2-1.6,3.3-1.6,2,0,3.3,1.7,3.3,3.2,0,.4,0,.6-.1.6-.5.2-3.3.3-6.3.4,0,3.6,1.9,4.9,3.6,4.9s1.7-.3,2.6-1.2l.2.2ZM137.5,182.4c-1.1,0-2.1.9-2.4,2.9,1.3,0,3.7,0,4.2,0,.2,0,.2-.1.2-.4,0-1.2-.7-2.5-2.1-2.5Z"/>
    <path class="st1" d="M147.2,191.9c-.3.2-.6.2-.8.2-1.4,0-2.2-.9-2.2-2.7v-6.8h-1.6c0-.1.3-.7.3-.7h1.3v-2.2c.5-.4,1.2-.9,1.6-1.4h.2c0,.5,0,1.8,0,3.6h2.4c0,.1,0,.5-.1.7h-2.3v6.2c0,1.9.7,2.3,1.4,2.3s1-.2,1.3-.3v.3c0,0-1.5.9-1.5.9Z"/>
    <path class="st1" d="M156.6,192.2c-.4,0-.8-.1-1.1-.5-.2-.3-.4-.5-.5-1.1-.8.6-2.1,1.5-2.6,1.5-1.6,0-2.6-1.4-2.6-2.6s.6-1.7,1.7-2.1c1.3-.5,3-1,3.6-1.4v-.8c0-1.7-.8-2.7-2-2.7s-.8.1-1,.4c-.2.3-.4.9-.6,1.5,0,.4-.3.4-.5.4-.4,0-.9-.4-.9-.9s.2-.4.6-.7c.7-.5,2.3-1.4,3.3-1.6.7,0,1.3.2,1.8.6.8.7,1,1.5,1,2.9v4.2c0,1.1.4,1.5.8,1.5s.5,0,.7-.2v.3c.1,0-1.6,1.2-1.6,1.2ZM154.9,186.5c-.4.2-1.5.7-2.1,1-.8.4-1.3.8-1.3,1.7s.9,1.8,1.7,1.8,1.2-.2,1.7-.7c0-1.2,0-2.4,0-3.7Z"/>
    <path class="st1" d="M159,191.9v-.3c1.3-.2,1.5-.3,1.5-2.1v-11.3c0-1.8-.1-2-1.5-2.2v-.3c1,0,2.5-.5,3.3-.8,0,.6,0,1.6,0,3.3v11.3c0,1.7,0,1.9,1.5,2.1v.3h-4.7Z"/>
    <path class="st1" d="M164.6,191.9v-.3c1.3-.2,1.5-.3,1.5-2.1v-11.3c0-1.8-.1-2-1.5-2.2v-.3c1,0,2.5-.5,3.3-.8,0,.6,0,1.6,0,3.3v11.3c0,1.7,0,1.9,1.5,2.1v.3h-4.7Z"/>
    <path class="st1" d="M178.6,189.9c-1.4,1.8-2.9,2.3-3.6,2.3-2.8,0-4.4-2.3-4.4-4.9s.5-2.9,1.5-3.9c.9-1,2.2-1.6,3.3-1.6,2,0,3.3,1.7,3.3,3.2,0,.4,0,.6-.1.6-.5.2-3.3.3-6.3.4,0,3.6,1.9,4.9,3.6,4.9s1.7-.3,2.6-1.2l.2.2ZM174.7,182.4c-1.1,0-2.1.9-2.4,2.9,1.3,0,3.7,0,4.2,0,.2,0,.2-.1.2-.4,0-1.2-.7-2.5-2.1-2.5Z"/>
    <path class="st1" d="M181.5,192.2c-.7,0-1.2-.5-1.2-1.2s.5-1.2,1.2-1.2,1.2.5,1.2,1.2-.5,1.2-1.2,1.2Z"/>
    <path class="st1" d="M196.3,191.9v-.3c1.4-.3,1.7-.5,1.3-1.4-.3-1-.9-2.6-1.5-4.4h-4.7c-.5,1.4-.9,2.6-1.3,3.7-.5,1.6-.2,1.8,1.6,2.1v.3h-5v-.3c1.4-.2,1.7-.4,2.6-2.6l4.9-12.7h.4c1.5,4.2,3,8.5,4.6,12.8.7,2.1,1,2.1,2.5,2.5v.3h-5.5ZM193.8,179.2c-.8,2-1.4,4-2.1,5.9h4.2l-2-5.9Z"/>
    <path class="st1" d="M205.4,189c-.6.5-.7,1-.7,1.2,0,.5.4,1,1.4,1s1.7,0,2.4,0c1.8,0,3.4.8,3.4,2.8s-2.6,4.6-5.5,4.6-4.1-1.6-4.1-2.9.2-.9.5-1.2c.4-.4,1.4-1.2,2-1.7-.9-.3-1.4-.8-1.7-1.3-.2-.3-.3-.7-.2-1,.6-.4,1.7-1.1,2.2-1.7l.4.2ZM206.6,189.2c-2.3,0-3.8-1.7-3.8-3.6s2-3.9,4-3.9,1.5.2,2.2.6c.8,0,2.3-.3,2.9-.5h.1c-.2.5-.5,1.1-.8,1.3-.4,0-1,0-1.5,0,.5.5.8,1.4.8,2.2,0,2.5-2.2,3.8-3.9,3.8ZM207.2,192.7c-1.4,0-1.7,0-1.9.2-1,.7-1.4,1.3-1.4,2.2,0,1.4,1.5,2.6,3.4,2.6s3.2-1.4,3.2-2.7-.5-1.6-1.3-2c-.5-.2-1.1-.3-2-.3ZM206.5,182.2c-1.1,0-1.9,1-1.9,3s.9,3.6,2.3,3.6c1.1,0,1.8-1,1.8-3s-.9-3.5-2.2-3.5Z"/>
    <path class="st1" d="M217.6,191.9h-4.9v-.3c1.3-.2,1.4-.3,1.4-2v-4.8c0-1.5,0-1.6-1.2-1.9v-.2c1.1-.2,2-.5,3-1,0,.4,0,1.7,0,2.5.6-1,1.7-2.4,2.8-2.4s1.2.5,1.2,1-.3,1-.7,1.2c-.2.2-.4.1-.5,0-.4-.4-.6-.6-1.1-.6s-1.1.5-1.7,1.6v4.7c0,1.7.1,1.8,1.8,2v.3Z"/>
    <path class="st1" d="M227.7,192.2c-.4,0-.8-.1-1.1-.5-.2-.3-.4-.5-.5-1.1-.8.6-2.1,1.5-2.6,1.5-1.6,0-2.6-1.4-2.6-2.6s.6-1.7,1.7-2.1c1.3-.5,3-1,3.6-1.4v-.8c0-1.7-.8-2.7-2-2.7s-.8.1-1,.4c-.2.3-.4.9-.6,1.5,0,.4-.3.4-.5.4-.4,0-.9-.4-.9-.9s.2-.4.6-.7c.7-.5,2.3-1.4,3.3-1.6.7,0,1.3.2,1.8.6.8.7,1,1.5,1,2.9v4.2c0,1.1.4,1.5.8,1.5s.5,0,.7-.2v.3c.1,0-1.6,1.2-1.6,1.2ZM226.1,186.5c-.4.2-1.5.7-2.1,1-.8.4-1.3.8-1.3,1.7s.9,1.8,1.7,1.8,1.2-.2,1.7-.7c0-1.2,0-2.4,0-3.7Z"/>
    <path class="st1" d="M241,191.3c-.5,0-2.1.4-3.4.9,0-.5,0-1.1,0-1.6-.6.4-1.3.8-1.9,1.1-.6.3-1,.4-1.3.4-1.8,0-4.1-1.8-4.1-4.9s2.7-5.5,5.7-5.5,1,0,1.5.2v-4c0-1.5-.1-1.8-1.7-2v-.3c1.1,0,2.8-.4,3.6-.8,0,.5,0,2,0,2.9v11.4c0,1.2.2,1.5,1,1.7h.6v.4ZM237.7,183.6c-.5-.8-1.6-1.1-2.6-1.1s-2.8.8-2.8,4.1c0,2.9,1.7,4.5,3.2,4.5s1.5-.3,2.1-.8v-6.6Z"/>
    <path class="st1" d="M250.2,189.9c-1.4,1.8-2.9,2.3-3.6,2.3-2.8,0-4.4-2.3-4.4-4.9s.5-2.9,1.5-3.9c.9-1,2.2-1.6,3.3-1.6,2,0,3.3,1.7,3.3,3.2,0,.4,0,.6-.1.6-.5.2-3.3.3-6.3.4,0,3.6,1.9,4.9,3.6,4.9s1.7-.3,2.6-1.2l.2.2ZM246.2,182.4c-1.1,0-2.1.9-2.4,2.9,1.3,0,3.7,0,4.2,0,.2,0,.2-.1.2-.4,0-1.2-.7-2.5-2.1-2.5Z"/>
    <path class="st1" d="M260.2,189.8c-1,1.3-2.5,2.4-3.8,2.4-2.8,0-4.4-2.3-4.4-4.7s.7-3.2,2.3-4.5c1.2-.9,2.5-1.3,3.3-1.3s1.6.2,2,.6c.2.2.3.3.3.5,0,.4-.5,1-.7,1s-.2,0-.4-.3c-.6-.6-1.4-.9-2.3-.9-1.5,0-2.7.9-2.8,3.6,0,3.3,2.2,4.4,3.5,4.4s1.8-.3,2.8-1.2l.2.2Z"/>
    <path class="st1" d="M269.5,189.9c-1.4,1.8-2.9,2.3-3.6,2.3-2.8,0-4.4-2.3-4.4-4.9s.5-2.9,1.5-3.9c.9-1,2.2-1.6,3.3-1.6,2,0,3.3,1.7,3.3,3.2,0,.4,0,.6-.1.6-.5.2-3.3.3-6.3.4,0,3.6,1.9,4.9,3.6,4.9s1.7-.3,2.6-1.2l.2.2ZM265.5,182.4c-1.1,0-2.1.9-2.4,2.9,1.3,0,3.7,0,4.2,0,.2,0,.2-.1.2-.4,0-1.2-.7-2.5-2.1-2.5Z"/>
    <path class="st1" d="M275.8,191.9h-4.9v-.3c1.3-.2,1.4-.3,1.4-2v-4.8c0-1.5,0-1.6-1.2-1.9v-.2c1.1-.2,2-.5,3-1,0,.4,0,1.7,0,2.5.6-1,1.7-2.4,2.8-2.4s1.2.5,1.2,1-.3,1-.7,1.2c-.2.2-.4.1-.5,0-.4-.4-.6-.6-1.1-.6s-1.1.5-1.7,1.6v4.7c0,1.7.1,1.8,1.8,2v.3Z"/>
    <path class="st1" d="M286.9,189.9c-1.4,1.8-2.9,2.3-3.6,2.3-2.8,0-4.4-2.3-4.4-4.9s.5-2.9,1.5-3.9c.9-1,2.2-1.6,3.3-1.6,2,0,3.3,1.7,3.3,3.2,0,.4,0,.6-.1.6-.5.2-3.3.3-6.3.4,0,3.6,1.9,4.9,3.6,4.9s1.7-.3,2.6-1.2l.2.2ZM282.9,182.4c-1.1,0-2.1.9-2.4,2.9,1.3,0,3.7,0,4.2,0,.2,0,.2-.1.2-.4,0-1.2-.7-2.5-2.1-2.5Z"/>
    <path class="st1" d="M300.2,191.9v-.3c1.4-.2,1.5-.4,1.5-2.2v-3.7c0-1.6-.4-2.7-1.9-2.7s-1.5.3-2.4,1.1c0,.3,0,.5,0,1.1v4.6c0,1.6.1,1.7,1.4,2v.3h-4.5v-.3c1.3-.2,1.4-.4,1.4-2v-4.1c0-1.7-.5-2.6-2-2.6s-1.6.4-2.3,1.1v5.6c0,1.6,0,1.8,1.4,2v.3h-4.7v-.3c1.4-.2,1.5-.4,1.5-2v-4.8c0-1.5-.1-1.6-1.2-1.9v-.2c1.1-.2,1.9-.5,3-1,0,.8,0,1.4,0,1.8.4-.3.9-.7,1.5-1.1.7-.4,1.2-.7,1.9-.7,1.1,0,1.9.5,2.4,1.8.6-.5,1.3-1,1.9-1.3.6-.4,1-.5,1.6-.5,1.7,0,2.7,1.3,2.7,3.5v4.3c0,1.8.1,1.8,1.3,2.1v.3h-4.5Z"/>
    <path class="st1" d="M311,181.7c2.9,0,4.8,2.3,4.8,5s-2.6,5.4-4.8,5.4-4.9-2.5-4.9-5.1c0-3.6,2.9-5.4,4.9-5.4ZM310.7,182.2c-1.6,0-2.6,1.7-2.6,4.2s1.3,5.2,3.2,5.2,2.5-1,2.5-4.4-1.1-5-3.1-5Z"/>
    <path class="st1" d="M323,184.5c-.4-1.6-1.3-2.3-2.4-2.3s-1.5.6-1.5,1.6.8,1.6,1.9,2.2c1.7.8,2.7,1.6,2.7,3.1s-1.8,3.1-3.5,3.1-1.9-.3-2.4-.5c-.1-.4-.4-1.9-.4-2.5h.3c.4,1.3,1.3,2.5,2.9,2.5s1.7-.7,1.7-1.7-.6-1.7-1.8-2.3c-1.3-.7-2.6-1.5-2.6-3.1,0-1.6,1.3-2.9,3.3-2.9.9,0,1.6.2,2,.2,0,.5.2,2,.3,2.4h-.3Z"/>
    <path class="st1" d="M61.2,218.1c-1,1.3-2.5,2.4-3.8,2.4-2.8,0-4.4-2.3-4.4-4.7s.7-3.2,2.3-4.5c1.2-.9,2.5-1.3,3.3-1.3s1.6.2,2,.6c.2.2.3.3.3.5,0,.4-.5,1-.7,1s-.2,0-.4-.3c-.6-.6-1.4-.9-2.3-.9-1.5,0-2.7.9-2.8,3.6,0,3.3,2.2,4.4,3.5,4.4s1.8-.3,2.8-1.2l.2.2Z"/>
    <path class="st1" d="M67.4,210c2.9,0,4.8,2.3,4.8,5s-2.6,5.4-4.8,5.4-4.9-2.5-4.9-5.1c0-3.6,2.9-5.4,4.9-5.4ZM67.1,210.5c-1.6,0-2.6,1.7-2.6,4.2s1.3,5.2,3.2,5.2,2.5-1,2.5-4.4-1.1-5-3.1-5Z"/>
    <path class="st1" d="M79.7,220.2v-.3c1.4-.2,1.5-.4,1.5-2.2v-3.7c0-1.5-.5-2.7-2-2.7s-1.8.5-2.4,1v5.5c0,1.7.2,1.8,1.5,2v.3h-4.7v-.3c1.4-.2,1.5-.4,1.5-2.1v-4.8c0-1.4,0-1.6-1.2-1.9v-.2c1-.1,2.1-.5,3-1,0,.5,0,1.1,0,1.9.5-.4,1-.7,1.6-1.1.7-.4,1.1-.7,1.8-.7,1.8,0,2.8,1.4,2.8,3.5v4.4c0,1.6.1,1.8,1.3,2v.3h-4.5Z"/>
    <path class="st1" d="M98.3,218.1c-1.4,1.8-2.9,2.3-3.6,2.3-2.8,0-4.4-2.3-4.4-4.9s.5-2.9,1.5-3.9c.9-1,2.2-1.6,3.3-1.6,2,0,3.3,1.7,3.3,3.2,0,.4,0,.6-.1.6-.5.2-3.3.3-6.3.4,0,3.6,1.9,4.9,3.6,4.9s1.7-.3,2.6-1.2l.2.2ZM94.4,210.7c-1.1,0-2.1.9-2.4,2.9,1.3,0,3.7,0,4.2,0,.2,0,.2-.1.2-.4,0-1.2-.7-2.5-2.1-2.5Z"/>
    <path class="st1" d="M99.4,220.2v-.3c1.3-.2,1.5-.3,1.5-2.1v-11.3c0-1.8-.1-2-1.5-2.2v-.3c1,0,2.5-.5,3.3-.8,0,.6,0,1.6,0,3.3v11.3c0,1.7,0,1.9,1.5,2.1v.3h-4.7Z"/>
    <path class="st1" d="M117.7,218.1c-1,1.3-2.5,2.4-3.8,2.4-2.8,0-4.4-2.3-4.4-4.7s.7-3.2,2.3-4.5c1.2-.9,2.5-1.3,3.3-1.3s1.6.2,2,.6c.2.2.3.3.3.5,0,.4-.5,1-.7,1s-.2,0-.4-.3c-.6-.6-1.4-.9-2.3-.9-1.5,0-2.7.9-2.8,3.6,0,3.3,2.2,4.4,3.5,4.4s1.8-.3,2.8-1.2l.2.2Z"/>
    <path class="st1" d="M123.9,210c2.9,0,4.8,2.3,4.8,5s-2.6,5.4-4.8,5.4-4.9-2.5-4.9-5.1c0-3.6,2.9-5.4,4.9-5.4ZM123.6,210.5c-1.6,0-2.6,1.7-2.6,4.2s1.3,5.2,3.2,5.2,2.5-1,2.5-4.4-1.1-5-3.1-5Z"/>
    <path class="st1" d="M135,220.2h-4.9v-.3c1.3-.2,1.4-.3,1.4-2v-4.8c0-1.5,0-1.6-1.2-1.9v-.2c1.1-.2,2-.5,3-1,0,.4,0,1.7,0,2.5.6-1,1.7-2.4,2.8-2.4s1.2.5,1.2,1-.3,1-.7,1.2c-.2.2-.4.1-.6,0-.4-.4-.6-.6-1.1-.6s-1.1.5-1.7,1.6v4.7c0,1.7.1,1.8,1.8,2v.3Z"/>
    <path class="st1" d="M145.2,220.5c-.4,0-.8-.1-1.1-.5-.2-.3-.4-.5-.5-1.1-.8.6-2.1,1.5-2.6,1.5-1.6,0-2.6-1.4-2.6-2.6s.6-1.7,1.7-2.1c1.3-.5,3-1,3.6-1.4v-.8c0-1.7-.8-2.7-2-2.7s-.8.2-1,.4c-.2.3-.4.9-.6,1.5,0,.4-.3.4-.5.4-.4,0-.9-.4-.9-.9s.2-.4.6-.7c.7-.5,2.3-1.4,3.3-1.6.7,0,1.3.2,1.8.6.8.7,1,1.5,1,2.9v4.2c0,1.1.4,1.5.8,1.5s.5,0,.7-.2v.3c.1,0-1.6,1.2-1.6,1.2ZM143.6,214.8c-.4.2-1.5.7-2.1,1-.8.4-1.3.8-1.3,1.7s.9,1.8,1.7,1.8,1.2-.2,1.7-.7c0-1.2,0-2.4,0-3.7Z"/>
    <path class="st1" d="M156.1,217.3c-.2.8-.6,2-.9,2.8h-7.3v-.2c1.8-2.9,3.7-6,5.5-9.1h-2.2c-1.7,0-2,.3-2.9,2.2h-.3c.2-.8.5-2.3.6-3.3h.3c.1.4.4.5,1.3.5h5.4v.2c-1.7,2.9-3.5,5.9-5.5,9.1h2.4c1.8,0,2.2-.4,3.3-2.4h.3Z"/>
    <path class="st1" d="M161.9,210c2.9,0,4.8,2.3,4.8,5s-2.6,5.4-4.8,5.4-4.9-2.5-4.9-5.1c0-3.6,2.9-5.4,4.9-5.4ZM161.6,210.5c-1.6,0-2.6,1.7-2.6,4.2s1.3,5.2,3.2,5.2,2.5-1,2.5-4.4-1.1-5-3.1-5ZM161.1,208.3l2.4-3.7c.2-.1,1.7-.2,1.9-.2h0c0,.1-4.1,4.1-4.1,4.1l-.3-.2Z"/>
    <path class="st1" d="M174.3,220.2v-.3c1.4-.2,1.5-.4,1.5-2.2v-3.7c0-1.5-.5-2.7-2-2.7s-1.8.5-2.4,1v5.5c0,1.7.2,1.8,1.5,2v.3h-4.7v-.3c1.4-.2,1.5-.4,1.5-2.1v-4.8c0-1.4,0-1.6-1.2-1.9v-.2c1-.1,2.1-.5,3-1,0,.5,0,1.1,0,1.9.5-.4,1-.7,1.6-1.1.7-.4,1.1-.7,1.8-.7,1.8,0,2.8,1.4,2.8,3.5v4.4c0,1.6.1,1.8,1.3,2v.3h-4.5Z"/>
    <path class="st1" d="M193,218.1c-1,1.3-2.5,2.4-3.8,2.4-2.8,0-4.4-2.3-4.4-4.7s.7-3.2,2.3-4.5c1.2-.9,2.5-1.3,3.3-1.3s1.6.2,2,.6c.2.2.3.3.3.5,0,.4-.5,1-.7,1s-.2,0-.4-.3c-.6-.6-1.4-.9-2.3-.9-1.5,0-2.7.9-2.8,3.6,0,3.3,2.2,4.4,3.5,4.4s1.8-.3,2.8-1.2l.2.2Z"/>
    <path class="st1" d="M204.6,219.6c-1.1.1-2.5.5-3.3.8,0-.4,0-1.2,0-1.8-1.1,1.1-2.2,1.8-3.3,1.8-1.5,0-2.7-.9-2.7-3.2v-5c0-1-.3-1.2-.9-1.4h-.4v-.4c.8,0,2.3-.2,3.1-.4,0,.5,0,1.3,0,3.2v3.2c0,2,1,2.6,2,2.6s1.7-.2,2.3-1v-5.6c0-1.2-.3-1.4-1.1-1.6h-.5v-.4c1.2,0,2.6-.2,3.4-.4v7.6c0,1.3.2,1.4,1,1.5h.6v.4Z"/>
    <path class="st1" d="M212.7,220.5c-.4,0-.8-.1-1.1-.5-.2-.3-.4-.5-.5-1.1-.8.6-2.1,1.5-2.6,1.5-1.6,0-2.6-1.4-2.6-2.6s.6-1.7,1.7-2.1c1.3-.5,3-1,3.6-1.4v-.8c0-1.7-.8-2.7-2-2.7s-.8.2-1,.4c-.2.3-.4.9-.6,1.5,0,.4-.3.4-.5.4-.4,0-.9-.4-.9-.9s.2-.4.6-.7c.7-.5,2.3-1.4,3.3-1.6.7,0,1.3.2,1.8.6.8.7,1,1.5,1,2.9v4.2c0,1.1.4,1.5.8,1.5s.5,0,.7-.2v.3c.1,0-1.6,1.2-1.6,1.2ZM211.1,214.8c-.4.2-1.5.7-2.1,1-.8.4-1.3.8-1.3,1.7s.9,1.8,1.7,1.8,1.2-.2,1.7-.7c0-1.2,0-2.4,0-3.7Z"/>
    <path class="st1" d="M215.1,220.2v-.3c1.3-.2,1.5-.3,1.5-2.1v-11.3c0-1.8-.1-2-1.5-2.2v-.3c1,0,2.5-.5,3.3-.8,0,.6,0,1.6,0,3.3v11.3c0,1.7,0,1.9,1.5,2.1v.3h-4.7Z"/>
    <path class="st1" d="M226.5,226.4v-.3c1.6-.2,1.7-.4,1.7-2.3v-4.3l-2.4,1c-3.2,0-4.8-2.6-4.8-4.8,0-3.3,3.2-5.6,5.9-5.6.8,0,1.4.2,1.8.3.3,0,.4,0,.5,0,.1,0,.5,0,.8-.2h0c0,.5-.1,1-.1,2.5v11c0,2,0,2.1,1.7,2.4v.3h-5.1ZM228.2,211.7c-.5-.6-1.5-.9-2.4-.9-1.7,0-2.9,1.2-2.9,4s1.8,4.6,3.7,4.6,1.2-.1,1.5-.4v-7.3Z"/>
    <path class="st1" d="M242.9,219.6c-1.1.1-2.5.5-3.3.8,0-.4,0-1.2,0-1.8-1.1,1.1-2.2,1.8-3.3,1.8-1.5,0-2.7-.9-2.7-3.2v-5c0-1-.3-1.2-.9-1.4h-.4v-.4c.8,0,2.3-.2,3.1-.4,0,.5,0,1.3,0,3.2v3.2c0,2,1,2.6,2,2.6s1.7-.2,2.3-1v-5.6c0-1.2-.3-1.4-1.1-1.6h-.5v-.4c1.2,0,2.6-.2,3.4-.4v7.6c0,1.3.2,1.4,1,1.5h.6v.4Z"/>
    <path class="st1" d="M243.9,220.2v-.3c1.4-.2,1.5-.3,1.5-2.1v-4.7c0-1.6,0-1.7-1.3-1.9v-.3c1-.2,2.1-.5,3.1-.9,0,.5,0,1.9,0,2.9v4.9c0,1.7.1,1.8,1.5,2.1v.3h-4.8ZM246.2,207.2c-.5,0-1.1-.5-1.1-1.1s.5-1.1,1.1-1.1,1.1.4,1.1,1.1-.5,1.1-1.1,1.1Z"/>
    <path class="st1" d="M257.9,218.1c-1.4,1.8-2.9,2.3-3.6,2.3-2.8,0-4.4-2.3-4.4-4.9s.5-2.9,1.5-3.9c.9-1,2.2-1.6,3.3-1.6,2,0,3.3,1.7,3.3,3.2,0,.4,0,.6-.1.6-.5.2-3.3.3-6.3.4,0,3.6,1.9,4.9,3.6,4.9s1.7-.3,2.6-1.2l.2.2ZM254,210.7c-1.1,0-2.1.9-2.4,2.9,1.3,0,3.7,0,4.2,0,.2,0,.2-.1.2-.4,0-1.2-.7-2.5-2.1-2.5Z"/>
    <path class="st1" d="M264.3,220.2h-4.9v-.3c1.3-.2,1.4-.3,1.4-2v-4.8c0-1.5,0-1.6-1.2-1.9v-.2c1.1-.2,2-.5,3-1,0,.4,0,1.7,0,2.5.6-1,1.7-2.4,2.8-2.4s1.2.5,1.2,1-.3,1-.7,1.2c-.2.2-.4.1-.6,0-.4-.4-.6-.6-1.1-.6s-1.1.5-1.7,1.6v4.7c0,1.7.1,1.8,1.8,2v.3Z"/>
    <path class="st1" d="M278.5,220.5c-.4,0-.8-.1-1.1-.5-.2-.3-.4-.5-.5-1.1-.8.6-2.1,1.5-2.6,1.5-1.6,0-2.6-1.4-2.6-2.6s.6-1.7,1.7-2.1c1.3-.5,3-1,3.6-1.4v-.8c0-1.7-.8-2.7-2-2.7s-.8.2-1,.4c-.2.3-.4.9-.6,1.5,0,.4-.3.4-.5.4-.4,0-.9-.4-.9-.9s.2-.4.6-.7c.7-.5,2.3-1.4,3.3-1.6.7,0,1.3.2,1.8.6.8.7,1,1.5,1,2.9v4.2c0,1.1.4,1.5.8,1.5s.5,0,.7-.2v.3c.1,0-1.6,1.2-1.6,1.2ZM276.8,214.8c-.4.2-1.5.7-2.1,1-.8.4-1.3.8-1.3,1.7s.9,1.8,1.7,1.8,1.2-.2,1.7-.7c0-1.2,0-2.4,0-3.7Z"/>
    <path class="st1" d="M280.9,210.8c1.1-.2,2.3-.6,3.2-1,0,.4,0,1.1,0,1.8.5-.3,1.4-.9,1.8-1.1.6-.3,1-.5,1.4-.5,2.5,0,3.9,2.2,3.9,4.3,0,3.3-2.7,5.6-5.6,6.1-.6,0-1.2-.2-1.5-.4v3.5c0,2.1.2,2.2,1.8,2.5v.3h-5.1v-.3c1.4-.3,1.6-.4,1.6-2.2v-11c0-1.5-.2-1.6-1.4-1.9v-.2ZM284,218.7c.5.6,1.4.8,2.3.8,2,0,3.1-1.4,3.1-4.2s-1.4-4.1-3-4.1-1.7.4-2.3.8v6.6Z"/>
    <path class="st1" d="M297.7,210c2.9,0,4.8,2.3,4.8,5s-2.6,5.4-4.8,5.4-4.9-2.5-4.9-5.1c0-3.6,2.9-5.4,4.9-5.4ZM297.4,210.5c-1.6,0-2.6,1.7-2.6,4.2s1.3,5.2,3.2,5.2,2.5-1,2.5-4.4-1.1-5-3.1-5Z"/>
    <path class="st1" d="M308.9,220.2h-4.9v-.3c1.3-.2,1.4-.3,1.4-2v-4.8c0-1.5,0-1.6-1.2-1.9v-.2c1.1-.2,2-.5,3-1,0,.4,0,1.7,0,2.5.6-1,1.7-2.4,2.8-2.4s1.2.5,1.2,1-.3,1-.7,1.2c-.2.2-.4.1-.6,0-.4-.4-.6-.6-1.1-.6s-1.1.5-1.7,1.6v4.7c0,1.7.1,1.8,1.8,2v.3Z"/>
    <path class="st1" d="M316.7,220.2c-.3.2-.6.2-.8.2-1.4,0-2.2-.9-2.2-2.7v-6.8h-1.6c0-.1.3-.7.3-.7h1.3v-2.2c.5-.4,1.2-.9,1.6-1.4h.2c0,.5,0,1.8,0,3.6h2.4c0,.1,0,.5-.1.7h-2.3v6.2c0,1.9.7,2.3,1.4,2.3s1-.2,1.3-.3v.3c0,0-1.5.9-1.5.9Z"/>
    <path class="st1" d="M327,218.1c-1.4,1.8-2.9,2.3-3.6,2.3-2.8,0-4.4-2.3-4.4-4.9s.5-2.9,1.5-3.9c.9-1,2.2-1.6,3.3-1.6,2,0,3.3,1.7,3.3,3.2,0,.4,0,.6-.1.6-.5.2-3.3.3-6.3.4,0,3.6,1.9,4.9,3.6,4.9s1.7-.3,2.6-1.2l.2.2ZM323,210.7c-1.1,0-2.1.9-2.4,2.9,1.3,0,3.7,0,4.2,0,.2,0,.2-.1.2-.4,0-1.2-.7-2.5-2.1-2.5Z"/>
    <path class="st1" d="M152.5,238.9c-1.2.2-1.4.5-2,1.8-.8,1.8-2.4,6-3.2,8h-.3c-.8-2.2-2-5.3-3.1-8.2-.5-1.3-.6-1.5-1.8-1.7v-.3h4.4v.3c-1.2.3-1.2.5-.9,1.4.6,1.8,1.5,4,2.2,5.8.8-2.1,1.6-4.2,2.1-5.7.4-1.2.2-1.3-1.2-1.6v-.3h3.9v.3Z"/>
    <path class="st1" d="M157.7,238.3c2.9,0,4.8,2.3,4.8,5s-2.6,5.4-4.8,5.4-4.9-2.5-4.9-5.1c0-3.6,2.9-5.4,4.9-5.4ZM157.4,238.8c-1.6,0-2.6,1.7-2.6,4.2s1.3,5.2,3.2,5.2,2.5-1,2.5-4.4-1.1-5-3.1-5Z"/>
    <path class="st1" d="M163.7,248.5v-.3c1.3-.2,1.5-.3,1.5-2.1v-11.3c0-1.8-.1-2-1.5-2.2v-.3c1,0,2.5-.5,3.3-.8,0,.6,0,1.6,0,3.3v11.3c0,1.7,0,1.9,1.5,2.1v.3h-4.7Z"/>
    <path class="st1" d="M179.9,247.9c-1.1.1-2.5.5-3.3.8,0-.4,0-1.2,0-1.8-1.1,1.1-2.2,1.8-3.3,1.8-1.5,0-2.7-.9-2.7-3.2v-5c0-1-.3-1.2-.9-1.4h-.4v-.4c.8,0,2.3-.2,3.1-.4,0,.5,0,1.3,0,3.2v3.2c0,2,1,2.6,2,2.6s1.7-.2,2.3-1v-5.6c0-1.2-.3-1.4-1.1-1.6h-.5v-.4c1.2,0,2.6-.2,3.4-.4v7.6c0,1.3.2,1.4,1,1.5h.6v.4Z"/>
    <path class="st1" d="M187.2,248.5v-.3c1.4-.2,1.5-.4,1.5-2.2v-3.7c0-1.5-.5-2.7-2-2.7s-1.8.5-2.4,1v5.5c0,1.7.2,1.8,1.5,2v.3h-4.7v-.3c1.4-.2,1.5-.4,1.5-2.1v-4.8c0-1.4,0-1.6-1.2-1.9v-.2c1-.1,2.1-.5,3-1,0,.5,0,1.1,0,1.9.5-.4,1-.7,1.6-1.1.7-.4,1.1-.7,1.8-.7,1.8,0,2.8,1.4,2.8,3.5v4.4c0,1.6.1,1.8,1.3,2v.3h-4.5Z"/>
    <path class="st1" d="M197.1,248.5c-.3.2-.6.2-.8.2-1.4,0-2.2-.9-2.2-2.7v-6.8h-1.6c0-.1.3-.7.3-.7h1.3v-2.2c.5-.4,1.2-.9,1.6-1.4h.2c0,.5,0,1.8,0,3.6h2.4c0,.1,0,.5-.1.7h-2.3v6.2c0,1.9.7,2.3,1.4,2.3s1-.2,1.3-.3v.3c0,0-1.5.9-1.5.9Z"/>
    <path class="st1" d="M206.5,248.8c-.4,0-.8-.1-1.1-.5-.2-.3-.4-.5-.5-1.1-.8.6-2.1,1.5-2.6,1.5-1.6,0-2.6-1.4-2.6-2.6s.6-1.7,1.7-2.1c1.3-.5,3-1,3.6-1.4v-.8c0-1.7-.8-2.7-2-2.7s-.8.2-1,.4c-.2.3-.4.9-.6,1.5,0,.4-.3.4-.5.4-.4,0-.9-.4-.9-.9s.2-.4.6-.7c.7-.5,2.3-1.4,3.3-1.6.7,0,1.3.2,1.8.6.8.7,1,1.5,1,2.9v4.2c0,1.1.4,1.5.8,1.5s.5,0,.7-.2v.3c.1,0-1.6,1.2-1.6,1.2ZM204.9,243.1c-.4.2-1.5.7-2.1,1-.8.4-1.3.8-1.3,1.7s.9,1.8,1.7,1.8,1.2-.2,1.7-.7c0-1.2,0-2.4,0-3.7Z"/>
    <path class="st1" d="M214.1,248.5h-4.9v-.3c1.3-.2,1.4-.3,1.4-2v-4.8c0-1.5,0-1.6-1.2-1.9v-.2c1.1-.2,2-.5,3-1,0,.4,0,1.7,0,2.5.6-1,1.7-2.4,2.8-2.4s1.2.5,1.2,1-.3,1-.7,1.2c-.2.2-.4.1-.6,0-.4-.4-.6-.6-1.1-.6s-1.1.5-1.7,1.6v4.7c0,1.7.1,1.8,1.8,2v.3Z"/>
    <path class="st1" d="M217.4,248.5v-.3c1.4-.2,1.5-.3,1.5-2.1v-4.7c0-1.6,0-1.7-1.3-1.9v-.3c1-.2,2.1-.5,3.1-.9,0,.5,0,1.9,0,2.9v4.9c0,1.7.1,1.8,1.5,2.1v.3h-4.8ZM219.6,235.4c-.5,0-1.1-.5-1.1-1.1s.5-1.1,1.1-1.1,1.1.4,1.1,1.1-.5,1.1-1.1,1.1Z"/>
    <path class="st1" d="M228.2,238.3c2.9,0,4.8,2.3,4.8,5s-2.6,5.4-4.8,5.4-4.9-2.5-4.9-5.1c0-3.6,2.9-5.4,4.9-5.4ZM228,238.8c-1.6,0-2.6,1.7-2.6,4.2s1.3,5.2,3.2,5.2,2.5-1,2.5-4.4-1.1-5-3.1-5Z"/>
    <path class="st1" d="M235.7,248.8c-.7,0-1.2-.5-1.2-1.2s.5-1.2,1.2-1.2,1.2.5,1.2,1.2-.5,1.2-1.2,1.2Z"/>
  </g>
</svg>