<?xml version="1.0" encoding="UTF-8"?>
<svg id="Capa_1" xmlns="http://www.w3.org/2000/svg" version="1.1" viewBox="0 0 380 401">
  <!-- Generator: Adobe Illustrator 29.5.1, SVG Export Plug-In . SVG Version: 2.1.0 Build 141)  -->
  <defs>
    <style>
      .st0 {
        fill: #b3907a;
      }

      .st1 {
        fill: #fff;
      }
    </style>
  </defs>
  <rect class="st0" x=".1" y="-.2" width="380" height="401"/>
  <g>
    <rect class="st1" x="106.1" y="288.6" width="168.1" height="93" rx="22.3" ry="22.3"/>
    <g>
      <path class="st0" d="M233.3,305.4c1.3,1.2,2.7,2.9,3.6,4.4s1.4,2.5,1.8,3.8c1.8-.8,3.7-1.2,5.7-1.4,3.4-.3,7.1-.4,8.6,3.3s-1.1,7.5-5,7.7h-.7l11,4.9c.4.3.7.7.7,1.2-1.3,3.2-2.8,6.4-4.2,9.6-.3.5-.8.7-1.4.7s-.6-.3-.9-.3v20c-.1,1.8.1,3.9,0,5.7s-.5,1.3-1.2,1.3h-42.6c-.7,0-1.2-.6-1.2-1.2v-26.8c0-.8.7-1.3,1.5-1.3,12.7.2,25.4-.2,38.2,0,12.8.2.3,0,.4,0,0-.2,0-.1-.1-.1-.3-.1-.6-.3-.9-.4-12-5.6-24.2-10.8-36.3-16.3-.8-.3-1.3-1-1-1.9,1.4-2.9,2.5-6,4-8.9s.9-1.1,1.8-.8l10.8,4.9c-3-2.9-1.9-8.2,2.2-9.4s3.7-.1,5.2,1.2h0ZM236.5,315.2v-.6c-.4-1.9-3.7-7-5.5-7.8-3.3-1.5-5.9,3.3-2.7,5.2s3.9,1.9,5.6,2.5,1.8.7,2.7.6h-.1ZM227.8,325.3l2.9-6.6-15.6-7-2.9,6.6,15.6,7ZM239.2,316.3c0,.1.2.4.3.5,1.1,1.1,5.7,3.1,7.3,3.6,3.3,1.2,5.5-3,2.9-5.1s-4.6-.6-6.1-.4-3.1.5-4.4,1.3h0ZM238.3,319.1c-.5-.5-1-.9-1.3-1.4h-2l3.3,1.5h0ZM230.2,326.3l4.8,2.1,2.9-6.4-4.9-2.2-2.9,6.5h0ZM253,336.6l2.9-6.6-15.6-7-2.9,6.6,15.6,7ZM224.7,339.7h-14.6v24.1h14.6v-24.1ZM249.8,339.7h-14.6v24.1h14.6v-24.1ZM232.6,339.7h-5.2v24.1h5.2v-24.1Z"/>
      <path class="st0" d="M209.4,306.2c2.6,3,.2,6.2-1.8,8.6s-2.1,2.5-2.9,3.2-1.1.5-1.7.2-1.4-1.3-1.7-1.7c-1.6-1.7-4.5-5.1-4.4-7.4.1-3.5,3.9-5.6,6.9-3.6,1.9-1.3,4.2-.9,5.7.8h-.1ZM203.6,315.2l.3-.2c.9-1,3.9-4.3,4-5.6s-.6-2-1.6-2.1c-1.5-.1-1.5,1.3-2.6,1.3s-1.1-.9-1.8-1.2c-1.4-.6-2.6.7-2.4,2.1s2.2,3.5,2.9,4.3.9.9,1.2,1.4h0Z"/>
      <path class="st0" d="M210.6,324.1c3.3,3.4-.6,7.8-3,10.4s-1.5,1.7-2,1.9-.8.2-1.2,0-1.6-1.6-2-2c-1.6-1.7-4.4-5-4.2-7.4.3-3.4,4-5.4,6.9-3.5,1.8-1.2,4.1-.9,5.5.6ZM202.3,325.4c-1,.2-1.7,1.5-1.4,2.5s2.3,3.4,3.2,4.5.9,1,1,1c.9-1,1.9-2,2.7-3.1s1.6-2.1,1.5-3-1-2-2.1-1.8-1.2,1.3-2.2,1.3-1.1-.9-1.8-1.2-.6-.2-1-.1h.1Z"/>
    </g>
  </g>
  <g>
    <path class="st1" d="M73.3,54.5c-4.1,0-8.3-1.2-12.5-3.6-2.6,1.2-5,1.8-7.3,1.8s-4.4-.5-6.6-1.5c-2.6-1.3-3.9-2.9-3.9-4.9s.6-2.5,1.7-3.4c1-.8,2.2-1.2,3.7-1.2,3.4,0,6.6,1.3,9.5,4,.7.7,1.4,1.3,2,1.8s1.1.9,1.5,1.2c2-1.6,3.9-4,5.8-7.1.8-1.3,1.5-2.7,2.3-4,.7-1.3,1.5-2.7,2.2-4-3.6-.2-6.7-1.1-9.5-2.6-3.5-1.9-5.3-4.4-5.3-7.6s.9-4.5,2.6-6.2c1.7-1.7,3.8-2.6,6.2-2.6s2.9.4,4,1.2c1.3.9,1.9,2.1,1.9,3.6s-.2.9-.6.9-.2-.3-.2-1,0-.2,0-.4,0-.4-.2-.6c-.7-2.1-2.3-3.1-4.8-3.1s-3.8.9-5.3,2.6-2.2,3.6-2.2,5.6c0,2.9,1.6,5.3,4.9,7.1,2.6,1.4,5.5,2.2,8.9,2.4,1.3-2.3,2.6-4.4,4-6.3s2.7-3.6,4.1-5.2c4.2-4.6,7.9-6.9,11.3-6.9s2.2.3,3,.8c.9.6,1.4,1.5,1.4,2.6,0,1.6-.9,3.5-2.8,5.9-.7.9-1.4,1.7-2.3,2.4-.8.8-1.7,1.5-2.6,2.2-.8.6-1.6,1.2-2.4,1.7s-1.7,1-2.6,1.4c-2,.9-4.2,1.6-6.7,1.8-1.7,3.9-3.5,7.1-5.4,9.4-2.2,2.9-5,5.2-8.2,7,3.8,2.7,7.4,4,11,4s3.5-.4,4.9-1.1c1.7-.9,2.6-2.3,2.6-4s0-.4.2-.4.2,0,.2.4v.2c0,1.8-.7,3.2-2.2,4.1-1.5.9-3.5,1.4-6.1,1.4l-.2.2ZM52.9,51.9c2.4,0,4.6-.6,6.6-1.8-1.1-.7-2.1-1.4-3.2-2.1-1.1-.7-2.1-1.4-3.2-2-3-1.9-5.2-2.8-6.7-2.8s-2.8.8-2.8,2.5.9,3.1,2.7,4.3c1.5,1,3.1,1.6,4.9,1.8h1.7ZM76.7,32.6c1-.2,2-.4,3-.6s1.9-.6,2.9-.9c.8-.3,1.6-.7,2.4-1.2.8-.4,1.5-1,2.3-1.5,1.8-1.3,3.3-2.9,4.8-4.6,1.9-2.2,2.8-4.2,2.8-5.7s-.7-2-2-2-2.4.4-3.9,1.2c-2.4,1.3-4.6,3.1-6.5,5.4s-3.6,5.2-5.1,8.5l-.7,1.5h0Z"/>
    <path class="st1" d="M89.8,51c-3.3,0-5-2.2-5-6.5s.6-5.6,1.7-9.1c.5-1.6,1.1-3.1,1.7-4.6.6-1.5,1.3-2.8,2-4.1.9-1.5,1.8-3,2.7-4.4.9-1.4,1.9-2.7,3-4,3.1-3.8,5.7-5.7,7.8-5.7s1.3.4,1.3,1.3-.5,2.9-1.4,5.3c-3.1,7.8-8.2,14.9-15.3,21.3-.7,2.6-1,4.6-1,6.2,0,2.7.8,4,2.5,4s1.1,0,1.7-.3c.5-.2,1-.5,1.4-.8,1.1-.9,2-1.9,2.8-3s1.4-2.3,2-3.4c.6-1.1,1.1-2.1,1.5-2.9,0-.2.2-.3.4-.2s0,.2,0,.4c-.8,1.7-1.7,3.5-2.7,5.3s-2.2,3.2-3.7,4.3c-1.1.8-2.3,1.2-3.5,1.2v-.3ZM88.6,39.8c.8-.7,1.7-1.5,2.6-2.6.9-1,1.9-2.2,2.9-3.5s2.1-2.8,3.1-4.3c1.1-1.6,2.1-3.3,3.2-5.1,2.9-4.9,4.3-8.2,4.3-10.2s-.2-1-.7-1c-1.5,0-4.2,3.2-8.1,9.7-1,1.8-1.9,3.6-2.8,5.3-1,2.2-1.8,4.2-2.6,6.1-.8,1.9-1.4,3.8-1.9,5.5h0Z"/>
    <path class="st1" d="M100.3,50.9c-1,0-1.8-.3-2.4-1s-.9-1.5-.9-2.5.3-2.1.8-3.5c.6-1.5,1.3-3.2,2.4-5.3.4-.9,1-2,1.7-3.3s1.6-2.8,2.6-4.4h0c.3.2.6.3,1,.3.9,0,1.8-.4,2.9-1.3h0c-.6.8-1.7,2.5-3.2,5.2-.5.9-.9,1.7-1.4,2.4s-.8,1.4-1.3,2.1c-2.4,4.1-3.6,7.1-3.6,9.1s.5,1.7,1.5,1.7c2.3,0,5.4-3.6,9.5-10.7.6-1,1.2-2.3,2-3.8s1.7-3.3,2.7-5.3h0c.3.1.6.2.8.3.2,0,.5.1.7.1.9,0,1.5-.4,1.9-1.2h.2l-4.8,9.3c-2.8,5.4-4.2,8.8-4.2,10.2s.3,1.1,1,1.1,1.1-.2,1.8-.6c.7-.4,1.5-1,2.2-1.9,1-1.1,1.8-2.2,2.5-3.3.7-1,1.5-2.5,2.5-4.3,0-.2.2-.3.4-.3s.2.2,0,.6c-.7,1.4-1.5,2.8-2.4,4.1-.8,1.4-1.8,2.6-3,3.8s-2.9,2.3-4.1,2.3-1.9-.3-2.4-.8c-.6-.5-.8-1.4-.8-2.6s.2-2.1.6-3.2c-2.7,4.4-5.3,6.7-7.8,6.7h.3Z"/>
    <path class="st1" d="M122.2,50.8c-2.5,0-3.8-1.6-3.8-4.8s.3-2.8.9-4.5c.3-.9.9-2.2,1.8-4s2-4,3.5-6.7h0c.3.2.7.3,1,.3,1,0,2-.4,3.1-1.2h0c-1.1,1.3-3.1,4.4-5.9,9.6-1.6,3.1-2.4,6-2.4,8.6s.5,2.3,1.5,2.3c2.5,0,5.4-2.7,8.6-8-.5-.8-.7-2-.7-3.6s0-1,0-1.5.1-1,.2-1.6c.1-.9.4-1.9.9-3,.6-1.4,1.2-2.1,1.9-2.1s1.2.7,1.2,2c0,2.4-1.1,5.6-3.2,9.7,0,.5.4,1.1.8,1.7.5.6,1,.9,1.7.9,1.8,0,3.3-1.4,4.8-4.3.1-.2.3-.3.4-.2.1,0,.2.2,0,.4-.8,1.5-1.6,2.7-2.4,3.4-.8.8-1.7,1.2-2.8,1.2s-1.1-.2-1.6-.6c-.5-.4-.9-1-1.3-1.7-.9,2-2.1,3.6-3.4,5-1.8,1.9-3.5,2.9-5.2,2.9l.3-.2Z"/>
    <path class="st1" d="M140.8,51.1c-2.7,0-4-1.5-4-4.5s.6-4.4,1.9-6.9l4.6-9h.2c.1.2.4.2.7.2.8,0,1.8-.5,3.1-1.4h.1c0,.1-5.2,10.2-5.2,10.2-2.2,4.2-3.2,7.1-3.2,8.7s.2,1.2.6,1.5c.4.3.9.4,1.4.4s1.1,0,1.7-.4c.6-.2,1-.5,1.4-.8,1.1-.9,2-1.8,2.8-3,.8-1.1,1.4-2.3,2-3.4.6-1.1,1.1-2.1,1.5-2.9.1-.2.2-.3.4-.2s.1.2,0,.4c-.8,1.7-1.7,3.5-2.7,5.3s-2.2,3.2-3.7,4.3c-.5.4-1.1.7-1.7.9s-1.2.4-1.9.4v.2ZM148,27.3c-1.3,0-2-.6-2-1.9s.6-2.1,1.9-2.1,2,.6,2,1.9-.6,2.1-1.9,2.1Z"/>
    <path class="st1" d="M164.3,50.7c-2.1,0-3.2-1.5-3.2-4.4s.2-2.4.6-3.9c-2.9,5.5-5.7,8.3-8.5,8.3s-2.4-.7-3.1-2c-.6-1-.9-2.3-.9-3.9s.2-2.6.6-4c.7-2.4,2.2-4.7,4.4-6.8,2.5-2.3,4.9-3.4,7.1-3.4s3.1,1.2,3.1,3.7-.2,2.3-.7,3.7l3.7-7.3h.2c.1.2.4.3.8.3.8,0,1.9-.5,3.1-1.5h.1c0,.1-5.2,10.3-5.2,10.3-2.1,4-3.1,7.1-3.1,9.2s.4,1.2,1.1,1.2,1.1-.2,1.8-.6,1.4-1,2.2-1.8c1-1.1,1.8-2.2,2.5-3.3.7-1,1.5-2.5,2.5-4.3.1-.2.2-.3.4-.3s.2.2,0,.6c-.7,1.4-1.5,2.8-2.4,4.1-.8,1.4-1.8,2.6-3,3.8-1.5,1.5-2.8,2.2-4.1,2.2h0ZM153.4,50.2c2.3,0,5.2-3.2,8.8-9.7,1.1-2,1.7-4.1,1.7-6.2s-.7-3.3-2.1-3.3-3.3,1.3-5.3,3.9c-.8,1.1-1.4,2.1-2,3.1s-1,2-1.3,2.9c-.9,2.4-1.3,4.6-1.3,6.6s.5,2.6,1.5,2.6h0Z"/>
    <path class="st1" d="M185.8,50.8c-1.5,0-2.5-.6-3.1-1.8s-.9-2.6-.9-4,.2-2.8.7-3.9c.6-1.5,1.4-3,2.5-4.6s2.4-2.9,4-4c1.5-1.1,3.2-1.6,5.1-1.6s3.1,1.2,3.1,3.5-.2,2.4-.7,3.8l10-19.6h.1c.2.2.4.2.9.2.9,0,1.9-.5,3.1-1.4h.1c0,.1-9.2,17.7-9.2,17.7-3.5,6.8-5.3,11.3-5.3,13.4s.4,1.7,1.3,1.7,1.1-.2,1.8-.6,1.4-1,2.2-1.8c1-1.1,1.8-2.2,2.5-3.3.7-1,1.5-2.5,2.5-4.3.1-.2.2-.3.4-.3s.2.2,0,.6c-.7,1.4-1.5,2.8-2.4,4.1-.8,1.4-1.8,2.6-3,3.8-1.5,1.5-2.8,2.2-4.1,2.2s-1.9-.3-2.5-.9c-.7-.6-1-1.5-1-2.9s.2-2.8.7-4.3c-2.9,5.5-5.7,8.3-8.5,8.3h-.3ZM186.3,50.3c1.1,0,2.4-.8,3.9-2.4,1.5-1.6,3.1-4,4.7-7.1.2-.3.4-.8.6-1.6.3-.7.5-1.5.7-2.4s.3-1.7.3-2.5-.2-1.5-.5-2-.9-.8-1.7-.8-1.6.3-2.5.8-1.8,1.5-2.7,2.8c-1.6,2.1-2.7,4.1-3.4,6.1,0,.2-.2.7-.4,1.4s-.4,1.5-.6,2.4c-.2.9-.2,1.7-.2,2.5s.1,1.4.4,2c.2.5.7.8,1.3.8h0Z"/>
    <path class="st1" d="M210.4,51.1c-2,0-3.4-.6-4.2-1.7-.8-1.1-1.2-2.7-1.2-4.7,0-2.9,1.2-6,3.7-9.2,2.6-3.3,5.3-5,8.1-5s3.1.7,3.1,2.1-1,3.6-2.9,5.5c-2.7,2.8-5.6,4.2-8.6,4.2-.5,1.3-.7,2.5-.7,3.8s.3,2.5.8,3.2c.5.8,1.3,1.2,2.3,1.2s2.2-.3,3.3-.9c1.1-.6,2.1-1.3,2.9-2.1.7-.7,1.5-1.6,2.4-2.8s1.8-2.7,2.7-4.4c.1-.2.2-.3.4-.3s.2.2,0,.6c-.7,1.4-1.4,2.7-2.2,4s-1.8,2.5-3.1,3.7c-.8.8-1.8,1.5-2.9,2s-2.4.9-3.8.9h-.1ZM208.6,41.9c2.2,0,4.8-1.2,7.5-3.6h0c.8-.7,1.5-1.6,2.2-2.8.8-1.3,1.2-2.3,1.2-3.2s-.5-1-1.5-1c-1.6,0-3.4,1.4-5.6,4.2-1,1.2-1.8,2.4-2.4,3.4-.6,1.1-1.1,2.1-1.4,3Z"/>
    <path class="st1" d="M235.5,51.3c-4.1,0-6.2-2-6.2-5.9s.2-2.3.6-3.5h0c.2-.7.6-1.4,1.2-2.1.7-.9,1.3-1.3,1.9-1.3s.5,0,.8,0l.7-1c.6-.9,1.1-1.7,1.6-2.6.5-.9,1-1.7,1.5-2.6,1.5-2.6,2.7-4,3.4-4.2.2,0,.4-.1.6-.1.6,0,.9.2.9.7s-.4.9-1.3,1c-.8.1-1.3.2-1.5.3-.3.2-.5.8-.5,1.6s.6,2.3,1.7,4.3c1.1,2,1.7,3.8,1.7,5.3s0,.8,0,1.2-.1.8-.2,1.2c-1.1,4.6-4,6.9-8.7,6.9.9.2,1.8.3,2.6.3,1.4,0,2.8-.3,4.2-.8,1.3-.5,2.6-1.2,3.7-2.1,1.2-.9,2.3-2.1,3.3-3.4,1-1.3,1.9-2.7,2.6-4.3.1-.2.2-.4.4-.4s.3.2,0,.6c-.7,1.2-1.3,2.4-2.1,3.5-.7,1.1-1.5,2-2.3,2.9-1,1-2.3,2-4,2.9-1.7,1-3.7,1.5-6.2,1.5h-.4ZM232.8,50c2.1,0,3.8-1.6,5.1-4.7,1.1-2.4,1.7-4.9,1.7-7.4s0-.8-.2-1.3c-.1-.6-.3-1.2-.5-2-.2-.7-.3-1.4-.4-1.9,0-.6-.1-1,0-1.4-.8,1.6-1.6,3-2.3,4.2-.8,1.3-1.5,2.4-2.2,3.4.2.3.3.7.3,1,0,.6-.2,1.2-.7,1.9-.3.4-.8.8-1.5,1.2s-1.2.7-1.5,1c-.5.7-.7,1.5-.7,2.6,0,2.3.9,3.5,2.8,3.5h0Z"/>
    <path class="st1" d="M252.9,51.1c-1.8,0-3.2-.8-4.1-2.3-.9-1.3-1.3-2.9-1.3-4.8,0-3.2,1-6.2,3.1-9,2.2-3,4.9-4.5,8.1-4.5s2.8.6,3.7,1.7c.8,1.1,1.2,2.4,1.2,4s0,1.5-.2,2.3c-.1.8-.4,1.6-.6,2.4-.6,1.8-1.4,3.2-2.3,4.2v.2c.5.3,1,.4,1.6.4,1.2,0,2.2-.4,3-1.2s1.7-2.2,2.8-4.2c0-.2.1-.2.2-.2s.1,0,.2.2v.4c-.9,1.8-1.8,3.2-2.7,4.1-1,.9-2.1,1.4-3.3,1.4s-1.4-.2-1.9-.7c-.4.7-.9,1.4-1.3,2-.5.6-1,1.2-1.7,1.7-1.4,1.2-2.8,1.8-4.3,1.8h-.2ZM253.4,50.6c2.2,0,4.3-1.7,6.4-5,0,0,0-.2.2-.4-.7-1.2-1.1-2.4-1.1-3.5v-.9c0-.4.1-.9.2-1.4s.3-.9.6-1.3c.6-1,1.3-1.5,2.2-1.5h1.2c0-3.7-1.2-5.5-3.5-5.5s-3.8,1.2-5.6,3.5c-1.4,1.9-2.4,4-3.1,6.3-.4,1.3-.6,2.6-.6,4,0,3.6,1,5.4,3,5.4v.3Z"/>
    <path class="st1" d="M271.5,51c-3,0-4.5-2-4.5-6.1s0-1.2.1-1.8c0-.6.2-1.2.4-1.8,1-3.9,2.4-7.5,4-10.9.7-1.3,1.4-2.7,2.1-3.9.8-1.3,1.5-2.5,2.4-3.6.9-1.2,1.8-2.3,2.7-3.4.9-1.1,1.9-2.1,2.9-3.1,2.9-2.7,5.3-4,7.2-4s2.6.8,2.6,2.4-.6,3-1.8,5c-1,1.7-2,3.1-3.2,4.3-3.5,3.6-7.8,7-13.1,10.1-2.6,6.2-3.9,10.6-3.9,13.3s.2,1.8.6,2.3.9.7,1.7.7,1.9-.3,2.7-1c.8-.7,1.6-1.5,2.3-2.6.7-1,1.3-2.1,1.8-3.1.5-1.1.9-2,1.2-2.8,0-.2-.2-.6-.3-1.2-.1-.6-.2-1.2-.2-1.8s0-1.3.2-1.8.4-.8.9-.8,1,.5,1,1.5,0,1.1-.2,1.8-.4,1.4-.8,2.2c0,.9.3,1.7.6,2.4.3.7.8,1,1.5,1s1.3-.4,2-1.1c.6-.7,1.2-1.7,1.8-2.9h.1c.1,0,.2,0,.2.2v.3c-.6,1.3-1.2,2.2-1.8,2.9-.7.7-1.4,1-2.4,1s-2.1-1-2.3-3c-2.4,6.2-5.2,9.3-8.5,9.3h0ZM273.8,33.3c5.3-3.5,9.3-6.7,12.1-9.5,3.2-3.3,4.8-6.4,4.8-9.2s-.6-2-1.9-2c-2.2,0-5.1,2.9-8.7,8.6-1.1,1.8-2.2,3.8-3.3,5.8-1,2-2,4.1-3,6.3Z"/>
    <path class="st1" d="M292,50.8c-2.4,0-3.7-1.1-3.7-3.2s.7-3.7,2-5.9c.4-.8,1.7-2.5,3.7-5.2,1.3-1.8,2-3.1,2-3.8s-.6-1-1.7-1h-2.5c-.9,0-1.7,0-2.2.1-.1.7-.3,1.4-.6,2.3-.2.9-.5,1.8-.9,2.7-.2.6-.5,1.3-.9,2.3s-1,2-1.7,3.1c-.1.2-.2.2-.3.2s0,0,0,0c0-.2,0-.5.2-.8.3-.6.7-1.3,1.1-2.1s.8-1.8,1.2-2.8c.3-.9.6-1.8.9-2.8s.4-1.7.5-2c-1-.6-1.5-1.5-1.5-2.8s.5-2.1,1.5-2.1,1,.6,1,1.9,0,.6-.1,1c0,.4-.2.9-.3,1.5.6,0,1.5,0,2.7-.2h3.6c2.1,0,3.1.6,3.1,1.9s-1.6,4.1-4.8,8.3c-.7,1-1.5,2.2-2.3,3.5s-1.3,2.6-1.3,3.9,0,.7.2,1,.5.5,1,.5c1.8,0,3.7-1.1,5.8-3.2,1.1-1.1,2-2.2,2.9-3.4s1.7-2.6,2.4-4.1c.2-.3.3-.5.4-.5s.1,0,.1.2,0,.4-.2.7c-.7,1.4-1.5,2.8-2.5,4.1s-2.1,2.6-3.2,3.8c-2,2-3.9,3-5.8,3h.2Z"/>
    <path class="st1" d="M306.9,51.1c-2,0-3.4-.6-4.2-1.7-.8-1.1-1.2-2.7-1.2-4.7,0-2.9,1.2-6,3.7-9.2,2.6-3.3,5.3-5,8.1-5s3.1.7,3.1,2.1-1,3.6-2.9,5.5c-2.7,2.8-5.6,4.2-8.6,4.2-.5,1.3-.7,2.5-.7,3.8s.3,2.5.8,3.2c.5.8,1.3,1.2,2.3,1.2s2.2-.3,3.3-.9c1.1-.6,2.1-1.3,2.9-2.1.7-.7,1.5-1.6,2.4-2.8s1.8-2.7,2.7-4.4c.1-.2.2-.3.4-.3s.2.2,0,.6c-.7,1.4-1.4,2.7-2.2,4-.8,1.3-1.8,2.5-3.1,3.7-.8.8-1.8,1.5-2.9,2s-2.4.9-3.8.9h0ZM305.1,41.9c2.2,0,4.8-1.2,7.5-3.6h0c.8-.7,1.5-1.6,2.2-2.8.8-1.3,1.2-2.3,1.2-3.2s-.5-1-1.5-1c-1.6,0-3.4,1.4-5.6,4.2-1,1.2-1.8,2.4-2.4,3.4-.6,1.1-1.1,2.1-1.4,3h0Z"/>
    <path class="st1" d="M322.4,51.3c-4.1,0-6.2-2-6.2-5.9s.2-2.3.6-3.5h0c.2-.7.6-1.4,1.2-2.1.7-.9,1.3-1.3,1.9-1.3s.5,0,.8,0l.7-1c.6-.9,1.1-1.7,1.6-2.6.5-.9,1-1.7,1.5-2.6,1.5-2.6,2.7-4,3.4-4.2.2,0,.4-.1.6-.1.6,0,.9.2.9.7s-.4.9-1.3,1c-.8.1-1.3.2-1.5.3-.3.2-.5.8-.5,1.6s.6,2.3,1.7,4.3,1.7,3.8,1.7,5.3,0,.8,0,1.2-.1.8-.2,1.2c-1.1,4.6-4,6.9-8.7,6.9.9.2,1.8.3,2.6.3,1.4,0,2.8-.3,4.2-.8,1.3-.5,2.6-1.2,3.7-2.1,1.2-.9,2.3-2.1,3.3-3.4,1-1.3,1.9-2.7,2.6-4.3.1-.2.2-.4.4-.4s.3.2,0,.6c-.7,1.2-1.3,2.4-2.1,3.5-.7,1.1-1.5,2-2.3,2.9-1,1-2.3,2-4,2.9-1.7,1-3.7,1.5-6.2,1.5h-.4ZM319.7,50c2.1,0,3.8-1.6,5.1-4.7,1.1-2.4,1.7-4.9,1.7-7.4s0-.8-.2-1.3c-.1-.6-.3-1.2-.5-2-.2-.7-.3-1.4-.4-1.9,0-.6-.1-1,0-1.4-.8,1.6-1.6,3-2.3,4.2-.8,1.3-1.5,2.4-2.2,3.4.2.3.3.7.3,1,0,.6-.2,1.2-.7,1.9-.3.4-.8.8-1.5,1.2s-1.2.7-1.5,1c-.5.7-.7,1.5-.7,2.6,0,2.3.9,3.5,2.8,3.5h.1Z"/>
  </g>
  <g>
    <path class="st1" d="M82.5,109.1c-.1.9-.5,3-.7,3.8h-11.4v-.3c2.2-.3,2.3-.4,2.3-2.7v-10.9c0-2.2,0-2.4-2-2.8v-.3h10.6c0,.9,0,2.8.2,3.6h-.3c-.2-.7-.5-1.6-.8-2-.4-.7-.8-.8-2.3-.8h-2.5c-.6,0-.7,0-.7.8v6.1h3c1.8,0,1.9-.3,2.2-2.1h.3v5h-.3c-.4-1.8-.5-2.1-2.2-2.1h-3v6.1c0,1.8.6,1.9,2,1.9h2.3c1.3,0,1.6-.2,2.2-1.2.4-.6.7-1.2,1.1-2h.3-.1Z"/>
    <path class="st1" d="M83.8,112.9v-.3c1.4-.2,1.6-.3,1.6-2.3v-12.6c0-2-.1-2.2-1.6-2.4v-.3c1.1,0,2.6-.6,3.5-.9v16.2c0,1.9,0,2.1,1.6,2.3v.3h-5.1Z"/>
    <path class="st1" d="M107,112.9v-.3c1.5-.2,1.6-.4,1.6-2.4v-4.1c0-1.8-.4-3-2-3s-1.6.3-2.5,1.2v6.3c0,1.8.1,1.9,1.5,2.2v.3h-4.8v-.3c1.4-.2,1.5-.4,1.5-2.2v-4.6c0-1.9-.5-2.9-2.1-2.9s-1.7.4-2.4,1.2v6.2c0,1.8,0,2,1.5,2.2v.3h-5v-.3c1.5-.2,1.6-.4,1.6-2.2v-5.3c0-1.7-.1-1.8-1.3-2.1v-.2c1.2-.2,2-.6,3.2-1.1v2c.4-.3,1-.8,1.6-1.2.7-.4,1.3-.8,2-.8,1.2,0,2,.6,2.5,2,.6-.6,1.4-1.1,2-1.4.6-.4,1.1-.6,1.7-.6,1.8,0,2.9,1.4,2.9,3.9v4.8c0,2,.1,2,1.4,2.3v.3h-4.8v-.2Z"/>
    <path class="st1" d="M121.7,110.7c-1.5,2-3.1,2.6-3.8,2.6-3,0-4.7-2.6-4.7-5.4s.5-3.2,1.6-4.3c1-1.1,2.3-1.8,3.5-1.8,2.1,0,3.5,1.9,3.5,3.6s0,.7-.1.7c-.5.2-3.5.3-6.7.4,0,4,2,5.4,3.8,5.4s1.8-.3,2.8-1.3l.2.2h-.1ZM117.5,102.3c-1.2,0-2.2,1-2.5,3.2h4.4c.2,0,.2-.1.2-.4,0-1.3-.7-2.8-2.2-2.8h.1Z"/>
    <path class="st1" d="M123.4,102.6c1.4-.2,2.4-.4,3.4-.9v9.2c0,1.4-.1,2.6-.5,3.8-.8,2.8-2.3,4.4-3,5.2-.2.2-.4.3-.5.3-.3,0-.6-.3-.6-.7s0-.3.2-.3c1.1-.3,1.6-.9,2-1.4.3-.6.4-1.4.5-2.4v-10.1c0-2,0-2.1-1.5-2.3,0,0,0-.3,0-.3ZM125.8,98.4c-.6,0-1.2-.6-1.2-1.2s.5-1.2,1.2-1.2,1.2.4,1.2,1.2-.5,1.2-1.2,1.2Z"/>
    <path class="st1" d="M134.8,101.7c3.1,0,5.1,2.6,5.1,5.6s-2.8,6-5.1,6-5.2-2.8-5.2-5.7,3.1-6,5.2-6h0ZM134.4,102.2c-1.7,0-2.8,1.9-2.8,4.7s1.4,5.8,3.4,5.8,2.6-1.1,2.6-4.9-1.2-5.6-3.3-5.6h0Z"/>
    <path class="st1" d="M146.6,112.9h-5.2v-.3c1.4-.2,1.5-.3,1.5-2.2v-5.3c0-1.7,0-1.8-1.3-2.1v-.2c1.2-.2,2.1-.6,3.2-1.1v2.8c.6-1.1,1.8-2.7,3-2.7s1.3.6,1.3,1.1-.3,1.1-.7,1.3c-.2.2-.4.1-.6,0-.4-.4-.6-.7-1.2-.7s-1.2.6-1.8,1.8v5.2c0,1.9.1,2,1.9,2.2v.3h0Z"/>
    <path class="st1" d="M159.4,112.9h-5.2v-.3c1.4-.2,1.5-.3,1.5-2.2v-5.3c0-1.7,0-1.8-1.3-2.1v-.2c1.2-.2,2.1-.6,3.2-1.1v2.8c.6-1.1,1.8-2.7,3-2.7s1.3.6,1.3,1.1-.3,1.1-.7,1.3c-.2.2-.4.1-.6,0-.4-.4-.6-.7-1.2-.7s-1.2.6-1.8,1.8v5.2c0,1.9.1,2,1.9,2.2v.3h0Z"/>
    <path class="st1" d="M171.2,110.7c-1.5,2-3.1,2.6-3.8,2.6-3,0-4.7-2.6-4.7-5.4s.5-3.2,1.6-4.3c1-1.1,2.3-1.8,3.5-1.8,2.1,0,3.5,1.9,3.5,3.6s0,.7-.1.7c-.5.2-3.5.3-6.7.4,0,4,2,5.4,3.8,5.4s1.8-.3,2.8-1.3l.2.2h-.1ZM167,102.3c-1.2,0-2.2,1-2.5,3.2h4.4c.2,0,.2-.1.2-.4,0-1.3-.7-2.8-2.2-2.8h.1Z"/>
    <path class="st1" d="M175.9,109.7c-.6.6-.7,1.1-.7,1.3,0,.6.4,1.1,1.5,1.1h2.5c1.9,0,3.6.9,3.6,3.1s-2.8,5.1-5.8,5.1-4.3-1.8-4.3-3.2.2-1,.5-1.3c.4-.4,1.5-1.3,2.1-1.9-1-.3-1.5-.9-1.8-1.4-.2-.3-.3-.8-.2-1.1.6-.4,1.8-1.2,2.3-1.9l.4.2h-.1ZM177.1,109.9c-2.4,0-4-1.9-4-4s2.1-4.3,4.2-4.3,1.6.2,2.3.7c.8,0,2.4-.3,3.1-.6h.1c-.2.6-.5,1.2-.8,1.4h-1.6c.5.6.8,1.6.8,2.4,0,2.8-2.3,4.2-4.1,4.2h0ZM177.8,113.8c-1.5,0-1.8,0-2,.2-1.1.8-1.5,1.4-1.5,2.4,0,1.6,1.6,2.9,3.6,2.9s3.4-1.6,3.4-3-.5-1.8-1.4-2.2c-.5-.2-1.2-.3-2.1-.3ZM177,102.1c-1.2,0-2,1.1-2,3.3s1,4,2.4,4,1.9-1.1,1.9-3.3-1-3.9-2.3-3.9h0Z"/>
    <path class="st1" d="M190.9,113.2c-.4,0-.8-.1-1.2-.6-.2-.3-.4-.6-.5-1.2-.8.7-2.2,1.7-2.8,1.7-1.7,0-2.8-1.6-2.8-2.9s.6-1.9,1.8-2.3c1.4-.6,3.2-1.1,3.8-1.6v-.9c0-1.9-.8-3-2.1-3s-.8.1-1.1.4-.4,1-.6,1.7c0,.4-.3.4-.5.4-.4,0-1-.4-1-1s.2-.4.6-.8c.7-.6,2.4-1.6,3.5-1.8.7,0,1.4.2,1.9.7.8.8,1.1,1.7,1.1,3.2v4.7c0,1.2.4,1.7.8,1.7s.5,0,.7-.2v.3c.1,0-1.7,1.3-1.7,1.3h-.1ZM189.2,107c-.4.2-1.6.8-2.2,1.1s-1.4.9-1.4,1.9,1,2,1.8,2,1.3-.2,1.8-.8v-4.1h0Z"/>
    <path class="st1" d="M193.4,112.9v-.3c1.4-.2,1.6-.3,1.6-2.3v-12.6c0-2-.1-2.2-1.6-2.4v-.3c1.1,0,2.6-.6,3.5-.9v16.2c0,1.9,0,2.1,1.6,2.3v.3h-5.1Z"/>
    <path class="st1" d="M205,101.7c3.1,0,5.1,2.6,5.1,5.6s-2.8,6-5.1,6-5.2-2.8-5.2-5.7,3.1-6,5.2-6h0ZM204.7,102.2c-1.7,0-2.8,1.9-2.8,4.7s1.4,5.8,3.4,5.8,2.6-1.1,2.6-4.9-1.2-5.6-3.3-5.6h0Z"/>
    <path class="st1" d="M224.7,110.7c-1.5,2-3.1,2.6-3.8,2.6-3,0-4.7-2.6-4.7-5.4s.5-3.2,1.6-4.3c1-1.1,2.3-1.8,3.5-1.8,2.1,0,3.5,1.9,3.5,3.6s0,.7-.1.7c-.5.2-3.5.3-6.7.4,0,4,2,5.4,3.8,5.4s1.8-.3,2.8-1.3l.2.2h-.1ZM220.5,102.3c-1.2,0-2.2,1-2.5,3.2h4.4c.2,0,.2-.1.2-.4,0-1.3-.7-2.8-2.2-2.8h.1Z"/>
    <path class="st1" d="M232.4,104.7c-.4-1.8-1.4-2.6-2.5-2.6s-1.6.7-1.6,1.8.8,1.8,2,2.4c1.8.9,2.9,1.8,2.9,3.4s-1.9,3.4-3.7,3.4-2-.3-2.5-.6c-.1-.4-.4-2.1-.4-2.8h.3c.4,1.4,1.4,2.8,3.1,2.8s1.8-.8,1.8-1.9-.6-1.9-1.9-2.6c-1.4-.8-2.8-1.7-2.8-3.4s1.4-3.2,3.5-3.2,1.7.2,2.1.2c0,.6.2,2.2.3,2.7h-.3l-.2.2Z"/>
    <path class="st1" d="M244.9,119.8v-.3c1.7-.2,1.8-.4,1.8-2.6v-4.8l-2.5,1.1c-3.4,0-5.1-2.9-5.1-5.3,0-3.7,3.4-6.2,6.2-6.2s1.5.2,1.9.3h.5c.1,0,.5,0,.8-.2h0c0,.6-.1,1.1-.1,2.8v12.2c0,2.2,0,2.3,1.8,2.7v.3h-5.4,0ZM246.7,103.4c-.5-.7-1.6-1-2.5-1-1.8,0-3.1,1.3-3.1,4.4s1.9,5.1,3.9,5.1,1.3-.1,1.6-.4v-8.1h.1Z"/>
    <path class="st1" d="M262.3,112.3c-1.2.1-2.6.6-3.5.9v-2c-1.2,1.2-2.3,2-3.5,2s-2.9-1-2.9-3.6v-5.6c0-1.1-.3-1.3-1-1.6h-.4v-.4c.8,0,2.4-.2,3.3-.4v7.1c0,2.2,1.1,2.9,2.1,2.9s1.8-.2,2.4-1.1v-6.2c0-1.3-.3-1.6-1.2-1.8h-.5v-.4c1.3,0,2.8-.2,3.6-.4v8.4c0,1.4.2,1.6,1.1,1.7h.6v.4h-.2Z"/>
    <path class="st1" d="M272,110.7c-1.5,2-3.1,2.6-3.8,2.6-3,0-4.7-2.6-4.7-5.4s.5-3.2,1.6-4.3c1-1.1,2.3-1.8,3.5-1.8,2.1,0,3.5,1.9,3.5,3.6s0,.7-.1.7c-.5.2-3.5.3-6.7.4,0,4,2,5.4,3.8,5.4s1.8-.3,2.8-1.3l.2.2h-.1ZM267.8,102.3c-1.2,0-2.2,1-2.5,3.2h4.4c.2,0,.2-.1.2-.4,0-1.3-.7-2.8-2.2-2.8h.1Z"/>
    <path class="st1" d="M284.3,112.9v-.3c1.5-.2,1.6-.4,1.6-2.4v-4.1c0-1.7-.5-3-2.1-3s-1.9.6-2.5,1.1v6.1c0,1.9.2,2,1.6,2.2v.3h-5v-.3c1.5-.2,1.6-.4,1.6-2.3v-5.3c0-1.6,0-1.8-1.3-2.1v-.2c1.1-.1,2.2-.6,3.2-1.1v2.1c.5-.4,1.1-.8,1.7-1.2.7-.4,1.2-.8,1.9-.8,1.9,0,3,1.6,3,3.9v4.9c0,1.9.1,2,1.4,2.2v.3h-5Z"/>
    <path class="st1" d="M295.9,101.7c3.1,0,5.1,2.6,5.1,5.6s-2.8,6-5.1,6-5.2-2.8-5.2-5.7,3.1-6,5.2-6h0ZM295.6,102.2c-1.7,0-2.8,1.9-2.8,4.7s1.4,5.8,3.4,5.8,2.6-1.1,2.6-4.9-1.2-5.6-3.3-5.6Z"/>
    <path class="st1" d="M308.6,104.7c-.4-1.8-1.4-2.6-2.5-2.6s-1.6.7-1.6,1.8.8,1.8,2,2.4c1.8.9,2.9,1.8,2.9,3.4s-1.9,3.4-3.7,3.4-2-.3-2.5-.6c-.1-.4-.4-2.1-.4-2.8h.3c.4,1.4,1.4,2.8,3.1,2.8s1.8-.8,1.8-1.9-.6-1.9-1.9-2.6c-1.4-.8-2.8-1.7-2.8-3.4s1.4-3.2,3.5-3.2,1.7.2,2.1.2c0,.6.2,2.2.3,2.7h-.3l-.2.2Z"/>
    <path class="st1" d="M76,144.7c-.4,0-.8-.1-1.2-.6-.2-.3-.4-.6-.5-1.2-.8.7-2.2,1.7-2.8,1.7-1.7,0-2.8-1.6-2.8-2.9s.6-1.9,1.8-2.3c1.4-.6,3.2-1.1,3.8-1.6v-.9c0-1.9-.8-3-2.1-3s-.8.1-1.1.4-.4,1-.6,1.7c0,.4-.3.4-.5.4-.4,0-1-.4-1-1s.2-.4.6-.8c.7-.6,2.4-1.6,3.5-1.8.7,0,1.4.2,1.9.7.8.8,1.1,1.7,1.1,3.2v4.7c0,1.2.4,1.7.8,1.7s.5,0,.7-.2v.3c.1,0-1.7,1.3-1.7,1.3h-.1ZM74.2,138.4c-.4.2-1.6.8-2.2,1.1-.8.4-1.4.9-1.4,1.9s1,2,1.8,2,1.3-.2,1.8-.8v-4.1h0Z"/>
    <path class="st1" d="M87.4,142c-1.1,1.4-2.6,2.7-4,2.7-3,0-4.7-2.6-4.7-5.2s.7-3.6,2.4-5c1.3-1,2.6-1.4,3.5-1.4s1.7.2,2.1.7.3.3.3.6c0,.4-.5,1.1-.7,1.1s-.2,0-.4-.3c-.6-.7-1.5-1-2.4-1-1.6,0-2.9,1-3,4,0,3.7,2.3,4.9,3.7,4.9s1.9-.3,3-1.3l.2.2v.2Z"/>
    <path class="st1" d="M94,133.1c3.1,0,5.1,2.6,5.1,5.6s-2.8,6-5.1,6-5.2-2.8-5.2-5.7,3.1-6,5.2-6h0ZM93.7,133.7c-1.7,0-2.8,1.9-2.8,4.7s1.4,5.8,3.4,5.8,2.6-1.1,2.6-4.9-1.2-5.6-3.3-5.6Z"/>
    <path class="st1" d="M113.2,144.3v-.3c1.5-.2,1.6-.4,1.6-2.4v-4.1c0-1.8-.4-3-2-3s-1.6.3-2.5,1.2v6.3c0,1.8.1,1.9,1.5,2.2v.3h-4.8v-.3c1.4-.2,1.5-.4,1.5-2.2v-4.6c0-1.9-.5-2.9-2.1-2.9s-1.7.4-2.4,1.2v6.2c0,1.8,0,2,1.5,2.2v.3h-5v-.3c1.5-.2,1.6-.4,1.6-2.2v-5.3c0-1.7-.1-1.8-1.3-2.1v-.2c1.2-.2,2-.6,3.2-1.1v2c.4-.3,1-.8,1.6-1.2.7-.4,1.3-.8,2-.8,1.2,0,2,.6,2.5,2,.6-.6,1.4-1.1,2-1.4.6-.4,1.1-.6,1.7-.6,1.8,0,2.9,1.4,2.9,3.9v4.8c0,2,.1,2,1.4,2.3v.3h-4.8v-.2Z"/>
    <path class="st1" d="M119.1,133.9c1.2-.2,2.4-.7,3.4-1.1v2c.5-.3,1.5-1,1.9-1.2.6-.3,1.1-.6,1.5-.6,2.6,0,4.1,2.4,4.1,4.8,0,3.7-2.9,6.2-5.9,6.8-.6,0-1.3-.2-1.6-.4v3.9c0,2.3.2,2.4,1.9,2.8v.3h-5.4v-.3c1.5-.3,1.7-.4,1.7-2.4v-12.2c0-1.7-.2-1.8-1.5-2.1v-.2h-.1ZM122.4,142.7c.5.7,1.5.9,2.4.9,2.1,0,3.3-1.6,3.3-4.7s-1.5-4.6-3.2-4.6-1.8.4-2.4.9v7.3h-.1Z"/>
    <path class="st1" d="M139,144.7c-.4,0-.8-.1-1.2-.6-.2-.3-.4-.6-.5-1.2-.8.7-2.2,1.7-2.8,1.7-1.7,0-2.8-1.6-2.8-2.9s.6-1.9,1.8-2.3c1.4-.6,3.2-1.1,3.8-1.6v-.9c0-1.9-.8-3-2.1-3s-.8.1-1.1.4-.4,1-.6,1.7c0,.4-.3.4-.5.4-.4,0-1-.4-1-1s.2-.4.6-.8c.7-.6,2.4-1.6,3.5-1.8.7,0,1.4.2,1.9.7.8.8,1.1,1.7,1.1,3.2v4.7c0,1.2.4,1.7.8,1.7s.5,0,.7-.2v.3c.1,0-1.7,1.3-1.7,1.3h-.1ZM137.3,138.4c-.4.2-1.6.8-2.2,1.1-.8.4-1.4.9-1.4,1.9s1,2,1.8,2,1.3-.2,1.8-.8v-4.1h0Z"/>
    <path class="st1" d="M148.3,144.3v-.3c1.5-.2,1.6-.4,1.6-2.4v-4.1c0-1.7-.5-3-2.1-3s-1.9.6-2.5,1.1v6.1c0,1.9.2,2,1.6,2.2v.3h-5v-.3c1.5-.2,1.6-.4,1.6-2.3v-5.3c0-1.6,0-1.8-1.3-2.1v-.2c1.1-.1,2.2-.6,3.2-1.1v2.1c.5-.4,1.1-.8,1.7-1.2.7-.4,1.2-.8,1.9-.8,1.9,0,3,1.6,3,3.9v4.9c0,1.9.1,2,1.4,2.2v.3h-5ZM143.9,130c.8-1.7,1.7-2,2.2-2,1.2,0,2.2.9,3.2.9s.8-.2,1.5-1l.2.2c-.7,1.6-1.6,2-2.1,2-1,0-2.1-1-3.1-1s-1,.3-1.5,1l-.2-.2h-.2Z"/>
    <path class="st1" d="M163.1,142.1c-1.5,2-3.1,2.6-3.8,2.6-3,0-4.7-2.6-4.7-5.4s.5-3.2,1.6-4.3c1-1.1,2.3-1.8,3.5-1.8,2.1,0,3.5,1.9,3.5,3.6s0,.7-.1.7c-.5.2-3.5.3-6.7.4,0,4,2,5.4,3.8,5.4s1.8-.3,2.8-1.3l.2.2h-.1ZM158.9,133.8c-1.2,0-2.2,1-2.5,3.2h4.4c.2,0,.2-.1.2-.4,0-1.3-.7-2.8-2.2-2.8h.1Z"/>
    <path class="st1" d="M171.1,144.3v-.3c1.5-.2,1.6-.4,1.6-2.4v-4.1c0-1.7-.5-3-2.1-3s-1.9.6-2.5,1.1v6.1c0,1.9.2,2,1.6,2.2v.3h-5v-.3c1.5-.2,1.6-.4,1.6-2.3v-5.3c0-1.6,0-1.8-1.3-2.1v-.2c1.1-.1,2.2-.6,3.2-1.1v2.1c.5-.4,1.1-.8,1.7-1.2.7-.4,1.2-.8,1.9-.8,1.9,0,3,1.6,3,3.9v4.9c0,1.9.1,2,1.4,2.2v.3h-5Z"/>
    <path class="st1" d="M190.8,142.1c-1.5,2-3.1,2.6-3.8,2.6-3,0-4.7-2.6-4.7-5.4s.5-3.2,1.6-4.3c1-1.1,2.3-1.8,3.5-1.8,2.1,0,3.5,1.9,3.5,3.6s0,.7-.1.7c-.5.2-3.5.3-6.7.4,0,4,2,5.4,3.8,5.4s1.8-.3,2.8-1.3l.2.2h-.1ZM186.7,133.8c-1.2,0-2.2,1-2.5,3.2h4.4c.2,0,.2-.1.2-.4,0-1.3-.7-2.8-2.2-2.8h.1Z"/>
    <path class="st1" d="M198.8,144.3v-.3c1.5-.2,1.6-.4,1.6-2.4v-4.1c0-1.7-.5-3-2.1-3s-1.9.6-2.5,1.1v6.1c0,1.9.2,2,1.6,2.2v.3h-5v-.3c1.5-.2,1.6-.4,1.6-2.3v-5.3c0-1.6,0-1.8-1.3-2.1v-.2c1.1-.1,2.2-.6,3.2-1.1v2.1c.5-.4,1.1-.8,1.7-1.2.7-.4,1.2-.8,1.9-.8,1.9,0,3,1.6,3,3.9v4.9c0,1.9.1,2,1.4,2.2v.3h-5Z"/>
    <path class="st1" d="M218.5,142.1c-1.5,2-3.1,2.6-3.8,2.6-3,0-4.7-2.6-4.7-5.4s.5-3.2,1.6-4.3c1-1.1,2.3-1.8,3.5-1.8,2.1,0,3.5,1.9,3.5,3.6s0,.7-.1.7c-.5.2-3.5.3-6.7.4,0,4,2,5.4,3.8,5.4s1.8-.3,2.8-1.3l.2.2h-.1ZM214.3,133.8c-1.2,0-2.2,1-2.5,3.2h4.4c.2,0,.2-.1.2-.4,0-1.3-.7-2.8-2.2-2.8h.1Z"/>
    <path class="st1" d="M226.3,136.1c-.4-1.8-1.4-2.6-2.5-2.6s-1.6.7-1.6,1.8.8,1.8,2,2.4c1.8.9,2.9,1.8,2.9,3.4s-1.9,3.4-3.7,3.4-2-.3-2.5-.6c-.1-.4-.4-2.1-.4-2.8h.3c.4,1.4,1.4,2.8,3.1,2.8s1.8-.8,1.8-1.9-.6-1.9-1.9-2.6c-1.4-.8-2.8-1.7-2.8-3.4s1.4-3.2,3.5-3.2,1.7.2,2.1.2c0,.6.2,2.2.3,2.7h-.3l-.2.2Z"/>
    <path class="st1" d="M232.7,144.4c-.3.2-.6.2-.8.2-1.5,0-2.3-1-2.3-3v-7.6h-1.7c0-.1.3-.8.3-.8h1.4v-2.4c.5-.4,1.3-1,1.7-1.6h.2v4h2.5c0,.1,0,.6-.1.8h-2.4v6.9c0,2.1.7,2.6,1.5,2.6s1.1-.2,1.4-.3v.3l-1.6,1h0Z"/>
    <path class="st1" d="M243.7,142.1c-1.5,2-3.1,2.6-3.8,2.6-3,0-4.7-2.6-4.7-5.4s.5-3.2,1.6-4.3c1-1.1,2.3-1.8,3.5-1.8,2.1,0,3.5,1.9,3.5,3.6s0,.7-.1.7c-.5.2-3.5.3-6.7.4,0,4,2,5.4,3.8,5.4s1.8-.3,2.8-1.3l.2.2h-.1ZM239.4,133.8c-1.2,0-2.2,1-2.5,3.2h4.4c.2,0,.2-.1.2-.4,0-1.3-.7-2.8-2.2-2.8h.1Z"/>
    <path class="st1" d="M260.8,143.8c-.5,0-2.2.4-3.6,1v-1.8c-.6.4-1.4.9-2,1.2-.6.3-1.1.4-1.4.4-1.9,0-4.3-2-4.3-5.4s2.9-6.1,6.1-6.1,1.1,0,1.6.2v-4.4c0-1.7-.1-2-1.8-2.2v-.3c1.2,0,3-.4,3.8-.9v15.9c0,1.3.2,1.7,1.1,1.9h.6v.4h-.1ZM257.3,135.1c-.5-.9-1.7-1.2-2.8-1.2s-3,.9-3,4.6,1.8,5,3.4,5,1.6-.3,2.2-.9v-7.3h.1Z"/>
    <path class="st1" d="M261.9,144.3v-.3c1.5-.2,1.6-.3,1.6-2.3v-5.2c0-1.7-.1-1.8-1.4-2.1v-.3c1.1-.2,2.2-.6,3.3-1v8.7c0,1.9.2,2.1,1.6,2.3v.3h-5.1ZM263.6,131.1l2.5-4.1c.2-.1,1.8-.2,2-.2h0c0,.1-4.3,4.6-4.3,4.6l-.3-.2h.1Z"/>
    <path class="st1" d="M275.5,144.7c-.4,0-.8-.1-1.2-.6-.2-.3-.4-.6-.5-1.2-.8.7-2.2,1.7-2.8,1.7-1.7,0-2.8-1.6-2.8-2.9s.6-1.9,1.8-2.3c1.4-.6,3.2-1.1,3.8-1.6v-.9c0-1.9-.8-3-2.1-3s-.8.1-1.1.4-.4,1-.6,1.7c0,.4-.3.4-.5.4-.4,0-1-.4-1-1s.2-.4.6-.8c.7-.6,2.4-1.6,3.5-1.8.7,0,1.4.2,1.9.7.8.8,1.1,1.7,1.1,3.2v4.7c0,1.2.4,1.7.8,1.7s.5,0,.7-.2v.3c.1,0-1.7,1.3-1.7,1.3h-.1ZM273.8,138.4c-.4.2-1.6.8-2.2,1.1s-1.4.9-1.4,1.9,1,2,1.8,2,1.3-.2,1.8-.8v-4.1h0Z"/>
    <path class="st1" d="M287.2,144.4c-.3.2-.6.2-.8.2-1.5,0-2.3-1-2.3-3v-7.6h-1.7c0-.1.3-.8.3-.8h1.4v-2.4c.5-.4,1.3-1,1.7-1.6h.2v4h2.5c0,.1,0,.6-.1.8h-2.4v6.9c0,2.1.7,2.6,1.5,2.6s1.1-.2,1.4-.3v.3l-1.6,1h0Z"/>
    <path class="st1" d="M297,144.7c-.4,0-.8-.1-1.2-.6-.2-.3-.4-.6-.5-1.2-.8.7-2.2,1.7-2.8,1.7-1.7,0-2.8-1.6-2.8-2.9s.6-1.9,1.8-2.3c1.4-.6,3.2-1.1,3.8-1.6v-.9c0-1.9-.8-3-2.1-3s-.8.1-1.1.4-.4,1-.6,1.7c0,.4-.3.4-.5.4-.4,0-1-.4-1-1s.2-.4.6-.8c.7-.6,2.4-1.6,3.5-1.8.7,0,1.4.2,1.9.7.8.8,1.1,1.7,1.1,3.2v4.7c0,1.2.4,1.7.8,1.7s.5,0,.7-.2v.3c.1,0-1.7,1.3-1.7,1.3h-.1ZM295.3,138.4c-.4.2-1.6.8-2.2,1.1s-1.4.9-1.4,1.9,1,2,1.8,2,1.3-.2,1.8-.8v-4.1h0Z"/>
    <path class="st1" d="M306.4,144.3v-.3c1.5-.2,1.6-.4,1.6-2.4v-4.1c0-1.7-.5-3-2.1-3s-1.9.6-2.5,1.1v6.1c0,1.9.2,2,1.6,2.2v.3h-5v-.3c1.5-.2,1.6-.4,1.6-2.3v-5.3c0-1.6,0-1.8-1.3-2.1v-.2c1.1-.1,2.2-.6,3.2-1.1v2.1c.5-.4,1.1-.8,1.7-1.2.7-.4,1.2-.8,1.9-.8,1.9,0,3,1.6,3,3.9v4.9c0,1.9.1,2,1.4,2.2v.3h-5Z"/>
    <path class="st1" d="M54.6,173.5c-1.5,2-3.1,2.6-3.8,2.6-3,0-4.7-2.6-4.7-5.4s.5-3.2,1.6-4.3c1-1.1,2.3-1.8,3.5-1.8,2.1,0,3.5,1.9,3.5,3.6s0,.7-.1.7c-.5.2-3.5.3-6.7.4,0,4,2,5.4,3.8,5.4s1.8-.3,2.8-1.3l.2.2h-.1ZM50.3,165.2c-1.2,0-2.2,1-2.5,3.2h4.4c.2,0,.2-.1.2-.4,0-1.3-.7-2.8-2.2-2.8h.1Z"/>
    <path class="st1" d="M62.3,167.5c-.4-1.8-1.4-2.6-2.5-2.6s-1.6.7-1.6,1.8.8,1.8,2,2.4c1.8.9,2.9,1.8,2.9,3.4s-1.9,3.4-3.7,3.4-2-.3-2.5-.6c-.1-.4-.4-2.1-.4-2.8h.3c.4,1.4,1.4,2.8,3.1,2.8s1.8-.8,1.8-1.9-.6-1.9-1.9-2.6c-1.4-.8-2.8-1.7-2.8-3.4s1.4-3.2,3.5-3.2,1.7.2,2.1.2c0,.6.2,2.2.3,2.7h-.3l-.2.2Z"/>
    <path class="st1" d="M64.2,165.3c1.2-.2,2.4-.7,3.4-1.1v2c.5-.3,1.5-1,1.9-1.2.6-.3,1.1-.6,1.5-.6,2.6,0,4.1,2.4,4.1,4.8,0,3.7-2.9,6.2-5.9,6.8-.6,0-1.3-.2-1.6-.4v3.9c0,2.3.2,2.4,1.9,2.8v.3h-5.4v-.3c1.5-.3,1.7-.4,1.7-2.4v-12.2c0-1.7-.2-1.8-1.5-2.1v-.2h-.1ZM67.6,174.1c.5.7,1.5.9,2.4.9,2.1,0,3.3-1.6,3.3-4.7s-1.5-4.6-3.2-4.6-1.8.4-2.4.9v7.3h-.1Z"/>
    <path class="st1" d="M85.4,173.5c-1.5,2-3.1,2.6-3.8,2.6-3,0-4.7-2.6-4.7-5.4s.5-3.2,1.6-4.3c1-1.1,2.3-1.8,3.5-1.8,2.1,0,3.5,1.9,3.5,3.6s0,.7-.1.7c-.5.2-3.5.3-6.7.4,0,4,2,5.4,3.8,5.4s1.8-.3,2.8-1.3l.2.2h-.1ZM81.3,165.2c-1.2,0-2.2,1-2.5,3.2h4.4c.2,0,.2-.1.2-.4,0-1.3-.7-2.8-2.2-2.8h.1Z"/>
    <path class="st1" d="M96,173.4c-1.1,1.4-2.6,2.7-4,2.7-3,0-4.7-2.6-4.7-5.2s.7-3.6,2.4-5c1.3-1,2.6-1.4,3.5-1.4s1.7.2,2.1.7c.2.2.3.3.3.6,0,.4-.5,1.1-.7,1.1s-.2,0-.4-.3c-.6-.7-1.5-1-2.4-1-1.6,0-2.9,1-3,4,0,3.7,2.3,4.9,3.7,4.9s1.9-.3,3-1.3l.2.2v.2Z"/>
    <path class="st1" d="M97.2,175.8v-.3c1.5-.2,1.6-.3,1.6-2.3v-5.2c0-1.8,0-1.9-1.4-2.1v-.3c1.1-.2,2.2-.6,3.3-1v8.7c0,1.9.1,2,1.6,2.3v.3s-5.1,0-5.1,0ZM99.6,161.3c-.5,0-1.2-.6-1.2-1.2s.5-1.2,1.2-1.2,1.2.4,1.2,1.2-.5,1.2-1.2,1.2Z"/>
    <path class="st1" d="M110.9,176.1c-.4,0-.8-.1-1.2-.6-.2-.3-.4-.6-.5-1.2-.8.7-2.2,1.7-2.8,1.7-1.7,0-2.8-1.6-2.8-2.9s.6-1.9,1.8-2.3c1.4-.6,3.2-1.1,3.8-1.6v-.9c0-1.9-.8-3-2.1-3s-.8.1-1.1.4c-.2.3-.4,1-.6,1.7,0,.4-.3.4-.5.4-.4,0-1-.4-1-1s.2-.4.6-.8c.7-.6,2.4-1.6,3.5-1.8.7,0,1.4.2,1.9.7.8.8,1.1,1.7,1.1,3.2v4.7c0,1.2.4,1.7.8,1.7s.5,0,.7-.2v.3c.1,0-1.7,1.3-1.7,1.3h-.1ZM109.1,169.8c-.4.2-1.6.8-2.2,1.1-.8.4-1.4.9-1.4,1.9s1,2,1.8,2,1.3-.2,1.8-.8v-4.1h0Z"/>
    <path class="st1" d="M113.4,175.8v-.3c1.4-.2,1.6-.3,1.6-2.3v-12.6c0-2-.1-2.2-1.6-2.4v-.3c1.1,0,2.6-.6,3.5-.9v16.2c0,1.9,0,2.1,1.6,2.3v.3h-5.1Z"/>
    <path class="st1" d="M121.3,176.1c-.7,0-1.3-.6-1.3-1.3s.5-1.3,1.3-1.3,1.3.6,1.3,1.3-.5,1.3-1.3,1.3Z"/>
    <path class="st1" d="M137.3,162.3c-.4-1.9-1.3-3.3-3.5-3.3s-2.6,1.4-2.6,3,1.1,2.8,3.1,4c1.9,1.2,4.1,2.6,4.1,5.3s-2.2,4.9-5.2,4.9-2.8-.4-3.6-.8c-.1-.7-.5-3.1-.5-3.6h.3c.4,1.7,1.6,3.8,4.1,3.8s3-1.7,3-3.4-1.3-3.1-3-4.2c-1.9-1.2-3.9-2.6-3.9-5.2s1.9-4.4,4.9-4.4,2.5.3,3.1.4c0,.9.2,2.2.4,3.4h-.6Z"/>
    <path class="st1" d="M139.8,175.8v-.3c1.5-.2,1.6-.3,1.6-2.3v-5.2c0-1.8,0-1.9-1.4-2.1v-.3c1.1-.2,2.2-.6,3.3-1v8.7c0,1.9.1,2,1.6,2.3v.3h-5.1ZM142.3,161.3c-.5,0-1.2-.6-1.2-1.2s.5-1.2,1.2-1.2,1.2.4,1.2,1.2-.5,1.2-1.2,1.2Z"/>
    <path class="st1" d="M161.9,175.1c-.5,0-2.2.4-3.6,1v-1.8c-.6.4-1.4.9-2,1.2-.6.3-1.1.4-1.4.4-1.9,0-4.3-2-4.3-5.4s2.9-6.1,6.1-6.1,1.1,0,1.6.2v-4.4c0-1.7-.1-2-1.8-2.2v-.3c1.2,0,3-.4,3.8-.9v15.9c0,1.3.2,1.7,1.1,1.9h.6v.4h-.1ZM158.3,166.5c-.5-.9-1.7-1.2-2.8-1.2s-3,.9-3,4.6,1.8,5,3.4,5,1.6-.3,2.2-.9v-7.3h.1Z"/>
    <path class="st1" d="M171.5,173.5c-1.5,2-3.1,2.6-3.8,2.6-3,0-4.7-2.6-4.7-5.4s.5-3.2,1.6-4.3c1-1.1,2.3-1.8,3.5-1.8,2.1,0,3.5,1.9,3.5,3.6s0,.7-.1.7c-.5.2-3.5.3-6.7.4,0,4,2,5.4,3.8,5.4s1.8-.3,2.8-1.3l.2.2h-.1ZM167.3,165.2c-1.2,0-2.2,1-2.5,3.2h4.4c.2,0,.2-.1.2-.4,0-1.3-.7-2.8-2.2-2.8h.1Z"/>
    <path class="st1" d="M179.4,167.5c-.4-1.8-1.4-2.6-2.5-2.6s-1.6.7-1.6,1.8.8,1.8,2,2.4c1.8.9,2.9,1.8,2.9,3.4s-1.9,3.4-3.7,3.4-2-.3-2.5-.6c-.1-.4-.4-2.1-.4-2.8h.3c.4,1.4,1.4,2.8,3.1,2.8s1.8-.8,1.8-1.9-.6-1.9-1.9-2.6c-1.4-.8-2.8-1.7-2.8-3.4s1.4-3.2,3.5-3.2,1.7.2,2.1.2c0,.6.2,2.2.3,2.7h-.3l-.2.2Z"/>
    <path class="st1" d="M190.4,173.5c-1.5,2-3.1,2.6-3.8,2.6-3,0-4.7-2.6-4.7-5.4s.5-3.2,1.6-4.3c1-1.1,2.3-1.8,3.5-1.8,2.1,0,3.5,1.9,3.5,3.6s0,.7-.1.7c-.5.2-3.5.3-6.7.4,0,4,2,5.4,3.8,5.4s1.8-.3,2.8-1.3l.2.2h-.1ZM186.1,165.2c-1.2,0-2.2,1-2.5,3.2h4.4c.2,0,.2-.1.2-.4,0-1.3-.7-2.8-2.2-2.8h.1Z"/>
    <path class="st1" d="M199.3,176.1c-.4,0-.8-.1-1.2-.6-.2-.3-.4-.6-.5-1.2-.8.7-2.2,1.7-2.8,1.7-1.7,0-2.8-1.6-2.8-2.9s.6-1.9,1.8-2.3c1.4-.6,3.2-1.1,3.8-1.6v-.9c0-1.9-.8-3-2.1-3s-.8.1-1.1.4c-.2.3-.4,1-.6,1.7,0,.4-.3.4-.5.4-.4,0-1-.4-1-1s.2-.4.6-.8c.7-.6,2.4-1.6,3.5-1.8.7,0,1.4.2,1.9.7.8.8,1.1,1.7,1.1,3.2v4.7c0,1.2.4,1.7.8,1.7s.5,0,.7-.2v.3c.1,0-1.7,1.3-1.7,1.3h-.1ZM197.6,169.8c-.4.2-1.6.8-2.2,1.1-.8.4-1.4.9-1.4,1.9s1,2,1.8,2,1.3-.2,1.8-.8v-4.1h0Z"/>
    <path class="st1" d="M208.6,175.8v-.3c1.5-.2,1.6-.4,1.6-2.4v-4.1c0-1.7-.5-3-2.1-3s-1.9.6-2.5,1.1v6.1c0,1.9.2,2,1.6,2.2v.3h-5v-.3c1.5-.2,1.6-.4,1.6-2.3v-5.3c0-1.6,0-1.8-1.3-2.1v-.2c1.1-.1,2.2-.6,3.2-1.1v2.1c.5-.4,1.1-.8,1.7-1.2.7-.4,1.2-.8,1.9-.8,1.9,0,3,1.6,3,3.9v4.9c0,1.9.1,2,1.4,2.2v.3h-5Z"/>
    <path class="st1" d="M224.7,164.8c.3-.1.7-.2,1-.2,2.6,0,4.7,2.1,4.7,5.2s-2.9,6.3-5.9,6.3-2.2-.3-3.5-.9v-14.8c0-1.8,0-2-1.6-2.3v-.3c1.3-.1,2.5-.6,3.5-.9v8.7l2-.9h-.1ZM222.7,173.1c0,.3,0,.7.1.9.2.7,1.2,1.3,2.5,1.3,2,0,2.9-2,2.9-4.9s-1.6-4.8-3.7-4.8-1.4.1-1.8.3v7h0Z"/>
    <path class="st1" d="M240.6,173.5c-1.5,2-3.1,2.6-3.8,2.6-3,0-4.7-2.6-4.7-5.4s.5-3.2,1.6-4.3c1-1.1,2.3-1.8,3.5-1.8,2.1,0,3.5,1.9,3.5,3.6s0,.7-.1.7c-.5.2-3.5.3-6.7.4,0,4,2,5.4,3.8,5.4s1.8-.3,2.8-1.3l.2.2h-.1ZM236.4,165.2c-1.2,0-2.2,1-2.5,3.2h4.4c.2,0,.2-.1.2-.4,0-1.3-.7-2.8-2.2-2.8h.1Z"/>
    <path class="st1" d="M248.6,175.8v-.3c1.5-.2,1.6-.4,1.6-2.4v-4.1c0-1.7-.5-3-2.1-3s-1.9.6-2.5,1.1v6.1c0,1.9.2,2,1.6,2.2v.3h-5v-.3c1.5-.2,1.6-.4,1.6-2.3v-5.3c0-1.6,0-1.8-1.3-2.1v-.2c1.1-.1,2.2-.6,3.2-1.1v2.1c.5-.4,1.1-.8,1.7-1.2.7-.4,1.2-.8,1.9-.8,1.9,0,3,1.6,3,3.9v4.9c0,1.9.1,2,1.4,2.2v.3h-5Z"/>
    <path class="st1" d="M266.1,175.1c-.5,0-2.2.4-3.6,1v-1.8c-.6.4-1.4.9-2,1.2s-1.1.4-1.4.4c-1.9,0-4.3-2-4.3-5.4s2.9-6.1,6.1-6.1,1.1,0,1.6.2v-4.4c0-1.7-.1-2-1.8-2.2v-.3c1.2,0,3-.4,3.8-.9v15.9c0,1.3.2,1.7,1.1,1.9h.6v.4h-.1ZM262.6,166.5c-.5-.9-1.7-1.2-2.8-1.2s-3,.9-3,4.6,1.8,5,3.4,5,1.6-.3,2.2-.9v-7.3h.1Z"/>
    <path class="st1" d="M275.9,173.5c-1.5,2-3.1,2.6-3.8,2.6-3,0-4.7-2.6-4.7-5.4s.5-3.2,1.6-4.3c1-1.1,2.3-1.8,3.5-1.8,2.1,0,3.5,1.9,3.5,3.6s0,.7-.1.7c-.5.2-3.5.3-6.7.4,0,4,2,5.4,3.8,5.4s1.8-.3,2.8-1.3l.2.2h-.1ZM271.6,165.2c-1.2,0-2.2,1-2.5,3.2h4.4c.2,0,.2-.1.2-.4,0-1.3-.7-2.8-2.2-2.8h.1Z"/>
    <path class="st1" d="M286.4,173.4c-1.1,1.4-2.6,2.7-4,2.7-3,0-4.7-2.6-4.7-5.2s.7-3.6,2.4-5c1.3-1,2.6-1.4,3.5-1.4s1.7.2,2.1.7c.2.2.3.3.3.6,0,.4-.5,1.1-.7,1.1s-.2,0-.4-.3c-.6-.7-1.5-1-2.4-1-1.6,0-2.9,1-3,4,0,3.7,2.3,4.9,3.7,4.9s1.9-.3,3-1.3l.2.2v.2Z"/>
    <path class="st1" d="M287.6,175.8v-.3c1.5-.2,1.6-.3,1.6-2.3v-5.2c0-1.8,0-1.9-1.4-2.1v-.3c1.1-.2,2.2-.6,3.3-1v8.7c0,1.9.1,2,1.6,2.3v.3h-5.1ZM289.9,161.3c-.5,0-1.2-.6-1.2-1.2s.5-1.2,1.2-1.2,1.2.4,1.2,1.2-.5,1.2-1.2,1.2Z"/>
    <path class="st1" d="M299,175.8h-5.2v-.3c1.4-.2,1.5-.3,1.5-2.2v-5.3c0-1.7,0-1.8-1.3-2.1v-.2c1.2-.2,2.1-.6,3.2-1.1v2.8c.6-1.1,1.8-2.7,3-2.7s1.3.6,1.3,1.1-.3,1.1-.7,1.3c-.2.2-.4.1-.6,0-.4-.4-.6-.7-1.2-.7s-1.2.6-1.8,1.8v5.2c0,1.9.1,2,1.9,2.2v.3h0Z"/>
    <path class="st1" d="M308.8,175.8v-.3c1.5-.2,1.6-.4,1.6-2.4v-4.1c0-1.7-.5-3-2.1-3s-1.9.6-2.5,1.1v6.1c0,1.9.2,2,1.6,2.2v.3h-5v-.3c1.5-.2,1.6-.4,1.6-2.3v-5.3c0-1.6,0-1.8-1.3-2.1v-.2c1.1-.1,2.2-.6,3.2-1.1v2.1c.5-.4,1.1-.8,1.7-1.2.7-.4,1.2-.8,1.9-.8,1.9,0,3,1.6,3,3.9v4.9c0,1.9.1,2,1.4,2.2v.3h-5Z"/>
    <path class="st1" d="M320.3,164.4c3.1,0,5.1,2.6,5.1,5.6s-2.8,6-5.1,6-5.2-2.8-5.2-5.7,3.1-6,5.2-6h0ZM320,165.1c-1.7,0-2.8,1.9-2.8,4.7s1.4,5.8,3.4,5.8,2.6-1.1,2.6-4.9-1.2-5.6-3.3-5.6Z"/>
    <path class="st1" d="M333.1,167.5c-.4-1.8-1.4-2.6-2.5-2.6s-1.6.7-1.6,1.8.8,1.8,2,2.4c1.8.9,2.9,1.8,2.9,3.4s-1.9,3.4-3.7,3.4-2-.3-2.5-.6c-.1-.4-.4-2.1-.4-2.8h.3c.4,1.4,1.4,2.8,3.1,2.8s1.8-.8,1.8-1.9-.6-1.9-1.9-2.6c-1.4-.8-2.8-1.7-2.8-3.4s1.4-3.2,3.5-3.2,1.7.2,2.1.2c0,.6.2,2.2.3,2.7h-.3l-.2.2Z"/>
    <path class="st1" d="M56.9,204.9c-1.1,1.4-2.6,2.7-4,2.7-3,0-4.7-2.6-4.7-5.2s.7-3.6,2.4-5c1.3-1,2.6-1.4,3.5-1.4s1.7.2,2.1.7c.2.2.3.3.3.6,0,.4-.5,1.1-.7,1.1s-.2,0-.4-.3c-.6-.7-1.5-1-2.4-1-1.6,0-2.9,1-3,4,0,3.7,2.3,4.9,3.7,4.9s1.9-.3,3-1.3l.2.2v.2Z"/>
    <path class="st1" d="M63.5,195.9c3.1,0,5.1,2.6,5.1,5.6s-2.8,6-5.1,6-5.2-2.8-5.2-5.7,3.1-6,5.2-6h0ZM63.2,196.4c-1.7,0-2.8,1.9-2.8,4.7s1.4,5.8,3.4,5.8,2.6-1.1,2.6-4.9-1.2-5.6-3.3-5.6Z"/>
    <path class="st1" d="M76.5,207.2v-.3c1.5-.2,1.6-.4,1.6-2.4v-4.1c0-1.7-.5-3-2.1-3s-1.9.6-2.5,1.1v6.1c0,1.9.2,2,1.6,2.2v.3h-5v-.3c1.5-.2,1.6-.4,1.6-2.3v-5.3c0-1.6,0-1.8-1.3-2.1v-.2c1.1-.1,2.2-.6,3.2-1.1v2.1c.5-.4,1.1-.8,1.7-1.2.7-.4,1.2-.8,1.9-.8,1.9,0,3,1.6,3,3.9v4.9c0,1.9.1,2,1.4,2.2v.3h-5Z"/>
    <path class="st1" d="M98.7,206.6c-1.2.1-2.6.6-3.5.9v-2c-1.2,1.2-2.3,2-3.5,2s-2.9-1-2.9-3.6v-5.6c0-1.1-.3-1.3-1-1.6h-.4v-.4c.8,0,2.4-.2,3.3-.4v7.1c0,2.2,1.1,2.9,2.1,2.9s1.8-.2,2.4-1.1v-6.2c0-1.3-.3-1.6-1.2-1.8h-.5v-.4c1.3,0,2.8-.2,3.6-.4v8.4c0,1.4.2,1.6,1.1,1.7h.6v.4h-.2Z"/>
    <path class="st1" d="M106.4,207.2v-.3c1.5-.2,1.6-.4,1.6-2.4v-4.1c0-1.7-.5-3-2.1-3s-1.9.6-2.5,1.1v6.1c0,1.9.2,2,1.6,2.2v.3h-5v-.3c1.5-.2,1.6-.4,1.6-2.3v-5.3c0-1.6,0-1.8-1.3-2.1v-.2c1.1-.1,2.2-.6,3.2-1.1v2.1c.5-.4,1.1-.8,1.7-1.2.7-.4,1.2-.8,1.9-.8,1.9,0,3,1.6,3,3.9v4.9c0,1.9.1,2,1.4,2.2v.3h-5Z"/>
    <path class="st1" d="M128.8,206.5c-.5,0-2.2.4-3.6,1v-1.8c-.6.4-1.4.9-2,1.2s-1.1.4-1.4.4c-1.9,0-4.3-2-4.3-5.4s2.9-6.1,6.1-6.1,1.1,0,1.6.2v-4.4c0-1.7-.1-2-1.8-2.2v-.3c1.2,0,3-.4,3.8-.9v15.9c0,1.3.2,1.7,1.1,1.9h.6v.4h-.1ZM125.2,198c-.5-.9-1.7-1.2-2.8-1.2s-3,.9-3,4.6,1.8,5,3.4,5,1.6-.3,2.2-.9v-7.3h.1Z"/>
    <path class="st1" d="M138.5,205c-1.5,2-3.1,2.6-3.8,2.6-3,0-4.7-2.6-4.7-5.4s.5-3.2,1.6-4.3c1-1.1,2.3-1.8,3.5-1.8,2.1,0,3.5,1.9,3.5,3.6s0,.7-.1.7c-.5.2-3.5.3-6.7.4,0,4,2,5.4,3.8,5.4s1.8-.3,2.8-1.3l.2.2h-.1ZM134.3,196.6c-1.2,0-2.2,1-2.5,3.2h4.4c.2,0,.2-.1.2-.4,0-1.3-.7-2.8-2.2-2.8h.1Z"/>
    <path class="st1" d="M144.6,207.2c-.3.2-.6.2-.8.2-1.5,0-2.3-1-2.3-3v-7.6h-1.7c0-.1.3-.8.3-.8h1.4v-2.4c.5-.4,1.3-1,1.7-1.6h.2v4h2.5c0,.1,0,.6-.1.8h-2.4v6.9c0,2.1.7,2.6,1.5,2.6s1.1-.2,1.4-.3v.3l-1.6,1h0Z"/>
    <path class="st1" d="M154.6,207.5c-.4,0-.8-.1-1.2-.6-.2-.3-.4-.6-.5-1.2-.8.7-2.2,1.7-2.8,1.7-1.7,0-2.8-1.6-2.8-2.9s.6-1.9,1.8-2.3c1.4-.6,3.2-1.1,3.8-1.6v-.9c0-1.9-.8-3-2.1-3s-.8.1-1.1.4c-.2.3-.4,1-.6,1.7,0,.4-.3.4-.5.4-.4,0-1-.4-1-1s.2-.4.6-.8c.7-.6,2.4-1.6,3.5-1.8.7,0,1.4.2,1.9.7.8.8,1.1,1.7,1.1,3.2v4.7c0,1.2.4,1.7.8,1.7s.5,0,.7-.2v.3c.1,0-1.7,1.3-1.7,1.3h-.1ZM152.8,201.2c-.4.2-1.6.8-2.2,1.1-.8.4-1.4.9-1.4,1.9s1,2,1.8,2,1.3-.2,1.8-.8v-4.1h0Z"/>
    <path class="st1" d="M157.1,207.2v-.3c1.4-.2,1.6-.3,1.6-2.3v-12.6c0-2-.1-2.2-1.6-2.4v-.3c1.1,0,2.6-.6,3.5-.9v16.2c0,1.9,0,2.1,1.6,2.3v.3h-5.1Z"/>
    <path class="st1" d="M163,207.2v-.3c1.4-.2,1.6-.3,1.6-2.3v-12.6c0-2-.1-2.2-1.6-2.4v-.3c1.1,0,2.6-.6,3.5-.9v16.2c0,1.9,0,2.1,1.6,2.3v.3h-5.1Z"/>
    <path class="st1" d="M177.9,205c-1.5,2-3.1,2.6-3.8,2.6-3,0-4.7-2.6-4.7-5.4s.5-3.2,1.6-4.3c1-1.1,2.3-1.8,3.5-1.8,2.1,0,3.5,1.9,3.5,3.6s0,.7-.1.7c-.5.2-3.5.3-6.7.4,0,4,2,5.4,3.8,5.4s1.8-.3,2.8-1.3l.2.2h-.1ZM173.7,196.6c-1.2,0-2.2,1-2.5,3.2h4.4c.2,0,.2-.1.2-.4,0-1.3-.7-2.8-2.2-2.8h.1Z"/>
    <path class="st1" d="M180.9,207.5c-.7,0-1.3-.6-1.3-1.3s.5-1.3,1.3-1.3,1.3.6,1.3,1.3-.5,1.3-1.3,1.3Z"/>
    <path class="st1" d="M196.6,207.2v-.3c1.5-.3,1.8-.6,1.4-1.6-.3-1.1-1-2.9-1.6-4.9h-5c-.5,1.6-1,2.9-1.4,4.1-.5,1.8-.2,2,1.7,2.3v.3h-5.3v-.3c1.5-.2,1.8-.4,2.8-2.9l5.2-14.1h.4c1.6,4.7,3.2,9.4,4.9,14.2.7,2.3,1.1,2.3,2.6,2.8v.3h-5.8.1ZM194,193.1c-.8,2.2-1.5,4.4-2.2,6.6h4.4l-2.1-6.6h-.1Z"/>
    <path class="st1" d="M206.3,204c-.6.6-.7,1.1-.7,1.3,0,.6.4,1.1,1.5,1.1h2.5c1.9,0,3.6.9,3.6,3.1s-2.8,5.1-5.8,5.1-4.3-1.8-4.3-3.2.2-1,.5-1.3,1.5-1.3,2.1-1.9c-1-.3-1.5-.9-1.8-1.4-.2-.3-.3-.8-.2-1.1.6-.4,1.8-1.2,2.3-1.9l.4.2h-.1ZM207.5,204.2c-2.4,0-4-1.9-4-4s2.1-4.3,4.2-4.3,1.6.2,2.3.7c.8,0,2.4-.3,3.1-.6h.1c-.2.6-.5,1.2-.8,1.4h-1.6c.5.6.8,1.6.8,2.4,0,2.8-2.3,4.2-4.1,4.2h0ZM208.2,208.1c-1.5,0-1.8,0-2,.2-1.1.8-1.5,1.4-1.5,2.4,0,1.6,1.6,2.9,3.6,2.9s3.4-1.6,3.4-3-.5-1.8-1.4-2.2c-.5-.2-1.2-.3-2.1-.3ZM207.4,196.4c-1.2,0-2,1.1-2,3.3s1,4,2.4,4,1.9-1.1,1.9-3.3-1-3.9-2.3-3.9h0Z"/>
    <path class="st1" d="M219.2,207.2h-5.2v-.3c1.4-.2,1.5-.3,1.5-2.2v-5.3c0-1.7,0-1.8-1.3-2.1v-.2c1.2-.2,2.1-.6,3.2-1.1v2.8c.6-1.1,1.8-2.7,3-2.7s1.3.6,1.3,1.1-.3,1.1-.7,1.3c-.2.2-.4.1-.5,0-.4-.4-.6-.7-1.2-.7s-1.2.6-1.8,1.8v5.2c0,1.9.1,2,1.9,2.2v.3h-.1Z"/>
    <path class="st1" d="M229.9,207.5c-.4,0-.8-.1-1.2-.6-.2-.3-.4-.6-.5-1.2-.8.7-2.2,1.7-2.8,1.7-1.7,0-2.8-1.6-2.8-2.9s.6-1.9,1.8-2.3c1.4-.6,3.2-1.1,3.8-1.6v-.9c0-1.9-.8-3-2.1-3s-.8.1-1.1.4c-.2.3-.4,1-.6,1.7,0,.4-.3.4-.5.4-.4,0-1-.4-1-1s.2-.4.6-.8c.7-.6,2.4-1.6,3.5-1.8.7,0,1.4.2,1.9.7.8.8,1.1,1.7,1.1,3.2v4.7c0,1.2.4,1.7.8,1.7s.5,0,.7-.2v.3c.1,0-1.7,1.3-1.7,1.3h-.1ZM228.2,201.2c-.4.2-1.6.8-2.2,1.1-.8.4-1.4.9-1.4,1.9s1,2,1.8,2,1.3-.2,1.8-.8v-4.1h0Z"/>
    <path class="st1" d="M244,206.5c-.5,0-2.2.4-3.6,1v-1.8c-.6.4-1.4.9-2,1.2-.6.3-1.1.4-1.4.4-1.9,0-4.3-2-4.3-5.4s2.9-6.1,6-6.1,1.1,0,1.6.2v-4.4c0-1.7-.1-2-1.8-2.2v-.3c1.2,0,3-.4,3.8-.9v15.9c0,1.3.2,1.7,1.1,1.9h.6v.4h0ZM240.5,198c-.5-.9-1.7-1.2-2.8-1.2s-3,.9-3,4.6,1.8,5,3.4,5,1.6-.3,2.2-.9v-7.3h.1Z"/>
    <path class="st1" d="M253.7,205c-1.5,2-3.1,2.6-3.8,2.6-3,0-4.7-2.6-4.7-5.4s.5-3.2,1.6-4.3c1-1.1,2.3-1.8,3.5-1.8,2.1,0,3.5,1.9,3.5,3.6s0,.7-.1.7c-.5.2-3.5.3-6.7.4,0,4,2,5.4,3.8,5.4s1.8-.3,2.8-1.3l.2.2h-.1ZM249.5,196.6c-1.2,0-2.2,1-2.5,3.2h4.4c.2,0,.2-.1.2-.4,0-1.3-.7-2.8-2.2-2.8h.1Z"/>
    <path class="st1" d="M264.3,204.9c-1.1,1.4-2.6,2.7-4,2.7-3,0-4.7-2.6-4.7-5.2s.7-3.6,2.4-5c1.3-1,2.6-1.4,3.5-1.4s1.7.2,2.1.7c.2.2.3.3.3.6,0,.4-.5,1.1-.7,1.1s-.2,0-.4-.3c-.6-.7-1.5-1-2.4-1-1.6,0-2.9,1-3,4,0,3.7,2.3,4.9,3.7,4.9s1.9-.3,3-1.3l.2.2v.2Z"/>
    <path class="st1" d="M274.2,205c-1.5,2-3.1,2.6-3.8,2.6-3,0-4.7-2.6-4.7-5.4s.5-3.2,1.6-4.3c1-1.1,2.3-1.8,3.5-1.8,2.1,0,3.5,1.9,3.5,3.6s0,.7-.1.7c-.5.2-3.5.3-6.7.4,0,4,2,5.4,3.8,5.4s1.8-.3,2.8-1.3l.2.2h-.1ZM269.9,196.6c-1.2,0-2.2,1-2.5,3.2h4.4c.2,0,.2-.1.2-.4,0-1.3-.7-2.8-2.2-2.8h.1Z"/>
    <path class="st1" d="M280.8,207.2h-5.2v-.3c1.4-.2,1.5-.3,1.5-2.2v-5.3c0-1.7,0-1.8-1.3-2.1v-.2c1.2-.2,2.1-.6,3.2-1.1v2.8c.6-1.1,1.8-2.7,3-2.7s1.3.6,1.3,1.1-.3,1.1-.7,1.3c-.2.2-.4.1-.5,0-.4-.4-.6-.7-1.2-.7s-1.2.6-1.8,1.8v5.2c0,1.9.1,2,1.9,2.2v.3h-.1Z"/>
    <path class="st1" d="M292.6,205c-1.5,2-3.1,2.6-3.8,2.6-3,0-4.7-2.6-4.7-5.4s.5-3.2,1.6-4.3c1-1.1,2.3-1.8,3.5-1.8,2.1,0,3.5,1.9,3.5,3.6s0,.7-.1.7c-.5.2-3.5.3-6.7.4,0,4,2,5.4,3.8,5.4s1.8-.3,2.8-1.3l.2.2h-.1ZM288.4,196.6c-1.2,0-2.2,1-2.5,3.2h4.4c.2,0,.2-.1.2-.4,0-1.3-.7-2.8-2.2-2.8h.1Z"/>
    <path class="st1" d="M306.7,207.2v-.3c1.5-.2,1.6-.4,1.6-2.4v-4.1c0-1.8-.4-3-2-3s-1.6.3-2.5,1.2v6.3c0,1.8.1,1.9,1.5,2.2v.3h-4.8v-.3c1.4-.2,1.5-.4,1.5-2.2v-4.6c0-1.9-.5-2.9-2.1-2.9s-1.7.4-2.4,1.2v6.2c0,1.8,0,2,1.5,2.2v.3h-5v-.3c1.5-.2,1.6-.4,1.6-2.2v-5.3c0-1.7-.1-1.8-1.3-2.1v-.2c1.2-.2,2-.6,3.2-1.1v2c.4-.3,1-.8,1.6-1.2.7-.4,1.3-.8,2-.8,1.2,0,2,.6,2.5,2,.6-.6,1.4-1.1,2-1.4.6-.4,1.1-.6,1.7-.6,1.8,0,2.9,1.4,2.9,3.9v4.8c0,2,.1,2,1.4,2.3v.3h-4.8v-.2Z"/>
    <path class="st1" d="M318.1,195.9c3.1,0,5.1,2.6,5.1,5.6s-2.8,6-5.1,6-5.2-2.8-5.2-5.7,3.1-6,5.2-6h0ZM317.8,196.4c-1.7,0-2.8,1.9-2.8,4.7s1.4,5.8,3.4,5.8,2.6-1.1,2.6-4.9-1.2-5.6-3.3-5.6Z"/>
    <path class="st1" d="M330.8,199c-.4-1.8-1.4-2.6-2.5-2.6s-1.6.7-1.6,1.8.8,1.8,2,2.4c1.8.9,2.9,1.8,2.9,3.4s-1.9,3.4-3.7,3.4-2-.3-2.5-.6c-.1-.4-.4-2.1-.4-2.8h.3c.4,1.4,1.4,2.8,3.1,2.8s1.8-.8,1.8-1.9-.6-1.9-1.9-2.6c-1.4-.8-2.8-1.7-2.8-3.4s1.4-3.2,3.5-3.2,1.7.2,2.1.2c0,.6.2,2.2.3,2.7h-.3l-.2.2Z"/>
    <path class="st1" d="M53.5,236.3c-1.1,1.4-2.6,2.7-4,2.7-3,0-4.7-2.6-4.7-5.2s.7-3.6,2.4-5c1.3-1,2.6-1.4,3.5-1.4s1.7.2,2.1.7c.2.2.3.3.3.6,0,.4-.5,1.1-.7,1.1s-.2,0-.4-.3c-.6-.7-1.5-1-2.4-1-1.6,0-2.9,1-3,4,0,3.7,2.3,4.9,3.7,4.9s1.9-.3,3-1.3l.2.2v.2Z"/>
    <path class="st1" d="M60.1,227.3c3.1,0,5.1,2.6,5.1,5.6s-2.8,6-5.1,6-5.2-2.8-5.2-5.7,3.1-6,5.2-6h0ZM59.8,227.9c-1.7,0-2.8,1.9-2.8,4.7s1.4,5.8,3.4,5.8,2.6-1.1,2.6-4.9-1.2-5.6-3.3-5.6Z"/>
    <path class="st1" d="M73.1,238.6v-.3c1.5-.2,1.6-.4,1.6-2.4v-4.1c0-1.7-.5-3-2.1-3s-1.9.6-2.5,1.1v6.1c0,1.9.2,2,1.6,2.2v.3h-5v-.3c1.5-.2,1.6-.4,1.6-2.3v-5.3c0-1.6,0-1.8-1.3-2.1v-.2c1.1-.1,2.2-.6,3.2-1.1v2.1c.5-.4,1.1-.8,1.7-1.2.7-.4,1.2-.8,1.9-.8,1.9,0,3,1.6,3,3.9v4.9c0,1.8.1,2,1.4,2.2v.3h-5Z"/>
    <path class="st1" d="M92.8,236.3c-1.5,2-3.1,2.6-3.8,2.6-3,0-4.7-2.6-4.7-5.4s.5-3.2,1.6-4.3c1-1.1,2.3-1.8,3.5-1.8,2.1,0,3.5,1.9,3.5,3.6s0,.7-.1.7c-.5.2-3.5.3-6.7.4,0,4,2,5.4,3.8,5.4s1.8-.3,2.8-1.3l.2.2h-.1ZM88.7,228.1c-1.2,0-2.2,1-2.5,3.2h4.4c.2,0,.2-.1.2-.4,0-1.3-.7-2.8-2.2-2.8h.1Z"/>
    <path class="st1" d="M94,238.6v-.3c1.4-.2,1.6-.3,1.6-2.3v-12.6c0-2-.1-2.2-1.6-2.4v-.3c1.1,0,2.6-.6,3.5-.9v16.2c0,1.9,0,2.1,1.6,2.3v.3h-5.1Z"/>
    <path class="st1" d="M113.4,236.3c-1.1,1.4-2.6,2.7-4,2.7-3,0-4.7-2.6-4.7-5.2s.7-3.6,2.4-5c1.3-1,2.6-1.4,3.5-1.4s1.7.2,2.1.7c.2.2.3.3.3.6,0,.4-.5,1.1-.7,1.1s-.2,0-.4-.3c-.6-.7-1.5-1-2.4-1-1.6,0-2.9,1-3,4,0,3.7,2.3,4.9,3.7,4.9s1.9-.3,3-1.3l.2.2v.2Z"/>
    <path class="st1" d="M119.9,227.3c3.1,0,5.1,2.6,5.1,5.6s-2.8,6-5.1,6-5.2-2.8-5.2-5.7,3.1-6,5.2-6h0ZM119.6,227.9c-1.7,0-2.8,1.9-2.8,4.7s1.4,5.8,3.4,5.8,2.6-1.1,2.6-4.9-1.2-5.6-3.3-5.6Z"/>
    <path class="st1" d="M131.7,238.6h-5.2v-.3c1.4-.2,1.5-.3,1.5-2.2v-5.3c0-1.7,0-1.8-1.3-2.1v-.2c1.2-.2,2.1-.6,3.2-1.1v2.8c.6-1.1,1.8-2.7,3-2.7s1.3.6,1.3,1.1-.3,1.1-.7,1.3c-.2.2-.4.1-.6,0-.4-.4-.6-.7-1.2-.7s-1.2.6-1.8,1.8v5.2c0,1.9.1,2,1.9,2.2v.3h0Z"/>
    <path class="st1" d="M142.5,239c-.4,0-.8-.1-1.2-.6-.2-.3-.4-.6-.5-1.2-.8.7-2.2,1.7-2.8,1.7-1.7,0-2.8-1.6-2.8-2.9s.6-1.9,1.8-2.3c1.4-.6,3.2-1.1,3.8-1.6v-.9c0-1.9-.8-3-2.1-3s-.8.2-1.1.4c-.2.3-.4,1-.6,1.7,0,.4-.3.4-.5.4-.4,0-1-.4-1-1s.2-.4.6-.8c.7-.6,2.4-1.6,3.5-1.8.7,0,1.4.2,1.9.7.8.8,1.1,1.7,1.1,3.2v4.7c0,1.2.4,1.7.8,1.7s.5,0,.7-.2v.3c.1,0-1.7,1.3-1.7,1.3h-.1ZM140.8,232.6c-.4.2-1.6.8-2.2,1.1-.8.4-1.4.9-1.4,1.9s1,2,1.8,2,1.3-.2,1.8-.8v-4.1h0Z"/>
    <path class="st1" d="M154,235.4c-.2.9-.6,2.2-1,3.1h-7.7v-.2c1.9-3.2,3.9-6.7,5.8-10.1h-2.3c-1.8,0-2.1.3-3.1,2.4h-.3c.2-.9.5-2.6.6-3.7h.3c.1.4.4.6,1.4.6h5.7v.2c-1.8,3.2-3.7,6.6-5.8,10.1h2.5c1.9,0,2.3-.4,3.5-2.7h.3v.2Z"/>
    <path class="st1" d="M160.2,227.3c3.1,0,5.1,2.6,5.1,5.6s-2.8,6-5.1,6-5.2-2.8-5.2-5.7,3.1-6,5.2-6h0ZM159.9,227.9c-1.7,0-2.8,1.9-2.8,4.7s1.4,5.8,3.4,5.8,2.6-1.1,2.6-4.9-1.2-5.6-3.3-5.6h0ZM159.3,225.4l2.5-4.1c.2-.1,1.8-.2,2-.2h0c0,.1-4.3,4.6-4.3,4.6l-.3-.2h.1Z"/>
    <path class="st1" d="M173.3,238.6v-.3c1.5-.2,1.6-.4,1.6-2.4v-4.1c0-1.7-.5-3-2.1-3s-1.9.6-2.5,1.1v6.1c0,1.9.2,2,1.6,2.2v.3h-5v-.3c1.5-.2,1.6-.4,1.6-2.3v-5.3c0-1.6,0-1.8-1.3-2.1v-.2c1.1-.1,2.2-.6,3.2-1.1v2.1c.5-.4,1.1-.8,1.7-1.2.7-.4,1.2-.8,1.9-.8,1.9,0,3,1.6,3,3.9v4.9c0,1.8.1,2,1.4,2.2v.3h-5Z"/>
    <path class="st1" d="M193.1,236.3c-1.1,1.4-2.6,2.7-4,2.7-3,0-4.7-2.6-4.7-5.2s.7-3.6,2.4-5c1.3-1,2.6-1.4,3.5-1.4s1.7.2,2.1.7c.2.2.3.3.3.6,0,.4-.5,1.1-.7,1.1s-.2,0-.4-.3c-.6-.7-1.5-1-2.4-1-1.6,0-2.9,1-3,4,0,3.7,2.3,4.9,3.7,4.9s1.9-.3,3-1.3l.2.2v.2Z"/>
    <path class="st1" d="M205.4,238c-1.2.1-2.6.6-3.5.9v-2c-1.2,1.2-2.3,2-3.5,2s-2.9-1-2.9-3.6v-5.6c0-1.1-.3-1.3-1-1.6h-.4v-.4c.8,0,2.4-.2,3.3-.4v7.1c0,2.2,1.1,2.9,2.1,2.9s1.8-.2,2.4-1.1v-6.2c0-1.3-.3-1.6-1.2-1.8h-.5v-.4c1.3,0,2.8-.2,3.6-.4v8.4c0,1.4.2,1.6,1.1,1.7h.6v.4h-.2Z"/>
    <path class="st1" d="M214,239c-.4,0-.8-.1-1.2-.6-.2-.3-.4-.6-.5-1.2-.8.7-2.2,1.7-2.8,1.7-1.7,0-2.8-1.6-2.8-2.9s.6-1.9,1.8-2.3c1.4-.6,3.2-1.1,3.8-1.6v-.9c0-1.9-.8-3-2.1-3s-.8.2-1.1.4c-.2.3-.4,1-.6,1.7,0,.4-.3.4-.5.4-.4,0-1-.4-1-1s.2-.4.6-.8c.7-.6,2.4-1.6,3.5-1.8.7,0,1.4.2,1.9.7.8.8,1.1,1.7,1.1,3.2v4.7c0,1.2.4,1.7.8,1.7s.5,0,.7-.2v.3c.1,0-1.7,1.3-1.7,1.3h-.1ZM212.3,232.6c-.4.2-1.6.8-2.2,1.1-.8.4-1.4.9-1.4,1.9s1,2,1.8,2,1.3-.2,1.8-.8v-4.1h0Z"/>
    <path class="st1" d="M216.5,238.6v-.3c1.4-.2,1.6-.3,1.6-2.3v-12.6c0-2-.1-2.2-1.6-2.4v-.3c1.1,0,2.6-.6,3.5-.9v16.2c0,1.9,0,2.1,1.6,2.3v.3h-5.1Z"/>
    <path class="st1" d="M228.6,245.5v-.3c1.7-.2,1.8-.4,1.8-2.6v-4.8l-2.5,1.1c-3.4,0-5.1-2.9-5.1-5.3,0-3.7,3.4-6.2,6.2-6.2s1.5.2,1.9.3h.5c.1,0,.5,0,.8-.2h0c0,.6-.1,1.1-.1,2.8v12.2c0,2.2,0,2.3,1.8,2.7v.3h-5.4,0ZM230.4,229.2c-.5-.7-1.6-1-2.5-1-1.8,0-3.1,1.3-3.1,4.4s1.9,5.1,3.9,5.1,1.3-.1,1.6-.4v-8.1h.1Z"/>
    <path class="st1" d="M246,238c-1.2.1-2.6.6-3.5.9v-2c-1.2,1.2-2.3,2-3.5,2s-2.9-1-2.9-3.6v-5.6c0-1.1-.3-1.3-1-1.6h-.4v-.4c.8,0,2.4-.2,3.3-.4v7.1c0,2.2,1.1,2.9,2.1,2.9s1.8-.2,2.4-1.1v-6.2c0-1.3-.3-1.6-1.2-1.8h-.5v-.4c1.3,0,2.8-.2,3.6-.4v8.4c0,1.4.2,1.6,1.1,1.7h.6v.4h-.2Z"/>
    <path class="st1" d="M247,238.6v-.3c1.5-.2,1.6-.3,1.6-2.3v-5.2c0-1.8,0-1.9-1.4-2.1v-.3c1.1-.2,2.2-.6,3.3-1v8.7c0,1.9.1,2,1.6,2.3v.3h-5.1ZM249.5,224.2c-.5,0-1.2-.6-1.2-1.2s.5-1.2,1.2-1.2,1.2.4,1.2,1.2-.5,1.2-1.2,1.2Z"/>
    <path class="st1" d="M261.9,236.3c-1.5,2-3.1,2.6-3.8,2.6-3,0-4.7-2.6-4.7-5.4s.5-3.2,1.6-4.3c1-1.1,2.3-1.8,3.5-1.8,2.1,0,3.5,1.9,3.5,3.6s0,.7-.1.7c-.5.2-3.5.3-6.7.4,0,4,2,5.4,3.8,5.4s1.8-.3,2.8-1.3l.2.2h-.1ZM257.7,228.1c-1.2,0-2.2,1-2.5,3.2h4.4c.2,0,.2-.1.2-.4,0-1.3-.7-2.8-2.2-2.8h.1Z"/>
    <path class="st1" d="M268.6,238.6h-5.2v-.3c1.4-.2,1.5-.3,1.5-2.2v-5.3c0-1.7,0-1.8-1.3-2.1v-.2c1.2-.2,2.1-.6,3.2-1.1v2.8c.6-1.1,1.8-2.7,3-2.7s1.3.6,1.3,1.1-.3,1.1-.7,1.3c-.2.2-.4.1-.6,0-.4-.4-.6-.7-1.2-.7s-1.2.6-1.8,1.8v5.2c0,1.9.1,2,1.9,2.2v.3h0Z"/>
    <path class="st1" d="M283.7,239c-.4,0-.8-.1-1.2-.6-.2-.3-.4-.6-.5-1.2-.8.7-2.2,1.7-2.8,1.7-1.7,0-2.8-1.6-2.8-2.9s.6-1.9,1.8-2.3c1.4-.6,3.2-1.1,3.8-1.6v-.9c0-1.9-.8-3-2.1-3s-.8.2-1.1.4c-.2.3-.4,1-.6,1.7,0,.4-.3.4-.5.4-.4,0-1-.4-1-1s.2-.4.6-.8c.7-.6,2.4-1.6,3.5-1.8.7,0,1.4.2,1.9.7.8.8,1.1,1.7,1.1,3.2v4.7c0,1.2.4,1.7.8,1.7s.5,0,.7-.2v.3c.1,0-1.7,1.3-1.7,1.3h-.1ZM281.9,232.6c-.4.2-1.6.8-2.2,1.1s-1.4.9-1.4,1.9,1,2,1.8,2,1.3-.2,1.8-.8v-4.1h0Z"/>
    <path class="st1" d="M286.2,228.2c1.2-.2,2.4-.7,3.4-1.1v2c.5-.3,1.5-1,1.9-1.2.6-.3,1.1-.6,1.5-.6,2.6,0,4.1,2.4,4.1,4.8,0,3.7-2.9,6.2-5.9,6.8-.6,0-1.3-.2-1.6-.4v3.9c0,2.3.2,2.4,1.9,2.8v.3h-5.4v-.3c1.5-.3,1.7-.4,1.7-2.4v-12.2c0-1.7-.2-1.8-1.5-2.1v-.2h-.1ZM289.5,237c.5.7,1.5.9,2.4.9,2.1,0,3.3-1.6,3.3-4.7s-1.5-4.6-3.2-4.6-1.8.4-2.4.9v7.3h-.1Z"/>
    <path class="st1" d="M304,227.3c3.1,0,5.1,2.6,5.1,5.6s-2.8,6-5.1,6-5.2-2.8-5.2-5.7,3.1-6,5.2-6h0ZM303.7,227.9c-1.7,0-2.8,1.9-2.8,4.7s1.4,5.8,3.4,5.8,2.6-1.1,2.6-4.9-1.2-5.6-3.3-5.6Z"/>
    <path class="st1" d="M315.9,238.6h-5.2v-.3c1.4-.2,1.5-.3,1.5-2.2v-5.3c0-1.7,0-1.8-1.3-2.1v-.2c1.2-.2,2.1-.6,3.2-1.1v2.8c.6-1.1,1.8-2.7,3-2.7s1.3.6,1.3,1.1-.3,1.1-.7,1.3c-.2.2-.4.1-.6,0-.4-.4-.6-.7-1.2-.7s-1.2.6-1.8,1.8v5.2c0,1.9.1,2,1.9,2.2v.3h0Z"/>
    <path class="st1" d="M324.2,238.6c-.3.2-.6.2-.8.2-1.5,0-2.3-1-2.3-3v-7.6h-1.7c0-.1.3-.8.3-.8h1.4v-2.4c.5-.4,1.3-1,1.7-1.6h.2v4h2.5c0,.1,0,.6-.1.8h-2.4v6.9c0,2.1.7,2.6,1.5,2.6s1.1-.2,1.4-.3v.3l-1.6,1h0Z"/>
    <path class="st1" d="M335.1,236.3c-1.5,2-3.1,2.6-3.8,2.6-3,0-4.7-2.6-4.7-5.4s.5-3.2,1.6-4.3c1-1.1,2.3-1.8,3.5-1.8,2.1,0,3.5,1.9,3.5,3.6s0,.7-.1.7c-.5.2-3.5.3-6.7.4,0,4,2,5.4,3.8,5.4s1.8-.3,2.8-1.3l.2.2h-.1ZM330.8,228.1c-1.2,0-2.2,1-2.5,3.2h4.4c.2,0,.2-.1.2-.4,0-1.3-.7-2.8-2.2-2.8h.1Z"/>
  </g>
</svg>