<?xml version="1.0" encoding="UTF-8"?>
<svg id="Capa_1" xmlns="http://www.w3.org/2000/svg" version="1.1" viewBox="0 0 378 546">
  <!-- Generator: Adobe Illustrator 29.5.1, SVG Export Plug-In . SVG Version: 2.1.0 Build 141)  -->
  <defs>
    <style>
      .st0 {
        fill: #fff;
      }
    </style>
  </defs>
  <rect class="st0" y=".5" width="378" height="545"/>
  <g>
    <g>
      <g>
        <path d="M40.6,70c-3.5,0-6.2-1-8.2-3.1-2-2.1-3-4.8-3-8.3,0-5.5,2.3-10.4,6.8-14.9-1.7-1.5-2.6-3.1-2.6-4.9,0-3.2,1.9-4.8,5.7-4.8s1.9.1,2.9.4,1.8.7,2.7,1.3h0c0,0,0,.1,0,.2,0,0,0,.1,0,.2,0,.1,0,.2-.1.2s-.1,0-.3-.2c-1.5-.9-3.1-1.4-4.6-1.4s-2.7.4-3.7,1.1c-1.1.7-1.7,1.9-1.7,3.4s.7,2.8,2.1,4.1c4.4-4.1,10-6.2,16.6-6.2s4.2.3,5.8,1c2.3.8,3.5,2.2,3.5,4.1s-.9,2.7-2.8,3.7c-.6.4-1.4.8-2.1,1-.8.3-1.6.5-2.5.7-1.5.3-3.2.5-4.9.5-4.6,0-8.6-1-12-2.9-3.8,4.3-5.8,9-5.8,14s.6,5.1,1.9,6.9c1.4,2.2,3.5,3.3,6.1,3.3,5.1,0,9.2-2.4,12.4-7.3,1.1-1.7,1.6-3.2,1.6-4.5s-.4-2.2-1.2-2.9c-.8-.8-1.8-1.2-3-1.2s-2.2.3-3.2,1c-1,.6-1.7,1.5-2.2,2.6-.1.3-.2.4-.4.4s-.2,0-.2-.3,0,0,0-.1,0,0,0-.1c.4-1.3,1.3-2.2,2.4-3,1.1-.7,2.4-1.1,3.7-1.1s2.7.4,3.7,1.3c.9.9,1.4,2.1,1.4,3.5s-.5,3.2-1.5,4.7c-1.4,2.2-3.3,4-6,5.3-2.5,1.4-5.1,2-7.7,2ZM49.1,47.5c1.3,0,2.5-.1,3.7-.3,1.2-.2,2.4-.5,3.7-.8,3.4-1.1,5.1-2.6,5.1-4.5,0-2.7-2.6-4.1-7.8-4.1s-10.5,2.3-15,7c3.1,1.8,6.5,2.6,10.3,2.6Z"/>
        <path d="M63.9,68c-1.5,0-2.6-.6-3.4-1.9-.7-1.1-1.1-2.4-1.1-4,0-2.7.8-5.2,2.5-7.5,1.9-2.5,4.1-3.8,6.7-3.8s2.3.5,3.1,1.4c.7.9,1,2,1,3.4s0,1.2-.2,1.9-.3,1.3-.5,2c-.5,1.5-1.1,2.7-1.9,3.5v.2c.4.2.8.4,1.3.4,1,0,1.8-.3,2.5-1,.7-.6,1.4-1.8,2.3-3.5,0-.1,0-.2.2-.2s.1,0,.2.1c0,0,0,.2,0,.3-.7,1.5-1.5,2.6-2.3,3.4-.8.8-1.7,1.2-2.8,1.2s-1.2-.2-1.6-.6c-.3.6-.7,1.2-1.1,1.7-.4.5-.9,1-1.4,1.4-1.2,1-2.3,1.5-3.6,1.5ZM64.2,67.6c1.8,0,3.6-1.4,5.3-4.1,0-.1,0-.2.2-.3-.6-1-.9-2-.9-2.9v-.2c0-.1,0-.3,0-.5,0-.4.1-.8.2-1.1.1-.4.3-.8.5-1.1.5-.8,1.1-1.2,1.8-1.2h.5c.1,0,.2,0,.3,0h.2c0-3.1-1-4.6-2.9-4.6s-3.2,1-4.6,3c-1.2,1.6-2,3.3-2.5,5.2-.3,1.1-.5,2.2-.5,3.3,0,3,.8,4.5,2.5,4.5Z"/>
        <path d="M78.6,67.8c-1.2,0-2.1-.5-2.6-1.5-.5-1-.8-2.1-.8-3.4s.2-2.3.6-3.3c.5-1.3,1.2-2.5,2.1-3.8s2-2.4,3.3-3.3,2.7-1.3,4.2-1.3,2.5,1,2.5,3-.2,2-.6,3.2l8.3-16.3h0c.1.1.4.2.7.2.7,0,1.6-.4,2.5-1.2h.1c0,.1-7.6,14.7-7.6,14.7-3,5.7-4.4,9.4-4.4,11.1s.4,1.4,1.1,1.4.9-.2,1.5-.5c.6-.3,1.2-.8,1.8-1.5.8-.9,1.5-1.9,2.1-2.7s1.3-2,2.1-3.5c0-.2.2-.3.3-.3.2,0,.2.2,0,.5-.6,1.2-1.3,2.3-2,3.4-.7,1.1-1.5,2.2-2.5,3.2-1.2,1.2-2.4,1.8-3.4,1.8s-1.6-.2-2.1-.7c-.6-.5-.8-1.3-.8-2.4s.2-2.3.6-3.6c-2.4,4.6-4.7,6.9-7.1,6.9ZM78.9,67.3c.9,0,2-.7,3.3-2,1.3-1.4,2.6-3.3,3.9-5.9.1-.3.3-.7.5-1.3s.4-1.3.6-2c.2-.7.3-1.4.3-2.1s-.1-1.2-.4-1.7c-.3-.4-.7-.7-1.4-.7s-1.3.2-2.1.7c-.7.5-1.5,1.2-2.3,2.3-1.3,1.7-2.2,3.4-2.8,5,0,.2-.2.6-.4,1.2-.2.6-.3,1.3-.5,2-.1.7-.2,1.4-.2,2.1s.1,1.2.3,1.6c.2.4.6.7,1.1.7Z"/>
        <path d="M97.5,68.1c-2.2,0-3.4-1.2-3.4-3.7s.5-3.7,1.6-5.7l3.8-7.5h.2c.1.1.3.2.6.2.6,0,1.5-.4,2.5-1.2h.1c0,.1-4.3,8.5-4.3,8.5-1.8,3.5-2.7,5.9-2.7,7.2s.2,1,.5,1.3.7.4,1.2.4.9-.1,1.4-.3c.5-.2.9-.4,1.2-.7.9-.7,1.7-1.5,2.3-2.5.6-.9,1.2-1.9,1.7-2.8s.9-1.7,1.3-2.4c.1-.2.2-.2.3-.2.1,0,.1.2,0,.3-.7,1.4-1.4,2.9-2.2,4.4-.8,1.5-1.8,2.7-3.1,3.6-.4.3-.9.6-1.4.8-.5.2-1,.3-1.6.3ZM103.5,48.2c-1.1,0-1.6-.5-1.6-1.6s.5-1.7,1.6-1.7,1.6.5,1.6,1.6-.5,1.7-1.6,1.7Z"/>
        <path d="M102.5,78.9c-1.8,0-2.7-.6-2.7-1.9s1.8-3.8,5.5-6.2c1.3-.9,2.7-1.7,4-2.4,1.3-.7,2.7-1.4,4-1.9.1-.3.2-.7.4-1.1.2-.5.3-1,.5-1.6,0-.2.2-.7.4-1.2.2-.6.4-1.4.8-2.4-2.5,5-5.1,7.5-7.8,7.5s-3.3-1.4-3.3-4.3,1-5.3,3.1-8c2.2-2.9,4.6-4.3,7.1-4.3s2.6,1,2.6,3.1,0,1.1-.2,1.6c1.7-3.9,3.2-5.9,4.5-5.9s.7.2.7.6-.3.5-.9.6c-.8.1-1.4.4-1.7.7-.5.6-1.1,1.4-1.6,2.5-.5,1.1-1.1,2.5-1.5,4.2-.3,1.3-.7,2.5-1,3.7-.3,1.2-.6,2.5-.9,3.7,1.6-.5,3-1.4,4.3-2.6,1.2-1.2,2.3-2.6,3.1-4.3,0-.1.1-.2.2-.2s.1,0,.2.1c0,0,0,.2,0,.3-.4.9-1,1.8-1.8,2.8-.8,1-1.6,1.8-2.6,2.6-1,.8-2.1,1.3-3.3,1.7l-.7,2.9c-1.2,4.7-3.8,7.8-7.8,9.1-1.2.4-2.3.6-3.2.6ZM102.4,78.5c2.6,0,5.5-2.5,8.7-7.6.2-.3.4-.8.7-1.3s.6-1.1.9-1.8c.1-.2.2-.5.3-.9-2.5,1.1-4.7,2.3-6.6,3.6-1.9,1.3-3.6,2.7-5,4.2-.8.8-1.2,1.6-1.2,2.4s.7,1.4,2.2,1.4ZM107.7,67.2c1.5,0,3.1-1.2,4.8-3.7.7-.9,1.3-1.8,1.8-2.8.5-.9,1-1.9,1.4-2.8.3-.7.5-1.4.6-2.1.1-.7.2-1.3.2-2,0-1.6-.6-2.4-1.8-2.4h-.4c-1.1.2-2.2,1.2-3.6,3-1.2,1.5-2,2.9-2.5,4.2-.5,1.3-1,2.5-1.3,3.6-.3,1.1-.5,2.1-.5,3.1s.4,1.8,1.2,1.8Z"/>
        <path d="M125.8,68c-1.5,0-2.6-.6-3.4-1.9-.7-1.1-1.1-2.4-1.1-4,0-2.7.8-5.2,2.5-7.5,1.9-2.5,4.1-3.8,6.7-3.8s2.3.5,3.1,1.4c.7.9,1,2,1,3.4s0,1.2-.2,1.9-.3,1.3-.5,2c-.5,1.5-1.1,2.7-1.9,3.5v.2c.4.2.8.4,1.3.4,1,0,1.8-.3,2.5-1,.7-.6,1.4-1.8,2.3-3.5,0-.1,0-.2.2-.2s.1,0,.2.1c0,0,0,.2,0,.3-.7,1.5-1.5,2.6-2.3,3.4-.8.8-1.7,1.2-2.8,1.2s-1.2-.2-1.6-.6c-.3.6-.7,1.2-1.1,1.7-.4.5-.9,1-1.4,1.4-1.2,1-2.3,1.5-3.6,1.5ZM126.1,67.6c1.8,0,3.6-1.4,5.3-4.1,0-.1,0-.2.2-.3-.6-1-.9-2-.9-2.9v-.2c0-.1,0-.3,0-.5,0-.4.1-.8.2-1.1.1-.4.3-.8.5-1.1.5-.8,1.1-1.2,1.8-1.2h.5c.1,0,.2,0,.3,0h.2c0-3.1-1-4.6-2.9-4.6s-3.2,1-4.6,3c-1.2,1.6-2,3.3-2.5,5.2-.3,1.1-.5,2.2-.5,3.3,0,3,.8,4.5,2.5,4.5Z"/>
        <path d="M148.5,67.8c-1.2,0-2.1-.5-2.6-1.5-.5-1-.8-2.1-.8-3.4s.2-2.3.6-3.3c.5-1.3,1.2-2.5,2.1-3.8s2-2.4,3.3-3.3c1.3-.9,2.7-1.3,4.2-1.3s2.5,1,2.5,3-.2,2-.6,3.2l8.3-16.3h0c.1.1.4.2.7.2.7,0,1.6-.4,2.5-1.2h.1c0,.1-7.6,14.7-7.6,14.7-3,5.7-4.4,9.4-4.4,11.1s.4,1.4,1.1,1.4.9-.2,1.5-.5c.6-.3,1.2-.8,1.8-1.5.8-.9,1.5-1.9,2.1-2.7s1.3-2,2.1-3.5c0-.2.2-.3.3-.3.2,0,.2.2,0,.5-.6,1.2-1.3,2.3-2,3.4-.7,1.1-1.5,2.2-2.5,3.2-1.2,1.2-2.4,1.8-3.4,1.8s-1.6-.2-2.1-.7c-.6-.5-.8-1.3-.8-2.4s.2-2.3.6-3.6c-2.4,4.6-4.7,6.9-7.1,6.9ZM148.9,67.3c.9,0,2-.7,3.3-2,1.3-1.4,2.6-3.3,3.9-5.9.1-.3.3-.7.5-1.3s.4-1.3.6-2c.2-.7.3-1.4.3-2.1s-.1-1.2-.4-1.7c-.3-.4-.7-.7-1.4-.7s-1.3.2-2.1.7c-.7.5-1.5,1.2-2.3,2.3-1.3,1.7-2.2,3.4-2.8,5,0,.2-.2.6-.4,1.2-.2.6-.3,1.3-.5,2-.1.7-.2,1.4-.2,2.1s.1,1.2.3,1.6c.2.4.6.7,1.1.7Z"/>
        <path d="M169,68.1c-1.7,0-2.8-.5-3.5-1.4-.6-.9-1-2.2-1-3.9,0-2.4,1-5,3.1-7.6,2.2-2.8,4.4-4.2,6.8-4.2s2.6.6,2.6,1.8-.8,3-2.4,4.6c-2.3,2.3-4.7,3.5-7.2,3.5-.4,1.1-.6,2.1-.6,3.2s.2,2.1.7,2.7c.4.6,1.1,1,1.9,1s1.8-.2,2.7-.7c.9-.5,1.8-1.1,2.4-1.8s1.2-1.4,2-2.4c.7-1,1.5-2.2,2.2-3.7.1-.2.2-.3.3-.3.2,0,.2.2,0,.5-.6,1.2-1.2,2.3-1.9,3.3-.7,1.1-1.5,2.1-2.6,3.1-.6.6-1.5,1.2-2.4,1.7s-2,.7-3.2.7ZM167.5,60.4c1.9,0,4-1,6.3-3h0c.6-.6,1.3-1.3,1.8-2.3.7-1.1,1-2,1-2.7s-.4-.8-1.2-.8c-1.3,0-2.8,1.2-4.7,3.5-.9,1-1.5,2-2,2.9-.5.9-.9,1.7-1.2,2.5Z"/>
        <path d="M191.9,69.9c-1.9,0-2.9-.6-2.9-1.8s.6-1.2,1.8-1.2.8,0,1.3,0c.5,0,1.1.1,1.7.3.7.1,1.3.2,1.8.3.5,0,.9.1,1.3.1,7.3-4.8,10.9-11.9,10.9-21.5s-.7-4.9-2.1-6.8c-1.5-2-3.6-3.1-6.2-3.1s-5.5,1.2-7.9,3.5c-2.1,2.1-3.5,4.6-4.4,7.6-.1.4-.2.9-.3,1.4,0,.5,0,1,0,1.5,0,1.8.3,3.2,1,4.4.8,1.5,2,2.2,3.6,2.2s3.3-.8,4.6-2.3c1.3-1.5,1.9-3.1,1.9-4.9-.2-.3-.3-.5-.3-.8s.1-.4.3-.4c.3,0,.5.4.5,1.2,0,2.1-.7,3.9-2,5.4-1.4,1.6-3.1,2.3-5.1,2.3s-3.5-.8-4.7-2.5c-1.1-1.5-1.7-3.3-1.7-5.2,0-3.7,1.5-7,4.4-9.8,2.9-2.8,6.2-4.2,10-4.2h.7c.2,0,.4,0,.7.1,3.1.4,5.4,1.7,7.2,3.8,1.8,2.1,2.6,4.6,2.6,7.7s-.2,2.8-.5,4.2c-.3,1.5-.8,3-1.4,4.6-1.7,4.3-5.2,8.2-10.6,11.6.2,0,.4,0,.6-.1.2,0,.4,0,.6-.1,3.4-.9,6.3-2.4,8.9-4.6,1-.9,2.1-2,3.1-3.3,1.1-1.3,2.2-2.8,3.3-4.5,1.1-1.6,2.5-3.8,4.1-6.6,1-1.7,1.8-3.1,2.5-4.2.7-1.1,1.2-2,1.6-2.5,1.7-2.5,3.4-4.5,5-6,1.6-1.5,3.2-2.2,4.9-2.2s1.3.2,2,.5c.8.3,1.2.8,1.2,1.4s-.1.9-.4.9-.2,0-.2-.3,0-.2,0-.3v-.2c0-.4-.3-.7-.9-1-.4-.2-.9-.4-1.4-.4-1.2,0-2.5.6-3.9,1.9-.9.8-2,1.9-3.1,3.4-1.2,1.4-2.4,3.2-3.8,5.2l-7,10.4c-2.6,3.8-5.1,6.7-7.6,8.7-3.2,2.5-6.7,3.9-10.6,4.1-1.9,1.2-3.7,1.7-5.3,1.7ZM192.3,69.4c.5,0,1.1,0,1.8-.3.6-.2,1.3-.5,1.9-.9-.4,0-.9,0-1.3,0-.4,0-.9-.1-1.4-.2-1.1-.2-1.7-.3-1.9-.3-.5,0-.8.3-.8.8s.6.9,1.7.9Z"/>
        <path d="M221,68.1c-1.7,0-2.8-.5-3.5-1.4-.6-.9-1-2.2-1-3.9,0-2.4,1-5,3.1-7.6,2.2-2.8,4.4-4.2,6.8-4.2s2.6.6,2.6,1.8-.8,3-2.4,4.6c-2.3,2.3-4.7,3.5-7.2,3.5-.4,1.1-.6,2.1-.6,3.2s.2,2.1.7,2.7c.4.6,1.1,1,1.9,1s1.8-.2,2.7-.7c.9-.5,1.8-1.1,2.4-1.8.6-.6,1.2-1.4,2-2.4.7-1,1.5-2.2,2.2-3.7.1-.2.2-.3.3-.3.2,0,.2.2,0,.5-.6,1.2-1.2,2.3-1.9,3.3-.7,1.1-1.5,2.1-2.6,3.1-.6.6-1.5,1.2-2.4,1.7s-2,.7-3.2.7ZM219.5,60.4c1.9,0,4-1,6.3-3h0c.6-.6,1.3-1.3,1.8-2.3.7-1.1,1-2,1-2.7s-.4-.8-1.2-.8c-1.3,0-2.8,1.2-4.7,3.5-.9,1-1.5,2-2,2.9-.5.9-.9,1.7-1.2,2.5Z"/>
        <path d="M233.8,68.2c-3.4,0-5.1-1.6-5.1-4.9s.2-1.9.5-3h0c.2-.6.5-1.2,1-1.7.6-.7,1.1-1.1,1.6-1.1s.4,0,.7.1l.6-.9c.5-.7.9-1.4,1.3-2.2.4-.7.8-1.5,1.2-2.2,1.3-2.2,2.2-3.3,2.8-3.5.2,0,.4-.1.5-.1.5,0,.8.2.8.6s-.4.7-1.1.8c-.7.1-1.1.2-1.3.3-.3.2-.4.6-.4,1.3s.5,1.9,1.4,3.6c.9,1.7,1.4,3.1,1.4,4.4s0,.7,0,1c0,.3-.1.6-.2,1-.9,3.8-3.3,5.7-7.3,5.7.8.2,1.5.3,2.1.3,1.2,0,2.3-.2,3.5-.6,1.1-.4,2.2-1,3.1-1.8,1-.8,1.9-1.7,2.7-2.8.8-1.1,1.6-2.3,2.2-3.5.1-.2.2-.3.3-.3.2,0,.2.2,0,.5-.5,1-1.1,2-1.7,2.9-.6.9-1.2,1.7-1.9,2.4-.8.8-1.9,1.6-3.3,2.4-1.4.8-3.1,1.2-5.1,1.2ZM231.6,67.1c1.7,0,3.2-1.3,4.3-3.9.9-2,1.4-4.1,1.4-6.2s0-.6-.1-1.1c0-.5-.2-1-.4-1.7-.1-.6-.2-1.1-.3-1.6,0-.5,0-.9,0-1.2-.6,1.3-1.3,2.5-1.9,3.5-.6,1.1-1.3,2-1.8,2.8.2.3.3.5.3.8,0,.5-.2,1-.6,1.6-.2.3-.6.7-1.2,1s-1,.6-1.2.9c-.4.5-.6,1.3-.6,2.1,0,1.9.8,2.9,2.3,2.9Z"/>
        <path d="M246.4,67.7c-2.4,0-3.6-1.2-3.6-3.6s.7-4.2,2.1-7.1c0-.1.4-.7,1-1.8.6-1.1,1.4-2.6,2.6-4.6h-2.7c0-.1,0-.4,0-.4h0c0,0,2.9,0,2.9,0l3.7-6.4c.3.1.7.2,1.1.2s1-.2,1.5-.5c.6-.3,1-.6,1.2-1h.2c0,0-4.6,7.7-4.6,7.7h3.6v.4h-.1c0,.1-3.7.1-3.7.1l-3.5,6.1c-2.1,3.6-3.1,6.4-3.1,8.4s.5,2.1,1.6,2.1c1.7,0,3.4-.9,5.1-2.9.5-.5,1-1.3,1.7-2.3.6-1,1.2-2,1.6-2.9,0-.2.2-.2.3-.2s.1.2,0,.3c-.5,1-1,2-1.6,2.9-.6.9-1.2,1.8-1.9,2.5-1.8,1.9-3.6,2.9-5.4,2.9Z"/>
        <path d="M256.9,68.1c-2.2,0-3.4-1.2-3.4-3.7s.5-3.7,1.6-5.7l3.8-7.5h.2c.1.1.3.2.6.2.6,0,1.5-.4,2.5-1.2h.1c0,.1-4.3,8.5-4.3,8.5-1.8,3.5-2.7,5.9-2.7,7.2s.2,1,.5,1.3.7.4,1.2.4.9-.1,1.4-.3c.5-.2.9-.4,1.2-.7.9-.7,1.7-1.5,2.3-2.5.6-.9,1.2-1.9,1.7-2.8s.9-1.7,1.3-2.4c.1-.2.2-.2.3-.2.1,0,.1.2,0,.3-.7,1.4-1.4,2.9-2.2,4.4-.8,1.5-1.8,2.7-3.1,3.6-.4.3-.9.6-1.4.8-.5.2-1,.3-1.6.3ZM262.9,48.2c-1.1,0-1.6-.5-1.6-1.6s.5-1.7,1.6-1.7,1.6.5,1.6,1.6-.5,1.7-1.6,1.7Z"/>
        <path d="M259.8,68.8h-.1c1-1.8,1.9-3.5,2.8-5.3.9-1.8,1.8-3.6,2.8-5.5s.8-1.7,1.3-2.8c.5-1.1,1.1-2.4,1.8-3.9h.1c.2.2.5.3.8.3.7,0,1.5-.3,2.3-1h0c0-.1,0,0,0,0h0c-.2.5-.7,1.3-1.3,2.5-.6,1.2-1.4,2.7-2.4,4.6,2.8-4.4,5.1-6.6,7-6.6s1.9.6,1.9,1.8-.4,2.4-1.3,4.3c.7-1,1.3-1.8,1.8-2.4.5-.6.8-1.1,1.1-1.3,1.4-1.5,2.7-2.3,3.8-2.3s2.2.7,2.2,2.1-.3,2.1-.8,3.2c-.5,1.1-1.1,2.1-1.9,3.2s-1.4,2.1-1.9,3.2c-.3.5-.5,1.1-.7,1.7s-.3,1.1-.3,1.6.1.8.4,1.1.7.4,1.4.4.9,0,1.4-.3c.4-.2.8-.4,1.2-.6.9-.7,1.7-1.5,2.3-2.5.6-.9,1.2-1.9,1.7-2.8.5-.9.9-1.7,1.3-2.4.1-.2.2-.2.3-.2s.1.2,0,.3c-.7,1.4-1.4,2.9-2.2,4.4-.8,1.5-1.8,2.7-3.1,3.6-.4.3-.9.6-1.4.8-.5.2-1.1.3-1.7.3-1.2,0-2-.3-2.6-.8-.5-.5-.8-1.2-.8-2.1s.1-1.4.4-2.2c.2-.6.5-1.3.8-2,.3-.7.7-1.5,1.2-2.3,1.8-3,2.7-4.9,2.7-5.8s-.3-.9-.8-.9c-1.4,0-3.5,2.2-6.2,6.7-.9,1.4-1.7,2.8-2.4,4.2-.8,1.5-1.6,3-2.3,4.6h-.1c-.2,0-.5-.1-.7-.2-.2,0-.4,0-.6,0-1,0-1.6.4-1.8,1.1h-.2c1.3-2.3,2.3-4.1,3.1-5.4.7-1.3,1.2-2.2,1.5-2.6,2.2-4.1,3.3-6.8,3.3-7.9s-.2-.8-.6-.8c-1.4,0-3.5,2.3-6.3,6.8-1.8,3-3.5,6-4.9,9.1h-.1c-.4-.1-.8-.2-1.2-.2-.6,0-1.1.2-1.4.7-.3.4-.5.7-.6.7Z"/>
        <path d="M291.8,68.1c-1.7,0-2.8-.5-3.5-1.4-.6-.9-1-2.2-1-3.9,0-2.4,1-5,3.1-7.6,2.2-2.8,4.4-4.2,6.8-4.2s2.6.6,2.6,1.8-.8,3-2.4,4.6c-2.3,2.3-4.7,3.5-7.2,3.5-.4,1.1-.6,2.1-.6,3.2s.2,2.1.7,2.7c.4.6,1.1,1,1.9,1s1.8-.2,2.7-.7c.9-.5,1.8-1.1,2.4-1.8s1.2-1.4,2-2.4c.7-1,1.5-2.2,2.2-3.7.1-.2.2-.3.3-.3.2,0,.2.2,0,.5-.6,1.2-1.2,2.3-1.9,3.3-.7,1.1-1.5,2.1-2.6,3.1-.6.6-1.5,1.2-2.4,1.7s-2,.7-3.2.7ZM290.3,60.4c1.9,0,4-1,6.3-3h0c.6-.6,1.3-1.3,1.8-2.3.7-1.1,1-2,1-2.7s-.4-.8-1.2-.8c-1.3,0-2.8,1.2-4.7,3.5-.9,1-1.5,2-2,2.9-.5.9-.9,1.7-1.2,2.5Z"/>
        <path d="M297.2,69.3h0c1.2-2.7,2.8-6.4,4.7-11.1.3-.8.7-1.7,1.1-2.9.4-1.2.9-2.5,1.4-4h.1c.3.3.6.4.9.4.8,0,1.6-.7,2.4-2.2h0c0,.1-.7,1.9-2.2,5.5-.8,1.9-1.4,3.4-1.8,4.4-.4,1-.6,1.6-.7,1.7,3.9-7,7-10.4,9.3-10.4s1,.2,1.4.5c.4.3.6.8.6,1.3,0,1.4-1,3.8-2.9,7-1.9,3.3-2.9,5.5-2.9,6.7s.2.8.5,1c.3.2.7.4,1.2.4s1-.1,1.5-.3c.5-.2.9-.4,1.3-.7.9-.7,1.7-1.5,2.3-2.5.6-.9,1.2-1.9,1.7-2.8s.9-1.7,1.3-2.4c.1-.2.2-.2.3-.2s.1.2,0,.3c-.7,1.4-1.4,2.9-2.2,4.4-.8,1.5-1.8,2.7-3.1,3.6-.4.3-.9.6-1.5.8-.5.2-1.1.3-1.7.3-.9,0-1.7-.3-2.3-.8-.6-.5-.9-1.3-.9-2.3,0-1.8.8-4.1,2.5-6.9,1.7-2.8,2.6-4.6,2.6-5.4s-.3-.9-1-.9h-.3c-.7,0-1.8.9-3.1,2.6-1.3,1.7-2.8,4.2-4.7,7.6-.4.7-.9,1.6-1.3,2.6-.5,1-.9,2-1.4,3.2h-.1c-.4-.2-.8-.3-1.1-.3-.4,0-.8.3-1.1.8-.3.6-.5.9-.8,1Z"/>
        <path d="M320.2,67.7c-2.4,0-3.6-1.2-3.6-3.6s.7-4.2,2.1-7.1c0-.1.4-.7,1-1.8.6-1.1,1.4-2.6,2.6-4.6h-2.7c0-.1,0-.4,0-.4h0c0,0,2.9,0,2.9,0l3.7-6.4c.3.1.7.2,1.1.2s1-.2,1.5-.5c.6-.3,1-.6,1.2-1h.2c0,0-4.6,7.7-4.6,7.7h3.6v.4h-.1c0,.1-3.7.1-3.7.1l-3.5,6.1c-2.1,3.6-3.1,6.4-3.1,8.4s.5,2.1,1.6,2.1c1.7,0,3.4-.9,5.1-2.9.5-.5,1-1.3,1.7-2.3.6-1,1.2-2,1.6-2.9,0-.2.2-.2.3-.2s.1.2,0,.3c-.5,1-1,2-1.6,2.9-.6.9-1.2,1.8-1.9,2.5-1.8,1.9-3.6,2.9-5.4,2.9Z"/>
        <path d="M340.5,67.7c-1.8,0-2.6-1.2-2.6-3.7s.2-2,.5-3.3c-2.4,4.6-4.7,6.9-7.1,6.9s-2-.6-2.5-1.7c-.5-.8-.7-1.9-.7-3.2s.2-2.2.5-3.3c.6-2,1.8-3.9,3.7-5.6,2.1-1.9,4-2.9,5.9-2.9s2.5,1,2.5,3.1-.2,1.9-.6,3.1l3.1-6.1h.2c.1.2.3.3.7.3.7,0,1.5-.4,2.6-1.2h.1c0,.1-4.3,8.5-4.3,8.5-1.7,3.4-2.6,5.9-2.6,7.6s.3,1,.9,1,.9-.2,1.5-.5,1.2-.8,1.8-1.5c.8-.9,1.5-1.9,2.1-2.7.6-.9,1.3-2,2.1-3.5.1-.2.2-.3.3-.3.2,0,.2.2,0,.5-.6,1.2-1.3,2.3-2,3.4-.7,1.1-1.5,2.2-2.5,3.2-1.2,1.2-2.4,1.8-3.4,1.8ZM331.5,67.3c1.9,0,4.3-2.7,7.3-8,.9-1.7,1.4-3.4,1.4-5.1s-.6-2.7-1.8-2.7-2.7,1.1-4.4,3.2c-.6.9-1.2,1.7-1.7,2.6-.5.8-.8,1.7-1.1,2.4-.7,2-1.1,3.9-1.1,5.5s.4,2.2,1.2,2.2Z"/>
      </g>
      <g>
        <path d="M154.2,91c-.2-.7-.3-1.1-.5-1.8-.8-2-1.5-2.4-4.4-2.4h-4c-1.1,0-1.2.1-1.2,1.2v9.4h5.1c2.9,0,3.1-.3,3.7-3.1h.5v7.3h-.5c-.6-2.8-.9-3.1-3.8-3.1h-5v8.2c0,3.1.2,3.5,3.7,4v.5h-9.9v-.5c3.1-.4,3.4-.8,3.4-4v-16.6c0-3.2-.3-3.5-3.4-4v-.5h11.5c3.6,0,4.7,0,5.1,0,0,1,0,3.8.2,5.2h-.5Z"/>
        <path d="M164.7,94.4c4.7,0,7.9,3.8,7.9,8.3s-4.3,9-7.9,9-8-4.1-8-8.3c0-6.1,4.8-9,8.1-9ZM164.3,95.2c-2.7,0-4.6,2.9-4.6,6.9s2.3,8.6,5.6,8.6,4.5-1.8,4.5-7.4-1.8-8.2-5.4-8.2Z"/>
        <path d="M183,111.2h-8v-.5c2.3-.4,2.4-.5,2.4-3.4v-7.9c0-2.5,0-2.7-2-3.2v-.4c1.8-.4,3.2-.9,4.7-1.6,0,.7,0,2.8-.1,4.2.9-1.6,2.9-4.1,4.7-4.1s1.9.8,1.9,1.5-.4,1.4-1,1.8c-.4.3-.7.2-.9,0-.6-.6-1.1-1-1.8-1s-2,.9-3,2.8v7.8c0,2.8.2,3,3,3.4v.5Z"/>
        <path d="M207.8,111.2v-.5c2.5-.4,2.5-.6,2.5-3.8v-6.1c0-2.5-.6-4.6-3.4-4.6s-2.7.6-4.1,1.9c0,.4.1.8.1,1.7v7.5c0,2.7.2,2.9,2.3,3.3v.5h-7.4v-.5c2.3-.4,2.5-.7,2.5-3.3v-6.6c0-2.9-.8-4.6-3.4-4.6s-2.8.8-4,1.9v9.1c0,2.7,0,3.1,2.5,3.4v.5h-7.6v-.5c2.5-.3,2.6-.7,2.6-3.4v-7.9c0-2.6-.2-2.7-2-3.2v-.4c1.7-.3,2.9-.8,4.6-1.6,0,1.4,0,2.5,0,3.1.7-.5,1.6-1.2,2.5-1.8,1.1-.7,2-1.1,3.1-1.1,1.7,0,3.2.8,4,3.1,1.1-.8,2.3-1.7,3.2-2.2.9-.6,1.7-.9,2.6-.9,2.7,0,4.4,2.2,4.4,5.7v7.1c0,3.1.2,3.2,2.3,3.6v.5h-7.3Z"/>
        <path d="M228.7,111.7c-.5,0-1.2-.2-1.8-.8-.4-.4-.7-.8-.9-1.8-1.4,1-3.4,2.5-4.3,2.5-2.6,0-4.3-2.2-4.3-4.3s.9-2.8,2.8-3.4c2.1-.7,4.9-1.6,5.9-2.3v-1.2c0-2.8-1.4-4.7-3.5-4.7s-1.3.2-1.7.7-.8,1.5-1.1,2.5c-.2.5-.6.6-.7.6-.5,0-1.4-.6-1.4-1.4s.3-.6.9-1.1c1-.8,3.8-2.3,5.4-2.7,1,0,2.1.4,2.9.9,1.3,1.2,1.7,2.5,1.7,4.8v7c0,1.9.6,2.5,1.4,2.5s.9-.1,1.2-.4l.2.5-2.7,2ZM226.1,102.4c-.7.4-2.7,1.2-3.8,1.7-1.3.6-2.2,1.3-2.2,2.7s1.5,2.9,2.9,2.9,2.2-.4,3.1-1.3c0-1.9,0-4,0-6.1Z"/>
        <path d="M232.5,111.2v-.5c2.3-.4,2.6-.5,2.6-3.4v-18.8c0-3.1-.2-3.4-2.5-3.7v-.5c1.7-.2,4.1-.8,5.1-1.3,0,1-.1,2.8-.1,5.4v18.9c0,2.8.2,3.1,2.5,3.4v.5h-7.6Z"/>
      </g>
    </g>
    <g>
      <path d="M95.6,449.6c-.4,0-.8,0-1.2,0-2.7-.2-4-.8-5.4-2.8-1.2-1.7-2.4-3.8-3.5-5.5-.6-1-1.1-1.2-2.6-1.2h-1.1s0,5.1,0,5.1c0,2.8.4,3,3,3.2v1h-9.1v-1c2.7-.3,3-.4,3-3.2v-13.1c0-2.8-.4-2.9-3-3.2v-1h8.7c2.5,0,4.2.3,5.4,1.2,1.4.9,2.2,2.4,2.2,4.4,0,2.9-1.8,4.6-4.3,5.6.6,1,2,3.2,3,4.7,1.2,1.8,1.9,2.6,2.6,3.4.9.9,1.6,1.3,2.4,1.5l-.2,1ZM83.2,438.8c1.7,0,2.8-.3,3.6-.9,1.3-1,1.8-2.3,1.8-4,0-3.5-2.3-4.8-4.7-4.8s-1.5.1-1.7.3c-.3.2-.4.6-.4,1.4v8.1h1.5Z"/>
      <path d="M108.9,446.4c-2.1,2.7-4.5,3.3-5.6,3.3-4.1,0-6.6-3.3-6.6-7.2s.8-4.4,2.2-5.8c1.4-1.5,3.2-2.4,5-2.4,3,0,5.2,2.5,5.1,5.2,0,.6-.1,1-.6,1.1-.7.1-5,.4-8.8.6,0,4.3,2.5,6.1,4.9,6.1s2.6-.5,3.8-1.7l.5.8ZM103.1,435.6c-1.5,0-2.9,1.4-3.3,4.1,1.8,0,3.5,0,5.4,0,.6,0,.8-.2.8-.7,0-1.7-1.1-3.4-2.8-3.4Z"/>
      <path d="M119.8,438.8c-.6-2-1.6-3.3-3.5-3.3s-2,.8-2,2.1.9,2,2.8,2.9c2.8,1.3,4.3,2.3,4.3,4.6s-2.9,4.7-5.5,4.7-3.3-.6-4-.9c-.2-.9-.5-2.8-.6-3.9l1-.2c.6,2.1,1.8,3.9,4.1,3.9s2.2-.8,2.2-2.2-.8-2.2-2.6-3.1c-2.3-1.1-4.2-2.2-4.2-4.6s2.1-4.4,5.3-4.4,2.6.3,3.3.4c.1.8.3,2.9.5,3.7l-1,.2Z"/>
      <path d="M136,446.4c-2.1,2.7-4.5,3.3-5.6,3.3-4.1,0-6.6-3.3-6.6-7.2s.8-4.4,2.2-5.8c1.4-1.5,3.2-2.4,5-2.4,3,0,5.2,2.5,5.1,5.2,0,.6-.1,1-.6,1.1-.7.1-5,.4-8.8.6,0,4.3,2.5,6.1,4.9,6.1s2.6-.5,3.8-1.7l.5.8ZM130.3,435.6c-1.5,0-2.9,1.4-3.3,4.1,1.8,0,3.5,0,5.4,0,.6,0,.8-.2.8-.7,0-1.7-1.1-3.4-2.8-3.4Z"/>
      <path d="M146,449.3h-7.8v-1c2-.2,2.2-.4,2.2-2.5v-7c0-2.1-.1-2.2-2-2.5v-.9c1.7-.3,3.3-.7,4.9-1.3v3.6c1.2-1.8,2.6-3.5,4.2-3.5s2,.8,2,1.7-.6,1.7-1.2,2c-.4.2-.6.1-.9,0-.5-.5-.9-.9-1.5-.9s-1.8.9-2.5,2.5v6.2c0,2.2.2,2.3,2.7,2.5v1Z"/>
      <path d="M166.8,435.7c-1.8.2-2,.5-2.9,2.4-1.1,2.7-3,7-4.7,11.6h-1c-1.4-3.9-3-7.8-4.6-11.7-.7-1.8-1-2.1-2.7-2.3v-.9h7v.9c-1.8.2-1.9.5-1.3,1.8.8,2.3,2.2,5.7,3,7.9,1.1-2.7,2.2-5.4,2.9-7.6.5-1.5.4-1.9-1.7-2.2v-.9h6.1v.9Z"/>
      <path d="M178.3,449.7c-.6,0-1.3-.3-1.6-.6-.4-.4-.6-.9-.8-1.4-1.3.9-2.9,2.1-3.9,2.1-2.4,0-4.1-2-4.1-4.1s.9-2.7,2.7-3.3c2-.7,4.5-1.6,5.3-2.2v-.8c0-2.2-1.1-3.5-2.8-3.5s-1.2.3-1.5.7c-.4.5-.6,1.2-.9,2.2-.2.6-.5.8-1,.8s-1.5-.7-1.5-1.5.4-.9,1.1-1.4c1.1-.8,3-1.9,4.9-2.3,1.1,0,2.1.3,2.9.9,1.2,1,1.7,2.2,1.7,3.9v6.3c0,1.5.6,2,1.1,2s.8-.2,1.2-.3l.3,1-3,1.7ZM175.8,441.4c-.7.4-2.1,1-2.9,1.3-1.2.6-2,1.2-2,2.4,0,1.8,1.3,2.5,2.3,2.5s1.9-.4,2.5-1.1v-5.2Z"/>
      <path d="M190.5,449.3h-7.8v-1c2-.2,2.2-.4,2.2-2.5v-7c0-2.1-.1-2.2-2-2.5v-.9c1.7-.3,3.3-.7,4.9-1.3v3.6c1.2-1.8,2.6-3.5,4.2-3.5s2,.8,2,1.7-.6,1.7-1.2,2c-.4.2-.6.1-.9,0-.5-.5-.9-.9-1.5-.9s-1.8.9-2.5,2.5v6.2c0,2.2.2,2.3,2.7,2.5v1Z"/>
      <path d="M215.2,446.4c-2.1,2.7-4.5,3.3-5.6,3.3-4.1,0-6.6-3.3-6.6-7.2s.8-4.4,2.2-5.8c1.4-1.5,3.2-2.4,5-2.4,3,0,5.2,2.5,5.1,5.2,0,.6-.1,1-.6,1.1-.7.1-5,.4-8.8.6,0,4.3,2.5,6.1,4.9,6.1s2.6-.5,3.8-1.7l.5.8ZM209.4,435.6c-1.5,0-2.9,1.4-3.3,4.1,1.8,0,3.5,0,5.4,0,.6,0,.8-.2.8-.7,0-1.7-1.1-3.4-2.8-3.4Z"/>
      <path d="M216.8,449.3v-1c2.1-.2,2.3-.4,2.3-2.6v-15.7c0-2-.2-2.2-2.2-2.5v-.9c1.9-.2,4-.7,5.1-1.1v20.2c0,2.2.2,2.3,2.3,2.6v1h-7.5Z"/>
      <path d="M246.4,446.3c-1.5,2-3.7,3.4-5.7,3.4-4.3,0-6.8-3.4-6.8-7s1.2-4.8,3.4-6.5c1.8-1.4,3.8-1.9,5.2-1.9s2.5.4,3.1.9c.5.4.5.6.5,1,0,.8-.9,1.6-1.2,1.6s-.3,0-.6-.3c-1.1-1-2.2-1.5-3.4-1.5-2,0-3.9,1.8-3.9,5.2,0,4.6,3.1,6.1,5,6.1s2.5-.4,4-1.7l.6.7Z"/>
      <path d="M255.6,434.3c4.2,0,7.3,3.2,7.3,7.4s-4,7.9-7.3,7.9-7.5-3.7-7.5-7.4c0-5.3,4.2-7.9,7.5-7.9ZM255.2,435.5c-1.9,0-3.7,1.9-3.7,5.8s1.8,7.3,4.4,7.3,3.6-1.4,3.6-6-1.5-7.1-4.3-7.1Z"/>
      <path d="M264.8,449.3v-1c2.1-.2,2.3-.4,2.3-2.6v-15.7c0-2-.2-2.2-2.2-2.5v-.9c1.9-.2,4-.7,5.1-1.1v20.2c0,2.2.2,2.3,2.3,2.6v1h-7.5Z"/>
      <path d="M281.6,434.3c4.2,0,7.3,3.2,7.3,7.4s-4,7.9-7.3,7.9-7.5-3.7-7.5-7.4c0-5.3,4.2-7.9,7.5-7.9ZM281.2,435.5c-1.9,0-3.7,1.9-3.7,5.8s1.8,7.3,4.4,7.3,3.6-1.4,3.6-6-1.5-7.1-4.3-7.1Z"/>
      <path d="M298.9,449.3h-7.8v-1c2-.2,2.2-.4,2.2-2.5v-7c0-2.1-.1-2.2-2-2.5v-.9c1.7-.3,3.3-.7,4.9-1.3v3.6c1.2-1.8,2.6-3.5,4.2-3.5s2,.8,2,1.7-.6,1.7-1.2,2c-.4.2-.6.1-.9,0-.5-.5-.9-.9-1.5-.9s-1.8.9-2.5,2.5v6.2c0,2.2.2,2.3,2.7,2.5v1Z"/>
      <path d="M154.6,470.1c3.2.5,5.8,2.1,5.8,5.3s-1.3,4-3.2,5.1c-1.7,1-3.5,1.3-5.8,1.3h-8.4v-1c2.8-.3,3-.5,3-3.2v-13.2c0-2.8-.3-3-2.9-3.2v-1h8.9c2.5,0,4.1.4,5.2,1.2,1.2.8,2,2,2,3.7,0,3.1-2.6,4.5-4.5,5ZM150.7,469.7c3.6,0,5-1.4,5-4.1s-1.5-4.1-4.5-4.1-1.5,0-1.8.3c-.3.2-.4.6-.4,1.6v6.3h1.6ZM149.1,477.6c0,2.4.7,3,2.9,3,2.5,0,4.8-1.4,4.8-4.8s-2.3-4.8-6.2-4.8h-1.5v6.7Z"/>
      <path d="M162.2,481.8v-1c2.1-.2,2.3-.4,2.3-2.6v-15.7c0-2-.2-2.2-2.2-2.5v-.9c1.9-.2,4-.7,5.1-1.1v20.2c0,2.2.2,2.3,2.3,2.6v1h-7.5Z"/>
      <path d="M182.1,482.2c-.6,0-1.3-.3-1.6-.6-.4-.4-.6-.9-.8-1.4-1.3.9-2.9,2.1-3.9,2.1-2.4,0-4.1-2-4.1-4.1s.9-2.7,2.7-3.3c2-.7,4.5-1.6,5.3-2.2v-.8c0-2.2-1.1-3.5-2.8-3.5s-1.2.3-1.5.7c-.4.5-.6,1.2-.9,2.2-.2.6-.5.8-1,.8s-1.5-.7-1.5-1.5.4-.9,1.1-1.4c1.1-.8,3-1.9,4.9-2.3,1.1,0,2.1.3,2.9.9,1.2,1,1.7,2.2,1.7,3.9v6.3c0,1.5.6,2,1.1,2s.8-.2,1.2-.3l.3,1-3,1.7ZM179.6,473.8c-.7.4-2.1,1-2.9,1.3-1.2.6-2,1.2-2,2.4,0,1.8,1.3,2.5,2.3,2.5s1.9-.4,2.5-1.1v-5.2Z"/>
      <path d="M196,481.8v-1c1.8-.2,2-.4,2-2.7v-5.5c0-2.3-.9-3.7-2.9-3.7s-2.5.7-3.5,1.6v7.8c0,2.2.2,2.3,2,2.5v1h-7.3v-1c2.1-.2,2.3-.4,2.3-2.5v-6.8c0-2.1-.2-2.2-2-2.5v-.9c1.7-.3,3.4-.7,4.9-1.3,0,.7,0,1.8,0,2.6.7-.5,1.4-1,2.2-1.5.9-.6,1.8-1,2.7-1,2.7,0,4.3,2,4.3,5.2v6.3c0,2.2.2,2.3,2.1,2.5v1h-7Z"/>
      <path d="M217.4,478.8c-1.5,2-3.7,3.4-5.7,3.4-4.3,0-6.8-3.4-6.8-7s1.2-4.8,3.4-6.5c1.8-1.4,3.8-1.9,5.2-1.9s2.5.4,3.1.9c.5.4.5.6.5,1,0,.8-.9,1.6-1.2,1.6s-.3,0-.6-.3c-1.1-1-2.2-1.5-3.4-1.5-2,0-3.9,1.8-3.9,5.2,0,4.6,3.1,6.1,5,6.1s2.5-.4,4-1.7l.6.7Z"/>
      <path d="M226.7,466.8c4.2,0,7.3,3.2,7.3,7.4s-4,7.9-7.3,7.9-7.5-3.7-7.5-7.4c0-5.3,4.2-7.9,7.5-7.9ZM226.3,468c-1.9,0-3.7,1.9-3.7,5.8s1.8,7.3,4.4,7.3,3.6-1.4,3.6-6-1.5-7.1-4.3-7.1Z"/>
      <path d="M110.6,490.3c2.4,0,4.3.4,5.7,1.4,1.4,1,2.3,2.6,2.3,4.8,0,4.8-4.1,6.8-7.4,6.8-.4,0-.7,0-.9,0l-2.2-.6v5.1c0,2.8.2,2.9,3.3,3.2v1h-9.4v-1c2.8-.3,3-.5,3-3.2v-13.1c0-2.9-.4-3-3-3.3v-1h8.7ZM108.1,501.5c.4.2,1.3.4,2.3.4,2.1,0,4.8-1.1,4.8-5.3s-2.3-5.1-5-5.1-1.6.2-1.8.4c-.3.2-.4.6-.4,1.4v8.1Z"/>
      <path d="M130.9,512.3c-.6,0-1.3-.3-1.6-.6-.4-.4-.6-.9-.8-1.4-1.3.9-2.9,2.1-3.9,2.1-2.4,0-4.1-2-4.1-4.1s.9-2.7,2.7-3.3c2-.7,4.5-1.6,5.3-2.2v-.8c0-2.2-1.1-3.5-2.8-3.5s-1.2.3-1.5.7c-.4.5-.6,1.2-.9,2.2-.2.6-.5.8-1,.8s-1.5-.7-1.5-1.5.4-.9,1.1-1.4c1.1-.8,3-1.9,4.9-2.3,1.1,0,2.1.3,2.9.9,1.2,1,1.7,2.2,1.7,3.9v6.3c0,1.5.6,2,1.1,2s.8-.2,1.2-.3l.3,1-3,1.7ZM128.4,503.9c-.7.4-2.1,1-2.9,1.3-1.2.6-2,1.2-2,2.4,0,1.8,1.3,2.5,2.3,2.5s1.9-.4,2.5-1.1v-5.2Z"/>
      <path d="M143.1,511.9h-7.8v-1c2-.2,2.2-.4,2.2-2.5v-7c0-2.1-.1-2.2-2-2.5v-.9c1.7-.3,3.3-.7,4.9-1.3v3.6c1.2-1.8,2.6-3.5,4.2-3.5s2,.8,2,1.7-.6,1.7-1.2,2c-.4.2-.6.1-.9,0-.5-.5-.9-.9-1.5-.9s-1.8.9-2.5,2.5v6.2c0,2.2.2,2.3,2.7,2.5v1Z"/>
      <path d="M158.5,512.3c-.6,0-1.3-.3-1.6-.6-.4-.4-.6-.9-.8-1.4-1.3.9-2.9,2.1-3.9,2.1-2.4,0-4.1-2-4.1-4.1s.9-2.7,2.7-3.3c2-.7,4.5-1.6,5.3-2.2v-.8c0-2.2-1.1-3.5-2.8-3.5s-1.2.3-1.5.7c-.4.5-.6,1.2-.9,2.2-.2.6-.5.8-1,.8s-1.5-.7-1.5-1.5.4-.9,1.1-1.4c1.1-.8,3-1.9,4.9-2.3,1.1,0,2.1.3,2.9.9,1.2,1,1.7,2.2,1.7,3.9v6.3c0,1.5.6,2,1.1,2s.8-.2,1.2-.3l.3,1-3,1.7ZM156,503.9c-.7.4-2.1,1-2.9,1.3-1.2.6-2,1.2-2,2.4,0,1.8,1.3,2.5,2.3,2.5s1.9-.4,2.5-1.1v-5.2Z"/>
      <path d="M170,511.9v-1c2.1-.2,2.3-.4,2.3-2.6v-15.7c0-2-.2-2.2-2.2-2.5v-.9c1.9-.2,4-.7,5.1-1.1v20.2c0,2.2.2,2.3,2.3,2.6v1h-7.5Z"/>
      <path d="M189.9,512.3c-.6,0-1.3-.3-1.6-.6-.4-.4-.6-.9-.8-1.4-1.3.9-2.9,2.1-3.9,2.1-2.4,0-4.1-2-4.1-4.1s.9-2.7,2.7-3.3c2-.7,4.5-1.6,5.3-2.2v-.8c0-2.2-1.1-3.5-2.8-3.5s-1.2.3-1.5.7c-.4.5-.6,1.2-.9,2.2-.2.6-.5.8-1,.8s-1.5-.7-1.5-1.5.4-.9,1.1-1.4c1.1-.8,3-1.9,4.9-2.3,1.1,0,2.1.3,2.9.9,1.2,1,1.7,2.2,1.7,3.9v6.3c0,1.5.6,2,1.1,2s.8-.2,1.2-.3l.3,1-3,1.7ZM187.4,503.9c-.7.4-2.1,1-2.9,1.3-1.2.6-2,1.2-2,2.4,0,1.8,1.3,2.5,2.3,2.5s1.9-.4,2.5-1.1v-5.2Z"/>
      <path d="M211.4,511.9v-1c1.8-.2,2-.4,2-2.7v-5.5c0-2.3-.9-3.7-2.9-3.7s-2.5.7-3.5,1.6v7.8c0,2.2.2,2.3,2,2.5v1h-7.3v-1c2.1-.2,2.3-.4,2.3-2.5v-6.8c0-2.1-.2-2.2-2-2.5v-.9c1.7-.3,3.4-.7,4.9-1.3,0,.7,0,1.8,0,2.6.7-.5,1.4-1,2.2-1.5.9-.6,1.8-1,2.7-1,2.7,0,4.3,2,4.3,5.2v6.3c0,2.2.2,2.3,2.1,2.5v1h-7Z"/>
      <path d="M227.9,496.9c4.2,0,7.3,3.2,7.3,7.4s-4,7.9-7.3,7.9-7.5-3.7-7.5-7.4c0-5.3,4.2-7.9,7.5-7.9ZM227.5,498.1c-1.9,0-3.7,1.9-3.7,5.8s1.8,7.3,4.4,7.3,3.6-1.4,3.6-6-1.5-7.1-4.3-7.1Z"/>
      <path d="M252.1,498.2c-1.8.2-2,.5-2.9,2.4-1.1,2.7-3,7-4.7,11.6h-1c-1.4-3.9-3-7.8-4.6-11.7-.7-1.8-1-2.1-2.7-2.3v-.9h7v.9c-1.8.2-1.9.5-1.3,1.8.8,2.3,2.2,5.7,3,7.9,1.1-2.7,2.2-5.4,2.9-7.6.5-1.5.4-1.9-1.7-2.2v-.9h6.1v.9Z"/>
      <path d="M253.2,511.9v-1c2-.2,2.3-.4,2.3-2.6v-6.8c0-2.1-.1-2.2-2-2.5v-.8c1.8-.3,3.4-.7,4.9-1.3v11.4c0,2.3.2,2.4,2.3,2.6v1h-7.5ZM256.8,493.8c-1,0-1.9-.9-1.9-1.9s.9-1.9,1.9-1.9,1.8.8,1.8,1.9-.8,1.9-1.8,1.9Z"/>
      <path d="M273,512.3c-.6,0-1.3-.3-1.6-.6-.4-.4-.6-.9-.8-1.4-1.3.9-2.9,2.1-3.9,2.1-2.4,0-4.1-2-4.1-4.1s.9-2.7,2.7-3.3c2-.7,4.5-1.6,5.3-2.2v-.8c0-2.2-1.1-3.5-2.8-3.5s-1.2.3-1.5.7c-.4.5-.6,1.2-.9,2.2-.2.6-.5.8-1,.8s-1.5-.7-1.5-1.5.4-.9,1.1-1.4c1.1-.8,3-1.9,4.9-2.3,1.1,0,2.1.3,2.9.9,1.2,1,1.7,2.2,1.7,3.9v6.3c0,1.5.6,2,1.1,2s.8-.2,1.2-.3l.3,1-3,1.7ZM270.5,503.9c-.7.4-2.1,1-2.9,1.3-1.2.6-2,1.2-2,2.4,0,1.8,1.3,2.5,2.3,2.5s1.9-.4,2.5-1.1v-5.2Z"/>
    </g>
    <g>
      <path d="M247.4,269.2l21-94.7c1.8-.4,1.6,1.4,2.9,2.6,6.4,6.1,21.8,7.7,30.3,10.3,9.3,2.8,7.9,7.6,8.8,16.5,1.4,13.2,1.6,26.6,2.9,39.8,3.2,33.9,7.4,67.7,10.5,101.6-.4.6-13,2.6-14.6,2.6-3.4,0-3.7-1.6-4.4-4.6-5.4-23.6-6.7-50.1-12-74.1-.3-1.4,0-4.1-1.9-3.5l-4.4,17.7c2.8,17.5,10.1,35.8,12.8,53,.3,2,1.1,7.4,1,9.2-.2,3.5-2.9,5.1-6.2,5.5-7.1.9-22.3.5-28.8-2.4-8.8-4-10.7-10.8-17.5-16.4-6.9,7.2-9.3,13.8-19.6,17.3s-19,2.1-25.4,1.5c-9.1-.9-7.1-7.7-5.9-14.7,2.9-17.6,10-35.9,12.8-53.8-.9-5-2.2-10.7-4.2-15.4-.4-.9-.4-2.1-1.6-2.3l-13.7,82c-1.9,2.6-14.7-1.8-18.1-1,3.2-31.7,7.1-63.4,10.1-95.1,1.7-17.5,1.5-37.9,4.4-54.9,1.1-6.2,2.3-6.8,8-8.6,8.2-2.5,22.3-4,29.1-9.2s2.6-4.5,3.6-2.9l19.9,94Z"/>
      <path d="M122.3,165.8c1.3,1.5-4.4,28.7-4.4,33.6,0,7.6,4.3,16.4,5.7,24.1,5.9,32-11,63.9,9.7,93.7l19.4,30.9c-7.8.3-15.7-.5-23.5,0s-19.5,4.3-26.8,4.3c-5.7,0-14.3-3.8-21-4.3-8.8-.7-18.3.5-27.1,0,11.6-19.5,26.5-36.6,30.2-59.9,2.9-18.6-3.3-36.3-2-55.5.6-8.9,3.7-16,5.5-24.2,3.2-14.8-2.4-28.1-3.3-42.7l9.2,6.3c6.7,2.9,12.6,3.2,19.2.1l9.1-6.4Z"/>
      <path d="M235.6,168.1c5.2-1.7,8.3,8.4,15.4,5.3s6.2-7.4,10.1-5.1c2.1,1.3,2,13.3.7,15.1-3,4.2-8.3-3.2-10.8-4.3-7.4-3-11,8-15.9,5-2.3-1.4-2.8-15.1.5-16.2Z"/>
    </g>
  </g>
</svg>